<?xml version="1.0" encoding="utf-8"?>
<!-- Generated by IcoMoon.io -->
<!DOCTYPE svg PUBLIC "-//W3C//DTD SVG 1.1//EN" "http://www.w3.org/Graphics/SVG/1.1/DTD/svg11.dtd">
<svg version="1.1" xmlns="http://www.w3.org/2000/svg" xmlns:xlink="http://www.w3.org/1999/xlink" width="16" height="16" viewBox="0 0 16 16">
<path fill="#000000" d="M15.976 6.345c-0.067-0.206-0.259-0.346-0.476-0.346l-5.367-0-1.658-5.080c-0.067-0.206-0.259-0.345-0.475-0.345s-0.408 0.139-0.475 0.345l-1.658 5.080-5.367 0c-0.217 0-0.409 0.14-0.476 0.346s0.007 0.432 0.183 0.559l4.34 3.139-1.657 5.079c-0.067 0.206 0.006 0.432 0.181 0.559s0.412 0.128 0.588 0.001l4.342-3.141 4.342 3.141c0.087 0.063 0.19 0.095 0.293 0.095s0.207-0.032 0.295-0.096c0.175-0.128 0.248-0.353 0.181-0.559l-1.657-5.079 4.34-3.139c0.176-0.127 0.249-0.353 0.183-0.559z"></path>
</svg>
