<svg id="Layer_1" data-name="Layer 1" xmlns="http://www.w3.org/2000/svg" viewBox="0 0 125.43 78.39"><defs><style>.cls-1{fill:#fff;}.cls-2{fill:#c5c7c9;}.cls-3{fill:#231f20;}.cls-4{fill:#a6a8ab;}.cls-5{fill:#ffc10e;}.cls-6{fill:#a30046;}</style></defs><title>payment-icons</title><path class="cls-1" d="M34.54,22.58a13.82,13.82,0,0,0,0,27.64H92.15a13.82,13.82,0,0,0,0-27.64H34.54Z"/><path class="cls-2" d="M92.15,51.39H34.54a15,15,0,1,1,0-30H92.15a15,15,0,0,1,0,30M34.54,22.58a13.82,13.82,0,0,0,0,27.64H92.15a13.82,13.82,0,0,0,0-27.64H34.54Z"/><path class="cls-3" d="M85.24,28a4,4,0,1,0,4.05,4.05A4.05,4.05,0,0,0,85.24,28m0,6.13a2.08,2.08,0,1,1,2.08-2.08,2.08,2.08,0,0,1-2.08,2.08"/><path class="cls-3" d="M66.66,28a4,4,0,1,0,4.05,4.05A4.05,4.05,0,0,0,66.66,28m0,6.13a2.08,2.08,0,1,1,2.08-2.08,2.08,2.08,0,0,1-2.08,2.08"/><path class="cls-3" d="M80.92,34.24a4,4,0,0,1-.8.15c-0.69,0-.84-0.24-0.84-0.9V29.75h1.66V28.19H79.28V26H77.42L77,28.19h-1.4a2.67,2.67,0,0,0-2.37,1.67L72.6,28.19H71.27V36h2.28V32.58c0-1.7,1-2.79,2.2-2.83H77v3.86a2.17,2.17,0,0,0,2.45,2.49,5.5,5.5,0,0,0,1.74-.28Z"/><polyline class="cls-3" points="92.05 30.64 92.05 35.96 89.83 35.96 89.83 28.18 91.18 28.18 91.63 29.37"/><path class="cls-3" d="M91.62,29.38A3.59,3.59,0,0,1,94.3,28a2.6,2.6,0,0,1,2.61,2.84V36H94.62v-5a1.06,1.06,0,0,0-1.16-1,1.89,1.89,0,0,0-1.41.76"/><polygon class="cls-3" points="53.7 25.37 56.25 25.37 59.74 32.03 59.74 25.37 61.85 25.37 61.85 35.96 59.55 35.96 55.81 28.64 55.81 35.96 53.7 35.96 53.7 25.37"/><polygon class="cls-4" points="103.65 21.4 103.65 21.78 103.1 21.78 103.1 23.64 102.67 23.64 102.67 21.78 102.12 21.78 102.12 21.4 103.65 21.4"/><polygon class="cls-4" points="103.97 23.64 103.97 21.4 104.55 21.4 104.94 22.87 105.33 21.4 105.93 21.4 105.93 23.64 105.57 23.64 105.57 21.89 105.56 21.89 105.11 23.64 104.79 23.64 104.33 21.89 104.32 21.89 104.32 23.64 103.97 23.64"/><path class="cls-4" d="M53.07,45.34l0.53-.82a3.14,3.14,0,0,0,1.86.61,1,1,0,0,0,1.24-.95c0-.69-0.6-0.87-1.57-1.21a2.07,2.07,0,0,1-1.74-2,1.87,1.87,0,0,1,2.15-1.8,3.65,3.65,0,0,1,1.91.45L57,40.5a3.15,3.15,0,0,0-1.47-.36,0.88,0.88,0,0,0-1.1.81c0,0.64.48,0.8,1.38,1.1s2,0.74,2,2.11c0,1.16-.83,1.93-2.33,1.93a3.9,3.9,0,0,1-2.4-.76"/><polygon class="cls-4" points="59.8 39.28 63.8 39.28 63.8 40.21 60.94 40.21 60.94 42.05 63.2 42.05 63.2 42.96 60.94 42.96 60.94 45.08 63.98 45.08 63.98 46.01 59.8 46.01 59.8 39.28"/><path class="cls-4" d="M65.61,42.65c0-2,.94-3.47,2.82-3.47a2.46,2.46,0,0,1,2,.81l-0.66.77a1.68,1.68,0,0,0-1.29-.59c-1.1,0-1.61.9-1.61,2.57s0.54,2.35,1.62,2.35a1.88,1.88,0,0,0,1.4-.71l0.67,0.75a2.53,2.53,0,0,1-2.07,1c-1.93,0-2.83-1.47-2.83-3.45"/><path class="cls-4" d="M72.37,43.43V39.28h1.15v4.34c0,0.92.23,1.53,1.21,1.53s1.21-.61,1.21-1.53V39.28h1.16v4.15c0,1.67-.64,2.66-2.37,2.66s-2.34-1-2.34-2.66"/><path class="cls-4" d="M84.11,46H82.86l-1.29-2.85H80.51V46H79.37V39.28h2.19c1.36,0,2.42.49,2.42,2A1.75,1.75,0,0,1,82.71,43Zm-2.58-3.73c0.85,0,1.29-.28,1.29-1.05a1,1,0,0,0-1.22-1H80.51v2.07h1Z"/><polygon class="cls-4" points="86.05 39.28 90.05 39.28 90.05 40.21 87.19 40.21 87.19 42.05 89.45 42.05 89.45 42.96 87.19 42.96 87.19 45.08 90.22 45.08 90.22 46.01 86.05 46.01 86.05 39.28"/><path class="cls-4" d="M92.15,39.28h1.68c2.19,0,3.25,1.19,3.25,3.34S96,46,93.88,46H92.15V39.28Zm1.61,5.8c1.57,0,2.11-.72,2.11-2.46,0-1.52-.42-2.41-2-2.41H93.29v4.87h0.47Z"/><path class="cls-5" d="M34.47,52.58A16.18,16.18,0,1,1,50.65,36.4,16.2,16.2,0,0,1,34.47,52.58m0-27.24a11.06,11.06,0,1,0,7.82,3.24,11,11,0,0,0-7.82-3.24"/><rect class="cls-5" x="52.1" y="17.72" width="1.26" height="1.26"/><rect class="cls-5" x="52.1" y="15.21" width="1.26" height="1.26"/><rect class="cls-5" x="48.55" y="18.97" width="1.18" height="1.23"/><rect class="cls-3" x="46.21" y="21.39" width="1.19" height="1.18"/><rect class="cls-3" x="49.73" y="20.21" width="1.32" height="1.19"/><rect class="cls-3" x="45.03" y="20.26" width="1.18" height="1.13"/><rect class="cls-3" x="48.55" y="21.39" width="1.18" height="1.18"/><rect class="cls-3" x="50.85" y="16.47" width="1.25" height="1.25"/><rect class="cls-3" x="48.55" y="17.72" width="2.3" height="1.25"/><rect class="cls-3" x="47.4" y="18.97" width="1.15" height="2.42"/><path class="cls-3" d="M47.4,22.57v1.19H46.21V22.57h-2v0.85H43.18v1.06h1.18v1.18H43.18V24.48H41.93v1.84H40.74V27.5H40v1.18H39.09a66.22,66.22,0,0,0-4.14,7.79c-2.66-3.69-4.72-5.16-6.34-5.69-0.87-.26-1.93.69-0.48,2.19a27.09,27.09,0,0,1,5.41,9.14c0.54,1.28,2.95,1.48,3.43.18a39.42,39.42,0,0,1,4.28-8.39V32.59h0.94V31.4h1V30h1.18V28.7h-1.2v-1.2h1.2v1.2h1.17V27.5h0.94V26.06h1.06v-1h1v-2.5H47.4Z"/><path class="cls-4" d="M24.57,58.13h0.89v0.65A1.54,1.54,0,0,1,26.77,58a1.85,1.85,0,0,1,1.8,2h0a1.85,1.85,0,0,1-1.8,2,1.58,1.58,0,0,1-1.31-.68v1.77H24.57v-5Zm3.1,1.94h0a1.15,1.15,0,0,0-1.11-1.24,1.17,1.17,0,0,0-1.13,1.24h0a1.16,1.16,0,0,0,1.13,1.24,1.13,1.13,0,0,0,1.11-1.24"/><path class="cls-4" d="M29.29,60.08v0a2.06,2.06,0,0,1,4.12,0h0a2,2,0,0,1-2.07,2,2,2,0,0,1-2.05-2m3.24,0v0a1.19,1.19,0,0,0-1.19-1.24,1.16,1.16,0,0,0-1.17,1.23h0a1.2,1.2,0,0,0,1.18,1.24,1.17,1.17,0,0,0,1.17-1.23"/><polygon class="cls-4" points="33.84 58.13 34.75 58.13 35.53 60.78 36.38 58.11 37.14 58.11 38 60.78 38.79 58.13 39.68 58.13 38.41 62.02 37.62 62.02 36.76 59.38 35.88 62.02 35.09 62.02 33.84 58.13"/><path class="cls-4" d="M40.13,60.07v0A1.92,1.92,0,0,1,42,58a1.87,1.87,0,0,1,1.85,2.08v0.25H41a1.08,1.08,0,0,0,1.11,1,1.4,1.4,0,0,0,1-.46l0.52,0.46a2,2,0,0,1-1.58.72,1.93,1.93,0,0,1-2-2M43,59.79a1,1,0,0,0-1-1,1,1,0,0,0-1,1h2Z"/><path class="cls-4" d="M44.8,58.13h0.89V59a1.37,1.37,0,0,1,1.37-.94V59H47a1.31,1.31,0,0,0-1.32,1.53V62H44.8V58.13Z"/><path class="cls-4" d="M47.57,60.07v0a1.92,1.92,0,0,1,1.89-2,1.87,1.87,0,0,1,1.85,2.08v0.25H48.45a1.08,1.08,0,0,0,1.11,1,1.4,1.4,0,0,0,1-.46l0.52,0.46a2,2,0,0,1-1.58.72,1.93,1.93,0,0,1-2-2m2.86-.29a1,1,0,0,0-1-1,1,1,0,0,0-1,1h2Z"/><path class="cls-4" d="M52,60.07h0a1.85,1.85,0,0,1,1.79-2,1.6,1.6,0,0,1,1.32.68V56.65H56V62H55.14V61.35a1.55,1.55,0,0,1-1.32.72,1.85,1.85,0,0,1-1.79-2m3.13,0h0A1.16,1.16,0,0,0,54,58.81a1.13,1.13,0,0,0-1.11,1.24h0A1.15,1.15,0,0,0,54,61.3a1.16,1.16,0,0,0,1.12-1.24"/><path class="cls-4" d="M60.21,61.39V62H59.32V56.65h0.89v2.12A1.54,1.54,0,0,1,61.52,58a1.86,1.86,0,0,1,1.8,2h0a1.85,1.85,0,0,1-1.8,2,1.57,1.57,0,0,1-1.31-.68m2.21-1.32h0a1.15,1.15,0,0,0-1.11-1.24,1.17,1.17,0,0,0-1.13,1.24h0a1.16,1.16,0,0,0,1.13,1.24,1.13,1.13,0,0,0,1.11-1.24"/><path class="cls-4" d="M63.93,63l0.3-.66a1.08,1.08,0,0,0,.52.15A0.56,0.56,0,0,0,65.29,62l-1.61-3.87h0.94L65.73,61l1-2.87h0.92l-1.54,4a1.29,1.29,0,0,1-1.27,1.08A1.8,1.8,0,0,1,63.93,63"/><polygon class="cls-6" points="70.27 56.87 71.27 56.87 72.81 60.8 74.35 56.87 75.32 56.87 73.19 62.03 72.4 62.03 70.27 56.87"/><path class="cls-6" d="M75.5,60.07v0a1.92,1.92,0,0,1,1.89-2,1.87,1.87,0,0,1,1.85,2.08l0,0.25H76.39a1.08,1.08,0,0,0,1.11,1,1.4,1.4,0,0,0,1-.46l0.52,0.46a2,2,0,0,1-1.58.72,1.93,1.93,0,0,1-2-2m2.86-.29a1,1,0,0,0-1-1,1,1,0,0,0-1,1h2Z"/><path class="cls-6" d="M80.17,58.13h0.89V59a1.37,1.37,0,0,1,1.37-.94V59H82.37a1.31,1.31,0,0,0-1.32,1.53V62H80.17V58.13Z"/><path class="cls-6" d="M83.15,56.69h1v0.84h-1V56.69Zm0,1.43h0.89V62H83.18V58.13Z"/><path class="cls-6" d="M85,61.25l0.54-.65a2.36,2.36,0,0,0,1.62.67,0.76,0.76,0,0,0,.91-0.64v0c0-.36-0.21-0.56-1.16-0.78s-1.71-.58-1.71-1.53v0a1.57,1.57,0,0,1,1.75-1.49,2.84,2.84,0,0,1,1.86.64l-0.48.68a2.33,2.33,0,0,0-1.39-.53,0.71,0.71,0,0,0-.83.61v0c0,0.4.23,0.57,1.22,0.81S89,59.67,89,60.52h0a1.59,1.59,0,0,1-1.83,1.53A3.16,3.16,0,0,1,85,61.25"/><path class="cls-6" d="M89.93,56.69h1v0.84h-1V56.69Zm0,1.43h0.89V62H90V58.13Z"/><path class="cls-6" d="M92,62.72l0.33-.66a2.52,2.52,0,0,0,1.38.41,1.08,1.08,0,0,0,1.22-1.19V61a1.62,1.62,0,0,1-1.36.71,1.74,1.74,0,0,1-1.76-1.81v0A1.74,1.74,0,0,1,93.54,58a1.67,1.67,0,0,1,1.35.66V58.13h0.89V61.2a2,2,0,0,1-.49,1.46,2.17,2.17,0,0,1-1.59.52A3.34,3.34,0,0,1,92,62.72m2.94-2.84v0a1.08,1.08,0,0,0-1.14-1.07,1,1,0,0,0-1.1,1.06h0a1.05,1.05,0,0,0,1.1,1.07,1.08,1.08,0,0,0,1.14-1.06"/><path class="cls-6" d="M96.92,58.13H97.8v0.6A1.39,1.39,0,0,1,99,58a1.33,1.33,0,0,1,1.38,1.49V62H99.5v-2.2a0.81,0.81,0,0,0-.83-0.94,0.86,0.86,0,0,0-.87,1V62H96.92V58.13Z"/></svg>