<svg id="Layer_1" data-name="Layer 1" xmlns="http://www.w3.org/2000/svg" viewBox="0 0 125.43 78.39"><defs><style>.cls-1{fill:#f9f9f9;}.cls-2{fill:#00a551;}.cls-3{fill:#0071bb;}.cls-4{fill:#fff;}.cls-5{fill:#ec1c24;}</style></defs><title>payment-icons</title><rect class="cls-1" width="125.43" height="78.39" rx="4.18" ry="4.18"/><path class="cls-2" d="M84.55,41.86c0.15,4.57.31,9.29,0.08,13.94a6.3,6.3,0,0,1-3,4.64,9,9,0,0,1-4.57,1L71,61.35l0-38.76a6.56,6.56,0,0,1,4.65-5.48,84,84,0,0,1,8.83-.3l0.15,2v22l-0.08.08v1Z"/><path class="cls-3" d="M40.69,40.41V22.14a6.64,6.64,0,0,1,4-4.72c3-.91,6.4-0.38,9.44-0.46,0.15,3,0,6.7.08,9.29l0.15,23.83c-0.38,3.66,1,8.6-3.58,10.66-2.89,1.44-6.78.53-10.05,0.84L40.69,61V40.41Z"/><path class="cls-4" d="M40.69,41.17a6.63,6.63,0,0,0,4.95,2.89c2.51,0.23,5.79.46,7.46-1.9,1.14-1.22.46-2.89,0.69-4.49l-0.08-2.89c-1.45-.31-2.74,0-4.42-0.08-0.84,3.12,1.37,6.63-2.21,8.22a3.94,3.94,0,0,1-2.89-.46c-1.37-.3-0.61-2.51-2.44-1.9l-1.07-.15v0.76Z"/><path class="cls-5" d="M69.39,19.47l0.08,37.08a6.74,6.74,0,0,1-3.81,4.34c-2.89,1-6.47.53-9.67,0.53L55.84,22.36a6,6,0,0,1,3-4.42,7.68,7.68,0,0,1,4-1.07h6.47Z"/><path class="cls-4" d="M68.79,34.78a7.75,7.75,0,0,1,.08,1.37c-2.28-.61-5.1-1.3-7.16.38a3.79,3.79,0,0,0,1.22,6.24c2,0.61,4,.08,5.86-0.38a2.2,2.2,0,0,1,0,1.22H60a4.53,4.53,0,0,1-3.43-2.66,4.69,4.69,0,0,1,.76-4.65A4.44,4.44,0,0,1,61,34.7Z"/><path class="cls-4" d="M84.55,41.86a2.55,2.55,0,0,1-1.9,1.9H72l-0.38-.15c0-3-.08-5.94.08-8.91h6.78c2.13,0.23,4.49-.69,5.48,1.3a2,2,0,0,1-.31,2.13c-0.3.53-1,.61-1.14,1a3.16,3.16,0,0,1,2.06,1.75v1Zm-9.14-6.24a7.39,7.39,0,0,0-.08,2.89c1.6-.07,3.66.53,4.72-0.68a1.51,1.51,0,0,0-.08-1.6c-1.22-1.06-3-.38-4.57-0.61m4.11,4.19a20,20,0,0,0-4.27-.08,14.18,14.18,0,0,0,.15,3.12c1.52,0,3.2.23,4.57-.46a1.62,1.62,0,0,0,.46-1.52,1.59,1.59,0,0,0-.91-1.07"/></svg>