<svg id="Layer_1" data-name="Layer 1" xmlns="http://www.w3.org/2000/svg" viewBox="0 0 125.43 78.39"><defs><style>.cls-1{fill:#121212;}.cls-2,.cls-3{fill:#ffde37;}.cls-3{fill-rule:evenodd;}</style></defs><title>payment-icons</title><rect class="cls-1" width="125.43" height="78.39" rx="4.18" ry="4.18"/><rect class="cls-2" x="95.26" y="31.37" width="0.63" height="15.85"/><rect class="cls-2" x="87.68" y="31.32" width="0.63" height="15.85"/><polygon class="cls-3" points="29.79 38.41 30.42 33.84 31.06 38.41 34.15 38.41 35.64 31.35 33.23 31.35 32.57 35.81 31.91 31.35 28.97 31.35 28.31 35.7 27.66 31.35 25.15 31.35 26.66 38.41 29.79 38.41"/><polygon class="cls-3" points="36.85 38.41 42.98 38.41 42.98 36.57 39.89 36.57 39.89 35.74 42.8 35.74 42.8 33.92 39.89 33.92 39.89 33.16 42.88 33.16 42.88 31.35 36.85 31.35 36.85 38.41"/><path class="cls-3" d="M44.29,36.14v0.25c0,1.34,1.22,2.13,3.52,2.13s3.5-.81,3.5-2.3c0-1.29-.72-1.67-2.53-2.27-1-.33-1.52-0.31-1.52-0.8a0.47,0.47,0,0,1,.57-0.46,0.66,0.66,0,0,1,.69.78h2.61v-0.3c0-1.24-1.13-2-3.21-2-2.29,0-3.5.89-3.5,2.27,0,1,.62,1.56,1.88,1.93a13.63,13.63,0,0,1,1.86.66,0.45,0.45,0,0,1,.25.5,0.52,0.52,0,0,1-.62.44,0.63,0.63,0,0,1-.66-0.79V36.14H44.29Z"/><polygon class="cls-3" points="58.78 31.35 52.07 31.35 52.07 33.23 53.94 33.23 53.94 38.41 56.92 38.41 56.92 33.23 58.78 33.23 58.78 31.35"/><polygon class="cls-3" points="60.07 38.41 66.2 38.41 66.2 36.57 63.11 36.57 63.11 35.74 65.99 35.74 65.99 33.92 63.11 33.92 63.11 33.16 66.09 33.16 66.09 31.35 60.07 31.35 60.07 38.41"/><path class="cls-3" d="M68.06,38.41H71V35.89h0.27c0.71,0,.81.26,0.92,1l0.07,0.52a7,7,0,0,0,.23,1h3c-0.13-.52-0.23-0.94-0.27-1.26l-0.1-.76a1.49,1.49,0,0,0-1.31-1.56,1.71,1.71,0,0,0,1.41-1.65c0-1.41-.89-1.83-3-1.83H68.06v7.06ZM71,34.16V32.93h0.34c0.66,0,1,.16,1,0.6s-0.37.65-1.07,0.65H71"/><polygon class="cls-3" points="79.27 34.38 80.84 38.41 84.25 38.41 84.25 31.35 81.95 31.35 81.95 34.94 80.64 31.35 76.96 31.35 76.96 38.41 79.27 38.41 79.27 34.38"/><polygon class="cls-3" points="55.9 42.8 57.48 46.83 60.89 46.83 60.89 39.77 58.58 39.77 58.58 43.37 57.28 39.77 53.59 39.77 53.59 46.83 55.9 46.83 55.9 42.8"/><polygon class="cls-3" points="79.34 42.8 80.91 46.83 84.33 46.83 84.33 39.77 82.02 39.77 82.02 43.37 80.72 39.77 77.03 39.77 77.03 46.83 79.34 46.83 79.34 42.8"/><path class="cls-3" d="M44.46,39.77V44a2.5,2.5,0,0,0,.68,2.06,4,4,0,0,0,2.93.87C50.54,47,51.7,46,51.7,44V39.77H48.76v4.36a0.73,0.73,0,0,1-.69.89,0.72,0.72,0,0,1-.69-0.89V39.77H44.46Z"/><rect class="cls-2" x="62.81" y="39.77" width="3.01" height="7.06"/><path class="cls-3" d="M71.33,46.94c2.67,0,4.11-1.29,4.11-3.69s-1.44-3.7-4-3.7-4,1.34-4,3.71,1.44,3.68,3.94,3.68m0.09-5.75c0.69,0,.86.61,0.86,1.95,0,1.49-.17,2.17-0.87,2.17s-0.86-.67-0.86-2,0.15-2.09.87-2.09"/><path class="cls-3" d="M99.13,31.25a1.1,1.1,0,0,0-.8.33,1.18,1.18,0,0,0-.35.83,1.17,1.17,0,0,0,1.15,1.15,1.19,1.19,0,0,0,.82-0.34,1.12,1.12,0,0,0,.33-0.81,1.14,1.14,0,0,0-.33-0.81,1.13,1.13,0,0,0-.82-0.34m1,1.16a1,1,0,0,1-.29.69,1,1,0,0,1-.72.29,1,1,0,0,1-1-1,1,1,0,0,1,.3-0.72,1,1,0,0,1,.7-0.29,1,1,0,0,1,.71.3,1,1,0,0,1,.29.71m-1-.68H98.67V33h0.24V32.47h0.24L99.42,33h0.27l-0.29-.6a0.34,0.34,0,0,0,.3-0.35c0-.24-0.18-0.36-0.54-0.36m0,0.16c0.23,0,.34.06,0.34,0.22s-0.11.21-.33,0.21H98.91V31.88h0.2Z"/></svg>