<svg id="Layer_1" data-name="Layer 1" xmlns="http://www.w3.org/2000/svg" xmlns:xlink="http://www.w3.org/1999/xlink" viewBox="0 0 125.43 78.39"><defs><style>.cls-1{fill:none;}.cls-2{clip-path:url(#clip-path);}.cls-3{fill:#f90;}.cls-3,.cls-4{fill-rule:evenodd;}</style><clipPath id="clip-path"><rect class="cls-1" x="25.14" y="27.87" width="75.16" height="22.65"/></clipPath></defs><title>payment-icons</title><g class="cls-2"><g class="cls-2"><path class="cls-3" d="M71.76,45.58c-4.37,3.22-10.7,4.94-16.15,4.94A29.21,29.21,0,0,1,35.89,43c-0.41-.37,0-0.87.45-0.59a39.7,39.7,0,0,0,19.74,5.24,39.26,39.26,0,0,0,15.06-3.08c0.74-.31,1.36.49,0.64,1"/><path class="cls-3" d="M73.58,43.51c-0.56-.71-3.69-0.34-5.1-0.17-0.43,0-.49-0.32-0.11-0.59,2.5-1.76,6.6-1.25,7.07-.66s-0.12,4.7-2.47,6.66c-0.36.3-.7,0.14-0.54-0.26,0.53-1.32,1.71-4.26,1.15-5"/><path class="cls-4" d="M68.58,30.34v-1.7A0.42,0.42,0,0,1,69,28.21h7.65a0.43,0.43,0,0,1,.44.43V30.1a2.37,2.37,0,0,1-.58,1.07l-4,5.66a8.48,8.48,0,0,1,4.36.94,0.77,0.77,0,0,1,.41.66v1.82a0.41,0.41,0,0,1-.56.39,8.81,8.81,0,0,0-8.08,0,0.41,0.41,0,0,1-.55-0.4V38.53a2.05,2.05,0,0,1,.29-1.17L73,30.78H69a0.43,0.43,0,0,1-.44-0.43"/><path class="cls-4" d="M40.69,41H38.36a0.44,0.44,0,0,1-.42-0.39V28.67a0.44,0.44,0,0,1,.45-0.43h2.17a0.44,0.44,0,0,1,.42.4V30.2h0a3.2,3.2,0,0,1,6.08,0A3.43,3.43,0,0,1,53,29.29c0.74,1,.59,2.46.59,3.74v7.53a0.44,0.44,0,0,1-.45.43H50.83a0.44,0.44,0,0,1-.42-0.43V34.24A15.23,15.23,0,0,0,50.35,32,1.21,1.21,0,0,0,49,31a1.54,1.54,0,0,0-1.39,1,7.24,7.24,0,0,0-.22,2.29v6.33a0.44,0.44,0,0,1-.45.43H44.6a0.44,0.44,0,0,1-.42-0.43V34.24c0-1.33.22-3.29-1.43-3.29s-1.61,1.91-1.61,3.29v6.33a0.44,0.44,0,0,1-.45.43"/><path class="cls-4" d="M83.68,28C87.14,28,89,31,89,34.72s-2.06,6.53-5.32,6.53-5.23-3-5.23-6.66S80.31,28,83.68,28m0,2.44c-1.72,0-1.82,2.34-1.82,3.79s0,4.57,1.8,4.57,1.89-2.51,1.89-4a11.05,11.05,0,0,0-.35-3.17,1.46,1.46,0,0,0-1.52-1.15"/><path class="cls-4" d="M93.48,41H91.16a0.44,0.44,0,0,1-.42-0.43V28.63a0.44,0.44,0,0,1,.45-0.39h2.16a0.45,0.45,0,0,1,.41.33V30.4h0C94.45,28.77,95.36,28,97,28a3.05,3.05,0,0,1,2.71,1.41,7.61,7.61,0,0,1,.61,3.72v7.51a0.44,0.44,0,0,1-.45.38H97.52a0.44,0.44,0,0,1-.41-0.38V34.14c0-1.31.15-3.22-1.46-3.22a1.52,1.52,0,0,0-1.35,1,5.32,5.32,0,0,0-.37,2.26v6.43a0.44,0.44,0,0,1-.45.43"/><path class="cls-4" d="M62.48,35.3a4.57,4.57,0,0,1-.43,2.47,1.89,1.89,0,0,1-1.61,1.06A1.46,1.46,0,0,1,59,37.14c0-2,1.78-2.34,3.46-2.34v0.5ZM64.83,41a0.48,0.48,0,0,1-.55.05,5.67,5.67,0,0,1-1.33-1.55,4.61,4.61,0,0,1-3.83,1.69,3.3,3.3,0,0,1-3.48-3.62,4,4,0,0,1,2.48-3.8,16.18,16.18,0,0,1,4.37-.8v-0.3a3,3,0,0,0-.28-1.69,1.55,1.55,0,0,0-1.31-.6A1.77,1.77,0,0,0,59,31.74a0.49,0.49,0,0,1-.4.43l-2.25-.24A0.41,0.41,0,0,1,56,31.43c0.52-2.73,3-3.56,5.2-3.56A5.28,5.28,0,0,1,64.73,29c1.13,1.06,1,2.47,1,4v3.62a3.17,3.17,0,0,0,.88,2.16,0.44,0.44,0,0,1,0,.62c-0.47.4-1.32,1.13-1.78,1.55h0Z"/><path class="cls-4" d="M32,35.3a4.57,4.57,0,0,1-.43,2.47,1.89,1.89,0,0,1-1.61,1.06,1.46,1.46,0,0,1-1.42-1.69c0-2,1.78-2.34,3.46-2.34v0.5ZM34.34,41a0.48,0.48,0,0,1-.55.05,5.69,5.69,0,0,1-1.33-1.55,4.61,4.61,0,0,1-3.84,1.69,3.3,3.3,0,0,1-3.48-3.62,4,4,0,0,1,2.48-3.8,16.2,16.2,0,0,1,4.37-.8v-0.3a3,3,0,0,0-.28-1.69,1.55,1.55,0,0,0-1.3-.6,1.77,1.77,0,0,0-1.87,1.4,0.49,0.49,0,0,1-.4.43l-2.25-.24a0.41,0.41,0,0,1-.35-0.49c0.52-2.73,3-3.56,5.2-3.56A5.28,5.28,0,0,1,34.23,29c1.13,1.06,1,2.47,1,4v3.62a3.18,3.18,0,0,0,.88,2.16,0.44,0.44,0,0,1,0,.62c-0.48.4-1.32,1.13-1.78,1.55h0Z"/></g></g></svg>