<svg id="Layer_1" data-name="Layer 1" xmlns="http://www.w3.org/2000/svg" xmlns:xlink="http://www.w3.org/1999/xlink" viewBox="0 0 125.43 78.39"><defs><style>.cls-1{fill:none;}.cls-2{clip-path:url(#clip-path);}.cls-3{clip-path:url(#clip-path-2);}.cls-4{fill:#009ddd;}.cls-5{fill:#007cc3;}.cls-6{fill:#fff;}</style><clipPath id="clip-path"><rect class="cls-1" x="25.16" y="16.73" width="75.1" height="44.94"/></clipPath><clipPath id="clip-path-2"><rect class="cls-1" x="25.16" y="16.73" width="75.1" height="44.94"/></clipPath></defs><title>payment-icons</title><g class="cls-2"><g class="cls-3"><path class="cls-4" d="M97.27,51.72a0.73,0.73,0,1,1,.73.73,0.73,0.73,0,0,1-.73-0.73M98,52.27a0.55,0.55,0,1,0-.55-0.55,0.55,0.55,0,0,0,.55.55M97.9,52H97.75V51.4H98l0.16,0,0.08,0.16-0.11.17L98.27,52H98.1L98,51.79H97.9V52Zm0-.36h0.17l0-.07,0-.07H97.9v0.16Z"/><path class="cls-4" d="M90.46,43.66a0.55,0.55,0,1,0,.55.55,0.55,0.55,0,0,0-.55-0.55m0.11,0.87-0.1-.25H90.36v0.25H90.21V43.89h0.27l0.16,0,0.08,0.16-0.11.16,0.12,0.28H90.57Z"/><polyline class="cls-4" points="90.44 44.01 90.36 44.01 90.36 44.17 90.44 44.17 90.53 44.16 90.57 44.09 90.53 44.02 90.44 44.01"/><path class="cls-5" d="M68.88,39.72l0.9-4.25a22.47,22.47,0,1,0-.26,8.75c-0.8-.84-1.12-2.3-0.65-4.51M44.55,44.59a9.84,9.84,0,0,1-6,.08,5,5,0,0,1-3.4-4,6.69,6.69,0,0,1,3.69-7A12.4,12.4,0,0,1,47,33.35c-0.2.88-.3,1.38-0.58,2.45-1.69-.72-4-1.09-5.69,0a4.6,4.6,0,0,0-2.07,4.48,2.75,2.75,0,0,0,1.69,2.08,5.67,5.67,0,0,0,4.8-.49c-0.24,1.09-.42,1.94-0.63,2.72m5.34,0.36H46.45l2-9.6h3.44Zm7.27-5.79c-0.57.89-1.07,3.83-1.49,5.78H52.09l0.17-.65c0.63-3,1.43-6,1.89-9h3.15a7,7,0,0,1-.2,1.48A3.91,3.91,0,0,1,61,35.3L59.92,38a2.31,2.31,0,0,0-2.76,1.17m7.82,0c-0.57.89-1.07,3.83-1.49,5.78H59.91l0.16-.65c0.63-3,1.43-6,1.89-9h3.15a6.72,6.72,0,0,1-.2,1.48,3.91,3.91,0,0,1,3.93-1.53L67.74,38A2.31,2.31,0,0,0,65,39.16"/><path class="cls-4" d="M77.8,16.73a22.39,22.39,0,0,0-15.08,5.82,23,23,0,0,0-2.27,2.38H65A22.55,22.55,0,0,1,66.7,27.3h-8a22.49,22.49,0,0,0-1.3,2.38H68a22.33,22.33,0,0,1,1,2.38H56.48a22.73,22.73,0,0,0-.65,2.38H69.59c0.07,0.34.14,0.68,0.2,1l0-.13h3.43l-0.93,4.38c-0.32,1.49-.24,2.63,1.27,2.63,1.78,0,2.32-1.08,2.65-2.62l0.93-4.38H80.6l-1.54,7c-0.17.82-.34,1.7-0.44,2.56H75.4l0.27-1.55a4.72,4.72,0,0,1-3.91,1.7,3,3,0,0,1-2.24-.88c-0.16.72-.35,1.43-0.58,2.12H56.48a23.09,23.09,0,0,0,1,2.38H68a22.84,22.84,0,0,1-1.3,2.38h-8a22.6,22.6,0,0,0,1.71,2.38H65a22.31,22.31,0,0,1-2.27,2.38A22.47,22.47,0,1,0,77.8,16.73M90.46,44.94a0.73,0.73,0,1,1,.73-0.73,0.73,0.73,0,0,1-.73.73"/><path class="cls-6" d="M81.73,38.38c0,1.22.8,2,2.62,2.67,1.4,0.49,1.62.63,1.62,1.06,0,0.61-.63.86-2,0.86a12.67,12.67,0,0,1-3.09-.37s-0.43,2-.48,2.22a25.4,25.4,0,0,0,3.6.27c3.63,0,5.31-1,5.31-3.2,0-1.31-.71-2.08-2.43-2.67-1.45-.48-1.61-0.59-1.61-1S85.87,37.4,87,37.4c0.67,0,1.61.06,2.48,0.15l0.48-2.23c-0.89-.1-2.25-0.19-3-0.19-3.85,0-5.19,1.48-5.18,3.25"/></g></g></svg>