<svg id="Layer_1" data-name="Layer 1" xmlns="http://www.w3.org/2000/svg" viewBox="0 0 125.43 78.39"><defs><style>.cls-1{fill:#ee3a3f;}.cls-2{fill:#0067b2;}.cls-3{fill:#faac18;}.cls-4{fill:#6ab845;}.cls-5{fill:#231f20;}</style></defs><title>payment-icons</title><path class="cls-1" d="M34.37,31.22c-8.91,0-9.25,6.93-9.21,8.73,0,0-.44,8.11,9,8.11,8.1,0,8.5-5.09,8.5-5.09H38.93s-0.73,2.8-4.76,2.73c-5.18-.09-5.38-5.12-5.38-5.12H43.14s1.09-9.36-8.77-9.37m-5.47,6.91a5,5,0,0,1,5.38-4.54c5.1,0,5.1,4.54,5.1,4.54H28.91Z"/><path class="cls-2" d="M53.11,31.22c-4.48,0-6.41,2.65-6.41,2.65v-9H43.12l0.06,18.93s0,2.2-.16,3.66h3.49l0.15-2.13s1.63,2.68,6.38,2.68,8.51-2.93,8.61-8.35-4.05-8.46-8.53-8.48M52.29,45.64c-5.65.07-5.56-6-5.56-6s-0.21-5.84,5.55-6,5.57,6.12,5.57,6.12,0.09,5.8-5.56,5.88"/><path class="cls-3" d="M78.23,43.77c0-2.45.08-4.64,0-6.18-0.1-1.79.07-6.1-7.66-6.42,0,0-7.41-.68-8.18,4.84h3.79s0.29-2.53,4.14-2.46c3.64,0.07,4.3,1.85,4.29,4H70.45c-1.87,0-8.44.22-9.05,4.22-0.73,4.76,3.51,6.24,6.83,6.22s5.22-1,6.62-2.8L75,47.48l3.3,0s-0.08-1.24-.07-3.69m-9.38,2s-3.6,0-3.81-2.87C64.81,39.83,70.58,40,70.58,40h4.07s0.66,5.84-5.8,5.76"/><polygon class="cls-4" points="76.27 31.82 80.43 31.82 86.52 43.97 92.63 31.82 96.39 31.82 85.37 53.48 81.34 53.48 84.53 47.46 76.27 31.82"/><path class="cls-5" d="M97.8,32.69V32.24H97.66V32.07H97.8V31.84h0.25v0.24h0.29v0.17H98.05v0.42l0.13,0.11,0.15,0V32.9a0.54,0.54,0,0,1-.23,0,0.25,0.25,0,0,1-.31-0.25"/><path class="cls-5" d="M98.6,32.07h0.25V32.2a0.42,0.42,0,0,1,.33-0.15,0.37,0.37,0,0,1,.33.15,0.49,0.49,0,0,1,.37-0.15,0.33,0.33,0,0,1,.38.33v0.54H100V32.44a0.2,0.2,0,0,0-.22-0.21,0.21,0.21,0,0,0-.23.21v0.48H99.31V32.44a0.2,0.2,0,0,0-.22-0.21,0.21,0.21,0,0,0-.23.21v0.48H98.6V32.07Z"/></svg>