<?xml version="1.0" encoding="utf-8"?>
<!-- Generator: Adobe Illustrator 19.1.0, SVG Export Plug-In . SVG Version: 6.00 Build 0)  -->
<svg version="1.1" id="Layer_1" xmlns="http://www.w3.org/2000/svg" xmlns:xlink="http://www.w3.org/1999/xlink" x="0px" y="0px"
	 viewBox="0 0 125.4 78.4" style="enable-background:new 0 0 125.4 78.4;" xml:space="preserve">
<style type="text/css">
	.st0{clip-path:url(#SVGID_2_);}
	.st1{clip-path:url(#SVGID_4_);fill:#F9F9F9;}
	.st2{clip-path:url(#SVGID_4_);fill:#FFFFFF;}
	.st3{clip-path:url(#SVGID_4_);fill:#C5C7C9;}
	.st4{clip-path:url(#SVGID_4_);fill:#231F20;}
	.st5{clip-path:url(#SVGID_4_);fill:#A6A8AB;}
	.st6{clip-path:url(#SVGID_4_);fill:#FFC10E;}
	.st7{clip-path:url(#SVGID_4_);fill:#A30046;}
	.st8{clip-path:url(#SVGID_6_);}
	.st9{clip-path:url(#SVGID_8_);fill:#178FDB;}
	.st10{clip-path:url(#SVGID_8_);fill:#FFFFFF;}
	.st11{clip-path:url(#SVGID_10_);}
	.st12{clip-path:url(#SVGID_12_);fill:#F9F9F9;}
	.st13{clip-path:url(#SVGID_12_);}
	.st14{clip-path:url(#SVGID_14_);}
	.st15{clip-path:url(#SVGID_16_);fill:#F9F9F9;}
	.st16{clip-path:url(#SVGID_16_);fill:#ED1C2E;}
	.st17{clip-path:url(#SVGID_16_);fill:#FCB131;}
	.st18{clip-path:url(#SVGID_18_);}
	.st19{clip-path:url(#SVGID_20_);fill:#F9F9F9;}
	.st20{clip-path:url(#SVGID_20_);fill:#0066B2;}
	.st21{clip-path:url(#SVGID_20_);fill:#F9A533;}
	.st22{clip-path:url(#SVGID_22_);}
	.st23{clip-path:url(#SVGID_24_);fill:#F9F9F9;}
	.st24{clip-path:url(#SVGID_24_);fill:#FFFFFF;}
	.st25{clip-path:url(#SVGID_24_);fill:#0078A9;}
	.st26{clip-path:url(#SVGID_26_);}
	.st27{clip-path:url(#SVGID_28_);fill:#F9F9F9;}
	.st28{clip-path:url(#SVGID_28_);fill-rule:evenodd;clip-rule:evenodd;fill:#231F20;}
	.st29{clip-path:url(#SVGID_30_);}
	.st30{clip-path:url(#SVGID_32_);fill:#F9F9F9;}
	.st31{clip-path:url(#SVGID_32_);fill:#EE3A3F;}
	.st32{clip-path:url(#SVGID_32_);fill:#0067B2;}
	.st33{clip-path:url(#SVGID_32_);fill:#FAAC18;}
	.st34{clip-path:url(#SVGID_32_);fill:#6AB845;}
	.st35{clip-path:url(#SVGID_32_);fill:#231F20;}
	.st36{clip-path:url(#SVGID_34_);}
	.st37{clip-path:url(#SVGID_36_);fill:#F9F9F9;}
	.st38{clip-path:url(#SVGID_36_);fill:#00A551;}
	.st39{clip-path:url(#SVGID_36_);fill:#0071BB;}
	.st40{clip-path:url(#SVGID_36_);fill:#FFFFFF;}
	.st41{clip-path:url(#SVGID_36_);fill:#EC1C24;}
	.st42{clip-path:url(#SVGID_38_);}
	.st43{clip-path:url(#SVGID_40_);fill:#F9F9F9;}
	.st44{clip-path:url(#SVGID_40_);fill-rule:evenodd;clip-rule:evenodd;fill:#008060;}
	.st45{clip-path:url(#SVGID_42_);}
	.st46{clip-path:url(#SVGID_44_);fill:#F9F9F9;}
	.st47{clip-path:url(#SVGID_44_);fill:#203C73;}
	.st48{clip-path:url(#SVGID_46_);}
	.st49{clip-path:url(#SVGID_48_);fill:#F9F9F9;}
	.st50{clip-path:url(#SVGID_48_);fill-rule:evenodd;clip-rule:evenodd;fill:#FF9900;}
	.st51{clip-path:url(#SVGID_48_);fill-rule:evenodd;clip-rule:evenodd;}
	.st52{clip-path:url(#SVGID_50_);}
	.st53{clip-path:url(#SVGID_52_);fill:#F9F9F9;}
	.st54{clip-path:url(#SVGID_52_);fill-rule:evenodd;clip-rule:evenodd;fill:#FAA929;}
	.st55{clip-path:url(#SVGID_52_);fill-rule:evenodd;clip-rule:evenodd;fill:#045EA0;}
	.st56{clip-path:url(#SVGID_54_);}
	.st57{clip-path:url(#SVGID_56_);fill:#F9F9F9;}
	.st58{clip-path:url(#SVGID_56_);fill-rule:evenodd;clip-rule:evenodd;fill:#121212;}
	.st59{clip-path:url(#SVGID_58_);}
	.st60{clip-path:url(#SVGID_60_);fill:#F9F9F9;}
	.st61{clip-path:url(#SVGID_60_);fill:#336699;}
	.st62{clip-path:url(#SVGID_60_);fill:#003366;}
	.st63{clip-path:url(#SVGID_62_);}
	.st64{clip-path:url(#SVGID_64_);fill:#F9F9F9;}
	.st65{clip-path:url(#SVGID_64_);fill:#007CC3;}
	.st66{clip-path:url(#SVGID_64_);fill:#009DDD;}
	.st67{clip-path:url(#SVGID_64_);fill:#FFFFFF;}
	.st68{clip-path:url(#SVGID_66_);}
	.st69{clip-path:url(#SVGID_68_);fill:#F9F9F9;}
	.st70{clip-path:url(#SVGID_68_);fill:#EC1C2E;}
	.st71{clip-path:url(#SVGID_68_);fill:#0084C4;}
	.st72{clip-path:url(#SVGID_68_);fill:#FFFFFF;}
	.st73{clip-path:url(#SVGID_68_);fill:none;stroke:#FFFFFF;stroke-width:0.215;}
	.st74{clip-path:url(#SVGID_70_);}
	.st75{clip-path:url(#SVGID_72_);fill:#F9F9F9;}
	.st76{clip-path:url(#SVGID_72_);fill-rule:evenodd;clip-rule:evenodd;fill:#FBB231;}
	.st77{clip-path:url(#SVGID_72_);fill-rule:evenodd;clip-rule:evenodd;fill:#EC1C2E;}
	.st78{clip-path:url(#SVGID_72_);fill-rule:evenodd;clip-rule:evenodd;fill:#FFFFFF;}
	.st79{clip-path:url(#SVGID_72_);fill:none;stroke:#FFFFFF;stroke-width:0.216;stroke-miterlimit:2.613;}
	.st80{clip-path:url(#SVGID_74_);}
	.st81{clip-path:url(#SVGID_76_);fill:#F9F9F9;}
	.st82{clip-path:url(#SVGID_76_);fill:#0066B2;}
	.st83{clip-path:url(#SVGID_76_);fill:#F9A533;}
	.st84{clip-path:url(#SVGID_78_);}
	.st85{clip-path:url(#SVGID_80_);fill:#0078A9;}
	.st86{clip-path:url(#SVGID_80_);fill:#FFFFFF;}
	.st87{clip-path:url(#SVGID_82_);}
	.st88{clip-path:url(#SVGID_84_);fill:#008060;}
	.st89{clip-path:url(#SVGID_84_);fill-rule:evenodd;clip-rule:evenodd;fill:#FFFFFF;}
	.st90{clip-path:url(#SVGID_86_);}
	.st91{clip-path:url(#SVGID_88_);fill:#203C73;}
	.st92{clip-path:url(#SVGID_88_);fill:#FFFFFF;}
	.st93{clip-path:url(#SVGID_90_);}
	.st94{clip-path:url(#SVGID_92_);fill:#1C3663;}
	.st95{clip-path:url(#SVGID_92_);fill:#FFFFFF;}
	.st96{clip-path:url(#SVGID_94_);}
	.st97{clip-path:url(#SVGID_96_);fill:#13457C;}
	.st98{clip-path:url(#SVGID_96_);fill:#007CC3;}
	.st99{clip-path:url(#SVGID_96_);fill:#009DDD;}
	.st100{clip-path:url(#SVGID_96_);fill:#FFFFFF;}
	.st101{clip-path:url(#SVGID_98_);}
	.st102{clip-path:url(#SVGID_100_);fill:#13457C;}
	.st103{clip-path:url(#SVGID_100_);fill:#ED1C2E;}
	.st104{clip-path:url(#SVGID_100_);fill:#FCB131;}
	.st105{clip-path:url(#SVGID_102_);}
	.st106{clip-path:url(#SVGID_104_);fill:#1D1E1E;}
	.st107{clip-path:url(#SVGID_104_);fill:#EE3A3F;}
	.st108{clip-path:url(#SVGID_104_);fill:#0067B2;}
	.st109{clip-path:url(#SVGID_104_);fill:#FAAC18;}
	.st110{clip-path:url(#SVGID_104_);fill:#6AB845;}
	.st111{clip-path:url(#SVGID_104_);fill:#231F20;}
	.st112{clip-path:url(#SVGID_106_);}
	.st113{clip-path:url(#SVGID_108_);fill:#121212;}
	.st114{clip-path:url(#SVGID_108_);fill-rule:evenodd;clip-rule:evenodd;fill:#FFDE37;}
	.st115{clip-path:url(#SVGID_110_);}
	.st116{clip-path:url(#SVGID_112_);fill:#3957A7;}
	.st117{clip-path:url(#SVGID_112_);fill:#FFFFFF;}
	.st118{clip-path:url(#SVGID_112_);fill:#F9A533;}
	.st119{clip-path:url(#SVGID_114_);}
	.st120{clip-path:url(#SVGID_116_);fill:#0C489C;}
	.st121{clip-path:url(#SVGID_116_);fill:#FFFFFF;}
	.st122{clip-path:url(#SVGID_118_);}
	.st123{clip-path:url(#SVGID_120_);fill:#045EA0;}
	.st124{clip-path:url(#SVGID_120_);fill-rule:evenodd;clip-rule:evenodd;fill:#FAA929;}
	.st125{clip-path:url(#SVGID_120_);fill-rule:evenodd;clip-rule:evenodd;fill:#FFFFFF;}
	.st126{clip-path:url(#SVGID_122_);}
	.st127{clip-path:url(#SVGID_124_);fill:#13457C;}
	.st128{clip-path:url(#SVGID_124_);fill-rule:evenodd;clip-rule:evenodd;fill:#FBB231;}
	.st129{clip-path:url(#SVGID_124_);fill-rule:evenodd;clip-rule:evenodd;fill:#EC1C2E;}
	.st130{clip-path:url(#SVGID_124_);fill-rule:evenodd;clip-rule:evenodd;fill:#FFFFFF;}
	.st131{clip-path:url(#SVGID_124_);fill:none;stroke:#FFFFFF;stroke-width:0.216;stroke-miterlimit:2.613;}
	.st132{clip-path:url(#SVGID_126_);}
	.st133{clip-path:url(#SVGID_128_);fill:#13457C;}
	.st134{clip-path:url(#SVGID_128_);fill:#EC1C2E;}
	.st135{clip-path:url(#SVGID_128_);fill:#0084C4;}
	.st136{clip-path:url(#SVGID_128_);fill:#FFFFFF;}
	.st137{clip-path:url(#SVGID_128_);fill:none;stroke:#FFFFFF;stroke-width:0.215;}
	.st138{clip-path:url(#SVGID_130_);}
	.st139{clip-path:url(#SVGID_132_);fill:#FF9900;}
	.st140{clip-path:url(#SVGID_132_);fill-rule:evenodd;clip-rule:evenodd;fill:#231F20;}
	.st141{clip-path:url(#SVGID_134_);}
	.st142{clip-path:url(#SVGID_136_);fill:#231F20;}
	.st143{clip-path:url(#SVGID_136_);fill-rule:evenodd;clip-rule:evenodd;fill:#FFFFFF;}
	.st144{clip-path:url(#SVGID_138_);}
	.st145{clip-path:url(#SVGID_140_);fill:#121212;}
	.st146{clip-path:url(#SVGID_140_);fill:#FFFFFF;}
	.st147{clip-path:url(#SVGID_140_);fill:#FFC10E;}
	.st148{clip-path:url(#SVGID_142_);}
	.st149{clip-path:url(#SVGID_144_);fill:#0033A0;}
	.st150{clip-path:url(#SVGID_144_);fill:#FFFFFF;}
	.st151{clip-path:url(#SVGID_144_);fill:#FF9E16;}
	.st152{clip-path:url(#SVGID_144_);fill:#FAA943;}
	.st153{clip-path:url(#SVGID_146_);}
	.st154{clip-path:url(#SVGID_148_);fill:#ED1C2E;}
	.st155{clip-path:url(#SVGID_148_);fill:#FCB131;}
	.st156{clip-path:url(#SVGID_150_);}
	.st157{clip-path:url(#SVGID_152_);fill:#0066B2;}
	.st158{clip-path:url(#SVGID_152_);fill:#F9A533;}
	.st159{clip-path:url(#SVGID_154_);}
	.st160{clip-path:url(#SVGID_156_);fill:#FFFFFF;}
	.st161{clip-path:url(#SVGID_156_);fill:#0078A9;}
	.st162{clip-path:url(#SVGID_158_);}
	.st163{clip-path:url(#SVGID_160_);fill-rule:evenodd;clip-rule:evenodd;fill:#231F20;}
	.st164{clip-path:url(#SVGID_162_);}
	.st165{clip-path:url(#SVGID_164_);fill:#EE3A3F;}
	.st166{clip-path:url(#SVGID_164_);fill:#0067B2;}
	.st167{clip-path:url(#SVGID_164_);fill:#FAAC18;}
	.st168{clip-path:url(#SVGID_164_);fill:#6AB845;}
	.st169{clip-path:url(#SVGID_164_);fill:#231F20;}
	.st170{clip-path:url(#SVGID_166_);}
	.st171{clip-path:url(#SVGID_168_);fill:#00A551;}
	.st172{clip-path:url(#SVGID_168_);fill:#0071BB;}
	.st173{clip-path:url(#SVGID_168_);fill:#FFFFFF;}
	.st174{clip-path:url(#SVGID_168_);fill:#EC1C24;}
	.st175{clip-path:url(#SVGID_170_);}
	.st176{clip-path:url(#SVGID_172_);fill-rule:evenodd;clip-rule:evenodd;fill:#008060;}
	.st177{clip-path:url(#SVGID_174_);}
	.st178{clip-path:url(#SVGID_176_);fill:#203C73;}
	.st179{clip-path:url(#SVGID_178_);}
	.st180{clip-path:url(#SVGID_180_);fill-rule:evenodd;clip-rule:evenodd;fill:#FF9900;}
	.st181{clip-path:url(#SVGID_180_);fill-rule:evenodd;clip-rule:evenodd;}
	.st182{clip-path:url(#SVGID_182_);}
	.st183{clip-path:url(#SVGID_184_);fill-rule:evenodd;clip-rule:evenodd;fill:#FAA929;}
	.st184{clip-path:url(#SVGID_184_);fill-rule:evenodd;clip-rule:evenodd;fill:#045EA0;}
	.st185{clip-path:url(#SVGID_186_);fill:#0084C4;}
	.st186{clip-path:url(#SVGID_186_);fill:#EC1C2E;}
	.st187{clip-path:url(#SVGID_186_);fill:#FFFFFF;}
	.st188{clip-path:url(#SVGID_188_);}
	.st189{clip-path:url(#SVGID_190_);fill:#336699;}
	.st190{clip-path:url(#SVGID_190_);fill:#003366;}
	.st191{clip-path:url(#SVGID_192_);fill:#121212;}
	.st192{clip-path:url(#SVGID_192_);fill-rule:evenodd;clip-rule:evenodd;fill:#121212;}
	.st193{clip-path:url(#SVGID_192_);}
	.st194{clip-path:url(#SVGID_194_);fill-rule:evenodd;clip-rule:evenodd;fill:#121212;}
	.st195{clip-path:url(#SVGID_196_);}
	.st196{clip-path:url(#SVGID_198_);fill:#009DDD;}
	.st197{clip-path:url(#SVGID_198_);fill:#007CC3;}
	.st198{clip-path:url(#SVGID_198_);fill:#FFFFFF;}
	.st199{clip-path:url(#SVGID_200_);fill:#FBB231;}
	.st200{clip-path:url(#SVGID_200_);fill:none;stroke:#FFFFFF;stroke-width:0.216;stroke-miterlimit:2.613;}
	.st201{clip-path:url(#SVGID_200_);fill-rule:evenodd;clip-rule:evenodd;fill:#EC1C2E;}
	.st202{clip-path:url(#SVGID_200_);fill:#EC1C2E;}
	.st203{clip-path:url(#SVGID_200_);fill:#FFFFFF;}
	.st204{clip-path:url(#SVGID_200_);fill-rule:evenodd;clip-rule:evenodd;fill:#FFFFFF;}
	.st205{clip-path:url(#SVGID_200_);fill-rule:evenodd;clip-rule:evenodd;fill:#FBB231;}
	.st206{clip-path:url(#SVGID_202_);fill:#0066B2;}
	.st207{clip-path:url(#SVGID_202_);}
	.st208{clip-path:url(#SVGID_204_);fill:#0066B2;}
	.st209{clip-path:url(#SVGID_204_);fill:#F9A533;}
	.st210{clip-path:url(#SVGID_206_);}
	.st211{clip-path:url(#SVGID_208_);fill:#FFFFFF;}
	.st212{clip-path:url(#SVGID_208_);fill:#C5C7C9;}
	.st213{clip-path:url(#SVGID_208_);fill:#231F20;}
	.st214{clip-path:url(#SVGID_208_);fill:#A6A8AB;}
	.st215{clip-path:url(#SVGID_208_);fill:#FFC10E;}
	.st216{clip-path:url(#SVGID_208_);fill:#A30046;}
	.st217{clip-path:url(#SVGID_210_);}
	.st218{clip-path:url(#SVGID_212_);}
	.st219{clip-path:url(#SVGID_214_);}
	.st220{clip-path:url(#SVGID_216_);}
	.st221{clip-path:url(#SVGID_216_);fill:#FFFFFF;}
	.st222{clip-path:url(#SVGID_218_);}
	.st223{clip-path:url(#SVGID_220_);fill:#F9F9F9;}
	.st224{clip-path:url(#SVGID_220_);}
	.st225{clip-path:url(#SVGID_222_);}
	.st226{clip-path:url(#SVGID_224_);}
</style>
<g>
	<g>
		<defs>
			<rect id="SVGID_185_" x="25.2" y="16.7" width="75" height="45"/>
		</defs>
		<clipPath id="SVGID_2_">
			<use xlink:href="#SVGID_185_"  style="overflow:visible;"/>
		</clipPath>
		<polygon style="clip-path:url(#SVGID_2_);fill:#0084C4;" points="61.3,38.3 61.3,38.1 61.2,37.9 61.1,37.7 61,37.6 60.8,37.4 
			60.7,37.3 60.6,37.2 60.4,37.2 60.2,37.1 60.1,37.1 59.9,37 59.7,37 59.5,37 59.3,37.1 59.1,37.1 58.9,37.2 58.7,37.2 58.6,37.3 
			58.4,37.4 58.3,37.6 58.1,37.7 58,37.9 57.9,38 57.8,38.2 57.7,38.4 57.6,38.6 57.6,38.8 57.5,39.1 57.5,39.3 61.3,39.3 61.4,39 
			61.4,38.7 61.4,38.5 		"/>
		<polygon style="clip-path:url(#SVGID_2_);fill:#0084C4;" points="70.3,38 70.2,37.1 69.9,37.1 69.7,37.1 69.5,37.2 69.3,37.2 
			69.2,37.3 69,37.4 68.9,37.5 68.8,37.6 68.7,37.7 68.6,37.8 68.6,37.9 68.5,38 68.5,38.2 68.6,38.3 68.6,38.5 68.7,38.6 
			68.8,38.7 69,38.9 69.3,39.1 69.6,39.2 69.9,39.3 70.2,39.4 70.3,39.5 70.3,39.2 		"/>
		<path style="clip-path:url(#SVGID_2_);fill:#EC1C2E;" d="M96.5,45.7h0.9v0.1H97v0.7h-0.2v-0.7h-0.3V45.7z M98.3,45.7h0.3v0.8h-0.2
			v-0.6l-0.3,0.6h-0.2l-0.3-0.6v0.6h-0.2v-0.8h0.3l0.3,0.6L98.3,45.7z M83.8,36.6l0.2-0.2l0.1-0.2l0.2-0.2l0.2-0.2l0.2-0.2l0.2-0.2
			l0.2-0.1l0.2-0.1l0.2-0.1l0.2-0.1l0.2-0.1l0.3-0.1l0.3-0.1l0.3,0l0.3,0H87l0.1,0l0.1,0l0.1,0l0.1,0l0.1,0l0,0h0l0,0l-0.1,0.1
			l-0.1,0.1l-0.1,0.2l-0.1,0.2L87,35.6l-0.1,0.2L86.8,36l-0.1,0.3l-0.1,0.3l-0.1,0.3l-0.1,0.3l-0.1,0.2l0,0.2l0,0.1l0,0h0l0,0l0,0
			l-0.1,0h-0.1l-0.1,0l0,0h0l-0.4,0l-0.4,0l-0.3,0.1L84.6,38l-0.3,0.1l-0.2,0.1l-0.2,0.1l-0.2,0.2l-0.1,0.2l-0.1,0.2l-0.1,0.2
			l-0.1,0.2l-0.1,0.2l-0.1,0.2L83.1,40l0,0.2l-1,6h-3l2-11.4l3,0l-0.3,1.9L83.8,36.6z M91.2,46.4l-0.3,0l-0.3,0l-0.3,0L90,46.3
			l-0.3-0.1l-0.3-0.1l-0.3-0.1L89,46l-0.2-0.1l-0.2-0.1l-0.2-0.1L88,45.5l-0.2-0.2l-0.2-0.2L87.4,45l-0.2-0.2l-0.2-0.2l-0.2-0.2
			l-0.2-0.2l-0.1-0.2l-0.1-0.2l-0.1-0.3l-0.1-0.3l-0.1-0.3l-0.1-0.3l-0.1-0.3L86,42l0-0.3l0-0.3l0-0.3l0-0.3l0-0.4l0-0.3l0.1-0.3
			l0.1-0.3l0.1-0.3l0.1-0.3l0.1-0.3l0.1-0.3l0.1-0.3l0.1-0.3l0.1-0.2l0.2-0.2l0.2-0.2l0.2-0.2l0.2-0.2l0.2-0.2l0.2-0.2l0.2-0.2
			l0.2-0.2l0.2-0.1l0.2-0.1l0.3-0.1l0.3-0.1l0.3-0.1l0.3-0.1l0.3-0.1l0.3-0.1l0.3-0.1l0.3,0l0.3,0l0.3,0l0.3,0l0.3,0l0.3,0l0.3,0
			l0.3,0l0.3,0.1l0.3,0.1l0.3,0.1l0.3,0.1l0.3,0.1l0.2,0.1l0.2,0.1l0.2,0.1l0.2,0.2l0.2,0.2l0.2,0.2l0.2,0.2l0.2,0.2l0.2,0.2
			l0.1,0.2l0.1,0.2l0.1,0.2l0.1,0.2l0.1,0.2l0.1,0.3l0.1,0.3l0.1,0.3l0.1,0.3l0,0.3l0,0.3l0,0.3l0,0.3l0,0.3l0,0.4l0,0.4l-0.1,0.3
			l-0.1,0.3l-0.1,0.3l-0.1,0.3l-0.1,0.3L97,43.1l-0.1,0.3l-0.1,0.3l-0.2,0.3l-0.2,0.2l-0.2,0.2l-0.2,0.2l-0.2,0.2L95.7,45l-0.2,0.2
			l-0.2,0.2l-0.2,0.2l-0.2,0.1l-0.2,0.1l-0.3,0.1L94.1,46l-0.3,0.1l-0.3,0.1l-0.3,0.1L93,46.3l-0.3,0.1l-0.3,0l-0.3,0l-0.3,0l-0.3,0
			L91.2,46.4z M75.2,46.2l-0.4,0l-0.3-0.1L74.2,46L74,45.9l-0.2-0.1l-0.2-0.1l-0.1-0.1l-0.1-0.2l-0.1-0.2L73.2,45l0-0.2l0-0.2l0-0.2
			l0-0.2l0-0.3l2-11.6h3l-0.5,2.6h1.8l-0.4,2.4l-1.9,0l-1,5.9l0,0.1v0.1l0,0.1l0,0.1l0,0.1l0,0.1l0.1,0.1l0.1,0l0.1,0l0.1,0l0.1,0
			l0.1,0l0.1,0l0.1,0l0.1,0h0.1h0.2l0.2,0l0.2,0l0.2,0l0.1,0l0.1,0l0.1,0l0,0l-0.3,2l-0.1,0l-0.1,0l-0.1,0l-0.1,0l-0.1,0l-0.1,0
			l-0.1,0l-0.1,0l-0.1,0l-0.1,0l-0.1,0l-0.1,0l-0.1,0l-0.1,0l-0.2,0l-0.2,0h-0.8L75.2,46.2z M77.6,16.7l-1.2,0l-1.1,0.1l-1.1,0.1
			l-1.1,0.2L72,17.4l-1.1,0.3l-1.1,0.4l-1,0.4l-1,0.5l-1,0.5L66,19.9L65,20.5l-0.9,0.6l-0.9,0.7l-0.6,0.5l0.2,0.2l0.8,0.7l0.7,0.8
			l0.7,0.8l0.7,0.9l0.6,0.9l0.6,0.9l0.5,0.9l0.5,1l0.5,1l0.4,1l0.4,1l0.3,1.1l0.3,1.1h0.3h0.4l0.4,0l0.3,0l0.3,0l0.3,0l0.2,0l0.2,0
			l0.2,0l0.2,0l0.1,0l0.1,0l0.1,0l0.1,0l0.1,0l0.1,0l0.1,0l-0.5,2.4l-0.1,0l-0.1,0l-0.1,0l-0.1,0l-0.1,0l-0.1,0l-0.1,0l-0.1,0
			l-0.2,0l-0.2,0l-0.2,0l-0.2,0h-0.2l-0.2,0l-0.3,0l-0.3,0l-0.2,0l-0.2,0l-0.2,0.1l-0.2,0.1L69,37.4l-0.1,0.1l-0.1,0.1l-0.1,0.1
			l-0.1,0.1l0,0.1l0,0.1v0.1l0,0.1l0.1,0.1l0.1,0.1l0.1,0.1l0.2,0.2l0.3,0.2l0.3,0.1l0.3,0.1l0.3,0.1l0.3,0.1l0.4,0.1l0.3,0.1
			l0.3,0.2l0.3,0.2l0.3,0.3l0.2,0.3l0.2,0.4l0.1,0.5l0,0.6l0,0.7l-0.1,0.5l-0.1,0.4l-0.2,0.4L72,44.6l-0.3,0.3l-0.3,0.3l-0.3,0.2
			l-0.3,0.2l-0.3,0.2l-0.4,0.1L69.8,46l-0.4,0.1l-0.3,0l-0.3,0.7l-0.4,1l-0.5,1l-0.5,1L67,50.8l-0.6,0.9l-0.6,0.9l-0.7,0.9l-0.7,0.8
			l-0.7,0.8l-0.8,0.7L62.7,56l0.6,0.5l0.9,0.7l0.9,0.6l0.9,0.6l0.9,0.5l1,0.5l1,0.5l1,0.4l1.1,0.4L72,61l1.1,0.2l1.1,0.2l1.1,0.1
			l1.1,0.1l1.2,0l1.2,0l1.1-0.1l1.1-0.1l1.1-0.2l1.1-0.2l1.1-0.3l1-0.4l1-0.4l1-0.5l1-0.5l0.9-0.5l0.9-0.6l0.9-0.6l0.9-0.7l0.8-0.7
			l0.8-0.7l0.7-0.8l0.7-0.8l0.7-0.9l0.6-0.9l0.6-0.9l0.5-0.9l0.5-1l0.5-1l0.4-1l0.4-1l0.3-1.1l0.3-1.1l0.2-1.1l0.1-1.1l0.1-1.1
			l0-1.2l0-1.2l-0.1-1.1l-0.1-1.1l-0.2-1.1l-0.3-1.1l-0.3-1.1l-0.4-1l-0.4-1l-0.5-1l-0.5-1l-0.5-0.9l-0.6-0.9l-0.6-0.9L95,24.9
			l-0.7-0.8l-0.7-0.8l-0.8-0.7L92,21.8l-0.9-0.7l-0.9-0.6l-0.9-0.6l-0.9-0.5l-1-0.5l-1-0.5l-1-0.4l-1-0.4l-1.1-0.3l-1.1-0.3
			l-1.1-0.2L80,16.8l-1.1-0.1L77.6,16.7z"/>
		<polygon style="clip-path:url(#SVGID_2_);fill:#EC1C2E;" points="97.4,52.1 97.2,52.2 97,52.3 96.8,52.4 96.7,52.6 96.6,52.8 
			96.5,53 96.7,53 96.8,52.8 96.8,52.7 96.9,52.5 97.1,52.4 97.2,52.4 97.4,52.3 97.6,52.3 97.7,52.3 97.9,52.4 98.1,52.4 
			98.2,52.5 98.3,52.7 98.4,52.8 98.4,53 98.6,53 98.6,52.8 98.5,52.6 98.3,52.4 98.2,52.3 98,52.2 97.8,52.1 97.6,52.1 		"/>
		<polygon style="clip-path:url(#SVGID_2_);fill:#EC1C2E;" points="97.2,52.7 97.2,53 97.4,53 97.4,52.8 97.6,52.8 97.6,52.8 
			97.7,52.8 97.7,52.8 97.8,52.9 97.8,52.9 97.8,52.9 97.8,52.9 97.8,53 98,53 98,52.9 98,52.9 98,52.8 97.9,52.8 97.9,52.8 
			97.8,52.7 97.7,52.7 97.6,52.7 		"/>
		<polygon style="clip-path:url(#SVGID_2_);fill:#EC1C2E;" points="96.5,53 96.5,53 96.5,53.2 96.7,53.2 96.7,53 96.7,53 		"/>
		<polygon style="clip-path:url(#SVGID_2_);fill:#EC1C2E;" points="97.8,53 97.8,53 97.8,53.1 97.8,53.1 97.8,53.1 97.7,53.1 
			97.7,53.1 97.6,53.1 97.6,53.1 97.4,53.1 97.4,53 97.2,53 97.2,53.2 98,53.2 98,53.1 98,53.1 98,53 98,53 		"/>
		<polygon style="clip-path:url(#SVGID_2_);fill:#EC1C2E;" points="98.4,53 98.4,53 98.4,53.2 98.7,53.2 98.6,53 98.6,53 		"/>
		<polygon style="clip-path:url(#SVGID_2_);fill:#EC1C2E;" points="96.5,53.2 96.5,53.2 96.5,53.4 96.6,53.6 96.7,53.8 96.8,54 
			97,54.1 97.2,54.2 97.4,54.3 97.6,54.3 97.8,54.3 98,54.2 98.2,54.1 98.3,54 98.5,53.8 98.6,53.6 98.6,53.4 98.7,53.2 98.7,53.2 
			98.4,53.2 98.4,53.2 98.4,53.4 98.4,53.6 98.3,53.7 98.2,53.9 98.1,54 97.9,54.1 97.7,54.1 97.6,54.1 97.4,54.1 97.2,54.1 
			97.1,54 96.9,53.9 96.8,53.7 96.8,53.6 96.7,53.4 96.7,53.2 96.7,53.2 		"/>
		<polygon style="clip-path:url(#SVGID_2_);fill:#EC1C2E;" points="97.2,53.2 97.2,53.6 97.4,53.6 97.4,53.3 97.6,53.3 97.8,53.6 
			98,53.6 97.7,53.3 97.8,53.2 97.8,53.2 97.9,53.2 97.9,53.2 98,53.2 		"/>
		<polygon style="clip-path:url(#SVGID_2_);fill:#EC1C2E;" points="61,24 59.9,25.3 71.4,25.3 71.4,24 		"/>
		<polygon style="clip-path:url(#SVGID_2_);fill:#EC1C2E;" points="58.1,27.9 71.4,27.9 71.4,26.7 58.9,26.7 		"/>
		<polygon style="clip-path:url(#SVGID_2_);fill:#EC1C2E;" points="56.8,30.6 71.4,30.6 71.4,29.4 57.4,29.4 		"/>
		<polygon style="clip-path:url(#SVGID_2_);fill:#EC1C2E;" points="55.9,33.3 71.4,33.3 71.4,32 56.3,32 		"/>
		<polygon style="clip-path:url(#SVGID_2_);fill:#EC1C2E;" points="56.5,35.6 56.7,35.5 57,35.3 57.3,35.2 57.6,35 57.9,34.9 
			58.3,34.8 58.7,34.8 59.1,34.7 59.2,34.7 55.6,34.7 55.4,36 56,36 56.2,35.8 		"/>
		<polygon style="clip-path:url(#SVGID_2_);fill:#EC1C2E;" points="66.2,35.7 66.3,35.6 66.4,35.5 66.6,35.4 66.7,35.3 66.9,35.2 
			67.1,35.1 67.3,35 67.5,35 67.7,34.9 67.9,34.8 68.1,34.8 68.4,34.8 68.6,34.7 68.7,34.7 60.6,34.7 60.8,34.7 61,34.8 61.2,34.8 
			61.4,34.8 61.6,34.9 61.9,35 62.1,35.1 62.3,35.1 62.5,35.2 62.7,35.4 62.9,35.5 63,35.6 63.2,35.8 63.4,36 66,36 66.1,35.8 		"/>
		<polygon style="clip-path:url(#SVGID_2_);fill:#EC1C2E;" points="69.2,37.3 69,37.4 68.9,37.5 68.8,37.6 68.7,37.7 68.6,37.8 
			68.6,37.9 68.5,38 68.5,38.2 68.6,38.3 68.6,38.5 68.7,38.5 71.4,38.5 71.4,37.3 69.2,37.3 		"/>
		<polygon style="clip-path:url(#SVGID_2_);fill:#EC1C2E;" points="61.4,38.5 61.3,38.3 61.2,38.1 61.2,37.9 61.1,37.7 61,37.6 
			60.8,37.4 60.7,37.3 60.6,37.3 58.6,37.3 58.6,37.3 58.4,37.4 58.3,37.6 58.1,37.7 58,37.9 57.9,38 57.8,38.2 57.7,38.4 
			57.7,38.5 61.4,38.5 		"/>
		<polygon style="clip-path:url(#SVGID_2_);fill:#EC1C2E;" points="64.2,37.6 64.2,37.9 64.3,38.3 64.3,38.5 65.2,38.5 65.2,38.4 
			65.2,38.1 65.2,37.9 65.3,37.7 65.3,37.5 65.3,37.3 64.1,37.3 64.1,37.3 		"/>
		<polygon style="clip-path:url(#SVGID_2_);fill:#EC1C2E;" points="71.3,39.9 71.4,39.9 71.4,39.9 		"/>
		<polygon style="clip-path:url(#SVGID_2_);fill:#EC1C2E;" points="64.1,40.7 64,41.1 67.1,41.1 66.9,41 66.7,40.9 66.5,40.8 
			66.3,40.7 66.1,40.5 65.9,40.4 65.8,40.2 65.6,40 65.5,39.9 64.2,39.9 64.2,40.2 		"/>
		<polygon style="clip-path:url(#SVGID_2_);fill:#EC1C2E;" points="57.7,43 57.8,43.2 58,43.3 58.2,43.5 58.4,43.6 58.6,43.7 
			58.8,43.8 59,43.8 59.3,43.8 59.6,43.9 59.8,43.9 60.1,43.9 60.4,43.9 60.7,43.9 60.9,43.9 61.2,43.9 61.5,43.9 61.8,43.8 
			62.1,43.7 62.4,43.6 62.7,43.5 63,43.4 63.3,43.2 63.6,43 63.5,44 64.2,44 64.3,43.4 64.4,43.4 64.5,43.5 64.7,43.5 64.9,43.6 
			65.1,43.6 65.3,43.7 65.5,43.7 65.8,43.7 66,43.8 66.3,43.8 66.6,43.8 66.9,43.9 67.2,43.9 67.5,43.9 67.8,43.9 68.2,43.9 
			68.5,43.8 68.7,43.7 68.9,43.6 69,43.5 69.1,43.3 69.2,43.2 69.3,43 69.3,42.9 69.4,42.7 57.4,42.7 57.5,42.8 		"/>
		<polygon style="clip-path:url(#SVGID_2_);fill:#EC1C2E;" points="63,45.8 62.8,45.8 62.7,45.9 62.5,46 62.3,46 62.2,46.1 62,46.1 
			61.8,46.1 61.6,46.2 61.4,46.2 61.2,46.2 61,46.2 60.7,46.2 60.4,46.2 60.1,46.2 67.6,46.2 67.2,46.2 66.8,46.2 66.5,46.2 
			66.2,46.2 65.9,46.2 65.6,46.2 65.4,46.1 65.2,46.1 65,46.1 64.8,46 64.6,46 64.4,45.9 64.2,45.9 64,45.8 63.9,45.7 64,45 
			63.3,45 63.2,45.7 		"/>
		<polygon style="clip-path:url(#SVGID_2_);fill:#EC1C2E;" points="56.4,46.2 59.5,46.2 59.2,46.2 58.9,46.2 58.7,46.2 58.4,46.1 
			58.1,46.1 57.9,46 57.6,46 57.3,45.9 57.1,45.8 56.8,45.7 56.6,45.6 56.3,45.5 56.1,45.4 		"/>
		<polygon style="clip-path:url(#SVGID_2_);fill:#EC1C2E;" points="71.2,45.4 70.9,45.6 70.6,45.8 70.2,45.9 69.8,46 69.5,46.1 
			69.1,46.2 68.8,46.2 68.4,46.2 68.1,46.2 71.4,46.2 71.4,45.3 		"/>
		<polygon style="clip-path:url(#SVGID_2_);fill:#EC1C2E;" points="57.5,49 71.4,49 71.4,47.8 56.9,47.8 		"/>
		<polygon style="clip-path:url(#SVGID_2_);fill:#EC1C2E;" points="59.1,51.8 71.4,51.8 71.4,50.6 58.3,50.6 		"/>
		<polygon style="clip-path:url(#SVGID_2_);fill:#EC1C2E;" points="61.2,54.5 71.2,54.5 71.2,53.3 60.1,53.3 		"/>
		<polygon style="clip-path:url(#SVGID_2_);fill:#FFFFFF;" points="68.6,34.7 68.4,34.8 68.1,34.8 67.9,34.8 67.7,34.9 67.5,35 
			67.3,35 67.1,35.1 66.9,35.2 66.7,35.3 66.6,35.4 66.4,35.5 66.3,35.6 66.2,35.7 66.1,35.8 66,36 71.4,34.7 68.7,34.7 		"/>
		<path style="clip-path:url(#SVGID_2_);fill:#FFFFFF;" d="M64,41.3l0-0.2L64,41.3z"/>
		<polygon style="clip-path:url(#SVGID_2_);fill:#FFFFFF;" points="57.1,41.3 57.1,41.3 57.1,41.1 		"/>
		<polygon style="clip-path:url(#SVGID_2_);fill:#FFFFFF;" points="59.9,34.7 59.5,34.7 59.2,34.7 60.6,34.7 60.6,34.7 60.4,34.7 
			60.1,34.7 		"/>
		<polygon style="clip-path:url(#SVGID_2_);fill:#0084C4;" points="50.4,41 50.3,41 50.2,40.9 50.1,40.9 50,40.9 49.8,40.9 
			49.7,40.9 49.5,40.9 49.3,40.9 49.1,41 49,41 48.8,41 48.6,41.1 48.5,41.1 48.4,41.1 48.3,41.1 48.2,41.2 48.1,41.2 48,41.3 
			47.9,41.3 47.7,41.4 47.6,41.5 47.5,41.5 47.3,41.7 47.2,41.8 47.1,41.9 47,42 46.9,42.2 46.8,42.3 46.7,42.5 46.7,42.7 46.7,43 
			46.7,43.3 46.8,43.5 46.9,43.7 47.1,43.8 47.3,43.9 47.5,43.9 47.6,43.9 48,43.9 48.3,43.9 48.5,43.8 48.8,43.8 49,43.7 
			49.2,43.6 49.4,43.5 49.5,43.4 49.7,43.3 49.8,43.1 49.9,43 50,42.9 50,42.8 50.1,42.7 50.2,42.5 50.2,42.4 50.2,42.3 50.3,42.1 
			50.3,41.9 50.3,41.7 50.4,41.6 50.4,41.4 50.4,41.2 50.5,41.1 50.4,41 		"/>
		<path style="clip-path:url(#SVGID_2_);fill:#0084C4;" d="M45.8,35.3l0.2-0.1l0.2-0.1l0.2-0.1l0.3-0.1l0.3-0.1l0.3,0l0.3,0l0.3,0
			l0.3,0l0.3,0l0.3,0h0.3h0.3h0.3l0.4,0l0.4,0l0.3,0l0.3,0l0.3,0.1l0.3,0.1l0.3,0.1l0.3,0.2l0.3,0.2l0.3,0.2l0.3,0.2l0.2,0.3
			l0.2,0.3l0.2,0.3l0.1,0.3l0.1,0.4l0,0.4l-0.1,0.4L53,43.9l-0.4,2.4h-2.7l0-0.2l0-0.2l0-0.2l0-0.2l0-0.2l0-0.1l0-0.1l0,0L50,45.1
			l-0.2,0.2l-0.2,0.2l-0.2,0.1l-0.2,0.1l-0.3,0.1L48.6,46l-0.3,0.1L48,46.2l-0.3,0.1l-0.3,0.1l-0.3,0l-0.3,0l-0.3,0l-0.3,0l-0.3,0
			l-0.4-0.1l-0.3-0.1L44.9,46l-0.3-0.2l-0.2-0.2l-0.2-0.2L44,45.3l-0.1-0.2l-0.1-0.2l-0.1-0.2l-0.1-0.2l-0.1-0.2l0-0.2l0-0.2l0-0.2
			l0-0.2l0-0.4l0.1-0.4l0.1-0.4l0.1-0.4l0.2-0.3l0.2-0.3l0.2-0.3l0.2-0.3l0.3-0.2l0.3-0.2l0.3-0.2l0.3-0.2l0.3-0.1l0.3-0.1l0.4-0.1
			l0.4-0.1h0l0.1,0l0.1,0l0.1,0l0.1,0l0.1,0l0.2,0l0.2,0l0.2,0l0.2,0l0.2,0l0.2,0l0.2,0l0.2,0l0.1,0h0.1h0.1h0.1h0.1l0.1,0h0.1
			l0.1,0h0.1h0.1l0.1,0h0.1l0.1,0h0.1l0.1,0h0h0h0l0-0.1l0.1-0.2l0-0.2v-0.2l0-0.1l0-0.1l0-0.1l-0.1-0.1l-0.1-0.1l-0.1-0.1l-0.1-0.1
			l-0.1-0.1l-0.1-0.1l-0.1-0.1l-0.1-0.1l-0.1-0.1l-0.1,0l-0.1,0l-0.1,0l-0.1,0l-0.3,0l-0.3,0l-0.3,0l-0.3,0l-0.3,0l-0.3,0l-0.3,0
			l-0.3,0l-0.3,0.1l-0.3,0L46,37.5l-0.3,0.1l-0.2,0.1l-0.2,0.1l-0.2,0.1l-0.1,0.1L45.8,35.3z M59.2,46.2l-0.3,0l-0.3,0l-0.3,0
			l-0.3,0L57.9,46L57.6,46l-0.3-0.1l-0.3-0.1l-0.3-0.1l-0.3-0.1l-0.2-0.1l-0.2-0.1l-0.2-0.1L55.6,45l-0.2-0.2l-0.2-0.2L55,44.5
			l-0.2-0.2L54.7,44l-0.1-0.2l-0.1-0.3l-0.1-0.3l-0.1-0.3l-0.1-0.3l-0.1-0.3l0-0.4l0-0.4v-0.4l0-0.4l0-0.4l0-0.2l0-0.2l0-0.2l0-0.2
			l0-0.2l0.1-0.2l0.1-0.2l0.1-0.2l0.1-0.2l0.1-0.2l0.1-0.2l0.1-0.2l0.1-0.2l0.1-0.2l0.1-0.2l0.1-0.2l0.2-0.2l0.2-0.2l0.2-0.2L56,36
			l0.2-0.2l0.2-0.2l0.3-0.2l0.3-0.2l0.3-0.1l0.3-0.1l0.3-0.1l0.4-0.1l0.4-0.1l0.4-0.1l0.4,0l0.4,0h0.2l0.2,0l0.2,0l0.2,0l0.2,0
			l0.2,0l0.2,0.1l0.2,0.1l0.2,0.1l0.2,0.1l0.2,0.1l0.2,0.1l0.2,0.1l0.2,0.1l0.2,0.1l0.2,0.2l0.2,0.2l0.2,0.2l0.1,0.2l0.1,0.2
			l0.1,0.2l0.1,0.3l0.1,0.3l0.1,0.3l0.1,0.3l0,0.3l0,0.3V39l0,0.4l0,0.4l-0.1,0.4l-0.1,0.5L64,41.3h-6.9l0,0.1l0,0.2l0,0.2l0,0.2
			l0.1,0.2l0.1,0.2l0.1,0.2l0.1,0.2l0.1,0.2l0.2,0.2l0.2,0.1l0.2,0.1l0.2,0.1l0.2,0.1l0.2,0.1l0.2,0.1l0.3,0l0.3,0l0.3,0l0.3,0
			l0.3,0h0.3l0.3,0l0.3,0l0.3,0l0.3-0.1l0.3-0.1l0.3-0.1l0.3-0.1l0.3-0.1l0.3-0.2l0.3-0.2l-0.5,2.6L63,45.8l-0.2,0.1l-0.2,0.1
			L62.5,46L62.3,46l-0.2,0l-0.2,0l-0.2,0l-0.2,0l-0.2,0l-0.2,0l-0.2,0l-0.3,0h-0.3l-0.3,0h-0.4h-0.3L59.2,46.2z M39.2,32.3h5.2
			L42,46.2h-2.9l1.8-10.4h-0.1l-4.3,10.4h-3.2l0-0.4l-0.1-1.2L33,43l-0.1-1.9l-0.1-1.9l-0.1-1.7l-0.1-1.2l0-0.5h0h0h0h0h0l-1.8,10.4
			h-2.9l2.4-13.9h5l0.5,8.3L39.2,32.3z M47.8,16.7l-1.2,0l-1.1,0.1l-1.1,0.1l-1.1,0.2l-1.1,0.3l-1.1,0.3l-1,0.4l-1,0.4l-1,0.5
			l-1,0.5l-0.9,0.5l-0.9,0.6l-0.9,0.6l-0.8,0.7l-0.8,0.7l-0.8,0.7l-0.7,0.8l-0.7,0.8l-0.7,0.9l-0.6,0.9l-0.6,0.9L28,28.5l-0.5,1
			l-0.5,1l-0.4,1l-0.4,1l-0.3,1.1l-0.3,1.1l-0.2,1.1l-0.1,1.1L25.3,38l0,1.2l0,1.2l0.1,1.1l0.1,1.1l0.2,1.1l0.3,1.1l0.3,1.1l0.4,1
			l0.4,1l0.5,1l0.5,1l0.5,0.9l0.6,0.9l0.6,0.9l0.7,0.9l0.7,0.8l0.7,0.8l0.8,0.7l0.8,0.7l0.8,0.7l0.9,0.6l0.9,0.6L37,59l1,0.5l1,0.5
			l1,0.4l1,0.4l1.1,0.3l1.1,0.2l1.1,0.2l1.1,0.1l1.1,0.1l1.2,0l1.2,0l1.1-0.1l1.1-0.1l1.1-0.2l1.1-0.2l1.1-0.3l1-0.4l1-0.4l1-0.5
			l1-0.5l0.9-0.5l0.9-0.6l0.9-0.6l0.9-0.7l0.8-0.7l0.8-0.7l0.7-0.8l0.7-0.8l0.7-0.9l0.6-0.9l0.6-0.9l0.5-0.9l0.5-1l0.5-1l0.4-1
			l0.3-0.7l-0.1,0l-0.4,0l-0.3,0l-0.3,0h-0.5l-0.4,0l-0.4,0l-0.3,0l-0.3,0l-0.3,0l-0.3,0l-0.2,0l-0.2,0l-0.2,0l-0.2,0L64.6,46
			l-0.2-0.1l-0.2-0.1L64,45.8l-0.2-0.1l0.5-2.3l0.1,0l0.1,0l0.2,0l0.2,0l0.2,0l0.2,0.1l0.2,0l0.3,0l0.3,0l0.3,0l0.3,0l0.3,0l0.3,0
			l0.3,0h0.3l0.3,0l0.3-0.1l0.2-0.1l0.2-0.1l0.1-0.1l0.1-0.2l0.1-0.2l0.1-0.2l0-0.2l0-0.2l0-0.1l0-0.1l-0.1-0.1l-0.1-0.1l-0.1-0.1
			L68.9,42l-0.1-0.1l-0.2-0.1l-0.2-0.1l-0.2-0.1l-0.2-0.1l-0.2-0.1l-0.2-0.1l-0.2-0.1l-0.2-0.1l-0.2-0.1L66.9,41l-0.2-0.1l-0.2-0.1
			l-0.2-0.1l-0.2-0.1l-0.2-0.2l-0.2-0.2L65.6,40l-0.1-0.2l-0.1-0.2l-0.1-0.2l-0.1-0.3l0-0.3l0-0.3l0-0.3l0-0.2l0-0.2l0-0.2l0-0.2
			l0-0.2l0.1-0.2l0.1-0.2l0.1-0.2l0.1-0.2l0.1-0.2l0.1-0.1l0.1-0.1l0.1-0.1l0.1-0.1l0.1-0.1l0.1-0.1l0.1-0.1l0.2-0.1l0.2-0.1
			l0.2-0.1l0.2-0.1l0.2-0.1l0.2-0.1l0.2-0.1l0.2-0.1l0.2,0l0.3,0l0.3,0l0.3,0l0.3,0l0.3,0h0.1l-0.3-1.1l-0.3-1.1l-0.4-1l-0.4-1
			l-0.5-1l-0.5-1L67,27.5l-0.6-0.9l-0.6-0.9l-0.7-0.9l-0.7-0.8l-0.7-0.8l-0.8-0.7l-0.8-0.7l-0.9-0.7l-0.9-0.6l-0.9-0.6l-0.9-0.5
			l-1-0.5l-1-0.5l-1-0.4l-1-0.4l-1.1-0.3l-1.1-0.3l-1.1-0.2l-1.1-0.1l-1.1-0.1L47.8,16.7z"/>
		<polygon style="clip-path:url(#SVGID_2_);fill:#EC1C2E;" points="89.7,40.2 89.6,40.6 89.6,41 89.6,41.3 89.6,41.7 89.7,41.9 
			89.7,42.2 89.8,42.4 89.9,42.7 90.1,42.8 90.2,43 90.4,43.1 90.5,43.2 90.7,43.3 90.9,43.4 91.1,43.4 91.4,43.4 91.6,43.4 
			91.9,43.4 92.1,43.3 92.3,43.3 92.5,43.1 92.7,43 92.9,42.9 93.1,42.7 93.2,42.5 93.4,42.2 93.5,42 93.6,41.7 93.7,41.4 93.8,41 
			93.9,40.6 94,40.2 94,39.9 94,39.6 94,39.3 94,39 94,38.8 93.9,38.5 93.8,38.3 93.7,38.1 93.6,37.9 93.5,37.7 93.3,37.6 
			93.2,37.5 93,37.4 92.8,37.3 92.6,37.3 92.3,37.3 92,37.3 91.7,37.3 91.5,37.4 91.2,37.5 91,37.7 90.8,37.8 90.6,38 90.4,38.2 
			90.3,38.5 90.2,38.7 90,38.9 89.9,39.2 89.9,39.4 89.8,39.7 89.7,39.9 		"/>
	</g>
</g>
</svg>
