<?xml version="1.0" encoding="utf-8"?>
<!-- Generator: Adobe Illustrator 19.1.0, SVG Export Plug-In . SVG Version: 6.00 Build 0)  -->
<svg version="1.1" id="Layer_1" xmlns="http://www.w3.org/2000/svg" xmlns:xlink="http://www.w3.org/1999/xlink" x="0px" y="0px"
	 viewBox="0 0 125.4 78.4" style="enable-background:new 0 0 125.4 78.4;" xml:space="preserve">
<style type="text/css">
	.st0{clip-path:url(#SVGID_2_);}
	.st1{clip-path:url(#SVGID_4_);fill:#F9F9F9;}
	.st2{clip-path:url(#SVGID_4_);fill:#FFFFFF;}
	.st3{clip-path:url(#SVGID_4_);fill:#C5C7C9;}
	.st4{clip-path:url(#SVGID_4_);fill:#231F20;}
	.st5{clip-path:url(#SVGID_4_);fill:#A6A8AB;}
	.st6{clip-path:url(#SVGID_4_);fill:#FFC10E;}
	.st7{clip-path:url(#SVGID_4_);fill:#A30046;}
	.st8{clip-path:url(#SVGID_6_);}
	.st9{clip-path:url(#SVGID_8_);fill:#178FDB;}
	.st10{clip-path:url(#SVGID_8_);fill:#FFFFFF;}
	.st11{clip-path:url(#SVGID_10_);}
	.st12{clip-path:url(#SVGID_12_);fill:#F9F9F9;}
	.st13{clip-path:url(#SVGID_12_);}
	.st14{clip-path:url(#SVGID_14_);}
	.st15{clip-path:url(#SVGID_16_);fill:#F9F9F9;}
	.st16{clip-path:url(#SVGID_16_);fill:#ED1C2E;}
	.st17{clip-path:url(#SVGID_16_);fill:#FCB131;}
	.st18{clip-path:url(#SVGID_18_);}
	.st19{clip-path:url(#SVGID_20_);fill:#F9F9F9;}
	.st20{clip-path:url(#SVGID_20_);fill:#0066B2;}
	.st21{clip-path:url(#SVGID_20_);fill:#F9A533;}
	.st22{clip-path:url(#SVGID_22_);}
	.st23{clip-path:url(#SVGID_24_);fill:#F9F9F9;}
	.st24{clip-path:url(#SVGID_24_);fill:#FFFFFF;}
	.st25{clip-path:url(#SVGID_24_);fill:#0078A9;}
	.st26{clip-path:url(#SVGID_26_);}
	.st27{clip-path:url(#SVGID_28_);fill:#F9F9F9;}
	.st28{clip-path:url(#SVGID_28_);fill-rule:evenodd;clip-rule:evenodd;fill:#231F20;}
	.st29{clip-path:url(#SVGID_30_);}
	.st30{clip-path:url(#SVGID_32_);fill:#F9F9F9;}
	.st31{clip-path:url(#SVGID_32_);fill:#EE3A3F;}
	.st32{clip-path:url(#SVGID_32_);fill:#0067B2;}
	.st33{clip-path:url(#SVGID_32_);fill:#FAAC18;}
	.st34{clip-path:url(#SVGID_32_);fill:#6AB845;}
	.st35{clip-path:url(#SVGID_32_);fill:#231F20;}
	.st36{clip-path:url(#SVGID_34_);}
	.st37{clip-path:url(#SVGID_36_);fill:#F9F9F9;}
	.st38{clip-path:url(#SVGID_36_);fill:#00A551;}
	.st39{clip-path:url(#SVGID_36_);fill:#0071BB;}
	.st40{clip-path:url(#SVGID_36_);fill:#FFFFFF;}
	.st41{clip-path:url(#SVGID_36_);fill:#EC1C24;}
	.st42{clip-path:url(#SVGID_38_);}
	.st43{clip-path:url(#SVGID_40_);fill:#F9F9F9;}
	.st44{clip-path:url(#SVGID_40_);fill-rule:evenodd;clip-rule:evenodd;fill:#008060;}
	.st45{clip-path:url(#SVGID_42_);}
	.st46{clip-path:url(#SVGID_44_);fill:#F9F9F9;}
	.st47{clip-path:url(#SVGID_44_);fill:#203C73;}
	.st48{clip-path:url(#SVGID_46_);}
	.st49{clip-path:url(#SVGID_48_);fill:#F9F9F9;}
	.st50{clip-path:url(#SVGID_48_);fill-rule:evenodd;clip-rule:evenodd;fill:#FF9900;}
	.st51{clip-path:url(#SVGID_48_);fill-rule:evenodd;clip-rule:evenodd;}
	.st52{clip-path:url(#SVGID_50_);}
	.st53{clip-path:url(#SVGID_52_);fill:#F9F9F9;}
	.st54{clip-path:url(#SVGID_52_);fill-rule:evenodd;clip-rule:evenodd;fill:#FAA929;}
	.st55{clip-path:url(#SVGID_52_);fill-rule:evenodd;clip-rule:evenodd;fill:#045EA0;}
	.st56{clip-path:url(#SVGID_54_);}
	.st57{clip-path:url(#SVGID_56_);fill:#F9F9F9;}
	.st58{clip-path:url(#SVGID_56_);fill-rule:evenodd;clip-rule:evenodd;fill:#121212;}
	.st59{clip-path:url(#SVGID_58_);}
	.st60{clip-path:url(#SVGID_60_);fill:#F9F9F9;}
	.st61{clip-path:url(#SVGID_60_);fill:#336699;}
	.st62{clip-path:url(#SVGID_60_);fill:#003366;}
	.st63{clip-path:url(#SVGID_62_);}
	.st64{clip-path:url(#SVGID_64_);fill:#F9F9F9;}
	.st65{clip-path:url(#SVGID_64_);fill:#007CC3;}
	.st66{clip-path:url(#SVGID_64_);fill:#009DDD;}
	.st67{clip-path:url(#SVGID_64_);fill:#FFFFFF;}
	.st68{clip-path:url(#SVGID_66_);}
	.st69{clip-path:url(#SVGID_68_);fill:#F9F9F9;}
	.st70{clip-path:url(#SVGID_68_);fill:#EC1C2E;}
	.st71{clip-path:url(#SVGID_68_);fill:#0084C4;}
	.st72{clip-path:url(#SVGID_68_);fill:#FFFFFF;}
	.st73{clip-path:url(#SVGID_68_);fill:none;stroke:#FFFFFF;stroke-width:0.215;}
	.st74{clip-path:url(#SVGID_70_);}
	.st75{clip-path:url(#SVGID_72_);fill:#F9F9F9;}
	.st76{clip-path:url(#SVGID_72_);fill-rule:evenodd;clip-rule:evenodd;fill:#FBB231;}
	.st77{clip-path:url(#SVGID_72_);fill-rule:evenodd;clip-rule:evenodd;fill:#EC1C2E;}
	.st78{clip-path:url(#SVGID_72_);fill-rule:evenodd;clip-rule:evenodd;fill:#FFFFFF;}
	.st79{clip-path:url(#SVGID_72_);fill:none;stroke:#FFFFFF;stroke-width:0.216;stroke-miterlimit:2.613;}
	.st80{clip-path:url(#SVGID_74_);}
	.st81{clip-path:url(#SVGID_76_);fill:#F9F9F9;}
	.st82{clip-path:url(#SVGID_76_);fill:#0066B2;}
	.st83{clip-path:url(#SVGID_76_);fill:#F9A533;}
	.st84{clip-path:url(#SVGID_78_);}
	.st85{clip-path:url(#SVGID_80_);fill:#0078A9;}
	.st86{clip-path:url(#SVGID_80_);fill:#FFFFFF;}
	.st87{clip-path:url(#SVGID_82_);}
	.st88{clip-path:url(#SVGID_84_);fill:#008060;}
	.st89{clip-path:url(#SVGID_84_);fill-rule:evenodd;clip-rule:evenodd;fill:#FFFFFF;}
	.st90{clip-path:url(#SVGID_86_);}
	.st91{clip-path:url(#SVGID_88_);fill:#203C73;}
	.st92{clip-path:url(#SVGID_88_);fill:#FFFFFF;}
	.st93{clip-path:url(#SVGID_90_);}
	.st94{clip-path:url(#SVGID_92_);fill:#1C3663;}
	.st95{clip-path:url(#SVGID_92_);fill:#FFFFFF;}
	.st96{clip-path:url(#SVGID_94_);}
	.st97{clip-path:url(#SVGID_96_);fill:#13457C;}
	.st98{clip-path:url(#SVGID_96_);fill:#007CC3;}
	.st99{clip-path:url(#SVGID_96_);fill:#009DDD;}
	.st100{clip-path:url(#SVGID_96_);fill:#FFFFFF;}
	.st101{clip-path:url(#SVGID_98_);}
	.st102{clip-path:url(#SVGID_100_);fill:#13457C;}
	.st103{clip-path:url(#SVGID_100_);fill:#ED1C2E;}
	.st104{clip-path:url(#SVGID_100_);fill:#FCB131;}
	.st105{clip-path:url(#SVGID_102_);}
	.st106{clip-path:url(#SVGID_104_);fill:#1D1E1E;}
	.st107{clip-path:url(#SVGID_104_);fill:#EE3A3F;}
	.st108{clip-path:url(#SVGID_104_);fill:#0067B2;}
	.st109{clip-path:url(#SVGID_104_);fill:#FAAC18;}
	.st110{clip-path:url(#SVGID_104_);fill:#6AB845;}
	.st111{clip-path:url(#SVGID_104_);fill:#231F20;}
	.st112{clip-path:url(#SVGID_106_);}
	.st113{clip-path:url(#SVGID_108_);fill:#121212;}
	.st114{clip-path:url(#SVGID_108_);fill-rule:evenodd;clip-rule:evenodd;fill:#FFDE37;}
	.st115{clip-path:url(#SVGID_110_);}
	.st116{clip-path:url(#SVGID_112_);fill:#3957A7;}
	.st117{clip-path:url(#SVGID_112_);fill:#FFFFFF;}
	.st118{clip-path:url(#SVGID_112_);fill:#F9A533;}
	.st119{clip-path:url(#SVGID_114_);}
	.st120{clip-path:url(#SVGID_116_);fill:#0C489C;}
	.st121{clip-path:url(#SVGID_116_);fill:#FFFFFF;}
	.st122{clip-path:url(#SVGID_118_);}
	.st123{clip-path:url(#SVGID_120_);fill:#045EA0;}
	.st124{clip-path:url(#SVGID_120_);fill-rule:evenodd;clip-rule:evenodd;fill:#FAA929;}
	.st125{clip-path:url(#SVGID_120_);fill-rule:evenodd;clip-rule:evenodd;fill:#FFFFFF;}
	.st126{clip-path:url(#SVGID_122_);}
	.st127{clip-path:url(#SVGID_124_);fill:#13457C;}
	.st128{clip-path:url(#SVGID_124_);fill-rule:evenodd;clip-rule:evenodd;fill:#FBB231;}
	.st129{clip-path:url(#SVGID_124_);fill-rule:evenodd;clip-rule:evenodd;fill:#EC1C2E;}
	.st130{clip-path:url(#SVGID_124_);fill-rule:evenodd;clip-rule:evenodd;fill:#FFFFFF;}
	.st131{clip-path:url(#SVGID_124_);fill:none;stroke:#FFFFFF;stroke-width:0.216;stroke-miterlimit:2.613;}
	.st132{clip-path:url(#SVGID_126_);}
	.st133{clip-path:url(#SVGID_128_);fill:#13457C;}
	.st134{clip-path:url(#SVGID_128_);fill:#EC1C2E;}
	.st135{clip-path:url(#SVGID_128_);fill:#0084C4;}
	.st136{clip-path:url(#SVGID_128_);fill:#FFFFFF;}
	.st137{clip-path:url(#SVGID_128_);fill:none;stroke:#FFFFFF;stroke-width:0.215;}
	.st138{clip-path:url(#SVGID_130_);}
	.st139{clip-path:url(#SVGID_132_);fill:#FF9900;}
	.st140{clip-path:url(#SVGID_132_);fill-rule:evenodd;clip-rule:evenodd;fill:#231F20;}
	.st141{clip-path:url(#SVGID_134_);}
	.st142{clip-path:url(#SVGID_136_);fill:#231F20;}
	.st143{clip-path:url(#SVGID_136_);fill-rule:evenodd;clip-rule:evenodd;fill:#FFFFFF;}
	.st144{clip-path:url(#SVGID_138_);}
	.st145{clip-path:url(#SVGID_140_);fill:#121212;}
	.st146{clip-path:url(#SVGID_140_);fill:#FFFFFF;}
	.st147{clip-path:url(#SVGID_140_);fill:#FFC10E;}
	.st148{clip-path:url(#SVGID_142_);}
	.st149{clip-path:url(#SVGID_144_);fill:#0033A0;}
	.st150{clip-path:url(#SVGID_144_);fill:#FFFFFF;}
	.st151{clip-path:url(#SVGID_144_);fill:#FF9E16;}
	.st152{clip-path:url(#SVGID_144_);fill:#FAA943;}
	.st153{clip-path:url(#SVGID_146_);}
	.st154{clip-path:url(#SVGID_148_);fill:#ED1C2E;}
	.st155{clip-path:url(#SVGID_148_);fill:#FCB131;}
	.st156{clip-path:url(#SVGID_150_);}
	.st157{clip-path:url(#SVGID_152_);fill:#0066B2;}
	.st158{clip-path:url(#SVGID_152_);fill:#F9A533;}
	.st159{clip-path:url(#SVGID_154_);}
	.st160{clip-path:url(#SVGID_156_);fill:#FFFFFF;}
	.st161{clip-path:url(#SVGID_156_);fill:#0078A9;}
	.st162{clip-path:url(#SVGID_158_);}
	.st163{clip-path:url(#SVGID_160_);fill-rule:evenodd;clip-rule:evenodd;fill:#231F20;}
	.st164{clip-path:url(#SVGID_162_);}
	.st165{clip-path:url(#SVGID_164_);fill:#EE3A3F;}
	.st166{clip-path:url(#SVGID_164_);fill:#0067B2;}
	.st167{clip-path:url(#SVGID_164_);fill:#FAAC18;}
	.st168{clip-path:url(#SVGID_164_);fill:#6AB845;}
	.st169{clip-path:url(#SVGID_164_);fill:#231F20;}
	.st170{clip-path:url(#SVGID_166_);}
	.st171{clip-path:url(#SVGID_168_);fill:#00A551;}
	.st172{clip-path:url(#SVGID_168_);fill:#0071BB;}
	.st173{clip-path:url(#SVGID_168_);fill:#FFFFFF;}
	.st174{clip-path:url(#SVGID_168_);fill:#EC1C24;}
	.st175{clip-path:url(#SVGID_170_);}
	.st176{clip-path:url(#SVGID_172_);fill-rule:evenodd;clip-rule:evenodd;fill:#008060;}
	.st177{clip-path:url(#SVGID_174_);}
	.st178{clip-path:url(#SVGID_176_);fill:#203C73;}
	.st179{clip-path:url(#SVGID_178_);}
	.st180{clip-path:url(#SVGID_180_);fill-rule:evenodd;clip-rule:evenodd;fill:#FF9900;}
	.st181{clip-path:url(#SVGID_180_);fill-rule:evenodd;clip-rule:evenodd;}
	.st182{clip-path:url(#SVGID_182_);}
	.st183{clip-path:url(#SVGID_184_);fill-rule:evenodd;clip-rule:evenodd;fill:#FAA929;}
	.st184{clip-path:url(#SVGID_184_);fill-rule:evenodd;clip-rule:evenodd;fill:#045EA0;}
	.st185{clip-path:url(#SVGID_186_);fill:#0084C4;}
	.st186{clip-path:url(#SVGID_186_);fill:#EC1C2E;}
	.st187{clip-path:url(#SVGID_186_);fill:#FFFFFF;}
	.st188{clip-path:url(#SVGID_188_);}
	.st189{clip-path:url(#SVGID_190_);fill:#336699;}
	.st190{clip-path:url(#SVGID_190_);fill:#003366;}
	.st191{clip-path:url(#SVGID_192_);fill:#121212;}
	.st192{clip-path:url(#SVGID_192_);fill-rule:evenodd;clip-rule:evenodd;fill:#121212;}
	.st193{clip-path:url(#SVGID_192_);}
	.st194{clip-path:url(#SVGID_194_);fill-rule:evenodd;clip-rule:evenodd;fill:#121212;}
	.st195{clip-path:url(#SVGID_196_);}
	.st196{clip-path:url(#SVGID_198_);fill:#009DDD;}
	.st197{clip-path:url(#SVGID_198_);fill:#007CC3;}
	.st198{clip-path:url(#SVGID_198_);fill:#FFFFFF;}
	.st199{clip-path:url(#SVGID_200_);fill:#FBB231;}
	.st200{clip-path:url(#SVGID_200_);fill:none;stroke:#FFFFFF;stroke-width:0.216;stroke-miterlimit:2.613;}
	.st201{clip-path:url(#SVGID_200_);fill-rule:evenodd;clip-rule:evenodd;fill:#EC1C2E;}
	.st202{clip-path:url(#SVGID_200_);fill:#EC1C2E;}
	.st203{clip-path:url(#SVGID_200_);fill:#FFFFFF;}
	.st204{clip-path:url(#SVGID_200_);fill-rule:evenodd;clip-rule:evenodd;fill:#FFFFFF;}
	.st205{clip-path:url(#SVGID_200_);fill-rule:evenodd;clip-rule:evenodd;fill:#FBB231;}
	.st206{clip-path:url(#SVGID_202_);fill:#0066B2;}
	.st207{clip-path:url(#SVGID_202_);}
	.st208{clip-path:url(#SVGID_204_);fill:#0066B2;}
	.st209{clip-path:url(#SVGID_204_);fill:#F9A533;}
	.st210{clip-path:url(#SVGID_206_);}
	.st211{clip-path:url(#SVGID_208_);fill:#FFFFFF;}
	.st212{clip-path:url(#SVGID_208_);fill:#C5C7C9;}
	.st213{clip-path:url(#SVGID_208_);fill:#231F20;}
	.st214{clip-path:url(#SVGID_208_);fill:#A6A8AB;}
	.st215{clip-path:url(#SVGID_208_);fill:#FFC10E;}
	.st216{clip-path:url(#SVGID_208_);fill:#A30046;}
	.st217{clip-path:url(#SVGID_210_);}
	.st218{clip-path:url(#SVGID_212_);}
	.st219{clip-path:url(#SVGID_214_);}
	.st220{clip-path:url(#SVGID_216_);}
	.st221{clip-path:url(#SVGID_216_);fill:#FFFFFF;}
	.st222{clip-path:url(#SVGID_218_);}
	.st223{clip-path:url(#SVGID_220_);fill:#F9F9F9;}
	.st224{clip-path:url(#SVGID_220_);}
	.st225{clip-path:url(#SVGID_222_);}
	.st226{clip-path:url(#SVGID_224_);}
</style>
<g>
	<g>
		<defs>
			<rect id="SVGID_199_" x="25.1" y="16.7" width="75.2" height="45"/>
		</defs>
		<clipPath id="SVGID_2_">
			<use xlink:href="#SVGID_199_"  style="overflow:visible;"/>
		</clipPath>
		<path style="clip-path:url(#SVGID_2_);fill:#FBB231;" d="M98.7,43.7l0-0.2l-0.1-0.2l-0.1-0.1l-0.1-0.1L98.2,43L98,43l-0.2,0
			l-0.2,0L97.5,43l-0.1,0.1l-0.1,0.1l-0.1,0.1L97,43.5l0,0.2l0,0.1v0l0,0.2l0,0.2l0.1,0.1l0.1,0.1l0.1,0.1l0.1,0.1l0.2,0.1l0.2,0
			l0.2,0l0.2-0.1l0.1-0.1l0.1-0.1l0.1-0.1l0.1-0.1l0-0.2l0-0.2l0,0L98.7,43.7z M98.2,43.7L98.2,43.7L98.2,43.7l-0.1,0.1l0,0l0,0l0,0
			l-0.1,0H98l0.2,0.4h-0.2l-0.2-0.4h-0.2v0.4h-0.2v-0.5v-0.5h0.4l0.1,0l0.1,0l0.1,0l0.1,0l0,0l0,0l0,0.1V43.7L98.2,43.7z"/>
		<polygon style="clip-path:url(#SVGID_2_);fill:#FBB231;" points="97.9,43.5 97.9,43.5 97.6,43.5 97.6,43.8 97.6,43.8 97.8,43.8 
			97.9,43.8 97.9,43.8 98,43.8 98,43.8 98,43.8 98.1,43.7 98.1,43.7 98.1,43.7 98.1,43.6 98.1,43.6 98.1,43.6 98.1,43.5 98,43.5 
			98,43.5 98,43.5 		"/>
		<polygon style="clip-path:url(#SVGID_2_);fill:#FBB231;" points="97.9,43.5 97.9,43.5 97.6,43.5 97.6,43.8 97.6,43.8 97.8,43.8 
			97.9,43.8 97.9,43.8 98,43.8 98,43.8 98,43.8 98.1,43.7 98.1,43.7 98.1,43.7 98.1,43.6 98.1,43.6 98.1,43.6 98.1,43.5 98,43.5 
			98,43.5 98,43.5 		"/>
		<polygon style="clip-path:url(#SVGID_2_);fill:#FBB231;" points="93.9,39.8 93.9,39.6 93.8,39.5 93.8,39.3 93.7,39.1 93.6,39 
			93.5,38.9 93.4,38.8 93.3,38.7 93.1,38.6 93,38.6 92.8,38.5 92.6,38.6 92.4,38.6 92.3,38.7 92.1,38.7 91.9,38.8 91.8,39 
			91.7,39.1 91.5,39.2 91.4,39.4 91.3,39.6 91.2,39.7 91.1,39.9 91,40.1 91,40.4 90.9,40.6 90.9,40.8 90.8,41.1 90.9,41.5 
			90.9,41.9 91,42.2 91.2,42.5 91.4,42.8 91.6,43 91.9,43 92.1,43 92.3,43 92.5,42.9 92.7,42.8 92.8,42.7 93,42.6 93.1,42.5 
			93.3,42.3 93.4,42.2 93.5,42 93.6,41.8 93.7,41.7 93.7,41.5 93.8,41.3 93.9,41.1 93.9,40.9 93.9,40.7 94,40.4 94,40.2 93.9,40 		
			"/>
		<polyline style="clip-path:url(#SVGID_2_);fill:none;stroke:#FFFFFF;stroke-width:0.216;stroke-miterlimit:2.613;" points="
			52,38.5 52,38.5 51.9,38.5 51.8,38.4 51.7,38.4 51.6,38.4 51.5,38.4 51.4,38.4 51.3,38.4 51.2,38.4 51.1,38.3 51,38.3 50.9,38.3 
			50.7,38.3 50.5,38.3 50.4,38.3 50.2,38.3 50,38.4 49.8,38.4 49.7,38.4 49.5,38.4 49.4,38.5 49.3,38.5 49.2,38.6 49.1,38.7 
			49.1,38.8 49,38.8 49,38.9 49,39 49,39.1 49,39.2 49,39.3 49.1,39.4 49.2,39.5 49.3,39.6 49.5,39.8 49.7,39.9 49.9,39.9 50.2,40 
			50.4,40.1 50.7,40.2 50.9,40.3 51.1,40.4 51.4,40.6 51.5,40.8 51.7,41 51.8,41.3 51.9,41.6 51.9,42 51.9,42.5 51.9,42.9 
			51.8,43.2 51.6,43.5 51.5,43.7 51.3,43.9 51.1,44.1 50.9,44.3 50.7,44.4 50.4,44.6 50.2,44.7 49.9,44.7 49.7,44.8 49.4,44.8 
			49.1,44.9 48.9,44.9 48.7,44.9 48.3,44.9 48,44.9 47.8,44.9 47.5,44.9 47.3,44.9 47.1,44.8 46.9,44.8 46.7,44.8 46.6,44.8 
			46.4,44.8 46.3,44.7 46.1,44.7 46,44.7 45.9,44.6 45.8,44.6 45.6,44.5 46,42.9 46.1,42.9 46.1,42.9 46.2,42.9 46.4,43 46.5,43 
			46.7,43 46.8,43.1 47,43.1 47.2,43.1 47.4,43.1 47.6,43.2 47.8,43.2 48,43.2 48.3,43.2 48.5,43.2 48.7,43.2 48.9,43.2 49.1,43.1 
			49.2,43 49.3,42.9 49.4,42.8 49.5,42.7 49.5,42.6 49.5,42.4 49.6,42.2 49.5,42 49.4,41.9 49.2,41.8 48.9,41.6 48.7,41.5 
			48.4,41.4 48.1,41.3 47.8,41.2 47.5,41 47.2,40.8 47,40.6 46.8,40.3 46.7,39.9 46.6,39.5 46.6,39 46.6,38.7 46.7,38.5 46.8,38.2 
			46.9,38 47,37.7 47.1,37.5 47.3,37.3 47.5,37.2 47.7,37 47.9,36.9 48.2,36.8 48.5,36.7 48.8,36.7 49.2,36.6 49.6,36.6 50.1,36.6 
			50.4,36.6 50.6,36.6 50.8,36.6 51.1,36.6 51.2,36.6 51.4,36.6 51.6,36.6 51.7,36.6 51.8,36.7 51.9,36.7 52,36.7 52.1,36.7 
			52.2,36.7 52.3,36.7 52.3,36.7 52.4,36.8 52,38.5 		"/>
		<polygon style="clip-path:url(#SVGID_2_);fill-rule:evenodd;clip-rule:evenodd;fill:#EC1C2E;" points="58.8,39.8 58.8,39.8 
			61.6,39.8 61.6,39.6 61.6,39.5 61.6,39.3 61.6,39.1 61.5,39 61.5,38.9 61.4,38.8 61.3,38.7 61.2,38.6 61.1,38.5 61,38.4 
			60.9,38.4 60.8,38.3 60.7,38.3 60.5,38.3 60.4,38.2 60.2,38.3 60.1,38.3 60,38.3 59.9,38.4 59.7,38.4 59.6,38.5 59.5,38.6 
			59.4,38.7 59.3,38.8 59.2,38.9 59.1,39 59.1,39.1 59,39.3 58.9,39.4 58.9,39.6 58.9,39.7 58.8,39.8 		"/>
		<polyline style="clip-path:url(#SVGID_2_);fill:none;stroke:#FFFFFF;stroke-width:0.216;stroke-miterlimit:2.613;" points="
			45.3,43.2 45,44.8 43.1,44.8 43.1,44.5 43.2,44.3 43.2,44 43.2,43.9 43.1,44.1 43,44.2 42.9,44.3 42.7,44.4 42.5,44.5 42.3,44.6 
			42.1,44.7 41.9,44.8 41.7,44.8 41.5,44.9 41.3,44.9 41,45 40.8,45 40.6,45 40.4,45 40.2,44.9 39.9,44.9 39.7,44.8 39.5,44.7 
			39.3,44.6 39.1,44.4 38.9,44.3 38.8,44.2 38.7,44 38.6,43.9 38.6,43.7 38.5,43.5 38.4,43.4 38.4,43.2 38.4,43 38.4,42.8 
			38.4,42.7 38.4,42.4 38.4,42.1 38.5,41.8 38.6,41.6 38.7,41.3 38.9,41.1 39,40.9 39.2,40.7 39.4,40.5 39.6,40.4 39.8,40.2 
			40.1,40.1 40.3,40 40.6,39.9 40.8,39.8 41.1,39.8 41.1,39.8 41.1,39.8 41.2,39.8 41.3,39.8 41.4,39.8 41.5,39.8 41.6,39.7 
			41.7,39.7 41.8,39.7 42,39.7 42.1,39.7 42.2,39.7 42.4,39.7 42.5,39.7 42.6,39.6 42.7,39.6 42.8,39.6 43,39.7 43.2,39.7 
			43.4,39.7 43.5,39.7 43.6,39.7 43.7,39.7 43.7,39.7 43.7,39.6 43.8,39.5 43.8,39.3 43.8,39.2 43.8,39 43.7,38.9 43.6,38.7 
			43.5,38.6 43.4,38.5 43.2,38.5 43,38.4 42.8,38.4 42.6,38.4 42.4,38.4 42.1,38.4 41.9,38.4 41.6,38.4 41.4,38.4 41.2,38.4 
			40.9,38.5 40.7,38.5 40.5,38.5 40.3,38.6 40.1,38.6 39.9,38.7 39.8,38.7 39.7,38.8 39.6,38.8 40.1,37 40.3,36.9 40.5,36.9 
			40.7,36.8 40.8,36.8 41,36.7 41.2,36.7 41.4,36.7 41.6,36.7 41.8,36.6 42.1,36.6 42.3,36.6 42.5,36.6 42.8,36.6 43,36.6 
			43.3,36.6 43.5,36.6 43.8,36.7 44,36.7 44.2,36.7 44.5,36.8 44.7,36.9 44.9,37 45.2,37.1 45.4,37.3 45.6,37.4 45.7,37.6 
			45.9,37.8 46,38.1 46.1,38.3 46.1,38.6 46.1,38.9 46.1,39.2 45.3,43.2 		"/>
		<polygon style="clip-path:url(#SVGID_2_);fill-rule:evenodd;clip-rule:evenodd;fill:#EC1C2E;" points="43.5,41.2 43.5,41.1 
			43.4,41.1 43.4,41.1 43.3,41.1 43.2,41.1 43.1,41 43,41 42.9,41 42.8,41.1 42.6,41.1 42.5,41.1 42.4,41.1 42.3,41.1 42.2,41.1 
			42.1,41.2 42,41.2 42,41.2 41.9,41.2 41.8,41.3 41.7,41.3 41.6,41.3 41.5,41.4 41.4,41.4 41.3,41.5 41.2,41.6 41.1,41.7 41,41.7 
			40.9,41.8 40.9,41.9 40.8,42 40.8,42.2 40.7,42.3 40.7,42.5 40.8,42.7 40.9,42.9 41,43 41.1,43.1 41.2,43.1 41.3,43.2 41.4,43.2 
			41.7,43.2 41.9,43.1 42.1,43.1 42.2,43.1 42.4,43 42.5,42.9 42.7,42.9 42.8,42.8 42.9,42.7 43,42.6 43,42.5 43.1,42.4 43.2,42.4 
			43.2,42.3 43.2,42.2 43.3,42.1 43.3,41.9 43.4,41.6 43.4,41.4 		"/>
		<path style="clip-path:url(#SVGID_2_);fill:#EC1C2E;" d="M66.9,37.9l0.1-0.2l0.1-0.1l0.1-0.1l0.1-0.1l0.1-0.1l0.1-0.1l0.1-0.1
			l0.1-0.1l0.1-0.1l0.2-0.1l0.2-0.1l0.2,0l0.2,0l0.2,0l0.2,0h0.1l0.1,0l0.1,0h0.1l0.1,0l0,0l0,0h0l0,0l0,0.1l-0.1,0.1L69.3,37
			l-0.1,0.1l-0.1,0.1l-0.1,0.1L69,37.5l-0.1,0.2l-0.1,0.2l-0.1,0.2l-0.1,0.2l0,0.2l0,0.1l0,0.1l0,0h0l0,0l0,0l0,0h0l0,0l0,0h0
			l-0.3,0l-0.3,0l-0.2,0.1l-0.2,0.1L67.3,39l-0.2,0.1L67,39.2l-0.1,0.1l-0.1,0.1l-0.1,0.1l-0.1,0.1l-0.1,0.2L66.5,40l0,0.2l0,0.2
			l0,0.2l-0.7,4.3h0h-2.1l1.4-8.1H67l-0.3,1.4L66.9,37.9z M40.1,37l0.2-0.1l0.2-0.1l0.2-0.1l0.2,0l0.2,0l0.2,0l0.2,0l0.2,0l0.2,0
			l0.2,0l0.2,0h0.2h0.2H43l0.3,0l0.3,0l0.2,0l0.2,0l0.2,0.1l0.2,0.1l0.2,0.1l0.2,0.1l0.2,0.1l0.2,0.1l0.2,0.2l0.2,0.2l0.2,0.2
			l0.1,0.2l0.1,0.2l0,0.3v0.3l0,0.3l-0.8,4L45,44.8h-1.9l0.1-0.3l0-0.3l0-0.2l0-0.1l-0.1,0.1L43,44.2l-0.1,0.1l-0.2,0.1l-0.2,0.1
			l-0.2,0.1l-0.2,0.1l-0.2,0.1l-0.2,0.1l-0.2,0.1l-0.2,0L41,45l-0.2,0l-0.2,0l-0.2,0l-0.2,0l-0.3-0.1l-0.2-0.1l-0.2-0.1l-0.2-0.1
			l-0.2-0.1l-0.2-0.1l-0.1-0.1L38.7,44l-0.1-0.2l-0.1-0.2l-0.1-0.2l0-0.2l0-0.2l0-0.2l0-0.2v-0.2l0-0.3l0-0.3l0.1-0.3l0.1-0.3
			l0.1-0.2l0.1-0.2l0.2-0.2l0.2-0.2l0.2-0.2l0.2-0.2l0.2-0.1l0.2-0.1l0.2-0.1l0.3-0.1l0.3-0.1l0.3,0h0l0,0l0.1,0l0.1,0l0.1,0l0.1,0
			l0.1,0l0.1,0l0.1,0l0.1,0l0.1,0l0.1,0l0.1,0l0.1,0l0.1,0h0.1h0.2l0.2,0l0.2,0h0.2l0.1,0l0.1,0l0.1,0h0l0-0.1l0-0.1l0-0.2l0-0.1
			l0-0.2l-0.1-0.2l-0.1-0.1l-0.1-0.1l-0.1-0.1l-0.2-0.1l-0.2,0l-0.2,0l-0.2,0l-0.2,0h-0.2l-0.2,0l-0.3,0l-0.2,0l-0.2,0l-0.2,0
			l-0.2,0l-0.2,0l-0.2,0l-0.2,0l-0.2,0l-0.1,0l-0.1,0.1l-0.1,0L40.1,37z M48.5,43.2l0.2,0l0.2,0l0.2-0.1l0.1-0.1l0.1-0.1l0.1-0.1
			l0.1-0.1l0-0.1l0-0.1l0-0.2L49.5,42l-0.1-0.2l-0.2-0.1l-0.2-0.1l-0.3-0.1l-0.3-0.1l-0.3-0.1l-0.3-0.1L47.5,41l-0.3-0.2L47,40.6
			l-0.2-0.3l-0.1-0.3l-0.1-0.4l0-0.5l0-0.3l0.1-0.3l0.1-0.3l0.1-0.2l0.1-0.2l0.1-0.2l0.2-0.2l0.2-0.2l0.2-0.1l0.2-0.1l0.3-0.1
			l0.3-0.1l0.3-0.1l0.4-0.1l0.4,0l0.5,0h0.3l0.3,0l0.2,0l0.2,0l0.2,0l0.2,0l0.2,0l0.1,0l0.1,0l0.1,0l0.1,0l0.1,0l0.1,0l0.1,0l0.1,0
			l0.1,0L52,38.5l-0.1,0l-0.1,0l-0.1,0l-0.1,0l-0.1,0l-0.1,0l-0.1,0l-0.1,0l-0.1,0l-0.1,0l-0.1,0l-0.1,0h-0.2l-0.2,0l-0.2,0l-0.2,0
			l-0.2,0l-0.1,0l-0.1,0l-0.1,0l-0.1,0.1l-0.1,0.1l-0.1,0.1l-0.1,0.1l0,0.1l0,0.1l0,0.1v0.1l0,0.1l0,0.1l0.1,0.1l0.1,0.1l0.2,0.1
			l0.2,0.1l0.2,0.1l0.2,0.1l0.2,0.1l0.2,0.1l0.3,0.1l0.2,0.1l0.2,0.1l0.2,0.2l0.2,0.2l0.2,0.2l0.1,0.3l0.1,0.3l0,0.4l0,0.5l-0.1,0.4
			l-0.1,0.3l-0.1,0.3l-0.2,0.2l-0.2,0.2l-0.2,0.2l-0.2,0.2l-0.2,0.1l-0.2,0.1l-0.2,0.1l-0.3,0.1l-0.3,0.1l-0.3,0l-0.2,0l-0.2,0
			l-0.2,0h-0.3l-0.3,0h-0.3l-0.2,0l-0.2,0l-0.2,0l-0.2,0l-0.2,0l-0.2,0l-0.1,0l-0.1,0l-0.1,0l-0.1,0l-0.1,0l-0.1,0l-0.1,0l0.3-1.7
			l0.1,0l0.1,0l0.1,0l0.1,0l0.1,0l0.2,0l0.2,0l0.2,0l0.2,0l0.2,0l0.2,0l0.2,0l0.2,0l0.2,0H48.5z M60.1,44.8l-0.4,0l-0.4-0.1
			l-0.4-0.1l-0.4-0.1l-0.4-0.1l-0.3-0.2L57.5,44l-0.3-0.3L57,43.4l-0.2-0.3l-0.2-0.4l-0.1-0.4l-0.1-0.5l0-0.6l0-0.6l0-0.2l0-0.3
			l0.1-0.3l0.1-0.3l0.1-0.3l0.1-0.3l0.2-0.3l0.2-0.3l0.2-0.3l0.3-0.3l0.3-0.3l0.4-0.2l0.4-0.2l0.5-0.1l0.5-0.1l0.6,0l0.3,0l0.3,0
			l0.3,0.1l0.3,0.1l0.3,0.1l0.3,0.1l0.3,0.2l0.2,0.2l0.2,0.3l0.2,0.3l0.1,0.3l0.1,0.4l0.1,0.5l0,0.5l-0.1,0.6l-0.1,0.6l0,0.5h-4.9
			l0,0.1l0,0.1l0,0.1l0,0.1l0.1,0.1l0.1,0.1l0.1,0.1l0.1,0.1l0.1,0.1l0.1,0.1l0.1,0.1l0.1,0.1l0.1,0.1l0.2,0.1l0.2,0.1l0.2,0l0.2,0
			l0.2,0l0.2,0l0.2,0l0.2,0h0.2l0.2,0l0.2,0l0.2,0l0.2,0l0.2,0l0.2-0.1l0.2-0.1l0.2-0.1l0.2-0.1l0.2-0.1l-0.3,1.9l-0.1,0.1l-0.1,0.1
			l-0.1,0l-0.1,0l-0.1,0l-0.1,0l-0.1,0l-0.1,0l-0.1,0l-0.2,0l-0.2,0l-0.2,0l-0.2,0h-0.2l-0.2,0h-0.3L60.1,44.8z M35.4,34.9h3.7
			l-1.8,10h-2.1l1.3-7.4h-0.1l-3.1,7.4h-2.3l0-0.3l-0.1-0.8L31,42.5l-0.1-1.4l-0.1-1.4l-0.1-1.2l-0.1-0.9l0-0.4h0h0h0l-1.3,7.4h-2.1
			l1.7-10h3.6l0.3,5.9L35.4,34.9z M55.9,34.9l-0.3,1.8h1.3l-0.3,1.7l-1.3,0l-0.7,4.2l0,0.2l0,0.1l0.1,0.1l0.1,0.1l0.1,0.1l0.2,0
			l0.2,0l0.2,0l0.2,0l0.2,0l0.1,0l0.1,0l0.1,0l0.1,0l0,0l0,0l-0.3,1.4l-0.1,0l-0.1,0l-0.1,0l-0.1,0l-0.1,0l-0.1,0l-0.1,0l-0.1,0
			l-0.1,0l-0.1,0l-0.1,0l-0.1,0l-0.1,0l-0.1,0l-0.1,0l-0.1,0h-0.6l-0.3,0l-0.3,0l-0.2,0l-0.2-0.1l-0.2-0.1l-0.1-0.1l-0.1-0.1
			l-0.1-0.1l-0.1-0.1l-0.1-0.1l0-0.1l0-0.1l0-0.2v-0.2l0-0.2l0-0.2l1.5-8.3H55.9z M47.7,16.7l-1.2,0l-1.1,0.1L44.2,17l-1.1,0.2
			L42,17.4L41,17.7l-1,0.4l-1,0.4l-1,0.5l-1,0.5L36,20l-0.9,0.6l-0.9,0.6l-0.8,0.7l-0.8,0.7l-0.8,0.7L31,24.1l-0.7,0.8l-0.7,0.8
			L29,26.6l-0.6,0.9l-0.5,0.9l-0.5,1l-0.5,1l-0.4,1l-0.4,1l-0.3,1.1l-0.2,1.1l-0.2,1.1l-0.1,1.1L25.1,38l0,1.2l0,1.2l0.1,1.1
			l0.1,1.1l0.2,1.1l0.2,1.1l0.3,1.1l0.4,1l0.4,1l0.5,1l0.5,1l0.5,0.9l0.6,0.9l0.6,0.9l0.7,0.8l0.7,0.8l0.8,0.8l0.8,0.8l0.8,0.7
			l0.8,0.7l0.9,0.6l0.9,0.6l0.9,0.5l1,0.5l1,0.5l1,0.4l1,0.4L42,61l1.1,0.2l1.1,0.2l1.1,0.1l1.1,0.1l1.2,0l1.2,0l1.1-0.1l1.1-0.1
			l1.1-0.2l1.1-0.2l1.1-0.3l1-0.4l1-0.4l1-0.5l1-0.5l0.9-0.5l0.9-0.6l0.9-0.6l0.8-0.7l0.8-0.7l0.8-0.8l0.7-0.8l0.7-0.8l0.7-0.8
			l0.6-0.9l0.6-0.9l0.5-0.9l0.5-1l0.4-1l0.4-1l0.3-1l0.3-1.1l0.3-1.1l0.1-0.4l-0.2-0.2l-0.2-0.4l-0.2-0.4L69,41.8l-0.1-0.5l0-0.5
			l0-0.6l0.1-0.6l0.1-0.3l0.1-0.3l0.1-0.3l0.1-0.3l0.1-0.3l0.1-0.3l0.1-0.2l0.1-0.2l0.1-0.2l0.1-0.2l0.1-0.1l-0.1-1l-0.2-1.1
			l-0.3-1.1l-0.3-1.1l-0.3-1l-0.4-1l-0.4-1l-0.5-1l-0.5-0.9l-0.6-0.9l-0.6-0.9L65,24.9l-0.7-0.8l-0.7-0.8l-0.8-0.7L62,21.8l-0.8-0.7
			l-0.9-0.6L59.3,20l-0.9-0.5l-1-0.5l-1-0.5l-1-0.4l-1-0.4l-1.1-0.3l-1.1-0.2L51.1,17L50,16.8l-1.1-0.1L47.7,16.7z"/>
		<path style="clip-path:url(#SVGID_2_);fill:#FFFFFF;" d="M82.7,44.9L82.7,44.9L82.7,44.9L82.7,44.9z M82.6,44.8L82.6,44.8
			L82.6,44.8L82.6,44.8l0.4-1.7l-0.1,0L82.6,44.8z"/>
		<path style="clip-path:url(#SVGID_2_);fill:#FFFFFF;" d="M80.7,44.9L80.7,44.9L80.7,44.9L80.7,44.9z M80.8,44.8L80.8,44.8
			L80.8,44.8v0.1h1.9v-0.1H80.8z"/>
		<path style="clip-path:url(#SVGID_2_);fill:#FFFFFF;" d="M80.7,44.1l0,0.2v0.3l0,0.3h0.1l0-0.3l0-0.3L80.7,44.1L80.7,44.1l0-0.1
			L80.7,44.1z M80.8,43.9L80.8,43.9L80.8,43.9L80.8,43.9z M80.8,43.9L80.8,43.9L80.8,43.9L80.8,43.9z"/>
		<polygon style="clip-path:url(#SVGID_2_);fill-rule:evenodd;clip-rule:evenodd;fill:#FFFFFF;" points="77.9,45 77.9,45 78.1,45 
			78.3,45 78.5,45 78.7,45 78.9,45 79.2,44.9 79.4,44.9 79.6,44.8 79.8,44.7 80,44.6 80.2,44.6 80.3,44.4 80.5,44.3 80.6,44.2 
			80.7,44.1 80.8,44 80.8,43.9 80.7,44.1 80.5,44.2 80.4,44.3 80.3,44.4 80.1,44.5 79.9,44.6 79.7,44.6 79.6,44.7 79.4,44.8 
			79.1,44.8 78.9,44.9 78.7,44.9 78.5,44.9 78.3,44.9 78.1,44.9 77.9,44.9 		"/>
		<polygon style="clip-path:url(#SVGID_2_);fill-rule:evenodd;clip-rule:evenodd;fill:#FFFFFF;" points="76,42.7 76,42.7 76,42.8 
			76.1,43 76.1,43.2 76.1,43.4 76.2,43.5 76.2,43.7 76.3,43.9 76.4,44 76.5,44.2 76.6,44.3 76.8,44.5 76.9,44.6 77.1,44.7 
			77.4,44.8 77.6,44.9 77.9,45 77.9,44.9 77.6,44.8 77.4,44.7 77.2,44.6 77,44.5 76.8,44.4 76.7,44.3 76.6,44.1 76.5,44 76.4,43.8 
			76.3,43.7 76.2,43.5 76.2,43.3 76.2,43.2 76.2,43 76.1,42.8 76.1,42.7 		"/>
		<polygon style="clip-path:url(#SVGID_2_);fill-rule:evenodd;clip-rule:evenodd;fill:#FFFFFF;" points="78.8,39.8 78.8,39.8 
			78.5,39.8 78.2,39.9 78,40 77.7,40.1 77.5,40.2 77.3,40.3 77.1,40.5 76.9,40.7 76.7,40.9 76.5,41.1 76.4,41.3 76.3,41.6 
			76.2,41.8 76.1,42.1 76.1,42.4 76,42.7 76.1,42.7 76.2,42.4 76.2,42.1 76.3,41.8 76.4,41.6 76.5,41.3 76.6,41.1 76.8,40.9 
			76.9,40.7 77.1,40.6 77.3,40.4 77.6,40.3 77.8,40.1 78,40 78.3,40 78.5,39.9 78.8,39.8 		"/>
		<polygon style="clip-path:url(#SVGID_2_);fill:#FFFFFF;" points="80.2,39.6 80.1,39.6 80,39.6 79.9,39.6 79.8,39.6 79.7,39.6 
			79.5,39.7 79.4,39.7 79.3,39.7 79.1,39.7 79,39.7 78.9,39.7 78.9,39.7 78.8,39.7 78.8,39.8 78.8,39.8 78.8,39.8 78.8,39.8 
			78.8,39.8 78.9,39.8 78.9,39.8 79,39.8 79.1,39.8 79.3,39.8 79.4,39.8 79.5,39.8 79.7,39.7 79.8,39.7 79.9,39.7 80,39.7 
			80.1,39.7 80.2,39.7 80.3,39.7 80.3,39.6 		"/>
		<path style="clip-path:url(#SVGID_2_);fill:#FFFFFF;" d="M81.4,39.7L81.4,39.7L81.4,39.7L81.4,39.7z M80.3,39.6v0.1h0.2h0.2l0.2,0
			H81h0.1l0.1,0l0.1,0h0l0,0l-0.1,0l0,0h0l-0.1,0l-0.1,0l-0.1,0h-0.2h-0.2l-0.2,0H80.3z"/>
		<polygon style="clip-path:url(#SVGID_2_);fill:#FFFFFF;" points="81.5,39.2 81.4,39.2 81.4,39.2 81.4,39.3 81.4,39.5 81.4,39.6 
			81.4,39.7 81.4,39.7 81.5,39.6 81.5,39.5 81.5,39.3 81.5,39.2 		"/>
		<polygon style="clip-path:url(#SVGID_2_);fill:#FFFFFF;" points="80.5,38.4 80.5,38.4 80.5,38.4 80.7,38.5 80.9,38.5 81,38.6 
			81.1,38.7 81.2,38.8 81.3,38.9 81.4,39 81.4,39.2 81.5,39.2 81.5,39 81.4,38.9 81.3,38.7 81.2,38.6 81.1,38.5 80.9,38.4 
			80.7,38.4 80.5,38.3 		"/>
		<polygon style="clip-path:url(#SVGID_2_);fill:#FFFFFF;" points="79.8,38.3 79.6,38.3 79.4,38.4 79.1,38.4 78.9,38.4 78.6,38.4 
			78.4,38.5 78.2,38.5 78,38.5 77.8,38.6 77.6,38.6 77.5,38.7 77.4,38.7 77.3,38.8 77.4,38.8 77.3,38.8 77.3,38.9 77.4,38.8 
			77.5,38.8 77.6,38.7 77.8,38.7 78,38.6 78.2,38.6 78.4,38.6 78.6,38.5 78.9,38.5 79.1,38.5 79.4,38.5 79.6,38.4 79.8,38.4 
			80.1,38.4 80.3,38.4 80.5,38.4 80.5,38.4 80.3,38.3 80.1,38.3 		"/>
		<path style="clip-path:url(#SVGID_2_);fill:#FFFFFF;" d="M77.8,36.9L77.8,36.9L77.8,36.9L77.8,36.9z M77.8,36.9L77.8,36.9
			l-0.6,1.9l0.1,0L77.8,36.9L77.8,36.9L77.8,36.9z"/>
		<polygon style="clip-path:url(#SVGID_2_);fill:#FFFFFF;" points="80.4,36.6 80.2,36.6 80,36.6 79.8,36.6 79.5,36.6 79.3,36.6 
			79.1,36.6 78.9,36.6 78.7,36.7 78.5,36.7 78.4,36.8 78.2,36.8 78,36.9 77.8,36.9 77.9,37 78,37 78.2,36.9 78.4,36.8 78.6,36.8 
			78.7,36.8 78.9,36.7 79.1,36.7 79.3,36.7 79.5,36.7 79.8,36.7 80,36.7 80.2,36.7 80.4,36.7 80.7,36.7 80.9,36.7 81.2,36.7 
			81.2,36.6 80.9,36.6 80.7,36.6 		"/>
		<polygon style="clip-path:url(#SVGID_2_);fill-rule:evenodd;clip-rule:evenodd;fill:#FFFFFF;" points="83.8,39.2 83.8,39.2 
			83.8,38.9 83.8,38.6 83.8,38.3 83.7,38 83.6,37.8 83.4,37.6 83.3,37.4 83.1,37.2 82.8,37.1 82.6,37 82.4,36.9 82.1,36.8 
			81.9,36.7 81.7,36.6 81.4,36.6 81.2,36.6 81.2,36.7 81.4,36.7 81.6,36.7 81.9,36.8 82.1,36.9 82.3,36.9 82.6,37.1 82.8,37.2 
			83,37.3 83.2,37.5 83.4,37.7 83.5,37.9 83.6,38.1 83.7,38.3 83.8,38.6 83.8,38.9 83.7,39.1 		"/>
		<polygon style="clip-path:url(#SVGID_2_);fill:#FFFFFF;" points="82.9,43.2 83,43.2 83.8,39.2 83.7,39.1 		"/>
		<polygon style="clip-path:url(#SVGID_2_);fill-rule:evenodd;clip-rule:evenodd;fill:#FBB231;" points="81.1,41.2 81.1,41.1 
			81.1,41.1 81,41.1 81,41.1 80.9,41 80.8,41 80.7,41 80.5,41 80.4,41.1 80.3,41.1 80.2,41.1 80.1,41.1 80,41.1 79.9,41.1 
			79.8,41.2 79.7,41.2 79.6,41.2 79.6,41.2 79.5,41.2 79.4,41.3 79.3,41.3 79.2,41.4 79.1,41.4 79,41.5 78.9,41.5 78.8,41.6 
			78.7,41.7 78.6,41.8 78.6,41.9 78.5,42 78.5,42.2 78.5,42.3 78.5,42.5 78.5,42.7 78.6,42.9 78.6,43 78.8,43.1 78.9,43.1 79,43.2 
			79.1,43.2 79.4,43.2 79.6,43.1 79.8,43.1 80,43 80.1,43 80.3,42.9 80.4,42.8 80.5,42.7 80.6,42.7 80.7,42.6 80.8,42.5 80.9,42.4 
			80.9,42.3 81,42.2 81,42.1 81,42 81,41.8 81.1,41.6 81.1,41.4 		"/>
		<polygon style="clip-path:url(#SVGID_2_);fill:#FBB231;" points="97.6,52 97.4,52.1 97.2,52.2 97.1,52.3 96.9,52.4 96.8,52.6 
			96.8,52.8 96.8,52.8 97,52.8 97,52.7 97.1,52.5 97.2,52.4 97.3,52.3 97.5,52.2 97.7,52.2 97.8,52.1 98,52.2 98.2,52.2 98.3,52.3 
			98.4,52.4 98.5,52.5 98.6,52.7 98.7,52.8 98.9,52.8 98.9,52.8 98.8,52.6 98.7,52.4 98.6,52.3 98.4,52.2 98.2,52.1 98,52 97.8,52 
					"/>
		<polygon style="clip-path:url(#SVGID_2_);fill:#FBB231;" points="97.9,52.6 97.5,52.6 97.5,52.8 97.6,52.8 97.6,52.7 97.9,52.7 
			97.9,52.7 98,52.7 98,52.7 98,52.7 98.1,52.7 98.1,52.7 98.1,52.8 98.1,52.8 98.1,52.8 98.2,52.8 98.2,52.8 98.2,52.7 98.2,52.7 
			98.2,52.6 98.1,52.6 98,52.6 98,52.6 		"/>
		<polygon style="clip-path:url(#SVGID_2_);fill:#FBB231;" points="96.8,52.8 96.8,53 97,53 97,52.8 97,52.8 		"/>
		<polygon style="clip-path:url(#SVGID_2_);fill:#FBB231;" points="98.1,52.8 98.1,52.9 98.1,52.9 98.1,52.9 98,52.9 98,52.9 98,53 
			97.9,53 97.8,53 97.6,53 97.6,52.8 97.5,52.8 97.5,53 98.2,53 98.2,53 98.2,52.9 98.2,52.9 98.2,52.8 		"/>
		<polygon style="clip-path:url(#SVGID_2_);fill:#FBB231;" points="98.7,52.8 98.7,52.8 98.7,53 98.9,53 98.9,52.8 		"/>
		<polygon style="clip-path:url(#SVGID_2_);fill-rule:evenodd;clip-rule:evenodd;fill:#FBB231;" points="96.8,53 96.8,53 96.8,53.2 
			96.8,53.4 96.9,53.6 97.1,53.8 97.2,53.9 97.4,54 97.6,54.1 97.8,54.1 98,54.1 98.2,54 98.4,53.9 98.6,53.8 98.7,53.6 98.8,53.4 
			98.9,53.2 98.9,53 98.9,53 98.7,53 98.7,53 98.7,53.2 98.6,53.4 98.5,53.5 98.4,53.6 98.3,53.8 98.2,53.8 98,53.9 97.8,53.9 
			97.7,53.9 97.5,53.8 97.3,53.8 97.2,53.6 97.1,53.5 97,53.4 97,53.2 97,53 97,53 		"/>
		<polygon style="clip-path:url(#SVGID_2_);fill:#FBB231;" points="97.5,53 97.5,53.4 97.6,53.4 97.6,53.1 97.8,53.1 98.1,53.4 
			98.2,53.4 98,53.1 98,53.1 98.1,53 98.1,53 98.2,53 		"/>
		<path style="clip-path:url(#SVGID_2_);fill:#FBB231;" d="M97.6,44.9l-0.2-0.1l-0.2-0.1l-0.2-0.1l-0.1-0.2l-0.1-0.2l-0.1-0.2l0-0.2
			l0,0l0-0.2l0.1-0.2l0.1-0.2l0.1-0.2l0.2-0.1l0.2-0.1l0.2-0.1l0.2,0l0.2,0l0.2,0.1l0.2,0.1l0.2,0.1l0.1,0.2l0.1,0.2l0.1,0.2l0,0.2
			l0,0l0,0.2l-0.1,0.2l-0.1,0.2l-0.1,0.2l-0.2,0.1l-0.2,0.1L98,44.9l-0.2,0L97.6,44.9z M87,37.9l0.1-0.1l0.1-0.1l0.1-0.1l0.1-0.1
			l0.1-0.1l0.1-0.1l0.1-0.1L88,37l0.2-0.1l0.2-0.1l0.2-0.1l0.2-0.1l0.2,0l0.2,0l0.2,0l-0.3,2h0h-0.1h-0.1l-0.3,0l-0.3,0l-0.2,0.1
			l-0.2,0.1l-0.2,0.1L87.3,39l-0.2,0.1L87,39.2l-0.1,0.1l-0.1,0.2l-0.1,0.2l-0.1,0.2L86.6,40l0,0.2l0,0.2l0,0.2l-0.8,4.3h-2.1
			l1.4-8.1h2.1l-0.2,1.4L87,37.9z M77.8,37l0.2-0.1l0.2-0.1l0.2-0.1l0.2,0l0.2,0l0.2,0l0.2,0l0.2,0l0.2,0l0.2,0l0.2,0h0.2h0.2h0.2
			l0.3,0l0.3,0l0.2,0l0.2,0l0.2,0.1l0.2,0.1l0.2,0.1l0.2,0.1l0.2,0.1l0.2,0.1l0.2,0.2l0.2,0.2l0.2,0.2l0.1,0.2l0.1,0.2l0.1,0.3v0.3
			l0,0.3l-0.8,4l-0.3,1.7h-1.9l0-0.3l0-0.3v-0.2l0-0.1l-0.1,0.1l-0.1,0.1l-0.1,0.1l-0.2,0.1l-0.2,0.1l-0.2,0.1l-0.2,0.1l-0.2,0.1
			l-0.2,0.1l-0.2,0.1l-0.2,0l-0.2,0l-0.2,0l-0.2,0l-0.2,0l-0.2,0l-0.3-0.1l-0.2-0.1l-0.2-0.1L77,44.6l-0.2-0.1l-0.1-0.1l-0.1-0.1
			L76.4,44l-0.1-0.2l-0.1-0.2l-0.1-0.2l0-0.2l0-0.2l0-0.2l0-0.2v-0.2l0-0.3l0-0.3l0.1-0.3l0.1-0.3l0.1-0.2l0.1-0.2l0.2-0.2l0.2-0.2
			l0.2-0.2l0.2-0.2l0.2-0.1l0.2-0.1L78,40l0.2-0.1l0.2-0.1l0.3,0h0l0,0l0.1,0l0.1,0l0.1,0l0.1,0l0.1,0l0.1,0l0.1,0l0.1,0l0.1,0
			l0.1,0l0.1,0l0.1,0l0.1,0h0.1h0.2l0.2,0l0.2,0H81l0.1,0l0.1,0l0.1,0h0l0-0.1l0-0.1l0-0.2l0-0.1l0-0.2l-0.1-0.2l-0.1-0.1l-0.1-0.1
			L81,38.5l-0.2-0.1l-0.2,0l-0.2,0l-0.2,0l-0.2,0h-0.2l-0.2,0l-0.2,0l-0.2,0l-0.2,0l-0.2,0l-0.2,0l-0.2,0l-0.2,0l-0.2,0l-0.2,0
			l-0.1,0l-0.1,0.1l-0.1,0L77.8,37z M95,34.9h2.1l-1.7,9.9h-2.1l0.2-0.8v-0.1l-0.1,0.2l-0.1,0.1L93,44.3l-0.1,0.1l-0.1,0.1l-0.1,0.1
			l-0.1,0.1l-0.1,0.1l-0.1,0.1l-0.1,0l-0.1,0l-0.2,0l-0.2,0l-0.1,0l-0.2,0h-0.2l-0.4,0l-0.4-0.1l-0.3-0.1l-0.3-0.2l-0.3-0.2
			l-0.2-0.3L89,43.8l-0.2-0.3l-0.1-0.3l-0.1-0.4l-0.1-0.4L88.4,42l0-0.4l0-0.4l0-0.4l0.1-0.4l0.1-0.4l0.1-0.4l0.2-0.4l0.2-0.4
			l0.2-0.3l0.2-0.3l0.2-0.3l0.3-0.3l0.3-0.2l0.3-0.2l0.3-0.2l0.3-0.1l0.3-0.1l0.3-0.1l0.3,0l0.3,0l0.2,0l0.2,0l0.2,0l0.2,0.1
			l0.2,0.1l0.2,0.1l0.2,0.1l0.1,0.1l0.1,0.1l0.1,0.1l0.1,0.1l0.1,0.1l0.1,0.1l0.1,0.1l0.1,0.1l0,0.1L95,34.9z M77.8,16.7l-1.2,0
			l-1.1,0.1L74.3,17l-1.1,0.2l-1.1,0.2l-1.1,0.3l-1,0.4l-1,0.4l-1,0.5l-1,0.5L66.1,20l-0.9,0.6l-0.9,0.6l-0.9,0.7l-0.8,0.7l0.1,0
			l0.8,0.7l0.7,0.8l0,0h-3.2l-1,1.2h5.3l0.3,0.4l0.6,0.9l0.1,0.2H59L58.3,28h8.9l0.2,0.4l0.5,1l0,0.1H57.5L57,30.8h11.5l0.3,0.7
			l0.3,0.8H56.4L56,33.5h13.4l0,0.1l0.3,1.1l0.1,0.3H55.9l-0.2,1.2h14.2l0.1,0.6l0-0.1l0.1-0.2l0.1-0.2l0.2-0.2l0.2-0.2l0.2-0.2
			l0.2-0.2l0.2-0.1l0.2-0.1l0.2-0.1l0.2-0.1l0.2-0.1l0.2-0.1l0.2-0.1l0.2-0.1l0.2-0.1l0.2-0.1l0.3,0l0.3,0l0.3,0l0.3,0l0.3,0l0.2,0
			l0.2,0l0.2,0l0.2,0l0.2,0l0.2,0l0.2,0l0.2,0l0.2,0l0.2,0l0.1,0l0.1,0l0.1,0l0.1,0l0.1,0l0,0l-0.4,2.1l-0.1-0.1l-0.1,0L76.4,37
			L76.2,37l-0.1,0l-0.1,0l-0.1,0l-0.1,0l-0.1,0l-0.1,0l-0.2,0l-0.2,0l-0.2,0l-0.2,0h-0.2h-0.2h-0.2l-0.2,0l-0.2,0l-0.2,0l-0.2,0.1
			l-0.2,0.1L73,37l-0.2,0.1l-0.2,0.2l-0.2,0.2l-0.2,0.2L72,38l-0.2,0.3l-0.2,0.4l-0.1,0.4l-0.1,0.5l0,0.3l0,0.3l0,0.3l0,0.3l0,0.3
			l0.1,0.2l0.1,0.2l0.1,0.2l0.1,0.2l0.1,0.2l0.2,0.2l0.2,0.2l0.2,0.1l0.2,0.1l0.3,0.1l0.3,0.1l0.1,0l0.1,0l0.1,0l0.2,0l0.2,0H74h0.2
			l0.2,0l0.2,0l0.2,0l0.2-0.1l0.2-0.1l0.2-0.1l0.2-0.1l0.2-0.1l0.2-0.1l-0.3,2l0,0l0,0l-0.1,0.1l-0.1,0l-0.1,0.1L75,44.6l-0.1,0.1
			l-0.1,0l-0.2,0.1l-0.2,0l-0.2,0l-0.3,0l-0.3,0l-0.3,0l-0.4,0l-0.4,0l-0.3,0l-0.3-0.1l-0.3-0.1l-0.3-0.2l-0.3-0.2L70.4,44l-0.3-0.3
			l-0.3-0.3l-0.3-0.3l-0.2-0.4l0-0.1H66l-0.2,1.2h3.8l-0.2,0.9l-0.2,0.6H56.2l0.4,1.2h12.3l-0.1,0.3l-0.4,1l-0.1,0.2H57.1l0.6,1.2
			h10l-0.3,0.6l-0.5,0.9h-8.3l0.8,1.2h6.8l-0.4,0.6L65,53.5l0,0h-4.5l1.1,1.2h2.3l-0.3,0.3l-0.8,0.8l-0.1,0l0.8,0.7l0.9,0.7l0.9,0.6
			l0.9,0.6l0.9,0.5l1,0.5l1,0.5l1,0.4l1,0.4l1.1,0.3l1.1,0.2l1.1,0.2l1.1,0.1l1.1,0.1l1.2,0l1.2,0l1.1-0.1l1.1-0.1l1.1-0.2l1.1-0.2
			l1.1-0.3l1-0.4l1-0.4l1-0.5l1-0.5l0.9-0.5l0.9-0.6l0.9-0.6l0.8-0.7l0.8-0.7l0.8-0.8l0.8-0.8l0.7-0.8l0.7-0.8l0.6-0.9l0.6-0.9
			l0.5-0.9l0.5-1l0.5-1l0.4-1l0.4-1l0.3-1.1l0.2-1.1l0.2-1.1l0.1-1.1l0.1-1.1l0-1.2l0-1.2l-0.1-1.1l-0.1-1.1l-0.2-1.1l-0.2-1.1
			l-0.3-1.1l-0.4-1l-0.4-1l-0.5-1l-0.5-1L97,27.5l-0.6-0.9l-0.6-0.9l-0.7-0.8l-0.7-0.8l-0.8-0.8l-0.8-0.7l-0.8-0.7l-0.8-0.7
			l-0.9-0.6L89.5,20l-0.9-0.5l-1-0.5l-1-0.5l-1-0.4l-1-0.4l-1.1-0.3l-1.1-0.2L81.2,17l-1.1-0.1l-1.1-0.1L77.8,16.7z"/>
		<polygon style="clip-path:url(#SVGID_2_);fill:#FBB231;" points="66.4,40.2 66.4,40.4 66.3,40.5 66.2,41.2 68.9,41.2 68.9,40.8 
			68.9,40.2 69,40 66.5,40 66.5,40 		"/>
		<polygon style="clip-path:url(#SVGID_2_);fill:#FBB231;" points="56.4,40.5 56.4,40.3 56.5,40 56.5,40 55.1,40 55.2,41.2 
			56.3,41.2 56.3,41.2 		"/>
	</g>
</g>
</svg>
