<svg id="Layer_1" data-name="Layer 1" xmlns="http://www.w3.org/2000/svg" viewBox="0 0 125.43 78.39"><defs><style>.cls-1{fill:#ed1c2e;}.cls-2{fill:#fcb131;}</style></defs><title>payment-icons</title><path class="cls-1" d="M101.06,36h0.18l0.2,0,0.08-.17-0.08-.15-0.2,0h-0.17V36m0,0.81h-0.32V35.33h0.58a0.61,0.61,0,0,1,.35.08,0.45,0.45,0,0,1,.17.36,0.38,0.38,0,0,1-.24.36l0.25,0.64h-0.36l-0.21-.57h-0.23v0.57Zm0.21,0.54a1.25,1.25,0,1,0-1.19-1.26,1.23,1.23,0,0,0,1.19,1.26m-1.57-1.26a1.56,1.56,0,1,1,1.57,1.65,1.61,1.61,0,0,1-1.57-1.65"/><path class="cls-1" d="M77.35,25.13l-0.43,2.79a4.78,4.78,0,0,0-2.34-.69c-1.95,0-3.32,2-3.32,4.81,0,2,.92,3.13,2.44,3.13a4.84,4.84,0,0,0,2.22-.66l-0.46,2.93a7.73,7.73,0,0,1-2.31.38c-2.82,0-4.58-2.13-4.58-5.54,0-4.59,2.42-7.8,5.89-7.8a4.29,4.29,0,0,1,1.17.14l1.08,0.28,0.63,0.25"/><path class="cls-1" d="M68.66,27l-0.27,0c-0.86,0-1.35.46-2.15,1.7l0.23-1.59H64.11L62.5,37.57h2.63c0.94-6.39,1.18-7.49,2.44-7.49h0.19a10.44,10.44,0,0,1,1-3l-0.09,0"/><path class="cls-1" d="M53,37.44a5.7,5.7,0,0,1-1.88.34c-1.34,0-2.07-.81-2.07-2.3a6,6,0,0,1,.07-0.94l0.16-1,0.12-.83,1.14-7.13h2.6l-0.3,1.55h1.34l-0.37,2.54H52.48L51.79,34a4.31,4.31,0,0,0,0,.43,0.72,0.72,0,0,0,.89.77,2,2,0,0,0,.7-0.1L53,37.44"/><path class="cls-1" d="M42.68,30.43a3,3,0,0,0,2,2.91c1.05,0.52,1.22.68,1.22,1.15,0,0.65-.47.95-1.5,0.95A6.92,6.92,0,0,1,42,35l-0.36,2.41,0.12,0,0.48,0.1c0.15,0,.38.06,0.68,0.09,0.62,0.06,1.1.09,1.44,0.09,2.75,0,4-1.11,4-3.49a2.86,2.86,0,0,0-1.84-2.91c-1.09-.52-1.21-0.64-1.21-1.13s0.43-.86,1.27-0.86a14.28,14.28,0,0,1,1.87.16l0.37-2.41a16.37,16.37,0,0,0-2.3-.21c-2.91,0-3.92,1.6-3.91,3.53"/><path class="cls-1" d="M94.33,35.11c1.22,0,2.08-1.45,2.08-3.52,0-1.33-.49-2.05-1.39-2.05-1.19,0-2,1.46-2,3.51,0,1.37.45,2.06,1.34,2.06m3.86,2.46H95.71l0.13-1a3,3,0,0,1-2.42,1.16c-1.91,0-3.17-1.72-3.17-4.34,0-3.47,1.95-6.41,4.26-6.41A3,3,0,0,1,97,28.39l0.57-3.67h2.58Z"/><path class="cls-1" d="M59.82,31.13c0-.22,0-0.4,0-0.53a1.19,1.19,0,0,0-1.24-1.35c-0.83,0-1.42.67-1.67,1.87h2.89m1.47,6.22a8.7,8.7,0,0,1-2.69.42c-2.92,0-4.44-1.61-4.44-4.68,0-3.59,1.94-6.23,4.58-6.23,2.15,0,3.53,1.48,3.53,3.8a11.5,11.5,0,0,1-.33,2.58h-5.2a2.07,2.07,0,0,0,0,.32c0,1.22.78,1.84,2.3,1.84a5.91,5.91,0,0,0,2.71-.66Z"/><polygon class="cls-1" points="32.17 37.57 29.56 37.57 31.06 27.7 27.71 37.57 25.92 37.57 25.7 27.76 24.13 37.57 21.68 37.57 23.72 24.72 27.49 24.72 27.59 32.67 30.14 24.72 34.2 24.72 32.17 37.57"/><path class="cls-1" d="M40.81,37.57H38.65l0-1.08A3.2,3.2,0,0,1,36,37.75c-1.42,0-2.39-1.16-2.39-2.85,0-2.55,1.7-4,4.6-4a8,8,0,0,1,1.06.08,2.69,2.69,0,0,0,.1-0.68c0-.69-0.46-1-1.68-1a7.86,7.86,0,0,0-2.18.3l-0.36.1-0.23.07,0.36-2.34a9.93,9.93,0,0,1,3.14-.56c2.25,0,3.44,1.06,3.44,3.06A12.35,12.35,0,0,1,41.6,32L41,35.73,41,36.39l-0.07.53,0,0.36,0,0.28m-1.9-4.65a4.34,4.34,0,0,0-.59,0c-1.48,0-2.23.54-2.23,1.59A0.94,0.94,0,0,0,37,35.53c1.06,0,1.83-1.07,1.88-2.61"/><path class="cls-1" d="M83.76,37.57H81.59l0.05-1.08a3.19,3.19,0,0,1-2.74,1.27c-1.42,0-2.4-1.16-2.4-2.85,0-2.55,1.7-4,4.6-4a8,8,0,0,1,1.06.08,2.78,2.78,0,0,0,.1-0.68c0-.69-0.45-1-1.68-1a7.78,7.78,0,0,0-2.17.3l-0.37.1-0.23.07,0.36-2.34a9.93,9.93,0,0,1,3.13-.56c2.25,0,3.44,1.06,3.44,3.06A13.48,13.48,0,0,1,84.54,32L84,35.73l-0.08.67-0.07.53,0,0.36,0,0.28m-1.9-4.65a4.29,4.29,0,0,0-.58,0c-1.49,0-2.24.54-2.24,1.59A1,1,0,0,0,80,35.53c1.07,0,1.83-1.07,1.88-2.61"/><path class="cls-1" d="M91.07,27a1.29,1.29,0,0,0-.26,0c-0.86,0-1.35.46-2.15,1.7l0.23-1.59H86.52l-1.6,10.45h2.62c0.94-6.39,1.19-7.49,2.44-7.49a0.68,0.68,0,0,1,.18,0,10.5,10.5,0,0,1,1-3l-0.09,0"/><path class="cls-2" d="M82.66,47.68c0-2.63-1.3-4.68-3.75-4.68-2.81,0-4.64,2.49-4.64,6.16,0,2.63,1.08,4.77,3.74,4.77s4.64-1.9,4.64-6.25m-2.57,0c0,2.37-.73,3.76-1.89,3.76-0.84,0-1.36-.91-1.36-2.32,0-1.66.75-3.55,1.95-3.55,1,0,1.3,1,1.3,2.1"/><path class="cls-2" d="M75.12,41.15l-0.4,2.78a4.3,4.3,0,0,0-2.19-.7c-1.83,0-3.1,2-3.1,4.82,0,2,.85,3.13,2.28,3.13a4.27,4.27,0,0,0,2.08-.66l-0.42,2.93a6.84,6.84,0,0,1-2.17.38c-2.63,0-4.28-2.13-4.28-5.55,0-4.6,2.27-7.81,5.51-7.81a4.14,4.14,0,0,1,1.1.14l1,0.28a6.28,6.28,0,0,1,.59.25"/><path class="cls-2" d="M58.94,43.07a1,1,0,0,0-.25,0c-0.79,0-1.26.46-2,1.7l0.22-1.58H54.69L53.2,53.6h2.44c0.88-6.39,1.11-7.49,2.28-7.49H58.1a11,11,0,0,1,.93-3l-0.09,0"/><path class="cls-2" d="M87.24,51c1.15,0,1.95-1.45,1.95-3.52,0-1.33-.45-2-1.29-2-1.11,0-1.9,1.45-1.9,3.52,0,1.36.42,2.05,1.25,2.05m3.61,2.46H88.55l0.12-1a2.79,2.79,0,0,1-2.26,1.16c-1.78,0-3-1.73-3-4.34,0-3.47,1.83-6.41,4-6.41a2.71,2.71,0,0,1,2.34,1.44l0.54-3.67h2.4Z"/><path class="cls-2" d="M34.66,47.23c0-.22,0-0.4,0-0.53a1.16,1.16,0,0,0-1.15-1.35c-0.78,0-1.33.67-1.56,1.87h2.7M36,53.44a7.49,7.49,0,0,1-2.5.43c-2.73,0-4.15-1.61-4.15-4.68,0-3.59,1.81-6.23,4.27-6.23,2,0,3.3,1.48,3.3,3.8a12.8,12.8,0,0,1-.3,2.58H31.77a3.14,3.14,0,0,0,0,.32c0,1.22.73,1.83,2.15,1.83a5.24,5.24,0,0,0,2.54-.66Z"/><path class="cls-2" d="M63.72,47.23c0-.22,0-0.4,0-0.53a1.16,1.16,0,0,0-1.16-1.35c-0.78,0-1.33.67-1.56,1.87h2.69m1.37,6.22a7.51,7.51,0,0,1-2.5.43c-2.73,0-4.16-1.61-4.16-4.68,0-3.59,1.81-6.23,4.27-6.23,2,0,3.3,1.48,3.3,3.8a12.42,12.42,0,0,1-.31,2.58H60.84c0,0.16,0,.23,0,0.32,0,1.22.73,1.83,2.15,1.83a5.26,5.26,0,0,0,2.54-.66Z"/><path class="cls-2" d="M97.82,47.23c0-.22,0-0.4,0-0.53a1.16,1.16,0,0,0-1.16-1.35c-0.78,0-1.33.67-1.56,1.87h2.7m1.37,6.22a7.57,7.57,0,0,1-2.51.43c-2.73,0-4.16-1.61-4.16-4.68,0-3.59,1.82-6.23,4.27-6.23,2,0,3.3,1.48,3.3,3.8a12.35,12.35,0,0,1-.3,2.58H94.93a2.89,2.89,0,0,0,0,.32c0,1.22.73,1.83,2.15,1.83a5.25,5.25,0,0,0,2.54-.66Z"/><path class="cls-2" d="M28.79,43.54a3.54,3.54,0,0,0-2-.6c-1,0-1.78.21-1.78,1.26,0,1.86,3.6,1.16,3.6,5.14,0,3.62-2.38,4.56-4.53,4.56a7.62,7.62,0,0,1-2.87-.68l0.58-2.66A3.78,3.78,0,0,0,24,51.3c0.77,0,2-.21,2-1.55,0-2.1-3.6-1.32-3.6-5,0-3.38,2.1-4.39,4.13-4.39a5.52,5.52,0,0,1,2.85.59l-0.6,2.6"/><path class="cls-2" d="M43.18,53.44a4.92,4.92,0,0,1-2.17.4c-2.14,0-3.46-2.14-3.46-4.73,0-3.4,1.91-6.11,4.73-6.11a5.16,5.16,0,0,1,2.29.69L44,46.19a3,3,0,0,0-1.63-.56c-1.31,0-2.24,1.2-2.24,3.34,0,1.23.68,2.25,1.75,2.25a2.94,2.94,0,0,0,1.63-.46l-0.37,2.68"/><path class="cls-2" d="M52.32,50.83c-0.12.9-.24,1.77-0.31,2.71H49.66l0.2-1.69h0C49.1,53,48.33,53.78,47,53.78s-2.28-1.55-2.28-3.58a13.22,13.22,0,0,1,.2-2.19l0.67-4.83h2.62L47.51,48a11.58,11.58,0,0,0-.17,1.58,1,1,0,0,0,1,1.19c1.07,0,1.71-1.31,1.89-2.84l0.72-4.77h2.53l-1.14,7.66"/><polygon class="cls-2" points="101.63 53.41 101.24 53.41 101.24 51.68 100.66 51.68 100.66 51.3 102.2 51.3 102.2 51.68 101.63 51.68 101.63 53.41"/><polygon class="cls-2" points="104.26 53.41 103.89 53.41 103.89 51.65 103.88 51.65 103.53 53.41 103.14 53.41 102.8 51.65 102.79 51.65 102.79 53.41 102.42 53.41 102.42 51.3 103 51.3 103.34 52.96 103.35 52.96 103.68 51.3 104.26 51.3 104.26 53.41"/></svg>