<svg id="Layer_1" data-name="Layer 1" xmlns="http://www.w3.org/2000/svg" viewBox="0 0 125.43 78.39"><defs><style>.cls-1,.cls-5{fill:#fbb231;}.cls-1,.cls-2,.cls-4{fill-rule:evenodd;}.cls-2{fill:#ec1c2e;}.cls-3,.cls-4{fill:#fff;}</style></defs><title>payment-icons</title><path class="cls-1" d="M77.77,61.69a23.14,23.14,0,0,0,13-4.16A22.49,22.49,0,1,0,62.21,55.4a22.48,22.48,0,0,0,12.12,6A27.29,27.29,0,0,0,77.77,61.69Z"/><path class="cls-2" d="M47.66,61.69a23,23,0,0,0,13-4.16A22.52,22.52,0,0,0,62,21.83a22.42,22.42,0,0,0-12.57-5.07A22.53,22.53,0,0,0,27.15,29.84,22.54,22.54,0,0,0,44.21,61.43,27.48,27.48,0,0,0,47.66,61.69Z"/><polygon class="cls-1" points="60.08 25.32 72.04 25.32 72.04 24.1 61.11 24.1 60.08 25.32"/><polygon class="cls-1" points="58.29 28.04 72.04 28.04 72.04 26.81 59.01 26.81 58.29 28.04"/><polygon class="cls-1" points="56.95 30.75 72.04 30.75 72.04 29.52 57.49 29.52 56.95 30.75"/><polygon class="cls-1" points="56.03 33.46 72.04 33.46 72.04 32.24 56.42 32.24 56.03 33.46"/><polygon class="cls-1" points="56.57 46.6 72.08 46.6 72.08 45.38 56.19 45.38 56.57 46.6"/><polygon class="cls-1" points="57.71 49.31 72.08 49.31 72.08 48.09 57.14 48.09 57.71 49.31"/><polygon class="cls-1" points="59.32 52.02 72.08 52.02 72.08 50.8 58.55 50.8 59.32 52.02"/><polygon class="cls-1" points="61.54 54.74 72.08 54.74 72.08 53.51 60.47 53.51 61.54 54.74"/><polygon class="cls-1" points="55.5 36.17 72.04 36.17 72.04 34.95 55.73 34.95 55.5 36.17"/><polygon class="cls-1" points="65.58 43.89 71.89 43.89 71.89 42.66 65.81 42.66 65.58 43.89"/><polygon class="cls-1" points="66.08 41.18 71.89 41.18 71.89 39.95 66.31 39.95 66.08 41.18"/><polygon class="cls-1" points="55.08 39.95 56.72 39.95 56.72 41.18 55.16 41.18 55.08 39.95"/><path class="cls-3" d="M50,38.46a13.39,13.39,0,0,1,2,.11V38.47l0.11,0,0.41-1.83-0.82-.13h0c-2.38-.29-5.92.1-5.17,3.43l0.14,0.36,0.2,0.31c0.67,0.72,1.62.77,2.39,1.32l0.11,0.13,0.05,0.15v0.19a0.9,0.9,0,0,1-.27.5L49,43c-0.93.39-2.2-.05-3.14-0.27L45.52,44.6l0.22,0.08h0a7.32,7.32,0,0,0,4.41.1,2.78,2.78,0,0,0,1.66-3.83l-0.17-.25C51,40,50.1,40,49.38,39.55a1,1,0,0,1-.26-0.3l0-.17V38.95l0.07-.13,0.12-.13a1.34,1.34,0,0,1,.54-0.21h0Z"/><path class="cls-3" d="M55.36,38.5l1.34,0L57,36.61H55.74L56,34.77H53.82v0.11l-0.11,0-1.05,6c-0.16.9-.76,2.5-0.31,3.42s2,0.71,2.88.57h0A1.72,1.72,0,0,0,56,44.56l0.31-1.66a1.79,1.79,0,0,1-1.53.1l-0.08-.06-0.06-.07,0-.09A41.26,41.26,0,0,1,55.36,38.5Z"/><path class="cls-3" d="M77.08,35C74.64,34,71.47,34.23,70,36.63s-1.83,7,1.6,8.11c1.1,0.36,3.08.48,4-.41l0.35-2.07-0.18-.1a2.8,2.8,0,0,1-2.57.51h0c-2.4-.43-2-3.71-0.73-5.11,1-1.19,2.94-1,4.2-.29l0.05-.1,0.11,0L77.16,35Z"/><path class="cls-3" d="M94.91,34.81l-0.5,2.79c-1.35-1.92-4.13-.77-5.2.82-1.31,2-1.49,6.13,1.52,6.61a2.9,2.9,0,0,0,2.5-.76L93.12,45h2.23V44.84l0.11,0,1.74-10.05H94.91Zm-1,5.63c-0.11,1.15-.7,2.54-2,2.57l-0.31-.06-0.25-.17-0.2-.25c-0.69-1.19.14-4.9,2.11-3.87A2,2,0,0,1,94,40.43Z"/><path class="cls-3" d="M46.21,38.54c-0.3-2.51-4.44-2.4-6.16-1.64L39.42,39a4.57,4.57,0,0,1,2-.5h0c0.61-.06,1.65-0.24,2.12.27a1,1,0,0,1,.14.25l0,0.14a1.33,1.33,0,0,1-.08.37,9.64,9.64,0,0,0-1.91,0h0l-0.61.07a3.16,3.16,0,0,0-2.81,2.75,2.33,2.33,0,0,0,2.48,2.64,3.77,3.77,0,0,0,2.29-.81c0,0.23-.07.46-0.11,0.69h2.13l0.71-3.75A11.05,11.05,0,0,0,46.21,38.54Zm-2.79,2.83c-0.19,1.09-1,2.24-2.36,1.71L41,43l-0.1-.11-0.07-.15,0-.21a1.74,1.74,0,0,1,0-.38l0.1-.23a2.65,2.65,0,0,1,2.51-.85l0,0,0,0v0Z"/><polygon class="cls-3" points="35.32 34.77 32.99 40.32 32.67 34.77 28.89 34.77 27.13 44.95 29.42 44.95 29.45 44.73 30.61 37.88 31.02 44.95 33.52 44.95 36.41 38 35.19 44.95 37.48 44.95 39.27 34.77 35.32 34.77"/><path class="cls-4" d="M83.81,39.16a2.76,2.76,0,0,0,0-.6,2.64,2.64,0,0,0-2.64-2h0a7.49,7.49,0,0,0-3.38.35l0,0h0l0,0h0c-0.17.62-.36,1.24-0.54,1.86h0l0.08,0a6.38,6.38,0,0,1,3.18-.41H80.7a1.46,1.46,0,0,1,.31.11,0.92,0.92,0,0,1,.39.46l0,0.16h0a2.91,2.91,0,0,1-.06.45c-0.34,0-.69,0-1,0v0.05h0V39.59c-0.52,0-1,.08-1.55.16h0v0h0v0A3.08,3.08,0,0,0,76,42.66h0A2.21,2.21,0,0,0,77.87,45h0a3.33,3.33,0,0,0,2.85-.86c0,0.24,0,.49,0,0.73h0V44.9h2V44.84h0V44.9h0c0.11-.57,1.12-5.73,1.12-5.73h0Zm-6.45-.34h0Zm3.76,2.55c-0.16,1.11-1,2.23-2.36,1.72L78.64,43l-0.09-.11-0.06-.15,0-.21a1.41,1.41,0,0,1,1.18-1.35,2.84,2.84,0,0,1,1.46-.09l0,0,0,0Zm0.24-1.69h0Z"/><path class="cls-4" d="M98.89,43.8l0-.18-0.06-.2a1.63,1.63,0,0,0-.23-0.34L98.42,43A1.6,1.6,0,0,0,98,42.8l-0.21,0-0.21,0a1.53,1.53,0,0,0-.38.15l-0.16.13a1.78,1.78,0,0,0-.24.34l-0.06.2,0,0.22a1.41,1.41,0,0,0,.08.42,1.5,1.5,0,0,0,.24.33,1.44,1.44,0,0,0,.34.23,1.37,1.37,0,0,0,.41.08,1.34,1.34,0,0,0,.41-0.08,1.16,1.16,0,0,0,.58-0.56,1.41,1.41,0,0,0,.09-0.42v0ZM98.66,44l0,0.17a1,1,0,0,1-.3.38l-0.14.08L98,44.71a1.24,1.24,0,0,1-.35,0l-0.17-.05-0.15-.08A1,1,0,0,1,97,44.2a1.07,1.07,0,0,1,0-.7,1.12,1.12,0,0,1,.17-0.28l0.12-.11A0.88,0.88,0,0,1,98,43a1.13,1.13,0,0,1,.31.13l0.12,0.11a1.06,1.06,0,0,1,.18.28l0,0.17,0,0.18Z"/><path class="cls-4" d="M98.24,43.57l0-.05-0.07-.09L98,43.37a3.41,3.41,0,0,0-.59,0v0.92h0.19V43.89h0.19l0.23,0.38h0.15L98,43.89H98l0.1,0,0,0v0l0,0,0-.17V43.57Zm-0.41.24H97.64v-0.3a1.92,1.92,0,0,1,.39,0l0,0,0,0.07v0.05l0,0.06,0,0Z"/><path class="cls-3" d="M89.22,36.52A2.82,2.82,0,0,0,87,37.68l0.18-1.08H84.87l-1.44,8.22,0.11,0V45h2.23l0.78-4.41h0A2.16,2.16,0,0,1,89,38.69l0.38-2.18H89.22Z"/><path class="cls-3" d="M69.49,36.56A2.56,2.56,0,0,0,67,37.64l0.21-1h-2.4l-1.44,8.22,0.11,0V45h2.27c0.25-1.47.46-2.95,0.74-4.41a1.89,1.89,0,0,1,2-1.7l0.07,0,0.12,0h0.1A8.05,8.05,0,0,1,69.4,37a3.85,3.85,0,0,1,.29-0.44h-0.2Z"/><path class="cls-1" d="M98.1,52.85l0,0,0,0,0,0,0,0,0,0H97.64v-0.3a1.91,1.91,0,0,1,.39,0l0,0v0.11h0.15l0-.12,0,0,0,0-0.06,0a3.34,3.34,0,0,0-.65,0v0.87h0.19V53.06h0.19l0.23,0.38h0.15L98,53.06H98l0.1,0,0,0,0,0,0,0,0,0V52.83H98.1v0Z"/><path class="cls-4" d="M63.78,39.13C63.53,36.32,60,35.73,58,37.18s-2.54,5.17-.6,6.82a5.52,5.52,0,0,0,4.12.92h0a3.42,3.42,0,0,0,1.33-.34h0L63,44.49l0.35-2.15a4.55,4.55,0,0,1-3.21.66,1.63,1.63,0,0,1-1.5-1.57h4.93A22.8,22.8,0,0,0,63.78,39.13Zm-4.81.6c0.17-1.06,1.72-2.06,2.41-.81a1.57,1.57,0,0,1,.14.81H59Z"/><path class="cls-5" d="M97.83,53.93A0.94,0.94,0,1,1,98.77,53,0.94,0.94,0,0,1,97.83,53.93Zm0-1.79a0.84,0.84,0,1,0,.84.84A0.85,0.85,0,0,0,97.83,52.15Z"/></svg>