<?xml version="1.0" encoding="utf-8"?>
<!-- Generator: Adobe Illustrator 19.1.0, SVG Export Plug-In . SVG Version: 6.00 Build 0)  -->
<svg version="1.1" id="Layer_1" xmlns="http://www.w3.org/2000/svg" xmlns:xlink="http://www.w3.org/1999/xlink" x="0px" y="0px"
	 viewBox="0 0 125.4 78.4" style="enable-background:new 0 0 125.4 78.4;" xml:space="preserve">
<style type="text/css">
	.st0{clip-path:url(#SVGID_2_);}
	.st1{clip-path:url(#SVGID_4_);fill:#F9F9F9;}
	.st2{clip-path:url(#SVGID_4_);fill:#FFFFFF;}
	.st3{clip-path:url(#SVGID_4_);fill:#C5C7C9;}
	.st4{clip-path:url(#SVGID_4_);fill:#231F20;}
	.st5{clip-path:url(#SVGID_4_);fill:#A6A8AB;}
	.st6{clip-path:url(#SVGID_4_);fill:#FFC10E;}
	.st7{clip-path:url(#SVGID_4_);fill:#A30046;}
	.st8{clip-path:url(#SVGID_6_);}
	.st9{clip-path:url(#SVGID_8_);fill:#178FDB;}
	.st10{clip-path:url(#SVGID_8_);fill:#FFFFFF;}
	.st11{clip-path:url(#SVGID_10_);}
	.st12{clip-path:url(#SVGID_12_);fill:#F9F9F9;}
	.st13{clip-path:url(#SVGID_12_);}
	.st14{clip-path:url(#SVGID_14_);}
	.st15{clip-path:url(#SVGID_16_);fill:#F9F9F9;}
	.st16{clip-path:url(#SVGID_16_);fill:#ED1C2E;}
	.st17{clip-path:url(#SVGID_16_);fill:#FCB131;}
	.st18{clip-path:url(#SVGID_18_);}
	.st19{clip-path:url(#SVGID_20_);fill:#F9F9F9;}
	.st20{clip-path:url(#SVGID_20_);fill:#0066B2;}
	.st21{clip-path:url(#SVGID_20_);fill:#F9A533;}
	.st22{clip-path:url(#SVGID_22_);}
	.st23{clip-path:url(#SVGID_24_);fill:#F9F9F9;}
	.st24{clip-path:url(#SVGID_24_);fill:#FFFFFF;}
	.st25{clip-path:url(#SVGID_24_);fill:#0078A9;}
	.st26{clip-path:url(#SVGID_26_);}
	.st27{clip-path:url(#SVGID_28_);fill:#F9F9F9;}
	.st28{clip-path:url(#SVGID_28_);fill-rule:evenodd;clip-rule:evenodd;fill:#231F20;}
	.st29{clip-path:url(#SVGID_30_);}
	.st30{clip-path:url(#SVGID_32_);fill:#F9F9F9;}
	.st31{clip-path:url(#SVGID_32_);fill:#EE3A3F;}
	.st32{clip-path:url(#SVGID_32_);fill:#0067B2;}
	.st33{clip-path:url(#SVGID_32_);fill:#FAAC18;}
	.st34{clip-path:url(#SVGID_32_);fill:#6AB845;}
	.st35{clip-path:url(#SVGID_32_);fill:#231F20;}
	.st36{clip-path:url(#SVGID_34_);}
	.st37{clip-path:url(#SVGID_36_);fill:#F9F9F9;}
	.st38{clip-path:url(#SVGID_36_);fill:#00A551;}
	.st39{clip-path:url(#SVGID_36_);fill:#0071BB;}
	.st40{clip-path:url(#SVGID_36_);fill:#FFFFFF;}
	.st41{clip-path:url(#SVGID_36_);fill:#EC1C24;}
	.st42{clip-path:url(#SVGID_38_);}
	.st43{clip-path:url(#SVGID_40_);fill:#F9F9F9;}
	.st44{clip-path:url(#SVGID_40_);fill-rule:evenodd;clip-rule:evenodd;fill:#008060;}
	.st45{clip-path:url(#SVGID_42_);}
	.st46{clip-path:url(#SVGID_44_);fill:#F9F9F9;}
	.st47{clip-path:url(#SVGID_44_);fill:#203C73;}
	.st48{clip-path:url(#SVGID_46_);}
	.st49{clip-path:url(#SVGID_48_);fill:#F9F9F9;}
	.st50{clip-path:url(#SVGID_48_);fill-rule:evenodd;clip-rule:evenodd;fill:#FF9900;}
	.st51{clip-path:url(#SVGID_48_);fill-rule:evenodd;clip-rule:evenodd;}
	.st52{clip-path:url(#SVGID_50_);}
	.st53{clip-path:url(#SVGID_52_);fill:#F9F9F9;}
	.st54{clip-path:url(#SVGID_52_);fill-rule:evenodd;clip-rule:evenodd;fill:#FAA929;}
	.st55{clip-path:url(#SVGID_52_);fill-rule:evenodd;clip-rule:evenodd;fill:#045EA0;}
	.st56{clip-path:url(#SVGID_54_);}
	.st57{clip-path:url(#SVGID_56_);fill:#F9F9F9;}
	.st58{clip-path:url(#SVGID_56_);fill-rule:evenodd;clip-rule:evenodd;fill:#121212;}
	.st59{clip-path:url(#SVGID_58_);}
	.st60{clip-path:url(#SVGID_60_);fill:#F9F9F9;}
	.st61{clip-path:url(#SVGID_60_);fill:#336699;}
	.st62{clip-path:url(#SVGID_60_);fill:#003366;}
	.st63{clip-path:url(#SVGID_62_);}
	.st64{clip-path:url(#SVGID_64_);fill:#F9F9F9;}
	.st65{clip-path:url(#SVGID_64_);fill:#007CC3;}
	.st66{clip-path:url(#SVGID_64_);fill:#009DDD;}
	.st67{clip-path:url(#SVGID_64_);fill:#FFFFFF;}
	.st68{clip-path:url(#SVGID_66_);}
	.st69{clip-path:url(#SVGID_68_);fill:#F9F9F9;}
	.st70{clip-path:url(#SVGID_68_);fill:#EC1C2E;}
	.st71{clip-path:url(#SVGID_68_);fill:#0084C4;}
	.st72{clip-path:url(#SVGID_68_);fill:#FFFFFF;}
	.st73{clip-path:url(#SVGID_68_);fill:none;stroke:#FFFFFF;stroke-width:0.215;}
	.st74{clip-path:url(#SVGID_70_);}
	.st75{clip-path:url(#SVGID_72_);fill:#F9F9F9;}
	.st76{clip-path:url(#SVGID_72_);fill-rule:evenodd;clip-rule:evenodd;fill:#FBB231;}
	.st77{clip-path:url(#SVGID_72_);fill-rule:evenodd;clip-rule:evenodd;fill:#EC1C2E;}
	.st78{clip-path:url(#SVGID_72_);fill-rule:evenodd;clip-rule:evenodd;fill:#FFFFFF;}
	.st79{clip-path:url(#SVGID_72_);fill:none;stroke:#FFFFFF;stroke-width:0.216;stroke-miterlimit:2.613;}
	.st80{clip-path:url(#SVGID_74_);}
	.st81{clip-path:url(#SVGID_76_);fill:#F9F9F9;}
	.st82{clip-path:url(#SVGID_76_);fill:#0066B2;}
	.st83{clip-path:url(#SVGID_76_);fill:#F9A533;}
	.st84{clip-path:url(#SVGID_78_);}
	.st85{clip-path:url(#SVGID_80_);fill:#0078A9;}
	.st86{clip-path:url(#SVGID_80_);fill:#FFFFFF;}
	.st87{clip-path:url(#SVGID_82_);}
	.st88{clip-path:url(#SVGID_84_);fill:#008060;}
	.st89{clip-path:url(#SVGID_84_);fill-rule:evenodd;clip-rule:evenodd;fill:#FFFFFF;}
	.st90{clip-path:url(#SVGID_86_);}
	.st91{clip-path:url(#SVGID_88_);fill:#203C73;}
	.st92{clip-path:url(#SVGID_88_);fill:#FFFFFF;}
	.st93{clip-path:url(#SVGID_90_);}
	.st94{clip-path:url(#SVGID_92_);fill:#1C3663;}
	.st95{clip-path:url(#SVGID_92_);fill:#FFFFFF;}
	.st96{clip-path:url(#SVGID_94_);}
	.st97{clip-path:url(#SVGID_96_);fill:#13457C;}
	.st98{clip-path:url(#SVGID_96_);fill:#007CC3;}
	.st99{clip-path:url(#SVGID_96_);fill:#009DDD;}
	.st100{clip-path:url(#SVGID_96_);fill:#FFFFFF;}
	.st101{clip-path:url(#SVGID_98_);}
	.st102{clip-path:url(#SVGID_100_);fill:#13457C;}
	.st103{clip-path:url(#SVGID_100_);fill:#ED1C2E;}
	.st104{clip-path:url(#SVGID_100_);fill:#FCB131;}
	.st105{clip-path:url(#SVGID_102_);}
	.st106{clip-path:url(#SVGID_104_);fill:#1D1E1E;}
	.st107{clip-path:url(#SVGID_104_);fill:#EE3A3F;}
	.st108{clip-path:url(#SVGID_104_);fill:#0067B2;}
	.st109{clip-path:url(#SVGID_104_);fill:#FAAC18;}
	.st110{clip-path:url(#SVGID_104_);fill:#6AB845;}
	.st111{clip-path:url(#SVGID_104_);fill:#231F20;}
	.st112{clip-path:url(#SVGID_106_);}
	.st113{clip-path:url(#SVGID_108_);fill:#121212;}
	.st114{clip-path:url(#SVGID_108_);fill-rule:evenodd;clip-rule:evenodd;fill:#FFDE37;}
	.st115{clip-path:url(#SVGID_110_);}
	.st116{clip-path:url(#SVGID_112_);fill:#3957A7;}
	.st117{clip-path:url(#SVGID_112_);fill:#FFFFFF;}
	.st118{clip-path:url(#SVGID_112_);fill:#F9A533;}
	.st119{clip-path:url(#SVGID_114_);}
	.st120{clip-path:url(#SVGID_116_);fill:#0C489C;}
	.st121{clip-path:url(#SVGID_116_);fill:#FFFFFF;}
	.st122{clip-path:url(#SVGID_118_);}
	.st123{clip-path:url(#SVGID_120_);fill:#045EA0;}
	.st124{clip-path:url(#SVGID_120_);fill-rule:evenodd;clip-rule:evenodd;fill:#FAA929;}
	.st125{clip-path:url(#SVGID_120_);fill-rule:evenodd;clip-rule:evenodd;fill:#FFFFFF;}
	.st126{clip-path:url(#SVGID_122_);}
	.st127{clip-path:url(#SVGID_124_);fill:#13457C;}
	.st128{clip-path:url(#SVGID_124_);fill-rule:evenodd;clip-rule:evenodd;fill:#FBB231;}
	.st129{clip-path:url(#SVGID_124_);fill-rule:evenodd;clip-rule:evenodd;fill:#EC1C2E;}
	.st130{clip-path:url(#SVGID_124_);fill-rule:evenodd;clip-rule:evenodd;fill:#FFFFFF;}
	.st131{clip-path:url(#SVGID_124_);fill:none;stroke:#FFFFFF;stroke-width:0.216;stroke-miterlimit:2.613;}
	.st132{clip-path:url(#SVGID_126_);}
	.st133{clip-path:url(#SVGID_128_);fill:#13457C;}
	.st134{clip-path:url(#SVGID_128_);fill:#EC1C2E;}
	.st135{clip-path:url(#SVGID_128_);fill:#0084C4;}
	.st136{clip-path:url(#SVGID_128_);fill:#FFFFFF;}
	.st137{clip-path:url(#SVGID_128_);fill:none;stroke:#FFFFFF;stroke-width:0.215;}
	.st138{clip-path:url(#SVGID_130_);}
	.st139{clip-path:url(#SVGID_132_);fill:#FF9900;}
	.st140{clip-path:url(#SVGID_132_);fill-rule:evenodd;clip-rule:evenodd;fill:#231F20;}
	.st141{clip-path:url(#SVGID_134_);}
	.st142{clip-path:url(#SVGID_136_);fill:#231F20;}
	.st143{clip-path:url(#SVGID_136_);fill-rule:evenodd;clip-rule:evenodd;fill:#FFFFFF;}
	.st144{clip-path:url(#SVGID_138_);}
	.st145{clip-path:url(#SVGID_140_);fill:#121212;}
	.st146{clip-path:url(#SVGID_140_);fill:#FFFFFF;}
	.st147{clip-path:url(#SVGID_140_);fill:#FFC10E;}
	.st148{clip-path:url(#SVGID_142_);}
	.st149{clip-path:url(#SVGID_144_);fill:#0033A0;}
	.st150{clip-path:url(#SVGID_144_);fill:#FFFFFF;}
	.st151{clip-path:url(#SVGID_144_);fill:#FF9E16;}
	.st152{clip-path:url(#SVGID_144_);fill:#FAA943;}
	.st153{clip-path:url(#SVGID_146_);}
	.st154{clip-path:url(#SVGID_148_);fill:#ED1C2E;}
	.st155{clip-path:url(#SVGID_148_);fill:#FCB131;}
	.st156{clip-path:url(#SVGID_150_);}
	.st157{clip-path:url(#SVGID_152_);fill:#0066B2;}
	.st158{clip-path:url(#SVGID_152_);fill:#F9A533;}
	.st159{clip-path:url(#SVGID_154_);}
	.st160{clip-path:url(#SVGID_156_);fill:#FFFFFF;}
	.st161{clip-path:url(#SVGID_156_);fill:#0078A9;}
	.st162{clip-path:url(#SVGID_158_);}
	.st163{clip-path:url(#SVGID_160_);fill-rule:evenodd;clip-rule:evenodd;fill:#231F20;}
	.st164{clip-path:url(#SVGID_162_);}
	.st165{clip-path:url(#SVGID_164_);fill:#EE3A3F;}
	.st166{clip-path:url(#SVGID_164_);fill:#0067B2;}
	.st167{clip-path:url(#SVGID_164_);fill:#FAAC18;}
	.st168{clip-path:url(#SVGID_164_);fill:#6AB845;}
	.st169{clip-path:url(#SVGID_164_);fill:#231F20;}
	.st170{clip-path:url(#SVGID_166_);}
	.st171{clip-path:url(#SVGID_168_);fill:#00A551;}
	.st172{clip-path:url(#SVGID_168_);fill:#0071BB;}
	.st173{clip-path:url(#SVGID_168_);fill:#FFFFFF;}
	.st174{clip-path:url(#SVGID_168_);fill:#EC1C24;}
	.st175{clip-path:url(#SVGID_170_);}
	.st176{clip-path:url(#SVGID_172_);fill-rule:evenodd;clip-rule:evenodd;fill:#008060;}
	.st177{clip-path:url(#SVGID_174_);}
	.st178{clip-path:url(#SVGID_176_);fill:#203C73;}
	.st179{clip-path:url(#SVGID_178_);}
	.st180{clip-path:url(#SVGID_180_);fill-rule:evenodd;clip-rule:evenodd;fill:#FF9900;}
	.st181{clip-path:url(#SVGID_180_);fill-rule:evenodd;clip-rule:evenodd;}
	.st182{clip-path:url(#SVGID_182_);}
	.st183{clip-path:url(#SVGID_184_);fill-rule:evenodd;clip-rule:evenodd;fill:#FAA929;}
	.st184{clip-path:url(#SVGID_184_);fill-rule:evenodd;clip-rule:evenodd;fill:#045EA0;}
	.st185{clip-path:url(#SVGID_186_);fill:#0084C4;}
	.st186{clip-path:url(#SVGID_186_);fill:#EC1C2E;}
	.st187{clip-path:url(#SVGID_186_);fill:#FFFFFF;}
	.st188{clip-path:url(#SVGID_188_);}
	.st189{clip-path:url(#SVGID_190_);fill:#336699;}
	.st190{clip-path:url(#SVGID_190_);fill:#003366;}
	.st191{clip-path:url(#SVGID_192_);fill:#121212;}
	.st192{clip-path:url(#SVGID_192_);fill-rule:evenodd;clip-rule:evenodd;fill:#121212;}
	.st193{clip-path:url(#SVGID_192_);}
	.st194{clip-path:url(#SVGID_194_);fill-rule:evenodd;clip-rule:evenodd;fill:#121212;}
	.st195{clip-path:url(#SVGID_196_);}
	.st196{clip-path:url(#SVGID_198_);fill:#009DDD;}
	.st197{clip-path:url(#SVGID_198_);fill:#007CC3;}
	.st198{clip-path:url(#SVGID_198_);fill:#FFFFFF;}
	.st199{clip-path:url(#SVGID_200_);fill:#FBB231;}
	.st200{clip-path:url(#SVGID_200_);fill:none;stroke:#FFFFFF;stroke-width:0.216;stroke-miterlimit:2.613;}
	.st201{clip-path:url(#SVGID_200_);fill-rule:evenodd;clip-rule:evenodd;fill:#EC1C2E;}
	.st202{clip-path:url(#SVGID_200_);fill:#EC1C2E;}
	.st203{clip-path:url(#SVGID_200_);fill:#FFFFFF;}
	.st204{clip-path:url(#SVGID_200_);fill-rule:evenodd;clip-rule:evenodd;fill:#FFFFFF;}
	.st205{clip-path:url(#SVGID_200_);fill-rule:evenodd;clip-rule:evenodd;fill:#FBB231;}
	.st206{clip-path:url(#SVGID_202_);fill:#0066B2;}
	.st207{clip-path:url(#SVGID_202_);}
	.st208{clip-path:url(#SVGID_204_);fill:#0066B2;}
	.st209{clip-path:url(#SVGID_204_);fill:#F9A533;}
	.st210{clip-path:url(#SVGID_206_);}
	.st211{clip-path:url(#SVGID_208_);fill:#FFFFFF;}
	.st212{clip-path:url(#SVGID_208_);fill:#C5C7C9;}
	.st213{clip-path:url(#SVGID_208_);fill:#231F20;}
	.st214{clip-path:url(#SVGID_208_);fill:#A6A8AB;}
	.st215{clip-path:url(#SVGID_208_);fill:#FFC10E;}
	.st216{clip-path:url(#SVGID_208_);fill:#A30046;}
	.st217{clip-path:url(#SVGID_210_);}
	.st218{clip-path:url(#SVGID_212_);}
	.st219{clip-path:url(#SVGID_214_);}
	.st220{clip-path:url(#SVGID_216_);}
	.st221{clip-path:url(#SVGID_216_);fill:#FFFFFF;}
	.st222{clip-path:url(#SVGID_218_);}
	.st223{clip-path:url(#SVGID_220_);fill:#F9F9F9;}
	.st224{clip-path:url(#SVGID_220_);}
	.st225{clip-path:url(#SVGID_222_);}
	.st226{clip-path:url(#SVGID_224_);}
</style>
<g>
	<g>
		<defs>
			<rect id="SVGID_205_" x="18.3" y="15.2" width="88.9" height="48"/>
		</defs>
		<clipPath id="SVGID_2_">
			<use xlink:href="#SVGID_205_"  style="overflow:visible;"/>
		</clipPath>
		<g class="st0">
			<defs>
				<rect id="SVGID_207_" x="18.3" y="15.2" width="88.9" height="48"/>
			</defs>
			<clipPath id="SVGID_4_">
				<use xlink:href="#SVGID_207_"  style="overflow:visible;"/>
			</clipPath>
			<path class="st2" d="M34.5,22.6c-7.6,0-13.8,6.2-13.8,13.8c0,7.6,6.2,13.8,13.8,13.8h57.6c7.6,0,13.8-6.2,13.8-13.8
				c0-7.6-6.2-13.8-13.8-13.8H34.5z"/>
			<path class="st3" d="M92.1,51.4H34.5c-8.3,0-15-6.7-15-15c0-8.3,6.7-15,15-15h57.6c8.3,0,15,6.7,15,15
				C107.1,44.7,100.4,51.4,92.1,51.4 M34.5,22.6c-7.6,0-13.8,6.2-13.8,13.8c0,7.6,6.2,13.8,13.8,13.8h57.6c7.6,0,13.8-6.2,13.8-13.8
				c0-7.6-6.2-13.8-13.8-13.8H34.5z"/>
			<path class="st4" d="M85.2,28c-2.2,0-4.1,1.8-4.1,4.1c0,2.2,1.8,4,4.1,4c2.2,0,4-1.8,4-4C89.3,29.8,87.5,28,85.2,28 M85.2,34.1
				c-1.1,0-2.1-0.9-2.1-2.1c0-1.1,0.9-2.1,2.1-2.1c1.1,0,2.1,0.9,2.1,2.1C87.3,33.2,86.4,34.1,85.2,34.1"/>
			<path class="st4" d="M66.7,28c-2.2,0-4,1.8-4,4.1c0,2.2,1.8,4,4,4c2.2,0,4.1-1.8,4.1-4C70.7,29.8,68.9,28,66.7,28 M66.7,34.1
				c-1.1,0-2.1-0.9-2.1-2.1c0-1.1,0.9-2.1,2.1-2.1c1.1,0,2.1,0.9,2.1,2.1C68.7,33.2,67.8,34.1,66.7,34.1"/>
			<path class="st4" d="M80.9,34.2c-0.3,0.1-0.6,0.1-0.8,0.1c-0.7,0-0.8-0.2-0.8-0.9v-3.7h1.7v-1.6h-1.7V26h-1.9L77,28.2h-1.3v0
				h-0.1c-1.1,0-1.9,0.7-2.4,1.7l-0.6-1.7h-1.3V36h2.3v-3.4c0-1.7,1-2.8,2.2-2.8H77v3.9c0,1.8,0.9,2.5,2.5,2.5
				c0.8,0,1.4-0.2,1.7-0.3L80.9,34.2z"/>
			<polyline class="st4" points="92.1,30.6 92.1,36 89.8,36 89.8,28.2 91.2,28.2 91.6,29.4 			"/>
			<path class="st4" d="M91.6,29.4c0.7-0.8,1.6-1.4,2.7-1.4c1.8,0,2.6,1.5,2.6,2.8V36h-2.3v-5c0-0.7-0.6-1-1.2-1
				c-0.6,0-1.1,0.4-1.4,0.8"/>
			<polygon class="st4" points="53.7,25.4 56.2,25.4 59.7,32 59.7,25.4 61.9,25.4 61.9,36 59.5,36 55.8,28.6 55.8,36 53.7,36 			"/>
			<polygon class="st5" points="103.7,21.4 103.7,21.8 103.1,21.8 103.1,23.6 102.7,23.6 102.7,21.8 102.1,21.8 102.1,21.4 			"/>
			<polygon class="st5" points="104,23.6 104,21.4 104.5,21.4 104.9,22.9 105.3,21.4 105.9,21.4 105.9,23.6 105.6,23.6 105.6,21.9 
				105.6,21.9 105.1,23.6 104.8,23.6 104.3,21.9 104.3,21.9 104.3,23.6 			"/>
			<path class="st5" d="M53.1,45.3l0.5-0.8c0.4,0.3,1.1,0.6,1.9,0.6c0.8,0,1.2-0.3,1.2-0.9c0-0.7-0.6-0.9-1.6-1.2
				c-0.9-0.3-1.7-0.8-1.7-2c0-1.2,0.9-1.8,2.2-1.8c0.8,0,1.4,0.2,1.9,0.4L57,40.5c-0.4-0.2-0.9-0.4-1.5-0.4c-0.7,0-1.1,0.3-1.1,0.8
				c0,0.6,0.5,0.8,1.4,1.1c0.9,0.3,2,0.7,2,2.1c0,1.2-0.8,1.9-2.3,1.9C54.4,46.1,53.5,45.7,53.1,45.3"/>
			<polygon class="st5" points="59.8,39.3 63.8,39.3 63.8,40.2 60.9,40.2 60.9,42 63.2,42 63.2,43 60.9,43 60.9,45.1 64,45.1 64,46 
				59.8,46 			"/>
			<path class="st5" d="M65.6,42.7c0-2,0.9-3.5,2.8-3.5c0.8,0,1.5,0.3,2,0.8l-0.7,0.8c-0.4-0.4-0.7-0.6-1.3-0.6
				c-1.1,0-1.6,0.9-1.6,2.6c0,1.6,0.5,2.4,1.6,2.4c0.6,0,1-0.3,1.4-0.7l0.7,0.7c-0.5,0.6-1.1,1-2.1,1C66.5,46.1,65.6,44.6,65.6,42.7
				"/>
			<path class="st5" d="M72.4,43.4v-4.2h1.1v4.3c0,0.9,0.2,1.5,1.2,1.5c1,0,1.2-0.6,1.2-1.5v-4.3h1.2v4.2c0,1.7-0.6,2.7-2.4,2.7
				C73,46.1,72.4,45.1,72.4,43.4"/>
			<path class="st5" d="M84.1,46h-1.2l-1.3-2.9h-1.1V46h-1.1v-6.7h2.2c1.4,0,2.4,0.5,2.4,2c0,1-0.6,1.5-1.3,1.8L84.1,46z M81.5,42.3
				c0.9,0,1.3-0.3,1.3-1.1c0-0.7-0.4-1-1.2-1h-1.1v2.1H81.5z"/>
			<polygon class="st5" points="86.1,39.3 90.1,39.3 90.1,40.2 87.2,40.2 87.2,42 89.4,42 89.4,43 87.2,43 87.2,45.1 90.2,45.1 
				90.2,46 86.1,46 			"/>
			<path class="st5" d="M92.1,39.3h1.7c2.2,0,3.2,1.2,3.2,3.3c0,2.2-1.1,3.4-3.2,3.4h-1.7V39.3z M93.8,45.1c1.6,0,2.1-0.7,2.1-2.5
				c0-1.5-0.4-2.4-2-2.4h-0.6v4.9H93.8z"/>
			<path class="st6" d="M34.5,52.6c-8.9,0-16.2-7.3-16.2-16.2s7.3-16.2,16.2-16.2c8.9,0,16.2,7.3,16.2,16.2
				C50.7,45.3,43.4,52.6,34.5,52.6 M34.5,25.3c-3,0-5.7,1.2-7.8,3.2c-2.1,2.1-3.2,4.9-3.2,7.8c0,3,1.2,5.7,3.2,7.8
				c2.1,2.1,4.9,3.2,7.8,3.2c3,0,5.7-1.2,7.8-3.2c2.1-2.1,3.2-4.9,3.2-7.8c0-3-1.2-5.7-3.2-7.8C40.2,26.5,37.4,25.3,34.5,25.3"/>
			<rect x="52.1" y="17.7" class="st6" width="1.3" height="1.3"/>
			<rect x="52.1" y="15.2" class="st6" width="1.3" height="1.3"/>
			<rect x="48.5" y="19" class="st6" width="1.2" height="1.2"/>
			<rect x="46.2" y="21.4" class="st4" width="1.2" height="1.2"/>
			<rect x="49.7" y="20.2" class="st4" width="1.3" height="1.2"/>
			<rect x="45" y="20.3" class="st4" width="1.2" height="1.1"/>
			<rect x="48.5" y="21.4" class="st4" width="1.2" height="1.2"/>
			<rect x="50.8" y="16.5" class="st4" width="1.2" height="1.3"/>
			<rect x="48.5" y="17.7" class="st4" width="2.3" height="1.3"/>
			<rect x="47.4" y="19" class="st4" width="1.1" height="2.4"/>
			<path class="st4" d="M47.4,22.6v1.2h-1.2v-1.2h-2v0.9h-1.1v1.1h1.2v1.2h-1.2v-1.2h-1.3v1.8h-1.2v1.2H40v1.2h-0.9
				c-1,1.4-3.4,6-4.1,7.8c-2.7-3.7-4.7-5.2-6.3-5.7c-0.9-0.3-1.9,0.7-0.5,2.2c3.3,3.7,4.4,6.7,5.4,9.1c0.5,1.3,2.9,1.5,3.4,0.2
				c1-2.8,2.5-5.8,4.3-8.4v-1.3h0.9v-1.2h1V30h1.2v-1.3h-1.2v-1.2h1.2v1.2h1.2l0-1.2h0.9v-1.4h1.1v-1h1v-2.5H47.4z"/>
			<path class="st5" d="M24.6,58.1h0.9v0.6c0.3-0.4,0.7-0.7,1.3-0.7c0.9,0,1.8,0.7,1.8,2v0c0,1.3-0.9,2-1.8,2c-0.6,0-1-0.3-1.3-0.7
				v1.8h-0.9V58.1z M27.7,60.1L27.7,60.1c0-0.8-0.5-1.3-1.1-1.3c-0.6,0-1.1,0.5-1.1,1.2v0c0,0.7,0.5,1.2,1.1,1.2
				C27.2,61.3,27.7,60.8,27.7,60.1"/>
			<path class="st5" d="M29.3,60.1L29.3,60.1c0-1.1,0.9-2,2.1-2s2.1,0.9,2.1,2v0c0,1.1-0.9,2-2.1,2C30.2,62.1,29.3,61.2,29.3,60.1
				 M32.5,60.1L32.5,60.1c0-0.7-0.5-1.3-1.2-1.3c-0.7,0-1.2,0.6-1.2,1.2v0c0,0.7,0.5,1.2,1.2,1.2C32.1,61.3,32.5,60.7,32.5,60.1"/>
			<polygon class="st5" points="33.8,58.1 34.7,58.1 35.5,60.8 36.4,58.1 37.1,58.1 38,60.8 38.8,58.1 39.7,58.1 38.4,62 37.6,62 
				36.8,59.4 35.9,62 35.1,62 			"/>
			<path class="st5" d="M40.1,60.1L40.1,60.1c0-1.1,0.8-2,1.9-2c1.2,0,1.9,1,1.9,2.1c0,0.1,0,0.2,0,0.2H41c0.1,0.6,0.5,1,1.1,1
				c0.4,0,0.7-0.2,1-0.5l0.5,0.5c-0.4,0.4-0.9,0.7-1.6,0.7C41,62.1,40.1,61.3,40.1,60.1 M43,59.8c-0.1-0.6-0.4-1-1-1
				c-0.5,0-0.9,0.4-1,1H43z"/>
			<path class="st5" d="M44.8,58.1h0.9V59c0.2-0.6,0.7-1,1.4-0.9V59H47c-0.8,0-1.3,0.5-1.3,1.5V62h-0.9V58.1z"/>
			<path class="st5" d="M47.6,60.1L47.6,60.1c0-1.1,0.8-2,1.9-2c1.2,0,1.9,1,1.9,2.1c0,0.1,0,0.2,0,0.2h-2.8c0.1,0.6,0.5,1,1.1,1
				c0.4,0,0.7-0.2,1-0.5l0.5,0.5c-0.4,0.4-0.9,0.7-1.6,0.7C48.4,62.1,47.6,61.3,47.6,60.1 M50.4,59.8c-0.1-0.6-0.4-1-1-1
				c-0.5,0-0.9,0.4-1,1H50.4z"/>
			<path class="st5" d="M52,60.1L52,60.1c0-1.3,0.9-2,1.8-2c0.6,0,1,0.3,1.3,0.7v-2.1H56V62h-0.9v-0.6c-0.3,0.4-0.7,0.7-1.3,0.7
				C52.9,62.1,52,61.3,52,60.1 M55.2,60.1L55.2,60.1c0-0.8-0.5-1.3-1.1-1.3c-0.6,0-1.1,0.5-1.1,1.2v0c0,0.7,0.5,1.2,1.1,1.2
				C54.6,61.3,55.2,60.8,55.2,60.1"/>
			<path class="st5" d="M60.2,61.4V62h-0.9v-5.3h0.9v2.1c0.3-0.4,0.7-0.7,1.3-0.7c0.9,0,1.8,0.7,1.8,2v0c0,1.3-0.9,2-1.8,2
				C60.9,62.1,60.5,61.7,60.2,61.4 M62.4,60.1L62.4,60.1c0-0.8-0.5-1.3-1.1-1.3c-0.6,0-1.1,0.5-1.1,1.2v0c0,0.7,0.5,1.2,1.1,1.2
				C61.9,61.3,62.4,60.8,62.4,60.1"/>
			<path class="st5" d="M63.9,63l0.3-0.7c0.2,0.1,0.3,0.1,0.5,0.1c0.2,0,0.4-0.1,0.5-0.4l-1.6-3.9h0.9l1.1,2.9l1-2.9h0.9l-1.5,4
				c-0.3,0.8-0.7,1.1-1.3,1.1C64.5,63.2,64.2,63.1,63.9,63"/>
			<polygon class="st7" points="70.3,56.9 71.3,56.9 72.8,60.8 74.3,56.9 75.3,56.9 73.2,62 72.4,62 			"/>
			<path class="st7" d="M75.5,60.1L75.5,60.1c0-1.1,0.8-2,1.9-2c1.2,0,1.9,1,1.9,2.1c0,0.1,0,0.2,0,0.2h-2.8c0.1,0.6,0.5,1,1.1,1
				c0.4,0,0.7-0.2,1-0.5l0.5,0.5c-0.4,0.4-0.9,0.7-1.6,0.7C76.4,62.1,75.5,61.3,75.5,60.1 M78.4,59.8c-0.1-0.6-0.4-1-1-1
				c-0.5,0-0.9,0.4-1,1H78.4z"/>
			<path class="st7" d="M80.2,58.1h0.9V59c0.2-0.6,0.7-1,1.4-0.9V59h-0.1c-0.8,0-1.3,0.5-1.3,1.5V62h-0.9V58.1z"/>
			<path class="st7" d="M83.1,56.7h1v0.8h-1V56.7z M83.2,58.1h0.9V62h-0.9V58.1z"/>
			<path class="st7" d="M85,61.2l0.5-0.6c0.5,0.4,1,0.7,1.6,0.7c0.6,0,0.9-0.3,0.9-0.6v0c0-0.4-0.2-0.6-1.2-0.8
				c-1.1-0.3-1.7-0.6-1.7-1.5v0c0-0.9,0.7-1.5,1.8-1.5c0.7,0,1.3,0.2,1.9,0.6l-0.5,0.7c-0.5-0.3-0.9-0.5-1.4-0.5
				c-0.5,0-0.8,0.3-0.8,0.6v0c0,0.4,0.2,0.6,1.2,0.8c1.1,0.3,1.6,0.7,1.6,1.5v0c0,1-0.8,1.5-1.8,1.5C86.3,62.1,85.6,61.8,85,61.2"/>
			<path class="st7" d="M89.9,56.7h1v0.8h-1V56.7z M90,58.1h0.9V62H90V58.1z"/>
			<path class="st7" d="M92,62.7l0.3-0.7c0.4,0.3,0.8,0.4,1.4,0.4c0.8,0,1.2-0.4,1.2-1.2V61c-0.3,0.4-0.7,0.7-1.4,0.7
				c-0.9,0-1.8-0.7-1.8-1.8v0c0-1.1,0.9-1.8,1.8-1.8c0.7,0,1.1,0.3,1.4,0.7v-0.6h0.9v3.1c0,0.7-0.2,1.1-0.5,1.5
				c-0.4,0.4-0.9,0.5-1.6,0.5C93.1,63.2,92.5,63,92,62.7 M94.9,59.9L94.9,59.9c0-0.7-0.5-1.1-1.1-1.1c-0.6,0-1.1,0.4-1.1,1.1v0
				c0,0.6,0.5,1.1,1.1,1.1C94.4,60.9,94.9,60.5,94.9,59.9"/>
			<path class="st7" d="M96.9,58.1h0.9v0.6c0.2-0.4,0.6-0.7,1.2-0.7c0.9,0,1.4,0.6,1.4,1.5V62h-0.9v-2.2c0-0.6-0.3-0.9-0.8-0.9
				c-0.5,0-0.9,0.4-0.9,1V62h-0.9V58.1z"/>
		</g>
	</g>
</g>
</svg>
