<svg id="Layer_1" data-name="Layer 1" xmlns="http://www.w3.org/2000/svg" viewBox="0 0 125.43 78.39"><defs><style>.cls-1{fill:#1d2877;}</style></defs><title>payment-icons</title><path class="cls-1" d="M32.2,57.86H33c1,0,1.83-.37,1.83-1.54S34,54.83,33,54.83H32.2v3Zm-3-5.12h3.54c3.39,0,5,1.15,5,3.64,0,2.24-1.63,3.59-4.42,3.59H32.2v3.88h-3V52.74Z"/><path class="cls-1" d="M41.08,62.13a1.86,1.86,0,0,0,1.76-2c-0.37,0-.78,0-1.22,0-1,0-1.73.29-1.73,1.1a1,1,0,0,0,1.2.9m2,1.71C43,63.4,43,63,43,62.54h0A2.86,2.86,0,0,1,40.32,64c-1.63,0-3.1-.81-3.1-2.61,0-2.54,2.76-2.83,4.27-2.83a7.4,7.4,0,0,1,1.34.12c0-1.12-.85-1.44-1.9-1.44a5.38,5.38,0,0,0-2.63.61l0-2a8.55,8.55,0,0,1,3.32-.59c2.12,0,4,.9,4,3.44v3.1a8.8,8.8,0,0,0,.17,2H43.05Z"/><path class="cls-1" d="M46.64,65a3.58,3.58,0,0,0,1.12.17A1.43,1.43,0,0,0,49.2,64l-3.34-8.47H49L50.74,61h0l1.71-5.42h2.85l-3,7.71c-0.81,2.07-1.44,4.1-4,4.1a8.66,8.66,0,0,1-1.78-.2Z"/><path class="cls-1" d="M59,57.86h0.76c1,0,1.83-.37,1.83-1.54s-0.81-1.49-1.83-1.49H59v3Zm-3-5.12h3.51c3.39,0,5,1.15,5,3.64,0,2.24-1.63,3.59-4.42,3.59H58.93v3.88H56V52.74h0Z"/><path class="cls-1" d="M71.13,59.71c0-1.24-.54-2.34-1.85-2.34s-1.85,1.1-1.85,2.34S68,62,69.28,62s1.85-1.1,1.85-2.32m-6.68,0c0-2.76,2.07-4.34,4.83-4.34s4.83,1.59,4.83,4.34S72,64,69.28,64s-4.83-1.59-4.83-4.32"/><path class="cls-1" d="M74.84,55.57h2.85v8.29H74.84V55.57Zm2.88-1H74.86V52.74h2.85v1.85Z"/><path class="cls-1" d="M79.35,55.57H82V57.1h0a3.11,3.11,0,0,1,3-1.71,3,3,0,0,1,3.17,3.32v5.17H85.33v-4c0-1.56-.54-2.07-1.32-2.07-1.17,0-1.78.81-1.78,2.59v3.51H79.38V55.57h0Z"/><path class="cls-1" d="M88.6,55.57h1.68V53.71l2.81-.88v2.73h2v2h-2v3c0,1,.24,1.51,1.15,1.51A5.43,5.43,0,0,0,95.11,62l0.1,1.85a12,12,0,0,1-1.81.17c-2.56,0-3.17-1.12-3.17-3.1V57.57H88.6v-2Z"/><path class="cls-1" d="M32.2,57.86H33c1,0,1.83-.37,1.83-1.54S34,54.83,33,54.83H32.2v3Zm-3-5.12h3.54c3.39,0,5,1.15,5,3.64,0,2.24-1.63,3.59-4.42,3.59H32.2v3.88h-3V52.74Z"/><path class="cls-1" d="M41.08,62.13a1.86,1.86,0,0,0,1.76-2c-0.37,0-.78,0-1.22,0-1,0-1.73.29-1.73,1.1a1,1,0,0,0,1.2.9m2,1.71C43,63.4,43,63,43,62.54h0A2.86,2.86,0,0,1,40.32,64c-1.63,0-3.1-.81-3.1-2.61,0-2.54,2.76-2.83,4.27-2.83a7.4,7.4,0,0,1,1.34.12c0-1.12-.85-1.44-1.9-1.44a5.38,5.38,0,0,0-2.63.61l0-2a8.55,8.55,0,0,1,3.32-.59c2.12,0,4,.9,4,3.44v3.1a8.8,8.8,0,0,0,.17,2H43.05Z"/><path class="cls-1" d="M46.64,65a3.58,3.58,0,0,0,1.12.17A1.43,1.43,0,0,0,49.2,64l-3.34-8.47H49L50.74,61h0l1.71-5.42h2.85l-3,7.71c-0.81,2.07-1.44,4.1-4,4.1a8.66,8.66,0,0,1-1.78-.2Z"/><path class="cls-1" d="M59,57.86h0.76c1,0,1.83-.37,1.83-1.54s-0.81-1.49-1.83-1.49H59v3Zm-3-5.12h3.51c3.39,0,5,1.15,5,3.64,0,2.24-1.63,3.59-4.42,3.59H58.93v3.88H56V52.74h0Z"/><path class="cls-1" d="M71.13,59.71c0-1.24-.54-2.34-1.85-2.34s-1.85,1.1-1.85,2.34S68,62,69.28,62s1.85-1.1,1.85-2.32m-6.68,0c0-2.76,2.07-4.34,4.83-4.34s4.83,1.59,4.83,4.34S72,64,69.28,64s-4.83-1.59-4.83-4.32"/><path class="cls-1" d="M74.84,55.57h2.85v8.29H74.84V55.57Zm2.88-1H74.86V52.74h2.85v1.85Z"/><path class="cls-1" d="M79.35,55.57H82V57.1h0a3.11,3.11,0,0,1,3-1.71,3,3,0,0,1,3.17,3.32v5.17H85.33v-4c0-1.56-.54-2.07-1.32-2.07-1.17,0-1.78.81-1.78,2.59v3.51H79.38V55.57h0Z"/><path class="cls-1" d="M88.6,55.57h1.68V53.71l2.81-.88v2.73h2v2h-2v3c0,1,.24,1.51,1.15,1.51A5.43,5.43,0,0,0,95.11,62l0.1,1.85a12,12,0,0,1-1.81.17c-2.56,0-3.17-1.12-3.17-3.1V57.57H88.6v-2Z"/><path class="cls-1" d="M74.25,29.56H71V20h3.22c3.61,0,7.2.49,7.2,4.59,0,4.32-3.61,5-7.15,5M82.06,11H56.52a13.05,13.05,0,0,1,12.39,13.3c0,10.08-6.83,14.22-12.37,14.22h0V49.66H71.35V38.54H82c7.76,0,14.22-4.15,14.22-14.22C96.24,13.9,88.09,11,82.06,11"/><path class="cls-1" d="M46.93,29.56H43.66V20h3.22c3.61,0,7.2.49,7.2,4.59,0,4.32-3.61,5-7.15,5M29.22,11V49.66H44.05V38.54H56.52V11H29.22Z"/></svg>