<svg id="Layer_1" data-name="Layer 1" xmlns="http://www.w3.org/2000/svg" viewBox="0 0 125.43 78.39"><defs><style>.cls-1{fill:#369;}.cls-2{fill:#036;}</style></defs><title>payment-icons</title><path class="cls-1" d="M88.87,34.39a8,8,0,0,0-3.73-.67,16.4,16.4,0,0,0-2.53.2C82,34,81.93,34,81.54,34.12a1.22,1.22,0,0,0-.92,1l-0.25,1.05c-0.15.67,0.24,0.64,0.41,0.59A10.68,10.68,0,0,1,82,36.36a9.21,9.21,0,0,1,2-.26,5.18,5.18,0,0,1,1.89.27,1,1,0,0,1,.63.95,0.71,0.71,0,0,1,0,.3,0.32,0.32,0,0,1-.3.19c-1.19.07-2,.18-3.08,0.33a9.63,9.63,0,0,0-2.65.73,4.12,4.12,0,0,0-1.8,1.42,3.87,3.87,0,0,0-.6,2.18,2.56,2.56,0,0,0,.85,2,3.21,3.21,0,0,0,2.2.76,5.88,5.88,0,0,0,1.31-.12,6.7,6.7,0,0,0,1-.34,5.22,5.22,0,0,0,.86-0.48l0.79-.53v0L85,44.07h0a0.62,0.62,0,0,0,.56.78h2a1.09,1.09,0,0,0,.89-0.78l1.52-6.58A3.92,3.92,0,0,0,90,37a4.4,4.4,0,0,0,0-.5,2.2,2.2,0,0,0-1.19-2.06m-3.7,7.84a5.57,5.57,0,0,1-.82.42,3,3,0,0,1-1.09.24,2.43,2.43,0,0,1-1.19-.23,0.8,0.8,0,0,1-.41-0.78,1.6,1.6,0,0,1,.3-1,2.18,2.18,0,0,1,.89-0.6A7.57,7.57,0,0,1,84.24,40c0.48-.06,1.42-0.17,1.54-0.17s0.2-.07.15,0.25c0,0.14-.3,1.26-0.42,1.76a1,1,0,0,1-.33.43"/><path class="cls-2" d="M62.64,33.87a1.79,1.79,0,0,0-1.31.8L58,40.31c-0.16.28-.32,0.1-0.35,0l-0.92-5.61a1.15,1.15,0,0,0-1.14-.82H53.76a0.62,0.62,0,0,0-.63.8s1.43,8.08,1.7,10a2.09,2.09,0,0,1,0,1.24L53,49.13c-0.27.43-.12,0.79,0.33,0.79h2.16a1.76,1.76,0,0,0,1.31-.79l8.32-14.07s0.8-1.2.06-1.19H62.64"/><path class="cls-2" d="M36.38,36.73a4.39,4.39,0,0,1-2.64.69H33.23a0.62,0.62,0,0,1-.64-0.8l0.63-2.71a1.06,1.06,0,0,1,1-.79h0.68a3.31,3.31,0,0,1,1.82.41,1.36,1.36,0,0,1,.6,1.24,2.25,2.25,0,0,1-.94,2m4.51-4.18a3.12,3.12,0,0,0-1.14-1.23,5.27,5.27,0,0,0-1.81-.67,15.21,15.21,0,0,0-2.47-.2H31.11a1.09,1.09,0,0,0-1,.8L27.17,44a0.62,0.62,0,0,0,.63.8h2.09a1.07,1.07,0,0,0,1-.8l0.72-3.1a1.07,1.07,0,0,1,1-.79h0.6a9.91,9.91,0,0,0,6-1.57,4.89,4.89,0,0,0,2.13-4.14,3.9,3.9,0,0,0-.4-1.88"/><path class="cls-1" d="M74.29,36.78a4.42,4.42,0,0,1-2.63.68H71.14a0.62,0.62,0,0,1-.63-0.79L71.13,34a1.07,1.07,0,0,1,1-.79h0.68a3.41,3.41,0,0,1,1.82.4,1.4,1.4,0,0,1,.61,1.25,2.3,2.3,0,0,1-.94,2M78.8,32.6a3.2,3.2,0,0,0-1.15-1.23,5.17,5.17,0,0,0-1.82-.67,14.4,14.4,0,0,0-2.46-.19H69a1.09,1.09,0,0,0-1,.8L65.08,44.09a0.62,0.62,0,0,0,.63.79h2.1a1.09,1.09,0,0,0,1-.79L69.51,41a1.07,1.07,0,0,1,1-.79h0.6a9.88,9.88,0,0,0,6-1.57,4.92,4.92,0,0,0,2.13-4.14,4,4,0,0,0-.4-1.88"/><path class="cls-2" d="M51,34.38a8,8,0,0,0-3.73-.67,16.53,16.53,0,0,0-2.53.2C44.07,34,44,34,43.62,34.11a1.22,1.22,0,0,0-.92,1l-0.26,1c-0.15.67,0.24,0.64,0.41,0.59a11.16,11.16,0,0,1,1.24-.37,9.09,9.09,0,0,1,2-.27,5.18,5.18,0,0,1,1.89.27,1,1,0,0,1,.63.95,0.67,0.67,0,0,1,0,.29,0.32,0.32,0,0,1-.3.19c-1.19.07-2,.18-3.08,0.33a9.62,9.62,0,0,0-2.65.73,4.14,4.14,0,0,0-1.79,1.42,3.83,3.83,0,0,0-.6,2.18,2.56,2.56,0,0,0,.85,2,3.2,3.2,0,0,0,2.2.76,5.9,5.9,0,0,0,1.31-.12,6.55,6.55,0,0,0,1-.34,5.21,5.21,0,0,0,.86-0.48l0.79-.53v0l-0.08.34h0a0.62,0.62,0,0,0,.56.78h2a1.09,1.09,0,0,0,.89-0.78L52,37.49a3.72,3.72,0,0,0,.08-0.54,4,4,0,0,0,0-.5A2.2,2.2,0,0,0,51,34.38m-3.69,7.84a5.33,5.33,0,0,1-.82.42,2.94,2.94,0,0,1-1.09.24,2.44,2.44,0,0,1-1.19-.23,0.81,0.81,0,0,1-.41-0.78,1.59,1.59,0,0,1,.3-1,2.14,2.14,0,0,1,.89-0.6,7.7,7.7,0,0,1,1.38-.31c0.48-.06,1.42-0.17,1.54-0.17s0.2-.07.15,0.25c0,0.14-.3,1.26-0.42,1.76a1,1,0,0,1-.33.43"/><path class="cls-1" d="M96.07,30.62H94.2a1.07,1.07,0,0,0-1,.73l0,0.07-0.1.47L90.51,43.57l-0.12.5h0a0.61,0.61,0,0,0,.55.77v0H92.9a1.08,1.08,0,0,0,1-.73l0-.07,2.8-12.67h0a0.62,0.62,0,0,0-.63-0.79"/><path class="cls-1" d="M98.9,33.2l-0.21,0-0.2,0A0.63,0.63,0,0,1,98,33.09a0.76,0.76,0,0,1-.16-0.54V31.47H97.63V31.18h0.23V30.6H98.2v0.58H98.9v0.29H98.2V32.4c0,0.11,0,.19,0,0.25l0.05,0.17,0.11,0.11a0.53,0.53,0,0,0,.21,0l0.17,0,0.13,0h0V33.2Z"/><path class="cls-1" d="M102.28,33.22h-0.34V31.81l-0.05-.19-0.12-.12a0.52,0.52,0,0,0-.23,0,0.61,0.61,0,0,0-.29.07,1.62,1.62,0,0,0-.29.18v1.51h-0.34V31.8l-0.05-.19-0.12-.12a0.54,0.54,0,0,0-.22,0,0.62,0.62,0,0,0-.28.07,1.68,1.68,0,0,0-.28.18v1.52H99.32v-2h0.34v0.22A1.52,1.52,0,0,1,100,31.2a0.78,0.78,0,0,1,.34-0.07,0.66,0.66,0,0,1,.35.09,0.55,0.55,0,0,1,.22.24,1.66,1.66,0,0,1,.38-0.25,0.89,0.89,0,0,1,.36-0.08,0.59,0.59,0,0,1,.5.2,0.9,0.9,0,0,1,.16.57v1.32Z"/></svg>