<svg id="Layer_1" data-name="Layer 1" xmlns="http://www.w3.org/2000/svg" viewBox="0 0 125.43 78.39"><defs><style>.cls-1{fill:#008060;fill-rule:evenodd;}</style></defs><title>payment-icons</title><path class="cls-1" d="M101.27,37.22c0-3.2-2.48-9.16-10.5-9.18a11.65,11.65,0,0,0-7.31,2.54V28.31H78.1v2.27a9.58,9.58,0,0,0-4.52-2.4,12.06,12.06,0,0,0-5.53.45,8,8,0,0,0-4,2.53c-2.24-2.5-5.78-3-8.6-3.11-3.21-.12-6.45.28-9,2.12A19.5,19.5,0,0,0,37.61,28a12.09,12.09,0,0,0-7.91,2.45,4.59,4.59,0,0,0-1.43,2,5.39,5.39,0,0,0,.38,4.91c1.5,2,3.18,2.78,6.19,3.12,2.65,0.3,4.5.3,6.46,0.66A2,2,0,0,1,43.08,43c0,1.18-1.66,3.12-5.65,2.86-3.33-.22-4.59-0.69-7.72-2.72L26.16,46s0.6,0.48,1,.75,0.81,0.51,1.23.73h0a19.81,19.81,0,0,0,12.17,2.07,14.24,14.24,0,0,0,5.54-2.06,10,10,0,0,0,7.3,2.26c2.66-.12,4.64,0,6.49-2.15v2.12H65.1V47.63a15.75,15.75,0,0,0,1.39,1c3.29,2,8.52,1.23,11.62-1.13v2.75c-0.09,1.69-1.64,2.85-3.28,3.51-2.83,1.13-5.4.12-7.7-1.5l-3.93,2.62a11,11,0,0,0,3.54,2.37,14.05,14.05,0,0,0,12.64-.75c2.26-1.34,3.13-3,3.68-5.51a18.33,18.33,0,0,0,.36-3.5V47.4l0.13,0.1a11.63,11.63,0,0,0,3.54,1.78,14.77,14.77,0,0,0,8.13,0A11.52,11.52,0,0,0,99,47.49h0A13.07,13.07,0,0,0,100.7,46l-3.39-2.41a9.77,9.77,0,0,1-4.8,2.13c-2.25.29-4.79-.12-6.17-1.62-0.75-.81-1-1.06-1-3.11l15.93,0V37.22ZM67.34,38.71c0-1.18.15-2.44,0.28-3.67a3.18,3.18,0,0,1,1.81-1.89,6.75,6.75,0,0,1,5.79-.42,3.54,3.54,0,0,1,2.55,2.69c0.1,1.13.22,2.2,0.27,3.23a12.87,12.87,0,0,1-.24,3.67,3.43,3.43,0,0,1-1.32,2,5.68,5.68,0,0,1-3.8,1.21c-2.23-.12-4.22-1-4.81-2.24a10.75,10.75,0,0,1-.53-4.57m-9.45,6.85a12.18,12.18,0,0,1-4.78.3c-1.57-.19-3.07-0.3-3.68-1.71A1.94,1.94,0,0,1,49.69,42c0.81-1,2.69-1.23,3.82-1.24h6.17c0.16,1.61.68,4-1.78,4.77M39.57,36.79c-2.47-.13-4.75-0.18-6-1.17a1.9,1.9,0,0,1,.43-2.8A7.46,7.46,0,0,1,38.18,32a12.76,12.76,0,0,1,6.19,2l2.15-2s2.27,2.08,2.27,2a8,8,0,0,1,6-1.84c3.37,0,4.34.66,4.83,1.4,0.31,0.47,0,3.32,0,3.32s-3,.09-5.12,0a17.51,17.51,0,0,0-4.37.19,7,7,0,0,0-3.65,1.58,13.86,13.86,0,0,0-1.91-1.09c-1.81-.83-3.11-0.68-5-0.78m45.89,0.37A5.33,5.33,0,0,1,86.35,34a5.93,5.93,0,0,1,5-2.27,6.25,6.25,0,0,1,4.94,2.14,5.12,5.12,0,0,1,1,3.25H85.46Z"/></svg>