<?xml version="1.0" encoding="utf-8"?>
<!-- Generator: Adobe Illustrator 19.1.0, SVG Export Plug-In . SVG Version: 6.00 Build 0)  -->
<svg version="1.1" id="Layer_1" xmlns="http://www.w3.org/2000/svg" xmlns:xlink="http://www.w3.org/1999/xlink" x="0px" y="0px"
	 viewBox="0 0 125.4 78.4" style="enable-background:new 0 0 125.4 78.4;" xml:space="preserve">
<style type="text/css">
	.st0{clip-path:url(#SVGID_2_);}
	.st1{clip-path:url(#SVGID_4_);fill:#F9F9F9;}
	.st2{clip-path:url(#SVGID_4_);fill:#FFFFFF;}
	.st3{clip-path:url(#SVGID_4_);fill:#C5C7C9;}
	.st4{clip-path:url(#SVGID_4_);fill:#231F20;}
	.st5{clip-path:url(#SVGID_4_);fill:#A6A8AB;}
	.st6{clip-path:url(#SVGID_4_);fill:#FFC10E;}
	.st7{clip-path:url(#SVGID_4_);fill:#A30046;}
	.st8{clip-path:url(#SVGID_6_);}
	.st9{clip-path:url(#SVGID_8_);fill:#178FDB;}
	.st10{clip-path:url(#SVGID_8_);fill:#FFFFFF;}
	.st11{clip-path:url(#SVGID_10_);}
	.st12{clip-path:url(#SVGID_12_);fill:#F9F9F9;}
	.st13{clip-path:url(#SVGID_12_);}
	.st14{clip-path:url(#SVGID_14_);}
	.st15{clip-path:url(#SVGID_16_);fill:#F9F9F9;}
	.st16{clip-path:url(#SVGID_16_);fill:#ED1C2E;}
	.st17{clip-path:url(#SVGID_16_);fill:#FCB131;}
	.st18{clip-path:url(#SVGID_18_);}
	.st19{clip-path:url(#SVGID_20_);fill:#F9F9F9;}
	.st20{clip-path:url(#SVGID_20_);fill:#0066B2;}
	.st21{clip-path:url(#SVGID_20_);fill:#F9A533;}
	.st22{clip-path:url(#SVGID_22_);}
	.st23{clip-path:url(#SVGID_24_);fill:#F9F9F9;}
	.st24{clip-path:url(#SVGID_24_);fill:#FFFFFF;}
	.st25{clip-path:url(#SVGID_24_);fill:#0078A9;}
	.st26{clip-path:url(#SVGID_26_);}
	.st27{clip-path:url(#SVGID_28_);fill:#F9F9F9;}
	.st28{clip-path:url(#SVGID_28_);fill-rule:evenodd;clip-rule:evenodd;fill:#231F20;}
	.st29{clip-path:url(#SVGID_30_);}
	.st30{clip-path:url(#SVGID_32_);fill:#F9F9F9;}
	.st31{clip-path:url(#SVGID_32_);fill:#EE3A3F;}
	.st32{clip-path:url(#SVGID_32_);fill:#0067B2;}
	.st33{clip-path:url(#SVGID_32_);fill:#FAAC18;}
	.st34{clip-path:url(#SVGID_32_);fill:#6AB845;}
	.st35{clip-path:url(#SVGID_32_);fill:#231F20;}
	.st36{clip-path:url(#SVGID_34_);}
	.st37{clip-path:url(#SVGID_36_);fill:#F9F9F9;}
	.st38{clip-path:url(#SVGID_36_);fill:#00A551;}
	.st39{clip-path:url(#SVGID_36_);fill:#0071BB;}
	.st40{clip-path:url(#SVGID_36_);fill:#FFFFFF;}
	.st41{clip-path:url(#SVGID_36_);fill:#EC1C24;}
	.st42{clip-path:url(#SVGID_38_);}
	.st43{clip-path:url(#SVGID_40_);fill:#F9F9F9;}
	.st44{clip-path:url(#SVGID_40_);fill-rule:evenodd;clip-rule:evenodd;fill:#008060;}
	.st45{clip-path:url(#SVGID_42_);}
	.st46{clip-path:url(#SVGID_44_);fill:#F9F9F9;}
	.st47{clip-path:url(#SVGID_44_);fill:#203C73;}
	.st48{clip-path:url(#SVGID_46_);}
	.st49{clip-path:url(#SVGID_48_);fill:#F9F9F9;}
	.st50{clip-path:url(#SVGID_48_);fill-rule:evenodd;clip-rule:evenodd;fill:#FF9900;}
	.st51{clip-path:url(#SVGID_48_);fill-rule:evenodd;clip-rule:evenodd;}
	.st52{clip-path:url(#SVGID_50_);}
	.st53{clip-path:url(#SVGID_52_);fill:#F9F9F9;}
	.st54{clip-path:url(#SVGID_52_);fill-rule:evenodd;clip-rule:evenodd;fill:#FAA929;}
	.st55{clip-path:url(#SVGID_52_);fill-rule:evenodd;clip-rule:evenodd;fill:#045EA0;}
	.st56{clip-path:url(#SVGID_54_);}
	.st57{clip-path:url(#SVGID_56_);fill:#F9F9F9;}
	.st58{clip-path:url(#SVGID_56_);fill-rule:evenodd;clip-rule:evenodd;fill:#121212;}
	.st59{clip-path:url(#SVGID_58_);}
	.st60{clip-path:url(#SVGID_60_);fill:#F9F9F9;}
	.st61{clip-path:url(#SVGID_60_);fill:#336699;}
	.st62{clip-path:url(#SVGID_60_);fill:#003366;}
	.st63{clip-path:url(#SVGID_62_);}
	.st64{clip-path:url(#SVGID_64_);fill:#F9F9F9;}
	.st65{clip-path:url(#SVGID_64_);fill:#007CC3;}
	.st66{clip-path:url(#SVGID_64_);fill:#009DDD;}
	.st67{clip-path:url(#SVGID_64_);fill:#FFFFFF;}
	.st68{clip-path:url(#SVGID_66_);}
	.st69{clip-path:url(#SVGID_68_);fill:#F9F9F9;}
	.st70{clip-path:url(#SVGID_68_);fill:#EC1C2E;}
	.st71{clip-path:url(#SVGID_68_);fill:#0084C4;}
	.st72{clip-path:url(#SVGID_68_);fill:#FFFFFF;}
	.st73{clip-path:url(#SVGID_68_);fill:none;stroke:#FFFFFF;stroke-width:0.215;}
	.st74{clip-path:url(#SVGID_70_);}
	.st75{clip-path:url(#SVGID_72_);fill:#F9F9F9;}
	.st76{clip-path:url(#SVGID_72_);fill-rule:evenodd;clip-rule:evenodd;fill:#FBB231;}
	.st77{clip-path:url(#SVGID_72_);fill-rule:evenodd;clip-rule:evenodd;fill:#EC1C2E;}
	.st78{clip-path:url(#SVGID_72_);fill-rule:evenodd;clip-rule:evenodd;fill:#FFFFFF;}
	.st79{clip-path:url(#SVGID_72_);fill:none;stroke:#FFFFFF;stroke-width:0.216;stroke-miterlimit:2.613;}
	.st80{clip-path:url(#SVGID_74_);}
	.st81{clip-path:url(#SVGID_76_);fill:#F9F9F9;}
	.st82{clip-path:url(#SVGID_76_);fill:#0066B2;}
	.st83{clip-path:url(#SVGID_76_);fill:#F9A533;}
	.st84{clip-path:url(#SVGID_78_);}
	.st85{clip-path:url(#SVGID_80_);fill:#0078A9;}
	.st86{clip-path:url(#SVGID_80_);fill:#FFFFFF;}
	.st87{clip-path:url(#SVGID_82_);}
	.st88{clip-path:url(#SVGID_84_);fill:#008060;}
	.st89{clip-path:url(#SVGID_84_);fill-rule:evenodd;clip-rule:evenodd;fill:#FFFFFF;}
	.st90{clip-path:url(#SVGID_86_);}
	.st91{clip-path:url(#SVGID_88_);fill:#203C73;}
	.st92{clip-path:url(#SVGID_88_);fill:#FFFFFF;}
	.st93{clip-path:url(#SVGID_90_);}
	.st94{clip-path:url(#SVGID_92_);fill:#1C3663;}
	.st95{clip-path:url(#SVGID_92_);fill:#FFFFFF;}
	.st96{clip-path:url(#SVGID_94_);}
	.st97{clip-path:url(#SVGID_96_);fill:#13457C;}
	.st98{clip-path:url(#SVGID_96_);fill:#007CC3;}
	.st99{clip-path:url(#SVGID_96_);fill:#009DDD;}
	.st100{clip-path:url(#SVGID_96_);fill:#FFFFFF;}
	.st101{clip-path:url(#SVGID_98_);}
	.st102{clip-path:url(#SVGID_100_);fill:#13457C;}
	.st103{clip-path:url(#SVGID_100_);fill:#ED1C2E;}
	.st104{clip-path:url(#SVGID_100_);fill:#FCB131;}
	.st105{clip-path:url(#SVGID_102_);}
	.st106{clip-path:url(#SVGID_104_);fill:#1D1E1E;}
	.st107{clip-path:url(#SVGID_104_);fill:#EE3A3F;}
	.st108{clip-path:url(#SVGID_104_);fill:#0067B2;}
	.st109{clip-path:url(#SVGID_104_);fill:#FAAC18;}
	.st110{clip-path:url(#SVGID_104_);fill:#6AB845;}
	.st111{clip-path:url(#SVGID_104_);fill:#231F20;}
	.st112{clip-path:url(#SVGID_106_);}
	.st113{clip-path:url(#SVGID_108_);fill:#121212;}
	.st114{clip-path:url(#SVGID_108_);fill-rule:evenodd;clip-rule:evenodd;fill:#FFDE37;}
	.st115{clip-path:url(#SVGID_110_);}
	.st116{clip-path:url(#SVGID_112_);fill:#3957A7;}
	.st117{clip-path:url(#SVGID_112_);fill:#FFFFFF;}
	.st118{clip-path:url(#SVGID_112_);fill:#F9A533;}
	.st119{clip-path:url(#SVGID_114_);}
	.st120{clip-path:url(#SVGID_116_);fill:#0C489C;}
	.st121{clip-path:url(#SVGID_116_);fill:#FFFFFF;}
	.st122{clip-path:url(#SVGID_118_);}
	.st123{clip-path:url(#SVGID_120_);fill:#045EA0;}
	.st124{clip-path:url(#SVGID_120_);fill-rule:evenodd;clip-rule:evenodd;fill:#FAA929;}
	.st125{clip-path:url(#SVGID_120_);fill-rule:evenodd;clip-rule:evenodd;fill:#FFFFFF;}
	.st126{clip-path:url(#SVGID_122_);}
	.st127{clip-path:url(#SVGID_124_);fill:#13457C;}
	.st128{clip-path:url(#SVGID_124_);fill-rule:evenodd;clip-rule:evenodd;fill:#FBB231;}
	.st129{clip-path:url(#SVGID_124_);fill-rule:evenodd;clip-rule:evenodd;fill:#EC1C2E;}
	.st130{clip-path:url(#SVGID_124_);fill-rule:evenodd;clip-rule:evenodd;fill:#FFFFFF;}
	.st131{clip-path:url(#SVGID_124_);fill:none;stroke:#FFFFFF;stroke-width:0.216;stroke-miterlimit:2.613;}
	.st132{clip-path:url(#SVGID_126_);}
	.st133{clip-path:url(#SVGID_128_);fill:#13457C;}
	.st134{clip-path:url(#SVGID_128_);fill:#EC1C2E;}
	.st135{clip-path:url(#SVGID_128_);fill:#0084C4;}
	.st136{clip-path:url(#SVGID_128_);fill:#FFFFFF;}
	.st137{clip-path:url(#SVGID_128_);fill:none;stroke:#FFFFFF;stroke-width:0.215;}
	.st138{clip-path:url(#SVGID_130_);}
	.st139{clip-path:url(#SVGID_132_);fill:#FF9900;}
	.st140{clip-path:url(#SVGID_132_);fill-rule:evenodd;clip-rule:evenodd;fill:#231F20;}
	.st141{clip-path:url(#SVGID_134_);}
	.st142{clip-path:url(#SVGID_136_);fill:#231F20;}
	.st143{clip-path:url(#SVGID_136_);fill-rule:evenodd;clip-rule:evenodd;fill:#FFFFFF;}
	.st144{clip-path:url(#SVGID_138_);}
	.st145{clip-path:url(#SVGID_140_);fill:#121212;}
	.st146{clip-path:url(#SVGID_140_);fill:#FFFFFF;}
	.st147{clip-path:url(#SVGID_140_);fill:#FFC10E;}
	.st148{clip-path:url(#SVGID_142_);}
	.st149{clip-path:url(#SVGID_144_);fill:#0033A0;}
	.st150{clip-path:url(#SVGID_144_);fill:#FFFFFF;}
	.st151{clip-path:url(#SVGID_144_);fill:#FF9E16;}
	.st152{clip-path:url(#SVGID_144_);fill:#FAA943;}
	.st153{clip-path:url(#SVGID_146_);}
	.st154{clip-path:url(#SVGID_148_);fill:#ED1C2E;}
	.st155{clip-path:url(#SVGID_148_);fill:#FCB131;}
	.st156{clip-path:url(#SVGID_150_);}
	.st157{clip-path:url(#SVGID_152_);fill:#0066B2;}
	.st158{clip-path:url(#SVGID_152_);fill:#F9A533;}
	.st159{clip-path:url(#SVGID_154_);}
	.st160{clip-path:url(#SVGID_156_);fill:#FFFFFF;}
	.st161{clip-path:url(#SVGID_156_);fill:#0078A9;}
	.st162{clip-path:url(#SVGID_158_);}
	.st163{clip-path:url(#SVGID_160_);fill-rule:evenodd;clip-rule:evenodd;fill:#231F20;}
	.st164{clip-path:url(#SVGID_162_);}
	.st165{clip-path:url(#SVGID_164_);fill:#EE3A3F;}
	.st166{clip-path:url(#SVGID_164_);fill:#0067B2;}
	.st167{clip-path:url(#SVGID_164_);fill:#FAAC18;}
	.st168{clip-path:url(#SVGID_164_);fill:#6AB845;}
	.st169{clip-path:url(#SVGID_164_);fill:#231F20;}
	.st170{clip-path:url(#SVGID_166_);}
	.st171{clip-path:url(#SVGID_168_);fill:#00A551;}
	.st172{clip-path:url(#SVGID_168_);fill:#0071BB;}
	.st173{clip-path:url(#SVGID_168_);fill:#FFFFFF;}
	.st174{clip-path:url(#SVGID_168_);fill:#EC1C24;}
	.st175{clip-path:url(#SVGID_170_);}
	.st176{clip-path:url(#SVGID_172_);fill-rule:evenodd;clip-rule:evenodd;fill:#008060;}
	.st177{clip-path:url(#SVGID_174_);}
	.st178{clip-path:url(#SVGID_176_);fill:#203C73;}
	.st179{clip-path:url(#SVGID_178_);}
	.st180{clip-path:url(#SVGID_180_);fill-rule:evenodd;clip-rule:evenodd;fill:#FF9900;}
	.st181{clip-path:url(#SVGID_180_);fill-rule:evenodd;clip-rule:evenodd;}
	.st182{clip-path:url(#SVGID_182_);}
	.st183{clip-path:url(#SVGID_184_);fill-rule:evenodd;clip-rule:evenodd;fill:#FAA929;}
	.st184{clip-path:url(#SVGID_184_);fill-rule:evenodd;clip-rule:evenodd;fill:#045EA0;}
	.st185{clip-path:url(#SVGID_186_);fill:#0084C4;}
	.st186{clip-path:url(#SVGID_186_);fill:#EC1C2E;}
	.st187{clip-path:url(#SVGID_186_);fill:#FFFFFF;}
	.st188{clip-path:url(#SVGID_188_);}
	.st189{clip-path:url(#SVGID_190_);fill:#336699;}
	.st190{clip-path:url(#SVGID_190_);fill:#003366;}
	.st191{clip-path:url(#SVGID_192_);fill:#121212;}
	.st192{clip-path:url(#SVGID_192_);fill-rule:evenodd;clip-rule:evenodd;fill:#121212;}
	.st193{clip-path:url(#SVGID_192_);}
	.st194{clip-path:url(#SVGID_194_);fill-rule:evenodd;clip-rule:evenodd;fill:#121212;}
	.st195{clip-path:url(#SVGID_196_);}
	.st196{clip-path:url(#SVGID_198_);fill:#009DDD;}
	.st197{clip-path:url(#SVGID_198_);fill:#007CC3;}
	.st198{clip-path:url(#SVGID_198_);fill:#FFFFFF;}
	.st199{clip-path:url(#SVGID_200_);fill:#FBB231;}
	.st200{clip-path:url(#SVGID_200_);fill:none;stroke:#FFFFFF;stroke-width:0.216;stroke-miterlimit:2.613;}
	.st201{clip-path:url(#SVGID_200_);fill-rule:evenodd;clip-rule:evenodd;fill:#EC1C2E;}
	.st202{clip-path:url(#SVGID_200_);fill:#EC1C2E;}
	.st203{clip-path:url(#SVGID_200_);fill:#FFFFFF;}
	.st204{clip-path:url(#SVGID_200_);fill-rule:evenodd;clip-rule:evenodd;fill:#FFFFFF;}
	.st205{clip-path:url(#SVGID_200_);fill-rule:evenodd;clip-rule:evenodd;fill:#FBB231;}
	.st206{clip-path:url(#SVGID_202_);fill:#0066B2;}
	.st207{clip-path:url(#SVGID_202_);}
	.st208{clip-path:url(#SVGID_204_);fill:#0066B2;}
	.st209{clip-path:url(#SVGID_204_);fill:#F9A533;}
	.st210{clip-path:url(#SVGID_206_);}
	.st211{clip-path:url(#SVGID_208_);fill:#FFFFFF;}
	.st212{clip-path:url(#SVGID_208_);fill:#C5C7C9;}
	.st213{clip-path:url(#SVGID_208_);fill:#231F20;}
	.st214{clip-path:url(#SVGID_208_);fill:#A6A8AB;}
	.st215{clip-path:url(#SVGID_208_);fill:#FFC10E;}
	.st216{clip-path:url(#SVGID_208_);fill:#A30046;}
	.st217{clip-path:url(#SVGID_210_);}
	.st218{clip-path:url(#SVGID_212_);}
	.st219{clip-path:url(#SVGID_214_);}
	.st220{clip-path:url(#SVGID_216_);}
	.st221{clip-path:url(#SVGID_216_);fill:#FFFFFF;}
	.st222{clip-path:url(#SVGID_218_);}
	.st223{clip-path:url(#SVGID_220_);fill:#F9F9F9;}
	.st224{clip-path:url(#SVGID_220_);}
	.st225{clip-path:url(#SVGID_222_);}
	.st226{clip-path:url(#SVGID_224_);}
</style>
<g>
	<g>
		<defs>
			<rect id="SVGID_209_" x="18.5" y="20.9" width="88.4" height="36.7"/>
		</defs>
		<clipPath id="SVGID_2_">
			<use xlink:href="#SVGID_209_"  style="overflow:visible;"/>
		</clipPath>
		<g class="st0">
			<defs>
				<rect id="SVGID_211_" x="18.5" y="20.9" width="88.4" height="36.7"/>
			</defs>
			<clipPath id="SVGID_4_">
				<use xlink:href="#SVGID_211_"  style="overflow:visible;"/>
			</clipPath>
			<path style="clip-path:url(#SVGID_4_);" d="M70.6,29.7h5.7c0.1,0.7,0.2,1.3,0.3,2c0,0,0,0,0.1,0.1c0.1-0.2,0.3-0.3,0.4-0.5
				c1-1,2.2-1.7,3.6-1.9c1.9-0.3,3.7,0.1,5.2,1.5c0.8,0.8,1.4,1.8,1.7,2.9c0.5,1.5,0.7,3.1,0.8,4.7c0,1.7,0,3.4-0.4,5
				c-0.4,1.6-1,3.1-2.1,4.3c-1.2,1.4-2.7,2.2-4.6,2.4c-1.4,0.2-2.7,0.1-4-0.3c-0.1,0-0.1,0-0.2,0c0,0,0,0-0.1,0v6.5
				c-2.2,0.4-4.3,0.7-6.5,1.1V29.7z M77,40.3v4.3c0,0.6,0,0.6,0.6,0.8c1.4,0.4,2.6,0,3.3-1.1c0.3-0.6,0.6-1.2,0.7-1.8
				c0.4-1.7,0.4-3.5,0.1-5.2c-0.1-0.7-0.3-1.5-0.7-2.1c-0.5-0.7-1.1-1-1.9-0.8c-0.8,0.1-1.4,0.6-2,1.1c-0.1,0.1-0.2,0.2-0.2,0.4
				C77,37.3,77,38.8,77,40.3"/>
			<path style="clip-path:url(#SVGID_4_);" d="M96.1,41.9c0.1,1.2,0.4,2.2,1.3,2.9c0.7,0.5,1.5,0.7,2.4,0.7c2,0,3.9-0.3,5.7-1.3
				c0,0,0.1,0,0.1,0c0.1,0.5,0.2,0.9,0.2,1.4c0.1,0.9,0.3,1.9,0.5,2.8c0,0.2,0,0.2-0.2,0.3c-1,0.6-2.1,1-3.3,1.2
				c-2.1,0.4-4.3,0.5-6.5,0.1c-3.2-0.7-5.2-2.7-6.1-5.9c-0.5-1.9-0.6-3.8-0.5-5.7c0.1-1.5,0.4-3,1.1-4.4c1.3-2.7,3.4-4.3,6.4-4.7
				c1.5-0.2,2.9-0.1,4.3,0.4c2,0.7,3.4,2.1,4.3,4c0.6,1.3,0.9,2.8,1,4.2c0.1,1.3,0,2.5,0,3.8c0,0,0,0.1,0,0.1H96.1z M100.8,37.9
				c0-0.8-0.1-1.6-0.3-2.4c-0.2-0.5-0.4-1-0.8-1.4c-0.7-0.6-2.1-0.7-2.8,0.5c-0.6,1-0.7,2.1-0.8,3.3H100.8z"/>
			<path style="clip-path:url(#SVGID_4_);" d="M19.3,43.8c1.2,0.7,2.4,1.1,3.7,1.5c0.9,0.2,1.8,0.4,2.7,0.3c0.3,0,0.6-0.1,0.9-0.2
				c1-0.4,1.2-1.5,0.4-2.2c-0.5-0.5-1.2-0.7-1.8-1c-1-0.4-2-0.8-3-1.3c-0.7-0.3-1.4-0.8-1.9-1.4c-0.9-0.9-1.3-2-1.4-3.2
				c-0.1-1.4,0-2.7,0.7-3.9c0.8-1.5,2.1-2.3,3.7-2.8c1.3-0.4,2.6-0.5,3.9-0.4c1.8,0.1,3.6,0.5,5.3,1.2c0.2,0.1,0.2,0.2,0.2,0.4
				c-0.2,1.5-0.5,2.9-0.7,4.4c0,0,0,0.1,0,0.1c-0.6-0.2-1.1-0.5-1.7-0.7c-1.2-0.5-2.5-0.8-3.8-0.7c-0.3,0-0.6,0.1-0.9,0.2
				c-0.7,0.3-0.8,1-0.4,1.6c0.3,0.4,0.7,0.6,1.1,0.8c0.9,0.4,1.7,0.7,2.6,1c1,0.4,1.9,0.8,2.7,1.5c1.3,1,2,2.4,2.1,4.1
				c0.1,1.2-0.1,2.4-0.6,3.5c-0.7,1.6-2,2.5-3.6,3.1c-1.4,0.5-2.8,0.6-4.3,0.5c-2-0.1-4-0.6-5.9-1.4c-0.6-0.3-0.6-0.3-0.5-0.9
				c0.2-1.4,0.4-2.7,0.7-4.1C19.3,43.9,19.3,43.8,19.3,43.8"/>
			<path style="clip-path:url(#SVGID_4_);" d="M42.9,23.9v5.8h4.1c-0.3,1.6-0.5,3.2-0.8,4.8h-3.4v0.3c0,2.7,0,5.4,0,8.1
				c0,0.4,0,0.8,0.1,1.1c0.2,0.6,0.6,1,1.3,1.1c0.7,0.1,1.4-0.1,2.1-0.2c0.1,0,0.1,0,0.2,0c0,0.1,0,0.1,0,0.2c0,1.6,0,3.1,0,4.7
				c0,0.1,0,0.2-0.2,0.2c-2,0.5-4,0.6-6,0.1c-2.1-0.5-3.3-1.9-3.7-4c-0.1-0.7-0.2-1.4-0.2-2.1c0-3.1,0-6.1,0-9.2c0-0.1,0-0.2,0-0.3
				h-2.7c0.2-1.5,0.5-3,0.7-4.5c0.6-0.1,1.2-0.2,1.7-0.3c0.2,0,0.2-0.1,0.2-0.2c0.2-1.5,0.5-3,0.7-4.4c0-0.3,0.2-0.3,0.4-0.3
				C39.4,24.5,41.2,24.2,42.9,23.9"/>
			<path style="clip-path:url(#SVGID_4_);" d="M59.9,35.6c-0.9-0.1-1.8-0.1-2.7,0.1c-0.7,0.2-1.3,0.5-1.8,1
				c-0.1,0.1-0.2,0.3-0.2,0.5c0,4.2,0,8.4,0,12.6c0,0.1,0,0.2,0,0.3h-6.5V29.7H49c1.7,0,3.4,0,5.2,0c0.2,0,0.3,0,0.3,0.2
				c0.1,0.7,0.2,1.4,0.3,2.1c0-0.1,0.1-0.1,0.1-0.1c0.7-1.6,1.9-2.4,3.5-2.5c0.4,0,0.9,0.1,1.3,0.1c0.1,0,0.2,0.1,0.2,0.2
				C59.9,31.7,59.9,33.6,59.9,35.6C59.9,35.5,59.9,35.5,59.9,35.6"/>
			<rect x="61.5" y="29.7" style="clip-path:url(#SVGID_4_);" width="6.5" height="20.3"/>
			<path style="clip-path:url(#SVGID_4_);" d="M61.3,24.3c0-1.9,1.5-3.4,3.4-3.4c1.9,0,3.4,1.5,3.4,3.4c0,1.9-1.5,3.4-3.4,3.4
				C62.9,27.7,61.3,26.2,61.3,24.3"/>
		</g>
	</g>
</g>
</svg>
