<svg id="Layer_1" data-name="Layer 1" xmlns="http://www.w3.org/2000/svg" viewBox="0 0 125.43 78.39"><title>payment-icons</title><path d="M70.56,29.71h5.68l0.34,2,0.06,0.06A6,6,0,0,1,77,31.27a6.49,6.49,0,0,1,3.63-1.88,5.94,5.94,0,0,1,5.19,1.52,7.11,7.11,0,0,1,1.75,2.88,15.65,15.65,0,0,1,.76,4.73,19.79,19.79,0,0,1-.43,5,9.75,9.75,0,0,1-2.07,4.31,7.32,7.32,0,0,1-4.55,2.44,9.41,9.41,0,0,1-4-.29l-0.18,0H77v6.48l-6.47,1.07V29.71ZM77,40.33v4.32c0,0.6,0,.6.58,0.77a2.66,2.66,0,0,0,3.3-1.15,5.83,5.83,0,0,0,.72-1.85,15.17,15.17,0,0,0,.12-5.23A4.71,4.71,0,0,0,81,35.11a1.8,1.8,0,0,0-1.88-.82,3.76,3.76,0,0,0-2,1.09,0.46,0.46,0,0,0-.15.37c0,1.53,0,3.05,0,4.58"/><path d="M96.13,41.93a4,4,0,0,0,1.32,2.93,3.8,3.8,0,0,0,2.36.71,11.53,11.53,0,0,0,5.69-1.27l0.11,0c0.08,0.48.16,0.95,0.23,1.42,0.15,0.94.29,1.89,0.45,2.83a0.26,0.26,0,0,1-.15.31,10.47,10.47,0,0,1-3.3,1.24,15.25,15.25,0,0,1-6.45.06,7.74,7.74,0,0,1-6.14-5.85,16.43,16.43,0,0,1-.48-5.75,12.06,12.06,0,0,1,1.1-4.39A7.94,7.94,0,0,1,97.3,29.4a9.4,9.4,0,0,1,4.29.36,7,7,0,0,1,4.26,4,11.58,11.58,0,0,1,1,4.22c0.07,1.27,0,2.55,0,3.82l0,0.14H96.13Zm4.71-4a9.74,9.74,0,0,0-.33-2.41,3,3,0,0,0-.8-1.41,1.89,1.89,0,0,0-2.85.54,7.59,7.59,0,0,0-.78,3.27h4.76Z"/><path d="M19.29,43.78A15.28,15.28,0,0,0,23,45.26a8.47,8.47,0,0,0,2.71.35,3.22,3.22,0,0,0,.87-0.18A1.23,1.23,0,0,0,27,43.27a6.35,6.35,0,0,0-1.82-1c-1-.42-2-0.82-3-1.27a6.44,6.44,0,0,1-1.94-1.39,5.07,5.07,0,0,1-1.42-3.17,6.62,6.62,0,0,1,.69-3.89,6,6,0,0,1,3.65-2.83,10.82,10.82,0,0,1,3.9-.4,15.29,15.29,0,0,1,5.32,1.24,0.3,0.3,0,0,1,.21.4c-0.25,1.46-.48,2.93-0.72,4.4l0,0.13c-0.56-.23-1.1-0.47-1.66-0.68a10.12,10.12,0,0,0-3.83-.72,2.62,2.62,0,0,0-.91.19A1,1,0,0,0,25,35.88a2.7,2.7,0,0,0,1.12.8c0.85,0.36,1.72.69,2.59,1a11.19,11.19,0,0,1,2.73,1.49,5.24,5.24,0,0,1,2.07,4.09,7.23,7.23,0,0,1-.6,3.5,5.86,5.86,0,0,1-3.61,3.08A11.36,11.36,0,0,1,25,50.4,16.21,16.21,0,0,1,19.11,49c-0.62-.28-0.63-0.29-0.52-0.94q0.33-2.06.66-4.12l0-.14"/><path d="M42.93,23.87v5.82h4.14l-0.79,4.83H42.93V34.8c0,2.7,0,5.4,0,8.11A4.8,4.8,0,0,0,43.07,44a1.37,1.37,0,0,0,1.27,1.08,6.36,6.36,0,0,0,2.11-.21l0.17,0v0.19q0,2.35,0,4.7a0.19,0.19,0,0,1-.15.24,12.09,12.09,0,0,1-6,.12,4.7,4.7,0,0,1-3.72-4A11.5,11.5,0,0,1,36.56,44c0-3.05,0-6.11,0-9.16V34.52H33.88L34.61,30c0.59-.1,1.17-0.2,1.75-0.28a0.24,0.24,0,0,0,.24-0.24c0.24-1.48.49-3,.72-4.45a0.33,0.33,0,0,1,.36-0.32l5.25-.86"/><path d="M59.91,35.56a8,8,0,0,0-2.69.1,3.47,3.47,0,0,0-1.78,1,0.61,0.61,0,0,0-.19.45q0,6.3,0,12.59V50H48.79V29.69H54.2a0.24,0.24,0,0,1,.29.25c0.09,0.68.22,1.36,0.33,2.07l0.08-.11a3.77,3.77,0,0,1,3.53-2.46,10.11,10.11,0,0,1,1.33.1,0.16,0.16,0,0,1,.17.19q0,2.88,0,5.76l0,0.07"/><rect x="61.5" y="29.71" width="6.49" height="20.29"/><path d="M61.34,24.27a3.41,3.41,0,1,1,3.4,3.44,3.39,3.39,0,0,1-3.4-3.44"/></svg>