<svg id="Layer_1" data-name="Layer 1" xmlns="http://www.w3.org/2000/svg" viewBox="0 0 125.43 78.39"><defs><style>.cls-1{fill:#0066b2;}.cls-2{fill:#f9a533;}</style></defs><title>payment-icons</title><polygon class="cls-1" points="55.42 27.44 51.59 50.97 57.72 50.97 61.55 27.44 55.42 27.44"/><path class="cls-1" d="M46.44,27.44L40.6,43.62l-0.69-3.48h0L37.84,29.56a2.62,2.62,0,0,0-2.91-2.12H25.28l-0.11.4a22.88,22.88,0,0,1,6.41,2.69L36.9,51h6.38L53,27.44h-6.6Z"/><path class="cls-1" d="M94.63,51h5.63l-4.9-23.53H90.43a2.82,2.82,0,0,0-2.83,1.75L78.46,51h6.39l1.28-3.49h7.79Zm-6.74-8.32,3.22-8.81,1.81,8.81h-5Z"/><path class="cls-1" d="M78.94,33.1L79.82,28a17.69,17.69,0,0,0-5.51-1C71.26,27,64,28.35,64,34.81c0,6.08,8.48,6.16,8.48,9.35s-7.6,2.62-10.11.61L61.5,50a17.16,17.16,0,0,0,6.92,1.33c4.18,0,10.49-2.17,10.49-8.06,0-6.12-8.55-6.69-8.55-9.35s6-2.32,8.59-.87"/><path class="cls-2" d="M39.91,40.14L37.84,29.56a2.62,2.62,0,0,0-2.91-2.12H25.28l-0.11.4a23.75,23.75,0,0,1,9.09,4.56,18.34,18.34,0,0,1,5.64,7.74"/></svg>