<svg xmlns="http://www.w3.org/2000/svg" viewBox="0 0 32 32"><path fill="#FFF" d="M28.4 11.8H15.2c-.5 0-.8-.4-.8-.8 0-.5.4-.8.8-.8h11.1c-.7-.8-1.2-1.7-1.6-2.7H6.9c-.2-1.1-.6-2.2-.9-3.3-.2-.4-.4-.7-.8-.8-1.3-.4-2.7-.8-4-1.1-.5-.1-.9 0-1 .4-.2.5 0 .8.6 1 1.1.3 2.2.7 3.4 1 .3.1.5.2.6.5C6.2 9.4 7.5 13.6 9 17.7c.4 1.2.5 2.3 0 3.5-.2.4-.3.6-.8.7-2.1.3-3.6 2.4-3.3 4.5.3 1.9 1.8 3.3 3.7 3.4 1.9.1 3.6-1.1 4.1-2.9.1-.3.2-.3.4-.3H21c.7 2.2 2.4 3.5 4.3 3.2 2-.3 3.5-1.8 3.6-3.8.1-1.9-1.2-3.7-3.1-4.1-.9-.2-1.8-.1-2.6.3-1.2.6-1.8 1.6-2.1 2.8h-8c-.1 0-.3-.2-.3-.3-.3-1.1-1-1.9-2-2.5-.1-.1-.3-.1-.4-.2.2-.6.4-1.3.6-1.9H28.8c.8 0 1.4-.5 1.6-1.3 0-.2.1-.4.1-.6.5-1.9 1.1-3.7 1.6-5.6-1.4.1-2.6-.2-3.7-.8zm-3.5 11.5c1.4 0 2.5 1.1 2.5 2.5s-1.1 2.5-2.5 2.5-2.5-1.1-2.5-2.5 1.1-2.5 2.5-2.5zm-13.6 2.5c0 1.4-1.1 2.5-2.5 2.5s-2.5-1.1-2.5-2.5 1.1-2.5 2.5-2.5 2.5 1.1 2.5 2.5zM27 17.6H13.3c-.5 0-.8-.4-.8-.8 0-.5.4-.8.8-.8H27c.5 0 .8.4.8.8s-.4.8-.8.8zm.8-2.9H14.3c-.5 0-.8-.4-.8-.8 0-.5.4-.8.8-.8h13.6c.5 0 .8.4.8.8s-.4.8-.9.8z"/></svg>