<svg xmlns="http://www.w3.org/2000/svg" preserveAspectRatio="xMidYMid" width="16" height="17" viewBox="0 0 16 17"><defs><style>.cls-2 { fill: #000000; }</style></defs><path d="M15.99 15.967l-4.683-4.77c1.09-1.19 1.766-2.782 1.766-4.536 0-3.673-2.934-6.66-6.54-6.66-3.607 0-6.54 2.987-6.54 6.66s2.933 6.66 6.54 6.66c1.368 0 2.638-.434 3.688-1.167l4.756 4.843 1.014-1.03zM1.425 6.66c0-2.868 2.29-5.2 5.107-5.2s5.106 2.332 5.106 5.2c0 2.867-2.29 5.2-5.106 5.2s-5.107-2.333-5.107-5.2z" id="path-1" class="cls-2" fill-rule="evenodd"/></svg>