<svg id="Layer_1" data-name="Layer 1" xmlns="http://www.w3.org/2000/svg" viewBox="0 0 125.43 78.39"><defs><style>.cls-1{fill:#f9f9f9;}.cls-2{fill:#231f20;fill-rule:evenodd;}</style></defs><title>payment-icons</title><rect class="cls-1" width="125.43" height="78.39" rx="4.18" ry="4.18"/><path class="cls-2" d="M60.49,32.15h3.9s3.86-.08,3.82,3.43c0,2.61-3.74,3-3.74,3h-4V32.15ZM72.15,44.73c0.11,0.51.48,1.07,1.71,1.13a4.71,4.71,0,0,0,2.57-.58v1.2a16.53,16.53,0,0,1-2.65.43c-0.9,0-3.55-.19-3.55-2.65,0-2,2.18-2.61,3.43-2.61,2.18,0.08,3.23.86,3.2,3.08,0,0-3.59,0-4.71,0m0-1h3a1.23,1.23,0,0,0-1.44-1.13,1.37,1.37,0,0,0-1.55,1.13m9.46-1.22A3.05,3.05,0,0,1,84,41.69a2.56,2.56,0,0,1,2.77,2.57c0,0.54-.23,2.61-3,2.61a2.64,2.64,0,0,1-2.1-.81v0.66H79.7v-7h1.91v2.83Zm1.64,3.25a1.67,1.67,0,0,0,1.64-1.48,1.48,1.48,0,0,0-1.71-1.44,1.53,1.53,0,0,0-1.56,1.26v0.51a1.49,1.49,0,0,0,1.64,1.15m16.48-.19,0,1.09a8.92,8.92,0,0,1-1.48.19A2,2,0,0,1,96.18,45V42.78h-1.6v-1h1.6V40.56h1.95v1.21h1.6v1h-1.6v1.95a0.91,0.91,0,0,0,.78,1,1.1,1.1,0,0,0,.82-0.12M93.8,33.2h2.26v5.41H98V33.2h2.3V32.07H93.8V33.2ZM93,33.47l0.23-1.13a7.24,7.24,0,0,0-2.69-.43c-1.67,0-4.36.93-4.36,3.47s2.84,3.35,4.6,3.35a6.38,6.38,0,0,0,2.34-.27l-0.19-1.25a8,8,0,0,1-2.1.23c-1.29,0-2.61-1.05-2.61-2.18A2.64,2.64,0,0,1,91,33.12a6.24,6.24,0,0,1,2.06.35M75.8,32.11S79,32,79,33.82c0,1.6-1.83,1.71-1.83,1.71a1.21,1.21,0,0,1,.74.43c0.2,0.31,1.48,2.65,1.48,2.65H77.44A7,7,0,0,1,77,38c-0.12-.27-0.47-0.86-0.47-0.86a1.34,1.34,0,0,0-1.21-1l-0.7,0v2.52H72.73v-6.5H75.8ZM74.6,35h1s1.4-.08,1.48-0.93-1.36-.94-1.36-0.94H74.6V35Zm7.83,1h3.12V34.83H82.42V33.35h3.39V32.11h-5.3v6.5h5.34V37.44H82.42V36ZM90,41h1.91V39.7H90V41Zm0,5.69h1.91V41.77H90v4.95Zm-20.8-8.1h1.87v-6.5H69.22v6.5Zm-8.73,1.64h3.9s3.86-.08,3.82,3.43c0,2.61-3.74,3-3.74,3h-4V40.25Zm1.91,5.22h1.25s2.57-.16,2.57-2.14-2.73-2.18-2.73-2.18H62.4v4.32Zm0-8.1h1.25s2.57-.2,2.57-2.14S63.49,33,63.49,33H62.4v4.32Z"/><path class="cls-2" d="M43,36v13s-7.56-1.36-7.56-6.54c0-4.13,5.6-6,7.56-6.49m0-.24c-4.54-.33-14.84,1.8-14.84,6.46,0,3,5.45,7.48,14.33,7.6,0.35,0,10.44-.39,10.28-11.22-0.13-9.09-6.94-10.69-9.12-11V27.09c8.68,0.55,15.5,5.77,15.5,12.1,0,6.7-7.63,12.15-17,12.15s-17-5.45-17-12.15S32.76,27,42.15,27l0.86,0v8.72Z"/></svg>