<svg id="Layer_1" data-name="Layer 1" xmlns="http://www.w3.org/2000/svg" viewBox="0 0 125.43 78.39"><defs><style>.cls-1{fill:#f9f9f9;}.cls-2{fill:#fff;}.cls-3{fill:#c5c7c9;}.cls-4{fill:#231f20;}.cls-5{fill:#a6a8ab;}.cls-6{fill:#ffc10e;}.cls-7{fill:#a30046;}</style></defs><title>payment-icons</title><rect class="cls-1" width="125.43" height="78.39" rx="4.18" ry="4.18"/><path class="cls-2" d="M34.54,21.57a13.82,13.82,0,1,0,.14,27.64H79.6c4.12,0,8.24,0,12.37,0a13.82,13.82,0,0,0,.74-27.63c-1.07,0-2.14,0-3.2,0h-55Z"/><path class="cls-3" d="M92.15,50.39H34.8A15,15,0,0,1,20,31.59,15.15,15.15,0,0,1,30.6,20.92a21.23,21.23,0,0,1,5.68-.53H85.58c4.68,0,9.57-.49,13.82,1.88a15,15,0,0,1-7.26,28.12M34.54,21.57a13.82,13.82,0,1,0,.14,27.64H79.6c4.12,0,8.24,0,12.37,0a13.82,13.82,0,0,0,.74-27.63c-1.07,0-2.14,0-3.2,0h-55Z"/><path class="cls-4" d="M85.23,27a4,4,0,1,0,4,4.05,4.09,4.09,0,0,0-4-4.05m0,6.13c-2.68,0-2.68-4.15,0-4.15s2.68,4.15,0,4.15"/><path class="cls-4" d="M66.66,27a4,4,0,1,0,4.05,4.05A4.09,4.09,0,0,0,66.66,27m0,6.13C64,33.13,64,29,66.66,29s2.68,4.15,0,4.15"/><path class="cls-4" d="M80.92,33.24c-0.68.2-1.49,0.33-1.63-.52a6.76,6.76,0,0,1,0-1.09V28.75h1.66V27.19H79.28V25H77.42L77,27.19h-1.3a2.73,2.73,0,0,0-2.48,1.67L72.6,27.19H71.27V35h2.28c0-1.87-.64-6.13,2.2-6.21H77v2.33a8.26,8.26,0,0,0,.17,2.69c0.48,1.33,2,1.47,3.18,1.27a2.13,2.13,0,0,0,.84-0.21,1.29,1.29,0,0,0-.06-0.36A7.17,7.17,0,0,0,80.92,33.24Z"/><polyline class="cls-4" points="92.05 29.64 92.05 34.96 89.83 34.96 89.83 27.18 91.18 27.18 91.63 28.37"/><path class="cls-4" d="M91.62,28.38c1-1.15,2.79-1.91,4.18-.94a3.08,3.08,0,0,1,1.11,2.64c0,1.63,0,3.25,0,4.88H94.62V31.19a10.35,10.35,0,0,0,0-1.28c-0.19-1.49-1.83-1.07-2.57-.27"/><path class="cls-4" d="M53.7,24.37h2.54L59.74,31V24.37h2.11V35h-2.3l-3.73-7.32V35A8.92,8.92,0,0,1,54,35c-0.47-.1-0.22.1-0.33-0.3a5.65,5.65,0,0,1,0-1.36V24.37Z"/><path class="cls-5" d="M103.65,20.4v0.38H103.1v1.86h-0.43V20.78h-0.54C101.93,20.12,103.24,20.4,103.65,20.4Z"/><path class="cls-5" d="M104,22.64V20.4h0.59l0.39,1.47,0.4-1.47h0.59v2.24h-0.36V20.89h0l-0.45,1.76h-0.32l-0.46-1.76h0C104.32,21.31,104.62,22.84,104,22.64Z"/><path class="cls-5" d="M53.07,44.34l0.53-.82c0.7,0.52,2.75,1.17,3.07-.12S55,42,54.28,41.59a1.86,1.86,0,0,1-.37-2.88,3.28,3.28,0,0,1,3.54-.09,2.85,2.85,0,0,1-.42.87,12.18,12.18,0,0,1-1.3-.35,1.48,1.48,0,0,0-1,.19c-1.38,1.1,1.41,1.76,1.94,2a2,2,0,0,1,.58,3.11c-1.06,1-3.14.67-4.2-.16"/><path class="cls-5" d="M59.8,38.28h4v0.93H60.94V41H63.2V42H60.94v2.12h3V45h-3c-0.88,0-1.14.27-1.14-.61V38.28Z"/><path class="cls-5" d="M65.61,41.65a3.54,3.54,0,0,1,1.34-3.07,2.78,2.78,0,0,1,3.44.41l-0.66.77a1.68,1.68,0,0,0-2.12-.34,2.77,2.77,0,0,0-.78,2.32,2.54,2.54,0,0,0,.72,2.09,1.76,1.76,0,0,0,2.3-.44,3.19,3.19,0,0,1,.46.51c0.18,0.34.27,0.1,0,.51a2.59,2.59,0,0,1-2.34.66c-1.67-.27-2.31-1.88-2.31-3.41"/><path class="cls-5" d="M72.37,42.43V38.28h1.15v3.21c0,1-.24,2.66,1.2,2.65s1.21-1.64,1.21-2.65V38.28h1.16a39.09,39.09,0,0,1,0,4.77,2.18,2.18,0,0,1-2.48,2C73,45,72.37,43.9,72.37,42.43"/><path class="cls-5" d="M84.1,45H82.86l-1.29-2.85H80.51V45H79.37V38.28a12.11,12.11,0,0,1,3.25.13A1.88,1.88,0,0,1,82.71,42Zm-2.58-3.73c0.93,0,1.92-1,1-1.84a3.4,3.4,0,0,0-2-.23,9,9,0,0,0,0,1.74c0.07,0.34-.08.19,0.16,0.32A2.71,2.71,0,0,0,81.52,41.28Z"/><path class="cls-5" d="M86.05,38.28h4v0.93H87.19V41h2.26V42H87.19v2.12h3V45h-3c-0.88,0-1.14.27-1.14-.61V38.28Z"/><path class="cls-5" d="M92.15,38.28c1.81,0,4-.19,4.73,1.91a4.4,4.4,0,0,1-.41,3.71A3.21,3.21,0,0,1,93.73,45c-0.4,0-1.42.16-1.59-.12a6.24,6.24,0,0,1,0-2.08V38.28Zm1.61,5.8c1.5,0,2.07-.91,2.1-2.32s-0.4-2.55-2-2.55H93.29V42a10.76,10.76,0,0,0,0,1.64C93.36,44.11,93.2,44.1,93.76,44.08Z"/><path class="cls-6" d="M34.47,51.58a16.18,16.18,0,1,1,15.87-13,16.35,16.35,0,0,1-15.87,13m0-27.24a11.06,11.06,0,1,0,10.85,8.89,11.17,11.17,0,0,0-10.85-8.89"/><path class="cls-6" d="M53.36,16.72H52.1V18a3.93,3.93,0,0,0,1.26,0A3.85,3.85,0,0,0,53.36,16.72Z"/><path class="cls-6" d="M53.36,14.21H52.1v1.26a3.93,3.93,0,0,0,1.26,0A3.86,3.86,0,0,0,53.36,14.21Z"/><path class="cls-6" d="M49.73,18H48.55v1.23a3.33,3.33,0,0,0,1.18,0A3.86,3.86,0,0,0,49.73,18Z"/><path class="cls-4" d="M47.4,20.39H46.21v1.18a3.81,3.81,0,0,0,1.19,0A3.55,3.55,0,0,0,47.4,20.39Z"/><path class="cls-4" d="M51,19.21H49.73v1.19a4,4,0,0,0,1.3,0A3.48,3.48,0,0,0,51,19.21Z"/><path class="cls-4" d="M45,20.39h1.18V19.26a3.68,3.68,0,0,0-1.18,0A3.52,3.52,0,0,0,45,20.39Z"/><path class="cls-4" d="M49.73,20.39H48.55v1.18a3.77,3.77,0,0,0,1.18,0A3.56,3.56,0,0,0,49.73,20.39Z"/><path class="cls-4" d="M52.1,15.47H50.85v1.25a3.89,3.89,0,0,0,1.25,0A3.82,3.82,0,0,0,52.1,15.47Z"/><path class="cls-4" d="M50.85,16.72h-2.3V18a8.8,8.8,0,0,0,2,0c0.4-.1.16,0.12,0.29-0.27A3.6,3.6,0,0,0,50.85,16.72Z"/><path class="cls-4" d="M47.4,20.39h1.15V18a2.94,2.94,0,0,0-1,0c-0.22.12-.1,0.06-0.14,0.41A15.86,15.86,0,0,0,47.4,20.39Z"/><path class="cls-4" d="M47.4,21.57v1.19H46.21V21.57h-2v0.86H43.18v1.05h1.18v1.18H43.18V23.48H41.93v1.84H40.74V26.5H40v1.18a1,1,0,0,0-1.26.62c-0.46.76-.9,1.53-1.33,2.31a45.27,45.27,0,0,0-2.43,4.86c-1.44-2-3.15-4.14-5.39-5.29-0.6-.31-1.64-0.81-2.06,0-0.56,1.11,1.47,2.69,2.06,3.45a29.27,29.27,0,0,1,3.75,6.86,2.19,2.19,0,0,0,2.08,1.65c1.45,0,1.68-1.16,2.14-2.29A40.59,40.59,0,0,1,40,34.82a9.8,9.8,0,0,0,1.22-2,5.62,5.62,0,0,0,0-1.23h0.94V30.4h1V29h1.18V27.7h-1.2v-1.2h1.2v1.2h1.17V26.5h0.94V25.06h1.06v-1h1a16.62,16.62,0,0,0,0-2.07c0-.34.08-0.31-0.14-0.43A2.94,2.94,0,0,0,47.4,21.57Z"/><path class="cls-5" d="M24.57,57.13h0.89v0.64c1.1-1.56,3.11-.35,3.11,1.29s-2,2.84-3.11,1.33v1.77A0.89,0.89,0,0,1,24.57,62a5.3,5.3,0,0,1,0-1.68V57.13Zm3.1,1.94a1.12,1.12,0,1,0-2.23,0,1.12,1.12,0,1,0,2.23,0"/><path class="cls-5" d="M29.29,59.08c0-2.62,4.12-2.65,4.12,0s-4.12,2.65-4.12,0m3.24,0a1.18,1.18,0,1,0-2.35,0,1.18,1.18,0,1,0,2.35,0"/><path class="cls-5" d="M33.84,57.13h0.91l0.78,2.65,0.86-2.67h0.75L38,59.78l0.79-2.65h0.89L38.41,61H37.62l-0.86-2.64L35.88,61a1.27,1.27,0,0,1-.82-0.1,4.14,4.14,0,0,1-.41-1.29Z"/><path class="cls-5" d="M40.13,59.07a1.88,1.88,0,1,1,3.73.3H41a1.23,1.23,0,0,0,2.16.52l0.52,0.46a2,2,0,0,1-3.57-1.28M43,58.79a1,1,0,0,0-2,0h2Z"/><path class="cls-5" d="M44.8,57.13h0.89V58a1.41,1.41,0,0,1,1.37-.94V58c-1.63,0-1.37,1.89-1.37,3a1.87,1.87,0,0,1-.89-0.05,3.74,3.74,0,0,1,0-1.19V57.13Z"/><path class="cls-5" d="M47.57,59.07a1.88,1.88,0,1,1,3.73.3H48.45a1.23,1.23,0,0,0,2.16.52l0.52,0.46a2,2,0,0,1-3.57-1.28m2.86-.29a1,1,0,0,0-2,0h2Z"/><path class="cls-5" d="M52,59.07c0-1.64,2-2.84,3.11-1.34V55.65H56V61H55.14V60.35C54,61.9,52,60.7,52,59.07m3.13,0a1.12,1.12,0,1,0-2.23,0,1.12,1.12,0,1,0,2.23,0"/><path class="cls-5" d="M60.21,60.39V61H59.32V55.65h0.89v2.12c1.1-1.56,3.11-.35,3.11,1.29s-2,2.84-3.11,1.33m2.21-1.33a1.12,1.12,0,1,0-2.23,0,1.12,1.12,0,1,0,2.23,0"/><path class="cls-5" d="M63.92,62a1.9,1.9,0,0,1,.3-0.66,4.69,4.69,0,0,0,.69.12A0.71,0.71,0,0,0,65.29,61l-1.61-3.87h0.94L65.73,60l1-2.87h0.92l-1.18,3.05c-0.45,1.16-1,2.61-2.55,1.77"/><path class="cls-7" d="M70.27,55.87h1l1.55,3.94,1.54-3.94h1L73.19,61c-0.56,0-.65.11-0.91-0.29A10.34,10.34,0,0,1,71.56,59Z"/><path class="cls-7" d="M75.5,59.07a1.88,1.88,0,1,1,3.73.3H76.39a1.23,1.23,0,0,0,2.16.52l0.52,0.46a2,2,0,0,1-3.57-1.28m2.86-.29a1,1,0,0,0-2,0h2Z"/><path class="cls-7" d="M80.17,57.13h0.89V58a1.41,1.41,0,0,1,1.37-.94V58c-1.63,0-1.37,1.89-1.37,3a1.87,1.87,0,0,1-.89-0.05,3.74,3.74,0,0,1,0-1.19V57.13Z"/><path class="cls-7" d="M83.15,55.69h1v0.84C83.13,56.53,83.15,56.67,83.15,55.69Zm0,1.43h0.89V61a1.87,1.87,0,0,1-.89-0.05,3.74,3.74,0,0,1,0-1.19V57.12Z"/><path class="cls-7" d="M85,60.25a2.13,2.13,0,0,1,.38-0.45c0.37-.21.29,0,0.79,0.24s1.9,0.51,1.9-.41c0-1.19-2.74-.6-2.86-2.21-0.14-2,2.51-1.85,3.6-1a2.43,2.43,0,0,1-.29.41c-0.33.29-.07,0.28-0.61,0s-1.81-.55-1.81.34c-0.06,1.21,2.84.61,2.86,2.32,0,2.12-2.92,1.66-4,.72"/><path class="cls-7" d="M89.94,55.69h1v0.84C89.92,56.53,89.94,56.67,89.94,55.69Zm0,1.43h0.89V61A1.87,1.87,0,0,1,90,60.94a3.74,3.74,0,0,1,0-1.19V57.12Z"/><path class="cls-7" d="M92,61.72l0.33-.66c1.2,0.74,2.63.48,2.6-1.08a1.74,1.74,0,0,1-3.12-1.11,1.76,1.76,0,0,1,3.11-1.16V57.13h0.89c0,1,0,2,0,2.94a2,2,0,0,1-.68,1.75,3.09,3.09,0,0,1-3.13-.1m2.94-2.84a1.12,1.12,0,0,0-2.23,0,1.12,1.12,0,0,0,2.23,0"/><path class="cls-7" d="M96.92,57.13H97.8v0.6c0.91-1.32,2.51-.56,2.59.85,0,0.8,0,1.61,0,2.41H99.5c0-.79.4-3.14-0.83-3.14S97.8,60.19,97.8,61a1.86,1.86,0,0,1-.89-0.05,3.74,3.74,0,0,1,0-1.19V57.13Z"/></svg>