<?xml version="1.0" encoding="utf-8"?>
<!-- Generator: Adobe Illustrator 19.1.0, SVG Export Plug-In . SVG Version: 6.00 Build 0)  -->
<svg version="1.1" id="Layer_1" xmlns="http://www.w3.org/2000/svg" xmlns:xlink="http://www.w3.org/1999/xlink" x="0px" y="0px"
	 viewBox="0 0 125.4 78.4" style="enable-background:new 0 0 125.4 78.4;" xml:space="preserve">
<style type="text/css">
	.st0{clip-path:url(#SVGID_2_);}
	.st1{clip-path:url(#SVGID_4_);fill:#F9F9F9;}
	.st2{clip-path:url(#SVGID_4_);fill:#FFFFFF;}
	.st3{clip-path:url(#SVGID_4_);fill:#C5C7C9;}
	.st4{clip-path:url(#SVGID_4_);fill:#231F20;}
	.st5{clip-path:url(#SVGID_4_);fill:#A6A8AB;}
	.st6{clip-path:url(#SVGID_4_);fill:#FFC10E;}
	.st7{clip-path:url(#SVGID_4_);fill:#A30046;}
	.st8{clip-path:url(#SVGID_6_);}
	.st9{clip-path:url(#SVGID_8_);fill:#178FDB;}
	.st10{clip-path:url(#SVGID_8_);fill:#FFFFFF;}
	.st11{clip-path:url(#SVGID_10_);}
	.st12{clip-path:url(#SVGID_12_);fill:#F9F9F9;}
	.st13{clip-path:url(#SVGID_12_);}
	.st14{clip-path:url(#SVGID_14_);}
	.st15{clip-path:url(#SVGID_16_);fill:#F9F9F9;}
	.st16{clip-path:url(#SVGID_16_);fill:#ED1C2E;}
	.st17{clip-path:url(#SVGID_16_);fill:#FCB131;}
	.st18{clip-path:url(#SVGID_18_);}
	.st19{clip-path:url(#SVGID_20_);fill:#F9F9F9;}
	.st20{clip-path:url(#SVGID_20_);fill:#0066B2;}
	.st21{clip-path:url(#SVGID_20_);fill:#F9A533;}
	.st22{clip-path:url(#SVGID_22_);}
	.st23{clip-path:url(#SVGID_24_);fill:#F9F9F9;}
	.st24{clip-path:url(#SVGID_24_);fill:#FFFFFF;}
	.st25{clip-path:url(#SVGID_24_);fill:#0078A9;}
	.st26{clip-path:url(#SVGID_26_);}
	.st27{clip-path:url(#SVGID_28_);fill:#F9F9F9;}
	.st28{clip-path:url(#SVGID_28_);fill-rule:evenodd;clip-rule:evenodd;fill:#231F20;}
	.st29{clip-path:url(#SVGID_30_);}
	.st30{clip-path:url(#SVGID_32_);fill:#F9F9F9;}
	.st31{clip-path:url(#SVGID_32_);fill:#EE3A3F;}
	.st32{clip-path:url(#SVGID_32_);fill:#0067B2;}
	.st33{clip-path:url(#SVGID_32_);fill:#FAAC18;}
	.st34{clip-path:url(#SVGID_32_);fill:#6AB845;}
	.st35{clip-path:url(#SVGID_32_);fill:#231F20;}
	.st36{clip-path:url(#SVGID_34_);}
	.st37{clip-path:url(#SVGID_36_);fill:#F9F9F9;}
	.st38{clip-path:url(#SVGID_36_);fill:#00A551;}
	.st39{clip-path:url(#SVGID_36_);fill:#0071BB;}
	.st40{clip-path:url(#SVGID_36_);fill:#FFFFFF;}
	.st41{clip-path:url(#SVGID_36_);fill:#EC1C24;}
	.st42{clip-path:url(#SVGID_38_);}
	.st43{clip-path:url(#SVGID_40_);fill:#F9F9F9;}
	.st44{clip-path:url(#SVGID_40_);fill-rule:evenodd;clip-rule:evenodd;fill:#008060;}
	.st45{clip-path:url(#SVGID_42_);}
	.st46{clip-path:url(#SVGID_44_);fill:#F9F9F9;}
	.st47{clip-path:url(#SVGID_44_);fill:#203C73;}
	.st48{clip-path:url(#SVGID_46_);}
	.st49{clip-path:url(#SVGID_48_);fill:#F9F9F9;}
	.st50{clip-path:url(#SVGID_48_);fill-rule:evenodd;clip-rule:evenodd;fill:#FF9900;}
	.st51{clip-path:url(#SVGID_48_);fill-rule:evenodd;clip-rule:evenodd;}
	.st52{clip-path:url(#SVGID_50_);}
	.st53{clip-path:url(#SVGID_52_);fill:#F9F9F9;}
	.st54{clip-path:url(#SVGID_52_);fill-rule:evenodd;clip-rule:evenodd;fill:#FAA929;}
	.st55{clip-path:url(#SVGID_52_);fill-rule:evenodd;clip-rule:evenodd;fill:#045EA0;}
	.st56{clip-path:url(#SVGID_54_);}
	.st57{clip-path:url(#SVGID_56_);fill:#F9F9F9;}
	.st58{clip-path:url(#SVGID_56_);fill-rule:evenodd;clip-rule:evenodd;fill:#121212;}
	.st59{clip-path:url(#SVGID_58_);}
	.st60{clip-path:url(#SVGID_60_);fill:#F9F9F9;}
	.st61{clip-path:url(#SVGID_60_);fill:#336699;}
	.st62{clip-path:url(#SVGID_60_);fill:#003366;}
	.st63{clip-path:url(#SVGID_62_);}
	.st64{clip-path:url(#SVGID_64_);fill:#F9F9F9;}
	.st65{clip-path:url(#SVGID_64_);fill:#007CC3;}
	.st66{clip-path:url(#SVGID_64_);fill:#009DDD;}
	.st67{clip-path:url(#SVGID_64_);fill:#FFFFFF;}
	.st68{clip-path:url(#SVGID_66_);}
	.st69{clip-path:url(#SVGID_68_);fill:#F9F9F9;}
	.st70{clip-path:url(#SVGID_68_);fill:#EC1C2E;}
	.st71{clip-path:url(#SVGID_68_);fill:#0084C4;}
	.st72{clip-path:url(#SVGID_68_);fill:#FFFFFF;}
	.st73{clip-path:url(#SVGID_68_);fill:none;stroke:#FFFFFF;stroke-width:0.215;}
	.st74{clip-path:url(#SVGID_70_);}
	.st75{clip-path:url(#SVGID_72_);fill:#F9F9F9;}
	.st76{clip-path:url(#SVGID_72_);fill-rule:evenodd;clip-rule:evenodd;fill:#FBB231;}
	.st77{clip-path:url(#SVGID_72_);fill-rule:evenodd;clip-rule:evenodd;fill:#EC1C2E;}
	.st78{clip-path:url(#SVGID_72_);fill-rule:evenodd;clip-rule:evenodd;fill:#FFFFFF;}
	.st79{clip-path:url(#SVGID_72_);fill:none;stroke:#FFFFFF;stroke-width:0.216;stroke-miterlimit:2.613;}
	.st80{clip-path:url(#SVGID_74_);}
	.st81{clip-path:url(#SVGID_76_);fill:#F9F9F9;}
	.st82{clip-path:url(#SVGID_76_);fill:#0066B2;}
	.st83{clip-path:url(#SVGID_76_);fill:#F9A533;}
	.st84{clip-path:url(#SVGID_78_);}
	.st85{clip-path:url(#SVGID_80_);fill:#0078A9;}
	.st86{clip-path:url(#SVGID_80_);fill:#FFFFFF;}
	.st87{clip-path:url(#SVGID_82_);}
	.st88{clip-path:url(#SVGID_84_);fill:#008060;}
	.st89{clip-path:url(#SVGID_84_);fill-rule:evenodd;clip-rule:evenodd;fill:#FFFFFF;}
	.st90{clip-path:url(#SVGID_86_);}
	.st91{clip-path:url(#SVGID_88_);fill:#203C73;}
	.st92{clip-path:url(#SVGID_88_);fill:#FFFFFF;}
	.st93{clip-path:url(#SVGID_90_);}
	.st94{clip-path:url(#SVGID_92_);fill:#1C3663;}
	.st95{clip-path:url(#SVGID_92_);fill:#FFFFFF;}
	.st96{clip-path:url(#SVGID_94_);}
	.st97{clip-path:url(#SVGID_96_);fill:#13457C;}
	.st98{clip-path:url(#SVGID_96_);fill:#007CC3;}
	.st99{clip-path:url(#SVGID_96_);fill:#009DDD;}
	.st100{clip-path:url(#SVGID_96_);fill:#FFFFFF;}
	.st101{clip-path:url(#SVGID_98_);}
	.st102{clip-path:url(#SVGID_100_);fill:#13457C;}
	.st103{clip-path:url(#SVGID_100_);fill:#ED1C2E;}
	.st104{clip-path:url(#SVGID_100_);fill:#FCB131;}
	.st105{clip-path:url(#SVGID_102_);}
	.st106{clip-path:url(#SVGID_104_);fill:#1D1E1E;}
	.st107{clip-path:url(#SVGID_104_);fill:#EE3A3F;}
	.st108{clip-path:url(#SVGID_104_);fill:#0067B2;}
	.st109{clip-path:url(#SVGID_104_);fill:#FAAC18;}
	.st110{clip-path:url(#SVGID_104_);fill:#6AB845;}
	.st111{clip-path:url(#SVGID_104_);fill:#231F20;}
	.st112{clip-path:url(#SVGID_106_);}
	.st113{clip-path:url(#SVGID_108_);fill:#121212;}
	.st114{clip-path:url(#SVGID_108_);fill-rule:evenodd;clip-rule:evenodd;fill:#FFDE37;}
	.st115{clip-path:url(#SVGID_110_);}
	.st116{clip-path:url(#SVGID_112_);fill:#3957A7;}
	.st117{clip-path:url(#SVGID_112_);fill:#FFFFFF;}
	.st118{clip-path:url(#SVGID_112_);fill:#F9A533;}
	.st119{clip-path:url(#SVGID_114_);}
	.st120{clip-path:url(#SVGID_116_);fill:#0C489C;}
	.st121{clip-path:url(#SVGID_116_);fill:#FFFFFF;}
	.st122{clip-path:url(#SVGID_118_);}
	.st123{clip-path:url(#SVGID_120_);fill:#045EA0;}
	.st124{clip-path:url(#SVGID_120_);fill-rule:evenodd;clip-rule:evenodd;fill:#FAA929;}
	.st125{clip-path:url(#SVGID_120_);fill-rule:evenodd;clip-rule:evenodd;fill:#FFFFFF;}
	.st126{clip-path:url(#SVGID_122_);}
	.st127{clip-path:url(#SVGID_124_);fill:#13457C;}
	.st128{clip-path:url(#SVGID_124_);fill-rule:evenodd;clip-rule:evenodd;fill:#FBB231;}
	.st129{clip-path:url(#SVGID_124_);fill-rule:evenodd;clip-rule:evenodd;fill:#EC1C2E;}
	.st130{clip-path:url(#SVGID_124_);fill-rule:evenodd;clip-rule:evenodd;fill:#FFFFFF;}
	.st131{clip-path:url(#SVGID_124_);fill:none;stroke:#FFFFFF;stroke-width:0.216;stroke-miterlimit:2.613;}
	.st132{clip-path:url(#SVGID_126_);}
	.st133{clip-path:url(#SVGID_128_);fill:#13457C;}
	.st134{clip-path:url(#SVGID_128_);fill:#EC1C2E;}
	.st135{clip-path:url(#SVGID_128_);fill:#0084C4;}
	.st136{clip-path:url(#SVGID_128_);fill:#FFFFFF;}
	.st137{clip-path:url(#SVGID_128_);fill:none;stroke:#FFFFFF;stroke-width:0.215;}
	.st138{clip-path:url(#SVGID_130_);}
	.st139{clip-path:url(#SVGID_132_);fill:#FF9900;}
	.st140{clip-path:url(#SVGID_132_);fill-rule:evenodd;clip-rule:evenodd;fill:#231F20;}
	.st141{clip-path:url(#SVGID_134_);}
	.st142{clip-path:url(#SVGID_136_);fill:#231F20;}
	.st143{clip-path:url(#SVGID_136_);fill-rule:evenodd;clip-rule:evenodd;fill:#FFFFFF;}
	.st144{clip-path:url(#SVGID_138_);}
	.st145{clip-path:url(#SVGID_140_);fill:#121212;}
	.st146{clip-path:url(#SVGID_140_);fill:#FFFFFF;}
	.st147{clip-path:url(#SVGID_140_);fill:#FFC10E;}
	.st148{clip-path:url(#SVGID_142_);}
	.st149{clip-path:url(#SVGID_144_);fill:#0033A0;}
	.st150{clip-path:url(#SVGID_144_);fill:#FFFFFF;}
	.st151{clip-path:url(#SVGID_144_);fill:#FF9E16;}
	.st152{clip-path:url(#SVGID_144_);fill:#FAA943;}
	.st153{clip-path:url(#SVGID_146_);}
	.st154{clip-path:url(#SVGID_148_);fill:#ED1C2E;}
	.st155{clip-path:url(#SVGID_148_);fill:#FCB131;}
	.st156{clip-path:url(#SVGID_150_);}
	.st157{clip-path:url(#SVGID_152_);fill:#0066B2;}
	.st158{clip-path:url(#SVGID_152_);fill:#F9A533;}
	.st159{clip-path:url(#SVGID_154_);}
	.st160{clip-path:url(#SVGID_156_);fill:#FFFFFF;}
	.st161{clip-path:url(#SVGID_156_);fill:#0078A9;}
	.st162{clip-path:url(#SVGID_158_);}
	.st163{clip-path:url(#SVGID_160_);fill-rule:evenodd;clip-rule:evenodd;fill:#231F20;}
	.st164{clip-path:url(#SVGID_162_);}
	.st165{clip-path:url(#SVGID_164_);fill:#EE3A3F;}
	.st166{clip-path:url(#SVGID_164_);fill:#0067B2;}
	.st167{clip-path:url(#SVGID_164_);fill:#FAAC18;}
	.st168{clip-path:url(#SVGID_164_);fill:#6AB845;}
	.st169{clip-path:url(#SVGID_164_);fill:#231F20;}
	.st170{clip-path:url(#SVGID_166_);}
	.st171{clip-path:url(#SVGID_168_);fill:#00A551;}
	.st172{clip-path:url(#SVGID_168_);fill:#0071BB;}
	.st173{clip-path:url(#SVGID_168_);fill:#FFFFFF;}
	.st174{clip-path:url(#SVGID_168_);fill:#EC1C24;}
	.st175{clip-path:url(#SVGID_170_);}
	.st176{clip-path:url(#SVGID_172_);fill-rule:evenodd;clip-rule:evenodd;fill:#008060;}
	.st177{clip-path:url(#SVGID_174_);}
	.st178{clip-path:url(#SVGID_176_);fill:#203C73;}
	.st179{clip-path:url(#SVGID_178_);}
	.st180{clip-path:url(#SVGID_180_);fill-rule:evenodd;clip-rule:evenodd;fill:#FF9900;}
	.st181{clip-path:url(#SVGID_180_);fill-rule:evenodd;clip-rule:evenodd;}
	.st182{clip-path:url(#SVGID_182_);}
	.st183{clip-path:url(#SVGID_184_);fill-rule:evenodd;clip-rule:evenodd;fill:#FAA929;}
	.st184{clip-path:url(#SVGID_184_);fill-rule:evenodd;clip-rule:evenodd;fill:#045EA0;}
	.st185{clip-path:url(#SVGID_186_);fill:#0084C4;}
	.st186{clip-path:url(#SVGID_186_);fill:#EC1C2E;}
	.st187{clip-path:url(#SVGID_186_);fill:#FFFFFF;}
	.st188{clip-path:url(#SVGID_188_);}
	.st189{clip-path:url(#SVGID_190_);fill:#336699;}
	.st190{clip-path:url(#SVGID_190_);fill:#003366;}
	.st191{clip-path:url(#SVGID_192_);fill:#121212;}
	.st192{clip-path:url(#SVGID_192_);fill-rule:evenodd;clip-rule:evenodd;fill:#121212;}
	.st193{clip-path:url(#SVGID_192_);}
	.st194{clip-path:url(#SVGID_194_);fill-rule:evenodd;clip-rule:evenodd;fill:#121212;}
	.st195{clip-path:url(#SVGID_196_);}
	.st196{clip-path:url(#SVGID_198_);fill:#009DDD;}
	.st197{clip-path:url(#SVGID_198_);fill:#007CC3;}
	.st198{clip-path:url(#SVGID_198_);fill:#FFFFFF;}
	.st199{clip-path:url(#SVGID_200_);fill:#FBB231;}
	.st200{clip-path:url(#SVGID_200_);fill:none;stroke:#FFFFFF;stroke-width:0.216;stroke-miterlimit:2.613;}
	.st201{clip-path:url(#SVGID_200_);fill-rule:evenodd;clip-rule:evenodd;fill:#EC1C2E;}
	.st202{clip-path:url(#SVGID_200_);fill:#EC1C2E;}
	.st203{clip-path:url(#SVGID_200_);fill:#FFFFFF;}
	.st204{clip-path:url(#SVGID_200_);fill-rule:evenodd;clip-rule:evenodd;fill:#FFFFFF;}
	.st205{clip-path:url(#SVGID_200_);fill-rule:evenodd;clip-rule:evenodd;fill:#FBB231;}
	.st206{clip-path:url(#SVGID_202_);fill:#0066B2;}
	.st207{clip-path:url(#SVGID_202_);}
	.st208{clip-path:url(#SVGID_204_);fill:#0066B2;}
	.st209{clip-path:url(#SVGID_204_);fill:#F9A533;}
	.st210{clip-path:url(#SVGID_206_);}
	.st211{clip-path:url(#SVGID_208_);fill:#FFFFFF;}
	.st212{clip-path:url(#SVGID_208_);fill:#C5C7C9;}
	.st213{clip-path:url(#SVGID_208_);fill:#231F20;}
	.st214{clip-path:url(#SVGID_208_);fill:#A6A8AB;}
	.st215{clip-path:url(#SVGID_208_);fill:#FFC10E;}
	.st216{clip-path:url(#SVGID_208_);fill:#A30046;}
	.st217{clip-path:url(#SVGID_210_);}
	.st218{clip-path:url(#SVGID_212_);}
	.st219{clip-path:url(#SVGID_214_);}
	.st220{clip-path:url(#SVGID_216_);}
	.st221{clip-path:url(#SVGID_216_);fill:#FFFFFF;}
	.st222{clip-path:url(#SVGID_218_);}
	.st223{clip-path:url(#SVGID_220_);fill:#F9F9F9;}
	.st224{clip-path:url(#SVGID_220_);}
	.st225{clip-path:url(#SVGID_222_);}
	.st226{clip-path:url(#SVGID_224_);}
</style>
<g>
	<g>
		<defs>
			<rect id="SVGID_81_" width="125.4" height="78.4"/>
		</defs>
		<clipPath id="SVGID_2_">
			<use xlink:href="#SVGID_81_"  style="overflow:visible;"/>
		</clipPath>
		<g class="st0">
			<defs>
				<rect id="SVGID_83_" y="0" width="125.4" height="78.4"/>
			</defs>
			<clipPath id="SVGID_4_">
				<use xlink:href="#SVGID_83_"  style="overflow:visible;"/>
			</clipPath>
			<path style="clip-path:url(#SVGID_4_);fill:#008060;" d="M125.4,74.2c0,2.3-1.9,4.2-4.2,4.2H4.2c-2.3,0-4.2-1.9-4.2-4.2v-70
				C0,1.9,1.9,0,4.2,0h117.1c2.3,0,4.2,1.9,4.2,4.2V74.2z"/>
			<path style="clip-path:url(#SVGID_4_);fill-rule:evenodd;clip-rule:evenodd;fill:#FFFFFF;" d="M100.3,38.4
				c0-3.2-2.5-9.2-10.5-9.2c-3.5,0-6.1,1.5-7.3,2.5v-2.3l-5.4,0v2.3c-1.3-1.1-2.9-2.2-4.5-2.4c-1.7-0.3-3.4-0.2-5.5,0.5
				c-1.8,0.5-2.9,1.3-4,2.5c-2.2-2.5-5.8-3-8.6-3.1c-3.2-0.1-6.4,0.3-9,2.1c-2.4-1.2-5.5-2.2-8.9-2.2c-3,0-5.9,0.7-7.9,2.5
				c-0.7,0.6-1.1,1.1-1.4,2c-0.7,1.8-0.4,3.8,0.4,4.9c1.5,2,3.2,2.8,6.2,3.1c2.6,0.3,4.5,0.3,6.5,0.7c0.9,0.2,1.8,0.9,1.8,1.9
				c0,1.2-1.7,3.1-5.7,2.9c-3.3-0.2-4.6-0.7-7.7-2.7l-3.5,2.9c0,0,0.6,0.5,1,0.8c0.4,0.3,0.8,0.5,1.2,0.7h0
				c3.6,1.9,8.1,2.7,12.2,2.1c2-0.3,3.9-1,5.5-2.1c1.3,0.9,3.1,2.5,7.3,2.3c2.7-0.1,4.6,0,6.5-2.1V51h5.2v-2.1c0,0,0.8,0.7,1.4,1
				c3.3,2,8.5,1.2,11.6-1.1l0,2.7c-0.1,1.7-1.6,2.9-3.3,3.5c-2.8,1.1-5.4,0.1-7.7-1.5l-3.9,2.6c1.1,1.1,2,1.7,3.5,2.4
				c4.2,1.9,9.2,1.3,12.6-0.8c2.3-1.3,3.1-3,3.7-5.5c0.3-1.3,0.3-2.3,0.4-3.5c0,0,0-0.1,0-0.1c0,0,0.1,0.1,0.1,0.1
				c1.1,0.8,2.1,1.3,3.5,1.8c2.4,0.7,5.1,0.8,8.1,0c1.4-0.4,2.7-1,3.8-1.7h0c0.6-0.4,1.2-0.9,1.7-1.4l-3.4-2.4
				c-1.1,0.9-2.9,1.9-4.8,2.1c-2.2,0.3-4.8-0.1-6.2-1.6c-0.7-0.8-1-1.1-1-3.1l15.9,0V38.4z M66.3,39.9c0-1.2,0.2-2.4,0.3-3.7
				c0.1-0.6,0.8-1.3,1.8-1.9c0.9-0.5,2.1-0.9,3.2-0.9c0.9,0,1.8,0.2,2.5,0.5c1.4,0.5,2.4,1.5,2.5,2.7c0.1,1.1,0.2,2.2,0.3,3.2
				c0.1,1.3,0,2.5-0.2,3.7c-0.2,0.7-0.5,1.4-1.3,2c-0.9,0.7-2.2,1.3-3.8,1.2c-2.2-0.1-4.2-1-4.8-2.2C66.4,43.5,66.3,41.8,66.3,39.9
				 M56.9,46.8c-1.1,0.3-2.9,0.5-4.8,0.3c-1.6-0.2-3.1-0.3-3.7-1.7c-0.3-0.8-0.3-1.5,0.3-2.1c0.8-1,2.7-1.2,3.8-1.2h6.2
				C58.8,43.6,59.3,46,56.9,46.8 M38.6,38c-2.5-0.1-4.8-0.2-6-1.2C31.9,36.3,32,34.6,33,34c1.4-0.9,3.2-0.8,4.2-0.8
				c2,0.1,4.4,0.8,6.2,2l2.1-2c0,0,2.3,2.1,2.3,2c2.6-1.8,3.6-1.8,6-1.8c3.4,0,4.3,0.7,4.8,1.4c0.3,0.5,0,3.3,0,3.3s-3,0.1-5.1,0
				c-1.7-0.1-2.7-0.1-4.4,0.2c-1.5,0.2-2.6,0.7-3.7,1.6c0,0-0.9-0.6-1.9-1.1C41.8,38,40.5,38.1,38.6,38 M84.5,38.4
				c0-1.3,0.3-2.3,0.9-3.1c1.1-1.6,3.1-2.3,5-2.3c1.9,0,3.8,0.7,4.9,2.1c0.6,0.8,1,1.9,1,3.2H84.5z"/>
		</g>
	</g>
</g>
</svg>
