<?xml version="1.0" encoding="iso-8859-1"?>
<!-- Generator: Adobe Illustrator 18.1.1, SVG Export Plug-In . SVG Version: 6.00 Build 0)  -->
<svg version="1.1" xmlns="http://www.w3.org/2000/svg" xmlns:xlink="http://www.w3.org/1999/xlink" x="0px" y="0px"
	 viewBox="0 0 352.919 324.145" style="enable-background:new 0 0 352.919 324.145;" xml:space="preserve">
<g id="Layer_1">
	<g>
		<path style="fill:#FFFFFF;" d="M176.488,324.145c-32.64-32.891-151.498-96.966-170.524-177.862
			C-4.545,101.601-5.226,42.469,38.204,14.779C86.358-15.924,146.132,4.01,176.487,49.181c29.71-44.214,86.76-64.153,135.018-36.461
			c46.377,26.613,46.315,87.614,35.507,133.563C327.984,227.177,201.848,295.255,176.488,324.145z"/>
	</g>
</g>
<g id="Layer_2" style="display:none;">
	<g style="display:inline;">
		<path d="M427.64,375.821l-2.247-0.635c-48.414-13.665-92.071-45.771-126.251-92.845c-25.68-35.369-36.938-66.381-37.405-67.684
			l-0.042-0.119c-0.431-1.263-10.555-31.337-10.555-65.411c0-47.173,19.421-78.729,56.163-91.255
			c12.228-4.169,24.278-6.282,35.817-6.282c25.946,0,50.114,10.779,69.894,31.173c6.206,6.399,11.062,12.793,14.625,18.094
			c3.562-5.301,8.418-11.696,14.623-18.094C462.04,62.369,486.21,51.59,512.159,51.59c11.539,0,23.589,2.114,35.817,6.282
			c36.743,12.526,56.164,44.081,56.164,91.255c0,34.074-10.124,64.148-10.555,65.411l-0.042,0.119
			c-0.467,1.303-11.725,32.315-37.405,67.684c-34.18,47.074-77.836,79.179-126.251,92.845L427.64,375.821z M277.334,209.133
			c0.542,1.477,11.576,31.068,35.487,63.885c21.966,30.147,59.62,69.26,114.819,85.595c55.372-16.388,93.109-55.694,115.109-85.993
			c23.774-32.744,34.633-61.946,35.195-63.481c0.489-1.468,9.721-29.668,9.649-60.369c-0.092-39.785-15.218-65.097-44.956-75.235
			c-10.505-3.581-20.759-5.397-30.477-5.397c-51.984,0-76.773,52.009-77.018,52.534l-7.5,16.128l-7.503-16.127
			c-0.057-0.12-6.462-13.586-19.362-26.759c-16.751-17.104-36.149-25.777-57.656-25.777c-9.719,0-19.973,1.816-30.477,5.397
			c-29.831,10.169-44.956,35.603-44.956,75.593C267.686,179.766,276.824,207.607,277.334,209.133z"/>
	</g>
</g>
</svg>
