<?xml version="1.0" encoding="iso-8859-1"?>
<!-- Generator: Adobe Illustrator 18.1.1, SVG Export Plug-In . SVG Version: 6.00 Build 0)  -->
<svg version="1.1" id="Layer_1" xmlns="http://www.w3.org/2000/svg" xmlns:xlink="http://www.w3.org/1999/xlink" x="0px" y="0px"
	 viewBox="0 0 88.444 92.744" style="enable-background:new 0 0 88.444 92.744;" xml:space="preserve">
<path style="fill:#FFFFFF;" d="M84.784,0.308C84.192,0.1,83.581,0,82.977,0c-0.478,0-0.946,0.081-1.403,0.203
	c-0.595,0.125-1.18,0.315-1.723,0.647L19.706,37.501V5.669C19.706,2.551,17.155,0,14.037,0H5.669C2.551,0,0,2.551,0,5.669v81.405
	c0,3.118,2.551,5.669,5.669,5.669h8.368c3.118,0,5.669-2.551,5.669-5.669V55.297l60.145,36.652c1.726,1.053,3.836,1.038,5.521,0.091
	c1.846-0.912,3.049-2.792,3.049-4.889l0.024-81.682C88.444,3.145,86.977,1.075,84.784,0.308z"/>
</svg>
