<?xml version="1.0" encoding="iso-8859-1"?>
<!-- Generator: Adobe Illustrator 18.1.1, SVG Export Plug-In . SVG Version: 6.00 Build 0)  -->
<svg version="1.1" id="Layer_1" xmlns="http://www.w3.org/2000/svg" xmlns:xlink="http://www.w3.org/1999/xlink" x="0px" y="0px"
	 viewBox="0 0 88.444 92.744" style="enable-background:new 0 0 88.444 92.744;" xml:space="preserve">
<path style="fill:#FFFFFF;" d="M82.775,0h-8.368c-3.118,0-5.669,2.551-5.669,5.669v31.778L8.593,0.796
	C6.868-0.257,4.757-0.242,3.072,0.704C1.227,1.616,0.023,3.497,0.023,5.593L0,87.276c0,2.323,1.467,4.393,3.66,5.161
	c0.592,0.208,1.202,0.308,1.807,0.308c0.478,0,0.946-0.081,1.403-0.203c0.595-0.125,1.18-0.316,1.723-0.647l60.145-36.651v31.831
	c0,3.118,2.551,5.669,5.669,5.669h8.368c3.118,0,5.669-2.551,5.669-5.669V5.669C88.444,2.551,85.893,0,82.775,0z"/>
</svg>
