<svg xmlns="http://www.w3.org/2000/svg" xmlns:xlink="http://www.w3.org/1999/xlink" preserveAspectRatio="xMidYMid" width="16" height="17" viewBox="0 0 16 17">
  <defs>
    <style>

      .cls-2 {
        fill: #000000;
      }
    </style>
  </defs>
  <path d="M15.990,15.967 C15.990,15.967 11.307,11.196 11.307,11.196 C12.398,10.006 13.073,8.415 13.073,6.661 C13.073,2.987 10.139,-0.000 6.533,-0.000 C2.926,-0.000 -0.008,2.987 -0.008,6.660 C-0.008,10.333 2.926,13.319 6.533,13.319 C7.901,13.319 9.171,12.886 10.221,12.153 C10.221,12.153 14.976,16.996 14.976,16.996 C14.976,16.996 15.990,15.967 15.990,15.967 ZM1.425,6.661 C1.425,3.792 3.716,1.459 6.532,1.459 C9.349,1.459 11.638,3.792 11.638,6.661 C11.638,9.527 9.349,11.861 6.532,11.861 C3.716,11.859 1.425,9.527 1.425,6.661 Z" id="path-1" class="cls-2" fill-rule="evenodd"/>
</svg>
