<svg id="Layer_1" data-name="Layer 1" xmlns="http://www.w3.org/2000/svg" viewBox="0 0 125.43 78.39"><defs><style>.cls-1{fill:#f90;}.cls-2{fill:#231f20;fill-rule:evenodd;}</style></defs><title>payment-icons</title><rect class="cls-1" width="125.43" height="78.39" rx="4.18" ry="4.18"/><path class="cls-2" d="M71.76,47.15c-4.37,3.22-10.7,4.94-16.15,4.94a29.22,29.22,0,0,1-19.73-7.53c-0.41-.37,0-0.87.45-0.59a39.71,39.71,0,0,0,19.74,5.24,39.25,39.25,0,0,0,15.06-3.08c0.74-.31,1.36.49,0.64,1"/><path class="cls-2" d="M73.58,45.08c-0.56-.71-3.69-0.34-5.1-0.17-0.43,0-.49-0.32-0.11-0.59,2.5-1.76,6.59-1.25,7.07-.66s-0.12,4.7-2.47,6.66c-0.36.3-.7,0.14-0.54-0.26,0.53-1.32,1.71-4.26,1.15-5"/><path class="cls-2" d="M68.58,31.91V30.21A0.42,0.42,0,0,1,69,29.78h7.65a0.43,0.43,0,0,1,.44.43v1.46a2.36,2.36,0,0,1-.58,1.07l-4,5.66a8.49,8.49,0,0,1,4.36.94,0.78,0.78,0,0,1,.4.66v1.82a0.41,0.41,0,0,1-.56.39,8.81,8.81,0,0,0-8.08,0,0.41,0.41,0,0,1-.55-0.39V40.1a2.07,2.07,0,0,1,.28-1.17L73,32.34H69a0.43,0.43,0,0,1-.44-0.43"/><path class="cls-2" d="M40.69,42.57H38.36a0.44,0.44,0,0,1-.41-0.39V30.24a0.44,0.44,0,0,1,.45-0.43h2.17a0.44,0.44,0,0,1,.42.4v1.56h0a3.2,3.2,0,0,1,6.08,0A3.44,3.44,0,0,1,53,30.86c0.74,1,.59,2.46.59,3.74v7.53a0.44,0.44,0,0,1-.45.43H50.83a0.43,0.43,0,0,1-.42-0.43V35.81a15.36,15.36,0,0,0-.07-2.24,1.21,1.21,0,0,0-1.37-1,1.54,1.54,0,0,0-1.39,1,7.19,7.19,0,0,0-.22,2.29v6.33a0.44,0.44,0,0,1-.45.43H44.6a0.44,0.44,0,0,1-.42-0.43V35.81c0-1.33.22-3.29-1.43-3.29s-1.61,1.91-1.61,3.29v6.33a0.44,0.44,0,0,1-.45.43"/><path class="cls-2" d="M83.68,29.56c3.46,0,5.32,3,5.32,6.73s-2.06,6.53-5.32,6.53-5.23-3-5.23-6.66,1.87-6.61,5.23-6.61m0,2.44c-1.72,0-1.82,2.34-1.82,3.79s0,4.57,1.8,4.57,1.89-2.51,1.89-4a11,11,0,0,0-.35-3.17A1.45,1.45,0,0,0,83.7,32"/><path class="cls-2" d="M93.48,42.57H91.16a0.44,0.44,0,0,1-.42-0.43V30.2a0.44,0.44,0,0,1,.45-0.39h2.16a0.44,0.44,0,0,1,.41.33V32h0c0.65-1.63,1.56-2.41,3.17-2.41A3.05,3.05,0,0,1,99.69,31a7.6,7.6,0,0,1,.61,3.72v7.51a0.44,0.44,0,0,1-.44.38H97.52a0.44,0.44,0,0,1-.41-0.38V35.71c0-1.31.15-3.22-1.45-3.22a1.52,1.52,0,0,0-1.35,1,5.31,5.31,0,0,0-.37,2.26v6.43a0.44,0.44,0,0,1-.45.43"/><path class="cls-2" d="M62.48,36.87A4.56,4.56,0,0,1,62,39.34a1.89,1.89,0,0,1-1.61,1.06A1.46,1.46,0,0,1,59,38.71c0-2,1.78-2.34,3.46-2.34v0.5Zm2.35,5.67a0.49,0.49,0,0,1-.55.05A5.68,5.68,0,0,1,62.95,41a4.61,4.61,0,0,1-3.84,1.69,3.3,3.3,0,0,1-3.48-3.62,4,4,0,0,1,2.48-3.8,16.22,16.22,0,0,1,4.38-.81V34.2a3,3,0,0,0-.28-1.69,1.55,1.55,0,0,0-1.31-.6A1.77,1.77,0,0,0,59,33.3a0.49,0.49,0,0,1-.4.43l-2.26-.24A0.41,0.41,0,0,1,56,33c0.52-2.73,3-3.56,5.2-3.56a5.28,5.28,0,0,1,3.5,1.16c1.13,1.06,1,2.47,1,4v3.62a3.17,3.17,0,0,0,.88,2.15,0.44,0.44,0,0,1,0,.62c-0.48.4-1.32,1.13-1.79,1.55h0Z"/><path class="cls-2" d="M32,36.87a4.58,4.58,0,0,1-.43,2.47,1.89,1.89,0,0,1-1.61,1.06,1.46,1.46,0,0,1-1.42-1.69c0-2,1.78-2.34,3.46-2.34v0.5Zm2.35,5.67a0.49,0.49,0,0,1-.55.05A5.68,5.68,0,0,1,32.45,41a4.61,4.61,0,0,1-3.84,1.69,3.3,3.3,0,0,1-3.48-3.62,4,4,0,0,1,2.48-3.8A16.2,16.2,0,0,1,32,34.5V34.2a3,3,0,0,0-.28-1.69,1.55,1.55,0,0,0-1.31-.6,1.77,1.77,0,0,0-1.87,1.4,0.5,0.5,0,0,1-.41.43l-2.25-.24A0.41,0.41,0,0,1,25.52,33c0.52-2.73,3-3.56,5.2-3.56a5.28,5.28,0,0,1,3.5,1.16c1.13,1.06,1,2.47,1,4v3.62a3.17,3.17,0,0,0,.88,2.15,0.44,0.44,0,0,1,0,.62c-0.47.4-1.32,1.13-1.78,1.55h0Z"/></svg>