<svg id="Layer_1" data-name="Layer 1" xmlns="http://www.w3.org/2000/svg" viewBox="0 0 125.43 78.39"><defs><style>.cls-1{fill:#3957a7;}.cls-2{fill:#fff;}.cls-3{fill:#f9a533;}</style></defs><title>payment-icons</title><rect class="cls-1" width="125.43" height="78.39" rx="4.18" ry="4.18"/><polygon class="cls-2" points="57.72 50.97 51.59 50.97 55.42 27.44 61.55 27.44 57.72 50.97"/><path class="cls-2" d="M46.44,27.44L40.6,43.62l-0.69-3.49h0L37.85,29.56a2.62,2.62,0,0,0-2.91-2.12H25.28l-0.11.4a22.85,22.85,0,0,1,6.41,2.69L36.9,51h6.39L53,27.44h-6.6Z"/><path class="cls-2" d="M94.63,51h5.62l-4.9-23.53H90.43a2.82,2.82,0,0,0-2.83,1.75L78.46,51h6.39l1.28-3.49h7.79Zm-6.74-8.32,3.22-8.81,1.81,8.81h-5Z"/><path class="cls-2" d="M78.94,33.1L79.81,28a17.68,17.68,0,0,0-5.51-1C71.26,27,64,28.35,64,34.81c0,6.08,8.48,6.16,8.48,9.35s-7.6,2.62-10.11.61L61.5,50a17.16,17.16,0,0,0,6.92,1.33c4.18,0,10.49-2.17,10.49-8.06,0-6.12-8.55-6.69-8.55-9.35s6-2.32,8.59-.87"/><path class="cls-3" d="M39.91,40.14L37.85,29.56a2.62,2.62,0,0,0-2.91-2.12H25.28l-0.11.4a23.74,23.74,0,0,1,9.09,4.56,18.36,18.36,0,0,1,5.65,7.74"/></svg>