<svg id="Layer_1" data-name="Layer 1" xmlns="http://www.w3.org/2000/svg" viewBox="0 0 125.43 78.39"><defs><style>.cls-1{fill:#13457c;}.cls-2{fill:#007cc3;}.cls-3{fill:#009ddd;}.cls-4{fill:#fff;}</style></defs><title>payment-icons</title><rect class="cls-1" width="125.43" height="78.39" rx="4.18" ry="4.18"/><path class="cls-2" d="M70.1,39.2A22.47,22.47,0,1,1,47.63,16.73,22.47,22.47,0,0,1,70.1,39.2"/><path class="cls-3" d="M77.8,16.73a22.39,22.39,0,0,0-15.08,5.82,23.15,23.15,0,0,0-2.27,2.38H65A22.41,22.41,0,0,1,66.7,27.3h-8a21.79,21.79,0,0,0-1.3,2.38H68a22.13,22.13,0,0,1,1,2.38H56.49a21.75,21.75,0,0,0-.65,2.38H69.59a22.6,22.6,0,0,1-.65,11.9H56.49a22.38,22.38,0,0,0,1,2.38H68a22.11,22.11,0,0,1-1.29,2.38h-8a22.31,22.31,0,0,0,1.71,2.38H65a22.3,22.3,0,0,1-2.27,2.38A22.47,22.47,0,1,0,77.8,16.73"/><path class="cls-3" d="M97.27,51.72a0.73,0.73,0,1,1,.72.72,0.73,0.73,0,0,1-.72-0.72M98,52.27a0.55,0.55,0,1,0-.55-0.55,0.55,0.55,0,0,0,.55.55M97.9,52H97.75V51.4H98l0.16,0,0.08,0.16-0.11.17L98.27,52H98.1L98,51.79H97.9V52Zm0-.36h0.17l0-.07,0-.06H97.9v0.16Z"/><path class="cls-4" d="M89.73,44.22a0.73,0.73,0,1,1,.72.72,0.73,0.73,0,0,1-.72-0.72m0.72,0.55a0.55,0.55,0,1,0-.55-0.55,0.55,0.55,0,0,0,.55.55m-0.1-.23H90.21V43.89h0.27l0.16,0,0.08,0.16-0.11.17,0.12,0.28H90.56l-0.1-.25H90.36v0.25Zm0-.36h0.17l0-.07,0-.07H90.36v0.16Z"/><path class="cls-4" d="M47,33.35c-0.2.88-.31,1.38-0.58,2.45-1.69-.72-4-1.09-5.7,0a4.6,4.6,0,0,0-2.07,4.48,2.75,2.75,0,0,0,1.69,2.08,5.68,5.68,0,0,0,4.8-.49c-0.24,1.09-.42,1.94-0.63,2.72a9.85,9.85,0,0,1-6,.08,5,5,0,0,1-3.4-4,6.68,6.68,0,0,1,3.69-7A12.4,12.4,0,0,1,47,33.35"/><path class="cls-4" d="M75.67,43.39a4.71,4.71,0,0,1-3.91,1.71c-2.25,0-3.67-1.66-2.87-5.38l0.93-4.38h3.43l-0.93,4.38c-0.32,1.49-.24,2.63,1.27,2.63,1.78,0,2.32-1.08,2.65-2.62l0.93-4.38H80.6l-1.54,7c-0.17.82-.34,1.7-0.44,2.56H75.4l0.27-1.55"/><path class="cls-4" d="M81.73,38.38c0,1.22.8,2,2.62,2.67,1.4,0.49,1.62.63,1.62,1.06,0,0.61-.63.86-2,0.86a12.66,12.66,0,0,1-3.09-.37s-0.44,2-.48,2.22a25.33,25.33,0,0,0,3.59.27c3.63,0,5.31-1,5.31-3.21,0-1.31-.71-2.08-2.43-2.67-1.45-.48-1.61-0.59-1.61-1S85.87,37.4,87,37.4c0.67,0,1.61.06,2.49,0.15l0.48-2.23c-0.89-.11-2.25-0.19-3-0.19-3.85,0-5.19,1.49-5.18,3.25"/><polygon class="cls-4" points="48.5 35.34 51.93 35.34 49.89 44.94 46.45 44.94 48.5 35.34"/><path class="cls-4" d="M68.84,35.3a3.91,3.91,0,0,0-3.93,1.53,6.85,6.85,0,0,0,.2-1.48H62c-0.45,3-1.26,6-1.89,9l-0.16.65h3.58c0.43-2,.92-4.89,1.49-5.79A2.31,2.31,0,0,1,67.74,38Z"/><path class="cls-4" d="M61,35.3a3.91,3.91,0,0,0-3.93,1.53,6.85,6.85,0,0,0,.2-1.48H54.14c-0.45,3-1.26,6-1.89,9l-0.16.65h3.58c0.43-2,.92-4.89,1.49-5.79A2.31,2.31,0,0,1,59.92,38Z"/></svg>