<?xml version="1.0" encoding="utf-8"?>
<!-- Generator: Adobe Illustrator 19.1.0, SVG Export Plug-In . SVG Version: 6.00 Build 0)  -->
<svg version="1.1" id="Layer_1" xmlns="http://www.w3.org/2000/svg" xmlns:xlink="http://www.w3.org/1999/xlink" x="0px" y="0px"
	 viewBox="0 0 125.4 78.4" style="enable-background:new 0 0 125.4 78.4;" xml:space="preserve">
<style type="text/css">
	.st0{clip-path:url(#SVGID_2_);}
	.st1{clip-path:url(#SVGID_4_);fill:#F9F9F9;}
	.st2{clip-path:url(#SVGID_4_);fill:#FFFFFF;}
	.st3{clip-path:url(#SVGID_4_);fill:#C5C7C9;}
	.st4{clip-path:url(#SVGID_4_);fill:#231F20;}
	.st5{clip-path:url(#SVGID_4_);fill:#A6A8AB;}
	.st6{clip-path:url(#SVGID_4_);fill:#FFC10E;}
	.st7{clip-path:url(#SVGID_4_);fill:#A30046;}
	.st8{clip-path:url(#SVGID_6_);}
	.st9{clip-path:url(#SVGID_8_);fill:#178FDB;}
	.st10{clip-path:url(#SVGID_8_);fill:#FFFFFF;}
	.st11{clip-path:url(#SVGID_10_);}
	.st12{clip-path:url(#SVGID_12_);fill:#F9F9F9;}
	.st13{clip-path:url(#SVGID_12_);}
	.st14{clip-path:url(#SVGID_14_);}
	.st15{clip-path:url(#SVGID_16_);fill:#F9F9F9;}
	.st16{clip-path:url(#SVGID_16_);fill:#ED1C2E;}
	.st17{clip-path:url(#SVGID_16_);fill:#FCB131;}
	.st18{clip-path:url(#SVGID_18_);}
	.st19{clip-path:url(#SVGID_20_);fill:#F9F9F9;}
	.st20{clip-path:url(#SVGID_20_);fill:#0066B2;}
	.st21{clip-path:url(#SVGID_20_);fill:#F9A533;}
	.st22{clip-path:url(#SVGID_22_);}
	.st23{clip-path:url(#SVGID_24_);fill:#F9F9F9;}
	.st24{clip-path:url(#SVGID_24_);fill:#FFFFFF;}
	.st25{clip-path:url(#SVGID_24_);fill:#0078A9;}
	.st26{clip-path:url(#SVGID_26_);}
	.st27{clip-path:url(#SVGID_28_);fill:#F9F9F9;}
	.st28{clip-path:url(#SVGID_28_);fill-rule:evenodd;clip-rule:evenodd;fill:#231F20;}
	.st29{clip-path:url(#SVGID_30_);}
	.st30{clip-path:url(#SVGID_32_);fill:#F9F9F9;}
	.st31{clip-path:url(#SVGID_32_);fill:#EE3A3F;}
	.st32{clip-path:url(#SVGID_32_);fill:#0067B2;}
	.st33{clip-path:url(#SVGID_32_);fill:#FAAC18;}
	.st34{clip-path:url(#SVGID_32_);fill:#6AB845;}
	.st35{clip-path:url(#SVGID_32_);fill:#231F20;}
	.st36{clip-path:url(#SVGID_34_);}
	.st37{clip-path:url(#SVGID_36_);fill:#F9F9F9;}
	.st38{clip-path:url(#SVGID_36_);fill:#00A551;}
	.st39{clip-path:url(#SVGID_36_);fill:#0071BB;}
	.st40{clip-path:url(#SVGID_36_);fill:#FFFFFF;}
	.st41{clip-path:url(#SVGID_36_);fill:#EC1C24;}
	.st42{clip-path:url(#SVGID_38_);}
	.st43{clip-path:url(#SVGID_40_);fill:#F9F9F9;}
	.st44{clip-path:url(#SVGID_40_);fill-rule:evenodd;clip-rule:evenodd;fill:#008060;}
	.st45{clip-path:url(#SVGID_42_);}
	.st46{clip-path:url(#SVGID_44_);fill:#F9F9F9;}
	.st47{clip-path:url(#SVGID_44_);fill:#203C73;}
	.st48{clip-path:url(#SVGID_46_);}
	.st49{clip-path:url(#SVGID_48_);fill:#F9F9F9;}
	.st50{clip-path:url(#SVGID_48_);fill-rule:evenodd;clip-rule:evenodd;fill:#FF9900;}
	.st51{clip-path:url(#SVGID_48_);fill-rule:evenodd;clip-rule:evenodd;}
	.st52{clip-path:url(#SVGID_50_);}
	.st53{clip-path:url(#SVGID_52_);fill:#F9F9F9;}
	.st54{clip-path:url(#SVGID_52_);fill-rule:evenodd;clip-rule:evenodd;fill:#FAA929;}
	.st55{clip-path:url(#SVGID_52_);fill-rule:evenodd;clip-rule:evenodd;fill:#045EA0;}
	.st56{clip-path:url(#SVGID_54_);}
	.st57{clip-path:url(#SVGID_56_);fill:#F9F9F9;}
	.st58{clip-path:url(#SVGID_56_);fill-rule:evenodd;clip-rule:evenodd;fill:#121212;}
	.st59{clip-path:url(#SVGID_58_);}
	.st60{clip-path:url(#SVGID_60_);fill:#F9F9F9;}
	.st61{clip-path:url(#SVGID_60_);fill:#336699;}
	.st62{clip-path:url(#SVGID_60_);fill:#003366;}
	.st63{clip-path:url(#SVGID_62_);}
	.st64{clip-path:url(#SVGID_64_);fill:#F9F9F9;}
	.st65{clip-path:url(#SVGID_64_);fill:#007CC3;}
	.st66{clip-path:url(#SVGID_64_);fill:#009DDD;}
	.st67{clip-path:url(#SVGID_64_);fill:#FFFFFF;}
	.st68{clip-path:url(#SVGID_66_);}
	.st69{clip-path:url(#SVGID_68_);fill:#F9F9F9;}
	.st70{clip-path:url(#SVGID_68_);fill:#EC1C2E;}
	.st71{clip-path:url(#SVGID_68_);fill:#0084C4;}
	.st72{clip-path:url(#SVGID_68_);fill:#FFFFFF;}
	.st73{clip-path:url(#SVGID_68_);fill:none;stroke:#FFFFFF;stroke-width:0.215;}
	.st74{clip-path:url(#SVGID_70_);}
	.st75{clip-path:url(#SVGID_72_);fill:#F9F9F9;}
	.st76{clip-path:url(#SVGID_72_);fill-rule:evenodd;clip-rule:evenodd;fill:#FBB231;}
	.st77{clip-path:url(#SVGID_72_);fill-rule:evenodd;clip-rule:evenodd;fill:#EC1C2E;}
	.st78{clip-path:url(#SVGID_72_);fill-rule:evenodd;clip-rule:evenodd;fill:#FFFFFF;}
	.st79{clip-path:url(#SVGID_72_);fill:none;stroke:#FFFFFF;stroke-width:0.216;stroke-miterlimit:2.613;}
	.st80{clip-path:url(#SVGID_74_);}
	.st81{clip-path:url(#SVGID_76_);fill:#F9F9F9;}
	.st82{clip-path:url(#SVGID_76_);fill:#0066B2;}
	.st83{clip-path:url(#SVGID_76_);fill:#F9A533;}
	.st84{clip-path:url(#SVGID_78_);}
	.st85{clip-path:url(#SVGID_80_);fill:#0078A9;}
	.st86{clip-path:url(#SVGID_80_);fill:#FFFFFF;}
	.st87{clip-path:url(#SVGID_82_);}
	.st88{clip-path:url(#SVGID_84_);fill:#008060;}
	.st89{clip-path:url(#SVGID_84_);fill-rule:evenodd;clip-rule:evenodd;fill:#FFFFFF;}
	.st90{clip-path:url(#SVGID_86_);}
	.st91{clip-path:url(#SVGID_88_);fill:#203C73;}
	.st92{clip-path:url(#SVGID_88_);fill:#FFFFFF;}
	.st93{clip-path:url(#SVGID_90_);}
	.st94{clip-path:url(#SVGID_92_);fill:#1C3663;}
	.st95{clip-path:url(#SVGID_92_);fill:#FFFFFF;}
	.st96{clip-path:url(#SVGID_94_);}
	.st97{clip-path:url(#SVGID_96_);fill:#13457C;}
	.st98{clip-path:url(#SVGID_96_);fill:#007CC3;}
	.st99{clip-path:url(#SVGID_96_);fill:#009DDD;}
	.st100{clip-path:url(#SVGID_96_);fill:#FFFFFF;}
	.st101{clip-path:url(#SVGID_98_);}
	.st102{clip-path:url(#SVGID_100_);fill:#13457C;}
	.st103{clip-path:url(#SVGID_100_);fill:#ED1C2E;}
	.st104{clip-path:url(#SVGID_100_);fill:#FCB131;}
	.st105{clip-path:url(#SVGID_102_);}
	.st106{clip-path:url(#SVGID_104_);fill:#1D1E1E;}
	.st107{clip-path:url(#SVGID_104_);fill:#EE3A3F;}
	.st108{clip-path:url(#SVGID_104_);fill:#0067B2;}
	.st109{clip-path:url(#SVGID_104_);fill:#FAAC18;}
	.st110{clip-path:url(#SVGID_104_);fill:#6AB845;}
	.st111{clip-path:url(#SVGID_104_);fill:#231F20;}
	.st112{clip-path:url(#SVGID_106_);}
	.st113{clip-path:url(#SVGID_108_);fill:#121212;}
	.st114{clip-path:url(#SVGID_108_);fill-rule:evenodd;clip-rule:evenodd;fill:#FFDE37;}
	.st115{clip-path:url(#SVGID_110_);}
	.st116{clip-path:url(#SVGID_112_);fill:#3957A7;}
	.st117{clip-path:url(#SVGID_112_);fill:#FFFFFF;}
	.st118{clip-path:url(#SVGID_112_);fill:#F9A533;}
	.st119{clip-path:url(#SVGID_114_);}
	.st120{clip-path:url(#SVGID_116_);fill:#0C489C;}
	.st121{clip-path:url(#SVGID_116_);fill:#FFFFFF;}
	.st122{clip-path:url(#SVGID_118_);}
	.st123{clip-path:url(#SVGID_120_);fill:#045EA0;}
	.st124{clip-path:url(#SVGID_120_);fill-rule:evenodd;clip-rule:evenodd;fill:#FAA929;}
	.st125{clip-path:url(#SVGID_120_);fill-rule:evenodd;clip-rule:evenodd;fill:#FFFFFF;}
	.st126{clip-path:url(#SVGID_122_);}
	.st127{clip-path:url(#SVGID_124_);fill:#13457C;}
	.st128{clip-path:url(#SVGID_124_);fill-rule:evenodd;clip-rule:evenodd;fill:#FBB231;}
	.st129{clip-path:url(#SVGID_124_);fill-rule:evenodd;clip-rule:evenodd;fill:#EC1C2E;}
	.st130{clip-path:url(#SVGID_124_);fill-rule:evenodd;clip-rule:evenodd;fill:#FFFFFF;}
	.st131{clip-path:url(#SVGID_124_);fill:none;stroke:#FFFFFF;stroke-width:0.216;stroke-miterlimit:2.613;}
	.st132{clip-path:url(#SVGID_126_);}
	.st133{clip-path:url(#SVGID_128_);fill:#13457C;}
	.st134{clip-path:url(#SVGID_128_);fill:#EC1C2E;}
	.st135{clip-path:url(#SVGID_128_);fill:#0084C4;}
	.st136{clip-path:url(#SVGID_128_);fill:#FFFFFF;}
	.st137{clip-path:url(#SVGID_128_);fill:none;stroke:#FFFFFF;stroke-width:0.215;}
	.st138{clip-path:url(#SVGID_130_);}
	.st139{clip-path:url(#SVGID_132_);fill:#FF9900;}
	.st140{clip-path:url(#SVGID_132_);fill-rule:evenodd;clip-rule:evenodd;fill:#231F20;}
	.st141{clip-path:url(#SVGID_134_);}
	.st142{clip-path:url(#SVGID_136_);fill:#231F20;}
	.st143{clip-path:url(#SVGID_136_);fill-rule:evenodd;clip-rule:evenodd;fill:#FFFFFF;}
	.st144{clip-path:url(#SVGID_138_);}
	.st145{clip-path:url(#SVGID_140_);fill:#121212;}
	.st146{clip-path:url(#SVGID_140_);fill:#FFFFFF;}
	.st147{clip-path:url(#SVGID_140_);fill:#FFC10E;}
	.st148{clip-path:url(#SVGID_142_);}
	.st149{clip-path:url(#SVGID_144_);fill:#0033A0;}
	.st150{clip-path:url(#SVGID_144_);fill:#FFFFFF;}
	.st151{clip-path:url(#SVGID_144_);fill:#FF9E16;}
	.st152{clip-path:url(#SVGID_144_);fill:#FAA943;}
	.st153{clip-path:url(#SVGID_146_);}
	.st154{clip-path:url(#SVGID_148_);fill:#ED1C2E;}
	.st155{clip-path:url(#SVGID_148_);fill:#FCB131;}
	.st156{clip-path:url(#SVGID_150_);}
	.st157{clip-path:url(#SVGID_152_);fill:#0066B2;}
	.st158{clip-path:url(#SVGID_152_);fill:#F9A533;}
	.st159{clip-path:url(#SVGID_154_);}
	.st160{clip-path:url(#SVGID_156_);fill:#FFFFFF;}
	.st161{clip-path:url(#SVGID_156_);fill:#0078A9;}
	.st162{clip-path:url(#SVGID_158_);}
	.st163{clip-path:url(#SVGID_160_);fill-rule:evenodd;clip-rule:evenodd;fill:#231F20;}
	.st164{clip-path:url(#SVGID_162_);}
	.st165{clip-path:url(#SVGID_164_);fill:#EE3A3F;}
	.st166{clip-path:url(#SVGID_164_);fill:#0067B2;}
	.st167{clip-path:url(#SVGID_164_);fill:#FAAC18;}
	.st168{clip-path:url(#SVGID_164_);fill:#6AB845;}
	.st169{clip-path:url(#SVGID_164_);fill:#231F20;}
	.st170{clip-path:url(#SVGID_166_);}
	.st171{clip-path:url(#SVGID_168_);fill:#00A551;}
	.st172{clip-path:url(#SVGID_168_);fill:#0071BB;}
	.st173{clip-path:url(#SVGID_168_);fill:#FFFFFF;}
	.st174{clip-path:url(#SVGID_168_);fill:#EC1C24;}
	.st175{clip-path:url(#SVGID_170_);}
	.st176{clip-path:url(#SVGID_172_);fill-rule:evenodd;clip-rule:evenodd;fill:#008060;}
	.st177{clip-path:url(#SVGID_174_);}
	.st178{clip-path:url(#SVGID_176_);fill:#203C73;}
	.st179{clip-path:url(#SVGID_178_);}
	.st180{clip-path:url(#SVGID_180_);fill-rule:evenodd;clip-rule:evenodd;fill:#FF9900;}
	.st181{clip-path:url(#SVGID_180_);fill-rule:evenodd;clip-rule:evenodd;}
	.st182{clip-path:url(#SVGID_182_);}
	.st183{clip-path:url(#SVGID_184_);fill-rule:evenodd;clip-rule:evenodd;fill:#FAA929;}
	.st184{clip-path:url(#SVGID_184_);fill-rule:evenodd;clip-rule:evenodd;fill:#045EA0;}
	.st185{clip-path:url(#SVGID_186_);fill:#0084C4;}
	.st186{clip-path:url(#SVGID_186_);fill:#EC1C2E;}
	.st187{clip-path:url(#SVGID_186_);fill:#FFFFFF;}
	.st188{clip-path:url(#SVGID_188_);}
	.st189{clip-path:url(#SVGID_190_);fill:#336699;}
	.st190{clip-path:url(#SVGID_190_);fill:#003366;}
	.st191{clip-path:url(#SVGID_192_);fill:#121212;}
	.st192{clip-path:url(#SVGID_192_);fill-rule:evenodd;clip-rule:evenodd;fill:#121212;}
	.st193{clip-path:url(#SVGID_192_);}
	.st194{clip-path:url(#SVGID_194_);fill-rule:evenodd;clip-rule:evenodd;fill:#121212;}
	.st195{clip-path:url(#SVGID_196_);}
	.st196{clip-path:url(#SVGID_198_);fill:#009DDD;}
	.st197{clip-path:url(#SVGID_198_);fill:#007CC3;}
	.st198{clip-path:url(#SVGID_198_);fill:#FFFFFF;}
	.st199{clip-path:url(#SVGID_200_);fill:#FBB231;}
	.st200{clip-path:url(#SVGID_200_);fill:none;stroke:#FFFFFF;stroke-width:0.216;stroke-miterlimit:2.613;}
	.st201{clip-path:url(#SVGID_200_);fill-rule:evenodd;clip-rule:evenodd;fill:#EC1C2E;}
	.st202{clip-path:url(#SVGID_200_);fill:#EC1C2E;}
	.st203{clip-path:url(#SVGID_200_);fill:#FFFFFF;}
	.st204{clip-path:url(#SVGID_200_);fill-rule:evenodd;clip-rule:evenodd;fill:#FFFFFF;}
	.st205{clip-path:url(#SVGID_200_);fill-rule:evenodd;clip-rule:evenodd;fill:#FBB231;}
	.st206{clip-path:url(#SVGID_202_);fill:#0066B2;}
	.st207{clip-path:url(#SVGID_202_);}
	.st208{clip-path:url(#SVGID_204_);fill:#0066B2;}
	.st209{clip-path:url(#SVGID_204_);fill:#F9A533;}
	.st210{clip-path:url(#SVGID_206_);}
	.st211{clip-path:url(#SVGID_208_);fill:#FFFFFF;}
	.st212{clip-path:url(#SVGID_208_);fill:#C5C7C9;}
	.st213{clip-path:url(#SVGID_208_);fill:#231F20;}
	.st214{clip-path:url(#SVGID_208_);fill:#A6A8AB;}
	.st215{clip-path:url(#SVGID_208_);fill:#FFC10E;}
	.st216{clip-path:url(#SVGID_208_);fill:#A30046;}
	.st217{clip-path:url(#SVGID_210_);}
	.st218{clip-path:url(#SVGID_212_);}
	.st219{clip-path:url(#SVGID_214_);}
	.st220{clip-path:url(#SVGID_216_);}
	.st221{clip-path:url(#SVGID_216_);fill:#FFFFFF;}
	.st222{clip-path:url(#SVGID_218_);}
	.st223{clip-path:url(#SVGID_220_);fill:#F9F9F9;}
	.st224{clip-path:url(#SVGID_220_);}
	.st225{clip-path:url(#SVGID_222_);}
	.st226{clip-path:url(#SVGID_224_);}
</style>
<g>
	<g>
		<defs>
			<rect id="SVGID_125_" width="125.4" height="78.4"/>
		</defs>
		<clipPath id="SVGID_2_">
			<use xlink:href="#SVGID_125_"  style="overflow:visible;"/>
		</clipPath>
		<g class="st0">
			<defs>
				<rect id="SVGID_127_" y="0" width="125.4" height="78.4"/>
			</defs>
			<clipPath id="SVGID_4_">
				<use xlink:href="#SVGID_127_"  style="overflow:visible;"/>
			</clipPath>
			<path style="clip-path:url(#SVGID_4_);fill:#13457C;" d="M125.4,74.2c0,2.3-1.9,4.2-4.2,4.2H4.2c-2.3,0-4.2-1.9-4.2-4.2v-70
				C0,1.9,1.9,0,4.2,0h117.1c2.3,0,4.2,1.9,4.2,4.2V74.2z"/>
			<polygon style="clip-path:url(#SVGID_4_);fill:#EC1C2E;" points="77.6,61.7 78.8,61.7 80,61.6 81.1,61.4 82.2,61.2 83.3,61 
				84.4,60.7 85.4,60.3 86.4,59.9 87.4,59.5 88.4,59 89.3,58.4 90.3,57.9 91.1,57.2 92,56.6 92.8,55.9 93.6,55.1 94.3,54.3 95,53.5 
				95.7,52.6 96.3,51.8 96.9,50.8 97.5,49.9 98,48.9 98.4,47.9 98.8,46.9 99.2,45.9 99.5,44.8 99.7,43.7 99.9,42.6 100.1,41.5 
				100.2,40.3 100.2,39.2 100.2,38 100.1,36.9 99.9,35.7 99.7,34.6 99.5,33.6 99.2,32.5 98.8,31.4 98.4,30.4 98,29.4 97.5,28.5 
				96.9,27.5 96.3,26.6 95.7,25.7 95,24.9 94.3,24.1 93.6,23.3 92.8,22.5 92,21.8 91.1,21.2 90.3,20.5 89.3,19.9 88.4,19.4 
				87.4,18.9 86.4,18.5 85.4,18.1 84.4,17.7 83.3,17.4 82.2,17.1 81.1,16.9 80,16.8 78.8,16.7 77.6,16.7 76.5,16.7 75.3,16.8 
				74.2,16.9 73.1,17.1 72,17.4 70.9,17.7 69.9,18.1 68.9,18.5 67.9,18.9 66.9,19.4 66,19.9 65,20.5 64.2,21.2 63.3,21.8 62.5,22.5 
				61.7,23.3 61,24.1 60.3,24.9 59.6,25.7 59,26.6 58.4,27.5 57.8,28.5 57.4,29.4 56.9,30.4 56.5,31.4 56.1,32.5 55.8,33.6 
				55.6,34.6 55.4,35.7 55.3,36.9 55.2,38 55.1,39.2 55.2,40.3 55.3,41.5 55.4,42.6 55.6,43.7 55.8,44.8 56.1,45.9 56.5,46.9 
				56.9,47.9 57.4,48.9 57.8,49.9 58.4,50.8 59,51.8 59.6,52.6 60.3,53.5 61,54.3 61.7,55.1 62.5,55.9 63.3,56.6 64.2,57.2 65,57.9 
				66,58.4 66.9,59 67.9,59.5 68.9,59.9 69.9,60.3 70.9,60.7 72,61 73.1,61.2 74.2,61.4 75.3,61.6 76.5,61.7 			"/>
			<polygon style="clip-path:url(#SVGID_4_);fill:#0084C4;" points="47.8,61.7 48.9,61.7 50.1,61.6 51.2,61.4 52.3,61.2 53.4,61 
				54.5,60.7 55.5,60.3 56.6,59.9 57.6,59.5 58.5,59 59.5,58.4 60.4,57.9 61.3,57.2 62.1,56.6 62.9,55.9 63.7,55.1 64.5,54.3 
				65.2,53.5 65.8,52.6 66.5,51.8 67,50.8 67.6,49.9 68.1,48.9 68.5,47.9 68.9,46.9 69.3,45.9 69.6,44.8 69.8,43.7 70,42.6 
				70.2,41.5 70.3,40.3 70.3,39.2 70.3,38 70.2,36.9 70,35.7 69.8,34.6 69.6,33.6 69.3,32.5 68.9,31.4 68.5,30.4 68.1,29.4 
				67.6,28.5 67,27.5 66.5,26.6 65.8,25.7 65.2,24.9 64.5,24.1 63.7,23.3 62.9,22.5 62.1,21.8 61.3,21.2 60.4,20.5 59.5,19.9 
				58.5,19.4 57.6,18.9 56.6,18.5 55.5,18.1 54.5,17.7 53.4,17.4 52.3,17.1 51.2,16.9 50.1,16.8 48.9,16.7 47.8,16.7 46.6,16.7 
				45.5,16.8 44.4,16.9 43.2,17.1 42.1,17.4 41.1,17.7 40,18.1 39,18.5 38,18.9 37,19.4 36.1,19.9 35.2,20.5 34.3,21.2 33.4,21.8 
				32.6,22.5 31.8,23.3 31.1,24.1 30.4,24.9 29.7,25.7 29.1,26.6 28.5,27.5 28,28.5 27.5,29.4 27,30.4 26.6,31.4 26.3,32.5 
				25.9,33.6 25.7,34.6 25.5,35.7 25.4,36.9 25.3,38 25.2,39.2 25.3,40.3 25.4,41.5 25.5,42.6 25.7,43.7 25.9,44.8 26.3,45.9 
				26.6,46.9 27,47.9 27.5,48.9 28,49.9 28.5,50.8 29.1,51.8 29.7,52.6 30.4,53.5 31.1,54.3 31.8,55.1 32.6,55.9 33.4,56.6 
				34.3,57.2 35.2,57.9 36.1,58.4 37,59 38,59.5 39,59.9 40,60.3 41.1,60.7 42.1,61 43.2,61.2 44.4,61.4 45.5,61.6 46.6,61.7 			"/>
			<polygon style="clip-path:url(#SVGID_4_);fill:#EC1C2E;" points="59.9,25.3 71.4,25.3 71.4,24 61,24 			"/>
			<polygon style="clip-path:url(#SVGID_4_);fill:#EC1C2E;" points="58.2,27.9 71.4,27.9 71.4,26.7 58.9,26.7 			"/>
			<polygon style="clip-path:url(#SVGID_4_);fill:#EC1C2E;" points="56.8,30.6 71.4,30.6 71.4,29.4 57.4,29.4 			"/>
			<polygon style="clip-path:url(#SVGID_4_);fill:#EC1C2E;" points="55.9,33.3 71.4,33.3 71.4,32 56.3,32 			"/>
			<polygon style="clip-path:url(#SVGID_4_);fill:#EC1C2E;" points="55.4,36 71.4,36 71.4,34.7 55.6,34.7 			"/>
			<polygon style="clip-path:url(#SVGID_4_);fill:#EC1C2E;" points="55.2,41.1 71.4,41.1 71.4,39.9 55.1,39.9 			"/>
			<polygon style="clip-path:url(#SVGID_4_);fill:#EC1C2E;" points="55.6,44 71.4,44 71.4,42.7 55.4,42.7 			"/>
			<polygon style="clip-path:url(#SVGID_4_);fill:#EC1C2E;" points="56.4,46.2 71.4,46.2 71.4,45 56,45 			"/>
			<polygon style="clip-path:url(#SVGID_4_);fill:#EC1C2E;" points="57.5,49 71.4,49 71.4,47.8 56.9,47.8 			"/>
			<polygon style="clip-path:url(#SVGID_4_);fill:#EC1C2E;" points="59.1,51.8 71.4,51.8 71.4,50.6 58.3,50.6 			"/>
			<polygon style="clip-path:url(#SVGID_4_);fill:#EC1C2E;" points="61.2,54.5 71.2,54.5 71.2,53.3 60.1,53.3 			"/>
			<polygon style="clip-path:url(#SVGID_4_);fill:#EC1C2E;" points="96.5,53 96.6,52.8 96.7,52.6 96.8,52.4 97,52.3 97.2,52.2 
				97.4,52.1 97.6,52.1 97.8,52.1 98,52.2 98.2,52.3 98.3,52.4 98.5,52.6 98.6,52.8 98.6,53 98.4,53 98.4,52.8 98.3,52.7 98.2,52.5 
				98.1,52.4 97.9,52.4 97.7,52.3 97.6,52.3 97.4,52.3 97.2,52.4 97.1,52.4 96.9,52.5 96.8,52.7 96.8,52.8 96.7,53 			"/>
			<polygon style="clip-path:url(#SVGID_4_);fill:#EC1C2E;" points="97.2,53 97.2,52.7 97.6,52.7 97.7,52.7 97.8,52.7 97.9,52.8 
				97.9,52.8 98,52.8 98,52.9 98,52.9 98,53 97.8,53 97.8,52.9 97.8,52.9 97.8,52.9 97.8,52.9 97.7,52.8 97.7,52.8 97.7,52.8 
				97.6,52.8 97.4,52.8 97.4,53 			"/>
			<polygon style="clip-path:url(#SVGID_4_);fill:#EC1C2E;" points="96.5,53.2 96.5,53 96.5,53 96.7,53 96.7,53 96.7,53.2 			"/>
			<polygon style="clip-path:url(#SVGID_4_);fill:#EC1C2E;" points="97.2,53.2 97.2,53 97.4,53 97.4,53.1 97.6,53.1 97.6,53.1 
				97.7,53.1 97.7,53.1 97.8,53.1 97.8,53.1 97.8,53.1 97.8,53 97.8,53 98,53 98,53 98,53.1 98,53.1 98,53.2 			"/>
			<polygon style="clip-path:url(#SVGID_4_);fill:#EC1C2E;" points="98.4,53.2 98.4,53 98.4,53 98.6,53 98.6,53 98.7,53.2 			"/>
			<polygon style="clip-path:url(#SVGID_4_);fill:#EC1C2E;" points="96.5,53.2 96.5,53.2 96.5,53.4 96.6,53.6 96.7,53.8 96.8,54 
				97,54.1 97.2,54.2 97.4,54.3 97.6,54.3 97.8,54.3 98,54.2 98.2,54.1 98.3,54 98.5,53.8 98.6,53.6 98.6,53.4 98.7,53.2 98.7,53.2 
				98.4,53.2 98.4,53.2 98.4,53.4 98.4,53.6 98.3,53.7 98.2,53.9 98.1,54 97.9,54.1 97.7,54.1 97.6,54.1 97.4,54.1 97.2,54.1 
				97.1,54 96.9,53.9 96.8,53.7 96.8,53.6 96.7,53.4 96.7,53.2 96.7,53.2 			"/>
			<polygon style="clip-path:url(#SVGID_4_);fill:#EC1C2E;" points="97.2,53.2 97.2,53.6 97.4,53.6 97.4,53.3 97.6,53.3 97.8,53.6 
				98,53.6 97.7,53.3 97.8,53.2 97.8,53.2 97.9,53.2 97.9,53.2 98,53.2 			"/>
			<polygon class="st2" points="72.8,37.3 72.6,37.3 72.5,37.2 72.3,37.2 72.2,37.2 72.1,37.2 71.9,37.2 71.8,37.1 71.7,37.1 
				71.5,37.1 71.3,37.1 71.1,37.1 70.9,37.1 70.7,37.1 70.5,37.1 70.2,37.1 69.9,37.1 69.7,37.1 69.5,37.2 69.3,37.2 69.2,37.3 
				69,37.4 68.9,37.5 68.8,37.6 68.7,37.7 68.6,37.8 68.6,37.9 68.5,38 68.5,38.2 68.6,38.3 68.6,38.5 68.7,38.6 68.8,38.7 69,38.9 
				69.3,39.1 69.6,39.2 69.9,39.3 70.2,39.4 70.6,39.6 70.9,39.7 71.3,39.8 71.6,40 71.9,40.2 72.1,40.5 72.4,40.8 72.5,41.2 
				72.7,41.7 72.7,42.3 72.7,42.9 72.6,43.4 72.4,43.9 72.3,44.3 72.1,44.6 71.8,44.9 71.5,45.2 71.2,45.4 70.9,45.6 70.6,45.8 
				70.2,45.9 69.8,46 69.5,46.1 69.1,46.2 68.8,46.2 68.4,46.2 68.1,46.2 67.6,46.2 67.2,46.2 66.8,46.2 66.5,46.2 66.2,46.2 
				65.9,46.2 65.6,46.2 65.4,46.1 65.2,46.1 65,46.1 64.8,46 64.6,46 64.4,45.9 64.2,45.9 64,45.8 63.9,45.7 64.3,43.4 64.4,43.4 
				64.5,43.5 64.7,43.5 64.9,43.6 65.1,43.6 65.3,43.7 65.5,43.7 65.8,43.7 66,43.8 66.3,43.8 66.6,43.8 66.9,43.9 67.2,43.9 
				67.5,43.9 67.8,43.9 68.2,43.9 68.5,43.8 68.7,43.7 68.9,43.6 69,43.5 69.1,43.3 69.2,43.2 69.3,43 69.3,42.9 69.4,42.7 
				69.4,42.5 69.3,42.4 69.3,42.3 69.2,42.2 69.1,42.1 68.9,42 68.8,41.9 68.6,41.8 68.5,41.7 68.3,41.6 68.1,41.6 67.9,41.5 
				67.7,41.4 67.5,41.3 67.3,41.2 67.1,41.1 66.9,41 66.7,40.9 66.5,40.8 66.3,40.7 66.1,40.5 65.9,40.4 65.8,40.2 65.6,40 
				65.5,39.8 65.4,39.6 65.3,39.3 65.2,39.1 65.2,38.8 65.2,38.4 65.2,38.1 65.2,37.9 65.3,37.7 65.3,37.5 65.3,37.3 65.4,37.1 
				65.4,36.9 65.5,36.7 65.6,36.6 65.7,36.4 65.7,36.3 65.8,36.1 65.9,36 66.1,35.8 66.2,35.7 66.3,35.6 66.4,35.5 66.6,35.4 
				66.7,35.3 66.9,35.2 67.1,35.1 67.3,35 67.5,35 67.7,34.9 67.9,34.8 68.1,34.8 68.4,34.8 68.6,34.7 68.9,34.7 69.2,34.7 
				69.5,34.6 69.8,34.6 70.1,34.6 70.5,34.6 70.8,34.6 71.2,34.6 71.5,34.7 71.7,34.7 72,34.7 72.2,34.7 72.4,34.7 72.5,34.8 
				72.7,34.8 72.8,34.8 72.9,34.8 73,34.8 73.1,34.8 73.2,34.9 73.3,34.9 			"/>
			<polyline style="clip-path:url(#SVGID_4_);fill:none;stroke:#FFFFFF;stroke-width:0.215;" points="72.8,37.3 72.8,37.3 
				72.6,37.3 72.5,37.2 72.3,37.2 72.2,37.2 72.1,37.2 71.9,37.2 71.8,37.1 71.7,37.1 71.5,37.1 71.3,37.1 71.1,37.1 70.9,37.1 
				70.7,37.1 70.5,37.1 70.2,37.1 69.9,37.1 69.7,37.1 69.5,37.2 69.3,37.2 69.2,37.3 69,37.4 68.9,37.5 68.8,37.6 68.7,37.7 
				68.6,37.8 68.6,37.9 68.5,38 68.5,38.2 68.6,38.3 68.6,38.5 68.7,38.6 68.8,38.7 69,38.9 69.3,39.1 69.6,39.2 69.9,39.3 
				70.2,39.4 70.6,39.6 70.9,39.7 71.3,39.8 71.6,40 71.9,40.2 72.1,40.5 72.4,40.8 72.5,41.2 72.7,41.7 72.7,42.3 72.7,42.9 
				72.6,43.4 72.4,43.9 72.3,44.3 72.1,44.6 71.8,44.9 71.5,45.2 71.2,45.4 70.9,45.6 70.6,45.8 70.2,45.9 69.8,46 69.5,46.1 
				69.1,46.2 68.8,46.2 68.4,46.2 68.1,46.2 67.6,46.2 67.2,46.2 66.8,46.2 66.5,46.2 66.2,46.2 65.9,46.2 65.6,46.2 65.4,46.1 
				65.2,46.1 65,46.1 64.8,46 64.6,46 64.4,45.9 64.2,45.9 64,45.8 63.9,45.7 64.3,43.4 64.4,43.4 64.5,43.5 64.7,43.5 64.9,43.6 
				65.1,43.6 65.3,43.7 65.5,43.7 65.8,43.7 66,43.8 66.3,43.8 66.6,43.8 66.9,43.9 67.2,43.9 67.5,43.9 67.8,43.9 68.2,43.9 
				68.5,43.8 68.7,43.7 68.9,43.6 69,43.5 69.1,43.3 69.2,43.2 69.3,43 69.3,42.9 69.4,42.7 69.4,42.5 69.3,42.4 69.3,42.3 
				69.2,42.2 69.1,42.1 68.9,42 68.8,41.9 68.6,41.8 68.5,41.7 68.3,41.6 68.1,41.6 67.9,41.5 67.7,41.4 67.5,41.3 67.3,41.2 
				67.1,41.1 66.9,41 66.7,40.9 66.5,40.8 66.3,40.7 66.1,40.5 65.9,40.4 65.8,40.2 65.6,40 65.5,39.8 65.4,39.6 65.3,39.3 
				65.2,39.1 65.2,38.8 65.2,38.4 65.2,38.1 65.2,37.9 65.3,37.7 65.3,37.5 65.3,37.3 65.4,37.1 65.4,36.9 65.5,36.7 65.6,36.6 
				65.7,36.4 65.7,36.3 65.8,36.1 65.9,36 66.1,35.8 66.2,35.7 66.3,35.6 66.4,35.5 66.6,35.4 66.7,35.3 66.9,35.2 67.1,35.1 
				67.3,35 67.5,35 67.7,34.9 67.9,34.8 68.1,34.8 68.4,34.8 68.6,34.7 68.9,34.7 69.2,34.7 69.5,34.6 69.8,34.6 70.1,34.6 
				70.5,34.6 70.8,34.6 71.2,34.6 71.5,34.7 71.7,34.7 72,34.7 72.2,34.7 72.4,34.7 72.5,34.8 72.7,34.8 72.8,34.8 72.9,34.8 
				73,34.8 73.1,34.8 73.2,34.9 73.3,34.9 72.8,37.3 			"/>
			<polygon class="st2" points="75.2,32.3 78.2,32.3 77.7,34.9 79.5,34.9 79.1,37.3 77.3,37.2 76.3,43.1 76.3,43.2 76.3,43.4 
				76.3,43.5 76.3,43.5 76.3,43.6 76.4,43.7 76.5,43.7 76.5,43.8 76.6,43.8 76.7,43.9 76.8,43.9 76.9,43.9 77,43.9 77.2,43.9 
				77.3,44 77.4,44 77.7,44 77.9,43.9 78.1,43.9 78.2,43.9 78.3,43.8 78.4,43.8 78.5,43.8 78.5,43.8 78.2,45.8 78.1,45.8 78.1,45.9 
				78,45.9 77.9,45.9 77.8,46 77.7,46 77.6,46 77.5,46.1 77.4,46.1 77.3,46.1 77.2,46.1 77.1,46.2 76.9,46.2 76.8,46.2 76.6,46.2 
				76.4,46.2 75.6,46.2 75.2,46.2 74.8,46.2 74.5,46.1 74.2,46 74,45.9 73.8,45.8 73.6,45.7 73.4,45.6 73.3,45.4 73.3,45.2 73.2,45 
				73.2,44.8 73.2,44.6 73.2,44.4 73.2,44.1 73.2,43.9 			"/>
			<polyline style="clip-path:url(#SVGID_4_);fill:none;stroke:#FFFFFF;stroke-width:0.215;" points="75.2,32.3 78.2,32.3 
				77.7,34.9 79.5,34.9 79.1,37.3 77.3,37.2 76.3,43.1 76.3,43.2 76.3,43.4 76.3,43.5 76.3,43.5 76.3,43.6 76.4,43.7 76.5,43.7 
				76.5,43.8 76.6,43.8 76.7,43.9 76.8,43.9 76.9,43.9 77,43.9 77.2,43.9 77.3,44 77.4,44 77.7,44 77.9,43.9 78.1,43.9 78.2,43.9 
				78.3,43.8 78.4,43.8 78.5,43.8 78.5,43.8 78.2,45.8 78.1,45.8 78.1,45.9 78,45.9 77.9,45.9 77.8,46 77.7,46 77.6,46 77.5,46.1 
				77.4,46.1 77.3,46.1 77.2,46.1 77.1,46.2 76.9,46.2 76.8,46.2 76.6,46.2 76.4,46.2 75.6,46.2 75.2,46.2 74.8,46.2 74.5,46.1 
				74.2,46 74,45.9 73.8,45.8 73.6,45.7 73.4,45.6 73.3,45.4 73.3,45.2 73.2,45 73.2,44.8 73.2,44.6 73.2,44.4 73.2,44.1 73.2,43.9 
				75.2,32.3 			"/>
			<polygon class="st2" points="57.1,41.3 57.1,41.5 57.1,41.7 57.1,41.9 57.1,42.1 57.2,42.3 57.3,42.5 57.4,42.6 57.5,42.8 
				57.7,43 57.8,43.2 58,43.3 58.2,43.5 58.4,43.6 58.6,43.7 58.8,43.8 59,43.8 59.3,43.8 59.6,43.9 59.8,43.9 60.1,43.9 60.4,43.9 
				60.7,43.9 60.9,43.9 61.2,43.9 61.5,43.9 61.8,43.8 62.1,43.7 62.4,43.6 62.7,43.5 63,43.4 63.3,43.2 63.6,43 63.2,45.7 63,45.8 
				62.8,45.8 62.7,45.9 62.5,46 62.3,46 62.2,46.1 62,46.1 61.8,46.1 61.6,46.2 61.4,46.2 61.2,46.2 61,46.2 60.7,46.2 60.4,46.2 
				60.1,46.2 59.7,46.2 59.5,46.2 59.2,46.2 58.9,46.2 58.7,46.2 58.4,46.1 58.1,46.1 57.9,46 57.6,46 57.3,45.9 57.1,45.8 
				56.8,45.7 56.6,45.6 56.3,45.5 56.1,45.4 55.9,45.2 55.6,45 55.4,44.9 55.2,44.7 55,44.5 54.9,44.2 54.7,44 54.6,43.7 54.4,43.5 
				54.3,43.2 54.2,42.9 54.1,42.5 54.1,42.2 54,41.8 54,41.5 54,41.1 54,40.6 54,40.2 54.1,40 54.1,39.8 54.1,39.7 54.1,39.5 
				54.2,39.3 54.2,39.1 54.3,38.9 54.4,38.6 54.4,38.4 54.5,38.2 54.6,38 54.7,37.7 54.8,37.5 55,37.3 55.1,37 55.2,36.8 55.4,36.6 
				55.6,36.4 55.8,36.2 56,36 56.2,35.8 56.5,35.6 56.7,35.5 57,35.3 57.3,35.2 57.6,35 58,34.9 58.3,34.8 58.7,34.8 59.1,34.7 
				59.5,34.7 59.9,34.7 60.1,34.7 60.4,34.7 60.6,34.7 60.8,34.7 61,34.8 61.2,34.8 61.4,34.8 61.7,34.9 61.9,35 62.1,35.1 
				62.3,35.1 62.5,35.2 62.7,35.4 62.9,35.5 63,35.6 63.2,35.8 63.4,36 63.5,36.1 63.7,36.4 63.8,36.6 63.9,36.8 64,37.1 64.1,37.3 
				64.2,37.6 64.2,37.9 64.3,38.3 64.3,38.6 64.3,39 64.3,39.4 64.2,39.8 64.2,40.2 64.1,40.7 64,41.3 56.3,41.3 56.7,39.3 
				61.3,39.3 61.4,39 61.4,38.7 61.4,38.5 61.3,38.3 61.3,38.1 61.2,37.9 61.1,37.7 61,37.6 60.8,37.4 60.7,37.3 60.6,37.2 
				60.4,37.2 60.2,37.1 60.1,37.1 59.9,37 59.7,37 59.5,37 59.3,37.1 59.1,37.1 58.9,37.2 58.7,37.2 58.6,37.3 58.4,37.4 58.3,37.6 
				58.1,37.7 58,37.9 57.9,38 57.8,38.2 57.7,38.4 57.6,38.6 57.6,38.8 57.5,39.1 			"/>
			<polyline style="clip-path:url(#SVGID_4_);fill:none;stroke:#FFFFFF;stroke-width:0.215;" points="57.1,41.3 57.1,41.3 
				57.1,41.5 57.1,41.7 57.1,41.9 57.1,42.1 57.2,42.3 57.3,42.5 57.4,42.6 57.5,42.8 57.7,43 57.8,43.2 58,43.3 58.2,43.5 
				58.4,43.6 58.6,43.7 58.8,43.8 59,43.8 59.3,43.8 59.6,43.9 59.8,43.9 60.1,43.9 60.4,43.9 60.7,43.9 60.9,43.9 61.2,43.9 
				61.5,43.9 61.8,43.8 62.1,43.7 62.4,43.6 62.7,43.5 63,43.4 63.3,43.2 63.6,43 63.2,45.7 63,45.8 62.8,45.8 62.7,45.9 62.5,46 
				62.3,46 62.2,46.1 62,46.1 61.8,46.1 61.6,46.2 61.4,46.2 61.2,46.2 61,46.2 60.7,46.2 60.4,46.2 60.1,46.2 59.7,46.2 59.5,46.2 
				59.2,46.2 58.9,46.2 58.7,46.2 58.4,46.1 58.1,46.1 57.9,46 57.6,46 57.3,45.9 57.1,45.8 56.8,45.7 56.6,45.6 56.3,45.5 
				56.1,45.4 55.9,45.2 55.6,45 55.4,44.9 55.2,44.7 55,44.5 54.9,44.2 54.7,44 54.6,43.7 54.4,43.5 54.3,43.2 54.2,42.9 54.1,42.5 
				54.1,42.2 54,41.8 54,41.5 54,41.1 54,40.6 54,40.2 54.1,40 54.1,39.8 54.1,39.7 54.1,39.5 54.2,39.3 54.2,39.1 54.3,38.9 
				54.4,38.6 54.4,38.4 54.5,38.2 54.6,38 54.7,37.7 54.8,37.5 55,37.3 55.1,37 55.2,36.8 55.4,36.6 55.6,36.4 55.8,36.2 56,36 
				56.2,35.8 56.5,35.6 56.7,35.5 57,35.3 57.3,35.2 57.6,35 58,34.9 58.3,34.8 58.7,34.8 59.1,34.7 59.5,34.7 59.9,34.7 60.1,34.7 
				60.4,34.7 60.6,34.7 60.8,34.7 61,34.8 61.2,34.8 61.4,34.8 61.7,34.9 61.9,35 62.1,35.1 62.3,35.1 62.5,35.2 62.7,35.4 
				62.9,35.5 63,35.6 63.2,35.8 63.4,36 63.5,36.1 63.7,36.4 63.8,36.6 63.9,36.8 64,37.1 64.1,37.3 64.2,37.6 64.2,37.9 64.3,38.3 
				64.3,38.6 64.3,39 64.3,39.4 64.2,39.8 64.2,40.2 64.1,40.7 64,41.3 56.3,41.3 56.7,39.3 61.3,39.3 61.4,39 61.4,38.7 61.4,38.5 
				61.3,38.3 61.3,38.1 61.2,37.9 61.1,37.7 61,37.6 60.8,37.4 60.7,37.3 60.6,37.2 60.4,37.2 60.2,37.1 60.1,37.1 59.9,37 59.7,37 
				59.5,37 59.3,37.1 59.1,37.1 58.9,37.2 58.7,37.2 58.6,37.3 58.4,37.4 58.3,37.6 58.1,37.7 58,37.9 57.9,38 57.8,38.2 57.7,38.4 
				57.6,38.6 57.6,38.8 57.5,39.1 57.1,41.3 			"/>
			<polygon class="st2" points="53,43.9 52.6,46.2 49.9,46.2 49.9,46 50,45.8 50,45.6 50,45.4 50.1,45.3 50.1,45.1 50.1,45 50.1,45 
				50,45.1 49.8,45.3 49.6,45.5 49.4,45.6 49.2,45.8 48.9,45.9 48.6,46 48.3,46.1 48,46.2 47.7,46.3 47.4,46.4 47.1,46.4 46.8,46.4 
				46.5,46.4 46.2,46.4 45.9,46.4 45.5,46.3 45.2,46.2 44.9,46 44.6,45.9 44.4,45.7 44.2,45.5 44,45.3 43.8,45.1 43.7,44.8 
				43.6,44.6 43.5,44.4 43.5,44.1 43.4,43.9 43.4,43.7 43.4,43.4 43.4,43.2 43.4,42.8 43.5,42.4 43.6,42 43.7,41.7 43.9,41.3 
				44.1,41 44.3,40.7 44.5,40.4 44.8,40.2 45.1,40 45.4,39.8 45.7,39.6 46.1,39.5 46.4,39.4 46.8,39.3 47.1,39.2 47.2,39.2 
				47.2,39.2 47.3,39.2 47.4,39.2 47.5,39.2 47.7,39.1 47.8,39.1 48,39.1 48.2,39.1 48.4,39.1 48.6,39 48.7,39 48.9,39 49.1,39 
				49.2,39 49.3,39 49.4,39 49.6,39 49.7,39 49.8,39 49.9,39 50.1,39 50.2,39 50.3,39 50.4,39 50.5,39 50.6,39 50.7,39 50.7,39 
				50.8,39 50.8,39 50.8,39 50.8,39 50.9,38.8 50.9,38.6 50.9,38.4 50.9,38.3 50.9,38.1 50.8,38 50.8,37.9 50.7,37.8 50.7,37.7 
				50.6,37.6 50.5,37.5 50.4,37.5 50.3,37.4 50.2,37.3 50.1,37.3 50,37.3 49.8,37.2 49.7,37.2 49.6,37.2 49.3,37.2 49,37.2 
				48.6,37.2 48.3,37.2 47.9,37.2 47.6,37.3 47.3,37.3 46.9,37.3 46.6,37.4 46.3,37.4 46,37.5 45.8,37.5 45.5,37.6 45.4,37.7 
				45.2,37.7 45.1,37.8 45.8,35.3 46.1,35.2 46.3,35.1 46.5,35 46.8,34.9 47.1,34.9 47.3,34.8 47.6,34.8 47.9,34.8 48.2,34.8 
				48.5,34.7 48.8,34.7 49.1,34.7 49.5,34.7 49.8,34.7 50.2,34.7 50.5,34.7 50.8,34.8 51.2,34.8 51.5,34.9 51.8,35 52.2,35.1 
				52.5,35.3 52.8,35.5 53.1,35.7 53.4,35.9 53.6,36.2 53.8,36.4 54,36.8 54.1,37.1 54.2,37.5 54.2,37.9 54.1,38.3 			"/>
			<polyline style="clip-path:url(#SVGID_4_);fill:none;stroke:#FFFFFF;stroke-width:0.215;" points="53,43.9 52.6,46.2 49.9,46.2 
				49.9,46 50,45.8 50,45.6 50,45.4 50.1,45.3 50.1,45.1 50.1,45 50.1,45 50,45.1 49.8,45.3 49.6,45.5 49.4,45.6 49.2,45.8 
				48.9,45.9 48.6,46 48.3,46.1 48,46.2 47.7,46.3 47.4,46.4 47.1,46.4 46.8,46.4 46.5,46.4 46.2,46.4 45.9,46.4 45.5,46.3 
				45.2,46.2 44.9,46 44.6,45.9 44.4,45.7 44.2,45.5 44,45.3 43.8,45.1 43.7,44.8 43.6,44.6 43.5,44.4 43.5,44.1 43.4,43.9 
				43.4,43.7 43.4,43.4 43.4,43.2 43.4,42.8 43.5,42.4 43.6,42 43.7,41.7 43.9,41.3 44.1,41 44.3,40.7 44.5,40.4 44.8,40.2 45.1,40 
				45.4,39.8 45.7,39.6 46.1,39.5 46.4,39.4 46.8,39.3 47.1,39.2 47.2,39.2 47.2,39.2 47.3,39.2 47.4,39.2 47.5,39.2 47.7,39.1 
				47.8,39.1 48,39.1 48.2,39.1 48.4,39.1 48.6,39 48.7,39 48.9,39 49.1,39 49.2,39 49.3,39 49.4,39 49.6,39 49.7,39 49.8,39 
				49.9,39 50.1,39 50.2,39 50.3,39 50.4,39 50.5,39 50.6,39 50.7,39 50.7,39 50.8,39 50.8,39 50.8,39 50.8,39 50.9,38.8 50.9,38.6 
				50.9,38.4 50.9,38.3 50.9,38.1 50.8,38 50.8,37.9 50.7,37.8 50.7,37.7 50.6,37.6 50.5,37.5 50.4,37.5 50.3,37.4 50.2,37.3 
				50.1,37.3 50,37.3 49.8,37.2 49.7,37.2 49.6,37.2 49.3,37.2 49,37.2 48.6,37.2 48.3,37.2 47.9,37.2 47.6,37.3 47.3,37.3 
				46.9,37.3 46.6,37.4 46.3,37.4 46,37.5 45.8,37.5 45.5,37.6 45.4,37.7 45.2,37.7 45.1,37.8 45.8,35.3 46.1,35.2 46.3,35.1 
				46.5,35 46.8,34.9 47.1,34.9 47.3,34.8 47.6,34.8 47.9,34.8 48.2,34.8 48.5,34.7 48.8,34.7 49.1,34.7 49.5,34.7 49.8,34.7 
				50.2,34.7 50.5,34.7 50.8,34.8 51.2,34.8 51.5,34.9 51.8,35 52.2,35.1 52.5,35.3 52.8,35.5 53.1,35.7 53.4,35.9 53.6,36.2 
				53.8,36.4 54,36.8 54.1,37.1 54.2,37.5 54.2,37.9 54.1,38.3 53,43.9 			"/>
			<polygon style="clip-path:url(#SVGID_4_);fill:#0084C4;" points="50.5,41.1 50.4,41 50.4,41 50.3,41 50.2,40.9 50.1,40.9 
				50,40.9 49.8,40.9 49.7,40.9 49.5,40.9 49.3,40.9 49.1,41 49,41 48.8,41 48.7,41.1 48.5,41.1 48.4,41.1 48.3,41.1 48.2,41.2 
				48.1,41.2 48,41.3 47.9,41.3 47.7,41.4 47.6,41.5 47.5,41.6 47.3,41.7 47.2,41.8 47.1,41.9 47,42 46.9,42.2 46.8,42.3 46.7,42.5 
				46.7,42.7 46.7,43 46.7,43.3 46.8,43.5 46.9,43.7 47.1,43.8 47.3,43.9 47.5,43.9 47.6,43.9 48,43.9 48.3,43.9 48.5,43.8 
				48.8,43.8 49,43.7 49.2,43.6 49.4,43.5 49.5,43.4 49.7,43.3 49.8,43.1 49.9,43 50,42.9 50.1,42.8 50.1,42.7 50.2,42.5 50.2,42.4 
				50.2,42.3 50.3,42.1 50.3,41.9 50.3,41.7 50.4,41.6 50.4,41.4 50.4,41.2 			"/>
			<polygon class="st2" points="30.7,46.2 27.8,46.2 30.2,32.3 35.3,32.3 35.7,40.6 39.2,32.3 44.4,32.3 42,46.2 39.1,46.2 
				40.9,35.8 40.8,35.8 36.5,46.2 33.2,46.2 33.2,45.8 33.1,44.6 33,43 32.9,41.1 32.8,39.2 32.7,37.5 32.7,36.3 32.6,35.8 
				32.6,35.8 32.6,35.8 32.6,35.8 32.5,35.8 32.5,35.8 32.5,35.8 32.5,35.8 			"/>
			<polyline style="clip-path:url(#SVGID_4_);fill:none;stroke:#FFFFFF;stroke-width:0.215;" points="30.7,46.2 27.8,46.2 
				30.2,32.3 35.3,32.3 35.7,40.6 39.2,32.3 44.4,32.3 42,46.2 39.1,46.2 40.9,35.8 40.8,35.8 36.5,46.2 33.2,46.2 33.2,45.8 
				33.1,44.6 33,43 32.9,41.1 32.8,39.2 32.7,37.5 32.7,36.3 32.6,35.8 32.6,35.8 32.6,35.8 32.6,35.8 32.5,35.8 32.5,35.8 
				32.5,35.8 32.5,35.8 30.7,46.2 			"/>
			<polygon class="st2" points="79,46.2 82,46.2 83.1,40.2 83.1,40 83.1,39.8 83.2,39.5 83.3,39.3 83.4,39.1 83.5,38.9 83.6,38.7 
				83.7,38.5 83.9,38.4 84.1,38.2 84.3,38.1 84.6,38 84.9,37.9 85.2,37.8 85.6,37.7 86,37.7 86,37.7 86.1,37.7 86.1,37.7 86.2,37.7 
				86.2,37.7 86.3,37.7 86.3,37.8 86.3,37.8 86.3,37.7 86.4,37.6 86.4,37.4 86.5,37.1 86.5,36.9 86.6,36.6 86.7,36.3 86.8,36 
				86.9,35.8 87,35.6 87.1,35.4 87.2,35.2 87.3,35.1 87.4,34.9 87.4,34.8 87.4,34.8 87.4,34.8 87.4,34.8 87.3,34.8 87.3,34.8 
				87.2,34.8 87.1,34.8 87,34.7 86.9,34.7 86.6,34.8 86.3,34.8 86,34.9 85.8,34.9 85.6,35 85.3,35.1 85.1,35.2 84.9,35.4 84.8,35.5 
				84.6,35.7 84.4,35.8 84.3,36 84.1,36.2 84,36.4 83.8,36.6 83.7,36.8 84,34.9 81,34.9 			"/>
			<polyline style="clip-path:url(#SVGID_4_);fill:none;stroke:#FFFFFF;stroke-width:0.215;" points="79,46.2 82,46.2 83.1,40.2 
				83.1,40 83.1,39.8 83.2,39.5 83.3,39.3 83.4,39.1 83.5,38.9 83.6,38.7 83.7,38.5 83.9,38.4 84.1,38.2 84.3,38.1 84.6,38 
				84.9,37.9 85.2,37.8 85.6,37.7 86,37.7 86,37.7 86.1,37.7 86.1,37.7 86.2,37.7 86.2,37.7 86.3,37.7 86.3,37.8 86.3,37.8 
				86.3,37.7 86.4,37.6 86.4,37.4 86.5,37.1 86.5,36.9 86.6,36.6 86.7,36.3 86.8,36 86.9,35.8 87,35.6 87.1,35.4 87.2,35.2 
				87.3,35.1 87.4,34.9 87.4,34.8 87.4,34.8 87.4,34.8 87.4,34.8 87.3,34.8 87.3,34.8 87.2,34.8 87.1,34.8 87,34.7 86.9,34.7 
				86.6,34.8 86.3,34.8 86,34.9 85.8,34.9 85.6,35 85.3,35.1 85.1,35.2 84.9,35.4 84.8,35.5 84.6,35.7 84.4,35.8 84.3,36 84.1,36.2 
				84,36.4 83.8,36.6 83.7,36.8 84,34.9 81,34.9 79,46.2 			"/>
			<polygon class="st2" points="92,34.7 92.4,34.8 92.7,34.8 93,34.8 93.3,34.8 93.6,34.9 93.9,35 94.2,35.1 94.5,35.2 94.7,35.3 
				95,35.4 95.2,35.5 95.4,35.7 95.7,35.8 95.9,36 96.1,36.1 96.2,36.3 96.4,36.5 96.6,36.7 96.7,36.9 96.9,37.2 97,37.4 97.1,37.6 
				97.2,37.9 97.3,38.1 97.4,38.4 97.5,38.7 97.5,38.9 97.6,39.2 97.6,39.5 97.6,39.8 97.6,40.1 97.6,40.4 97.6,40.8 97.5,41.2 
				97.5,41.5 97.4,41.9 97.3,42.2 97.2,42.5 97.1,42.8 97,43.1 96.9,43.4 96.8,43.6 96.6,43.9 96.5,44.1 96.3,44.4 96.1,44.6 
				95.9,44.8 95.7,45 95.5,45.1 95.3,45.3 95.1,45.5 94.8,45.6 94.6,45.7 94.3,45.9 94.1,46 93.8,46.1 93.6,46.2 93.3,46.2 93,46.3 
				92.7,46.3 92.4,46.4 92.1,46.4 91.8,46.4 91.5,46.4 91.2,46.4 90.9,46.4 90.6,46.4 90.3,46.3 90,46.3 89.8,46.2 89.5,46.2 
				89.2,46.1 89,46 88.7,45.9 88.5,45.7 88.3,45.6 88,45.5 87.8,45.3 87.6,45.1 87.4,45 87.3,44.8 87.1,44.6 86.9,44.4 86.8,44.2 
				86.6,43.9 86.5,43.7 86.4,43.4 86.3,43.2 86.2,42.9 86.1,42.6 86.1,42.3 86,42 86,41.7 85.9,41.4 85.9,41 85.9,40.7 86,40.3 
				86,40 86.1,39.6 86.1,39.3 86.2,39 86.3,38.7 86.4,38.4 86.5,38.1 86.6,37.9 86.7,37.6 86.9,37.4 87,37.1 87.2,36.9 87.4,36.7 
				87.6,36.5 87.8,36.3 88,36.1 88.2,35.9 88.4,35.8 88.6,35.6 88.9,35.5 89.1,35.4 89.4,35.2 89.7,35.1 89.9,35 90.2,35 90.5,34.9 
				90.8,34.8 91.1,34.8 91.4,34.8 91.7,34.8 			"/>
			<polyline style="clip-path:url(#SVGID_4_);fill:none;stroke:#FFFFFF;stroke-width:0.215;" points="92,34.7 92,34.7 92.4,34.8 
				92.7,34.8 93,34.8 93.3,34.8 93.6,34.9 93.9,35 94.2,35.1 94.5,35.2 94.7,35.3 95,35.4 95.2,35.5 95.4,35.7 95.7,35.8 95.9,36 
				96.1,36.1 96.2,36.3 96.4,36.5 96.6,36.7 96.7,36.9 96.9,37.2 97,37.4 97.1,37.6 97.2,37.9 97.3,38.1 97.4,38.4 97.5,38.7 
				97.5,38.9 97.6,39.2 97.6,39.5 97.6,39.8 97.6,40.1 97.6,40.4 97.6,40.8 97.5,41.2 97.5,41.5 97.4,41.9 97.3,42.2 97.2,42.5 
				97.1,42.8 97,43.1 96.9,43.4 96.8,43.6 96.6,43.9 96.5,44.1 96.3,44.4 96.1,44.6 95.9,44.8 95.7,45 95.5,45.1 95.3,45.3 
				95.1,45.5 94.8,45.6 94.6,45.7 94.3,45.9 94.1,46 93.8,46.1 93.6,46.2 93.3,46.2 93,46.3 92.7,46.3 92.4,46.4 92.1,46.4 
				91.8,46.4 91.5,46.4 91.2,46.4 90.9,46.4 90.6,46.4 90.3,46.3 90,46.3 89.8,46.2 89.5,46.2 89.2,46.1 89,46 88.7,45.9 88.5,45.7 
				88.3,45.6 88,45.5 87.8,45.3 87.6,45.1 87.4,45 87.3,44.8 87.1,44.6 86.9,44.4 86.8,44.2 86.6,43.9 86.5,43.7 86.4,43.4 
				86.3,43.2 86.2,42.9 86.1,42.6 86.1,42.3 86,42 86,41.7 85.9,41.4 85.9,41 85.9,40.7 86,40.3 86,40 86.1,39.6 86.1,39.3 86.2,39 
				86.3,38.7 86.4,38.4 86.5,38.1 86.6,37.9 86.7,37.6 86.9,37.4 87,37.1 87.2,36.9 87.4,36.7 87.6,36.5 87.8,36.3 88,36.1 
				88.2,35.9 88.4,35.8 88.6,35.6 88.9,35.5 89.1,35.4 89.4,35.2 89.7,35.1 89.9,35 90.2,35 90.5,34.9 90.8,34.8 91.1,34.8 
				91.4,34.8 91.7,34.8 92,34.7 			"/>
			<polygon class="st2" points="96.5,45.7 97.3,45.7 97.3,45.8 97,45.8 97,46.5 96.8,46.5 96.8,45.8 96.5,45.8 			"/>
			<polyline style="clip-path:url(#SVGID_4_);fill:none;stroke:#FFFFFF;stroke-width:0.215;" points="96.5,45.7 97.3,45.7 
				97.3,45.8 97,45.8 97,46.5 96.8,46.5 96.8,45.8 96.5,45.8 96.5,45.7 			"/>
			<polygon class="st2" points="97.4,45.7 97.7,45.7 98,46.3 98.3,45.7 98.6,45.7 98.6,46.5 98.4,46.5 98.4,45.9 98.1,46.5 
				97.9,46.5 97.6,45.9 97.6,46.5 97.4,46.5 			"/>
			<polyline style="clip-path:url(#SVGID_4_);fill:none;stroke:#FFFFFF;stroke-width:0.215;" points="97.4,45.7 97.7,45.7 98,46.3 
				98.3,45.7 98.6,45.7 98.6,46.5 98.4,46.5 98.4,45.9 98.1,46.5 97.9,46.5 97.6,45.9 97.6,46.5 97.4,46.5 97.4,45.7 			"/>
			<polygon style="clip-path:url(#SVGID_4_);fill:#EC1C2E;" points="89.7,40.2 89.6,40.6 89.6,41 89.6,41.3 89.6,41.7 89.7,41.9 
				89.7,42.2 89.8,42.4 89.9,42.7 90.1,42.8 90.2,43 90.4,43.1 90.5,43.2 90.7,43.3 90.9,43.4 91.1,43.4 91.4,43.4 91.6,43.4 
				91.9,43.4 92.1,43.3 92.3,43.3 92.5,43.1 92.7,43 92.9,42.9 93.1,42.7 93.2,42.5 93.4,42.2 93.5,42 93.6,41.7 93.7,41.4 93.8,41 
				93.9,40.6 94,40.2 94,39.9 94,39.6 94,39.3 94,39 94,38.8 93.9,38.5 93.8,38.3 93.7,38.1 93.6,37.9 93.5,37.7 93.3,37.6 
				93.2,37.5 93,37.4 92.8,37.3 92.6,37.3 92.3,37.3 92,37.3 91.7,37.3 91.5,37.4 91.2,37.5 91,37.7 90.8,37.8 90.6,38 90.4,38.2 
				90.3,38.5 90.2,38.7 90,38.9 89.9,39.2 89.9,39.4 89.8,39.7 89.7,39.9 			"/>
		</g>
	</g>
</g>
</svg>
