<svg id="Layer_1" data-name="Layer 1" xmlns="http://www.w3.org/2000/svg" viewBox="0 0 125.43 78.39"><defs><style>.cls-1{fill:#1c3663;}.cls-2{fill:#fff;}</style></defs><title>payment-icons</title><rect class="cls-1" width="125.43" height="78.39" rx="4.18" ry="4.18"/><path class="cls-2" d="M60.63,34.44a1.79,1.79,0,0,0-1.31.8L56,40.88c-0.16.28-.32,0.1-0.35,0l-0.93-5.61a1.15,1.15,0,0,0-1.14-.82H51.76a0.62,0.62,0,0,0-.63.8s1.42,8.08,1.7,10a2.08,2.08,0,0,1,0,1.24L51,49.7c-0.27.44-.12,0.8,0.32,0.8h2.16a1.76,1.76,0,0,0,1.31-.79l8.32-14.07s0.79-1.2.06-1.19H60.63"/><path class="cls-2" d="M34.38,37.3a4.39,4.39,0,0,1-2.64.69H31.23a0.63,0.63,0,0,1-.64-0.8l0.63-2.71a1.06,1.06,0,0,1,1-.79H32.9a3.3,3.3,0,0,1,1.81.41,1.37,1.37,0,0,1,.6,1.24,2.25,2.25,0,0,1-.94,2m4.51-4.17a3.12,3.12,0,0,0-1.15-1.23,5.26,5.26,0,0,0-1.81-.67,15.19,15.19,0,0,0-2.46-.2H29.11a1.09,1.09,0,0,0-1,.79L25.17,44.61a0.62,0.62,0,0,0,.63.8h2.09a1.07,1.07,0,0,0,1-.8l0.72-3.1a1.07,1.07,0,0,1,1-.79h0.6a9.91,9.91,0,0,0,6-1.57A4.88,4.88,0,0,0,39.28,35a3.87,3.87,0,0,0-.4-1.88"/><path class="cls-2" d="M49,35a8,8,0,0,0-3.73-.67,16.5,16.5,0,0,0-2.53.2c-0.62.1-.68,0.11-1.07,0.2a1.22,1.22,0,0,0-.92,1l-0.25,1c-0.14.67,0.24,0.64,0.41,0.59a11.48,11.48,0,0,1,1.24-.37,9.15,9.15,0,0,1,2-.26,5.18,5.18,0,0,1,1.89.27,1,1,0,0,1,.63.95,0.69,0.69,0,0,1,0,.29,0.32,0.32,0,0,1-.3.19c-1.19.07-2,.18-3.08,0.33a9.62,9.62,0,0,0-2.65.73,4.11,4.11,0,0,0-1.79,1.42,3.84,3.84,0,0,0-.6,2.18A2.56,2.56,0,0,0,39,45a3.19,3.19,0,0,0,2.2.76,5.88,5.88,0,0,0,1.31-.12,6.54,6.54,0,0,0,1-.34,5.23,5.23,0,0,0,.86-0.48l0.79-.52v0l-0.08.34h0a0.61,0.61,0,0,0,.55.78h2a1.09,1.09,0,0,0,.89-0.78L50,38.05a7.08,7.08,0,0,0,.11-1A2.2,2.2,0,0,0,49,35m-3.69,7.84a5.43,5.43,0,0,1-.82.42,3,3,0,0,1-1.09.24,2.43,2.43,0,0,1-1.19-.23,0.81,0.81,0,0,1-.41-0.78,1.59,1.59,0,0,1,.3-1,2.18,2.18,0,0,1,.89-0.6,7.75,7.75,0,0,1,1.38-.31c0.48-.06,1.42-0.17,1.54-0.17s0.2-.07.15,0.25c0,0.14-.3,1.26-0.42,1.76a1,1,0,0,1-.33.43"/><path class="cls-2" d="M86.87,35a8,8,0,0,0-3.73-.67,16.38,16.38,0,0,0-2.53.2c-0.62.09-.69,0.11-1.07,0.19a1.22,1.22,0,0,0-.92,1l-0.26,1c-0.14.67,0.24,0.64,0.41,0.59A10.69,10.69,0,0,1,80,36.93a9.22,9.22,0,0,1,2-.26,5.18,5.18,0,0,1,1.89.27,1,1,0,0,1,.63.95,0.73,0.73,0,0,1,0,.3,0.33,0.33,0,0,1-.3.19c-1.19.07-2.05,0.18-3.08,0.33a9.63,9.63,0,0,0-2.65.73,4.13,4.13,0,0,0-1.8,1.42A3.86,3.86,0,0,0,76,43a2.56,2.56,0,0,0,.85,2,3.19,3.19,0,0,0,2.2.76,5.89,5.89,0,0,0,1.31-.12,6.67,6.67,0,0,0,1-.34,5.29,5.29,0,0,0,.86-0.48l0.79-.53v0L83,44.64h0a0.62,0.62,0,0,0,.56.78h2a1.09,1.09,0,0,0,.9-0.78l1.52-6.58A3.5,3.5,0,0,0,88,37.53a4.37,4.37,0,0,0,0-.5A2.2,2.2,0,0,0,86.87,35M83.17,42.8a5.61,5.61,0,0,1-.82.42,3,3,0,0,1-1.09.24,2.43,2.43,0,0,1-1.19-.23,0.8,0.8,0,0,1-.41-0.78,1.58,1.58,0,0,1,.3-1,2.16,2.16,0,0,1,.89-0.6,7.56,7.56,0,0,1,1.38-.31c0.48-.06,1.42-0.17,1.54-0.17s0.2-.07.15,0.25c0,0.14-.3,1.26-0.42,1.76a1,1,0,0,1-.33.43"/><path class="cls-2" d="M72.29,37.35a4.42,4.42,0,0,1-2.63.68H69.14a0.62,0.62,0,0,1-.63-0.8l0.63-2.71a1.07,1.07,0,0,1,1-.79h0.69a3.4,3.4,0,0,1,1.81.4,1.4,1.4,0,0,1,.61,1.25,2.3,2.3,0,0,1-.94,2m4.51-4.18a3.2,3.2,0,0,0-1.15-1.23,5.17,5.17,0,0,0-1.82-.67,14.39,14.39,0,0,0-2.45-.19H67a1.09,1.09,0,0,0-1,.8L63.08,44.66a0.62,0.62,0,0,0,.62.8h2.1a1.09,1.09,0,0,0,1-.79l0.71-3.1a1.07,1.07,0,0,1,1-.79h0.6a9.87,9.87,0,0,0,6-1.57,4.92,4.92,0,0,0,2.13-4.14,4,4,0,0,0-.4-1.88"/><path class="cls-2" d="M94.07,31.19H92.2a1.07,1.07,0,0,0-1,.72l0,0.07-0.1.47L88.51,44.14c-0.06.28-.1,0.46-0.12,0.5h0a0.61,0.61,0,0,0,.55.77v0H90.9a1.08,1.08,0,0,0,1-.73l0-.07L94.7,32h0a0.62,0.62,0,0,0-.63-0.79"/><path class="cls-2" d="M96.9,33.76l-0.21,0-0.2,0A0.64,0.64,0,0,1,96,33.66a0.76,0.76,0,0,1-.16-0.54V32H95.63V31.75h0.23V31.17H96.2v0.58H96.9V32H96.2V33c0,0.11,0,.19,0,0.25l0.05,0.17,0.11,0.11a0.54,0.54,0,0,0,.22,0l0.18,0,0.13,0h0v0.31Z"/><path class="cls-2" d="M100.28,33.78H99.94V32.37l-0.05-.19-0.12-.12a0.5,0.5,0,0,0-.22,0,0.63,0.63,0,0,0-.29.07,1.67,1.67,0,0,0-.29.18v1.51H98.63V32.37l0-.19-0.12-.12a0.54,0.54,0,0,0-.23,0,0.62,0.62,0,0,0-.28.07,1.64,1.64,0,0,0-.28.17v1.52H97.32v-2h0.34V32A1.57,1.57,0,0,1,98,31.77a0.78,0.78,0,0,1,.34-0.07,0.67,0.67,0,0,1,.35.09,0.54,0.54,0,0,1,.22.24,1.66,1.66,0,0,1,.38-0.25,0.89,0.89,0,0,1,.37-0.08,0.59,0.59,0,0,1,.49.2,0.89,0.89,0,0,1,.16.57v1.32Z"/></svg>