<svg id="Layer_1" data-name="Layer 1" xmlns="http://www.w3.org/2000/svg" viewBox="0 0 125.43 78.39"><defs><style>.cls-1{fill:#008060;}.cls-2{fill:#fff;fill-rule:evenodd;}</style></defs><title>payment-icons</title><rect class="cls-1" width="125.43" height="78.39" rx="4.18" ry="4.18"/><path class="cls-2" d="M100.27,38.45c0-3.2-2.48-9.16-10.5-9.18a11.64,11.64,0,0,0-7.31,2.54V29.54H77.1V31.8a9.61,9.61,0,0,0-4.52-2.4,12.06,12.06,0,0,0-5.53.46,8,8,0,0,0-4,2.53c-2.24-2.5-5.78-3-8.6-3.11-3.21-.12-6.45.28-9,2.12a19.49,19.49,0,0,0-8.91-2.2,12.08,12.08,0,0,0-7.91,2.45,4.61,4.61,0,0,0-1.43,2,5.4,5.4,0,0,0,.39,4.91c1.5,2,3.17,2.78,6.19,3.12,2.65,0.3,4.5.3,6.46,0.66a2,2,0,0,1,1.77,1.87c0,1.18-1.65,3.12-5.65,2.86-3.33-.21-4.59-0.69-7.72-2.72l-3.54,2.86s0.6,0.48,1,.75,0.81,0.51,1.23.73h0A19.81,19.81,0,0,0,39.59,50.8a14.24,14.24,0,0,0,5.54-2.06A10,10,0,0,0,52.44,51c2.66-.12,4.64,0,6.49-2.15V51H64.1V48.86a15.52,15.52,0,0,0,1.39,1c3.29,2,8.52,1.23,11.61-1.13v2.75C77,53.18,75.47,54.34,73.83,55c-2.83,1.13-5.4.12-7.7-1.5l-3.92,2.62a11,11,0,0,0,3.54,2.37,14.05,14.05,0,0,0,12.64-.75c2.26-1.34,3.14-3,3.68-5.51a18,18,0,0,0,.36-3.5v-0.1l0.14,0.1A11.6,11.6,0,0,0,86.1,50.5a14.76,14.76,0,0,0,8.13,0A11.5,11.5,0,0,0,98,48.72h0a12.8,12.8,0,0,0,1.69-1.45l-3.39-2.41A9.77,9.77,0,0,1,91.52,47c-2.25.29-4.8-.12-6.18-1.62-0.74-.81-1-1.06-1-3.11l15.93,0V38.45ZM66.35,39.93c0-1.18.15-2.44,0.28-3.67a3.18,3.18,0,0,1,1.81-1.89A6.76,6.76,0,0,1,74.23,34a3.54,3.54,0,0,1,2.55,2.69c0.1,1.13.22,2.2,0.27,3.23a13,13,0,0,1-.24,3.67,3.42,3.42,0,0,1-1.32,2,5.67,5.67,0,0,1-3.8,1.21c-2.23-.12-4.22-1-4.81-2.24a10.69,10.69,0,0,1-.53-4.57m-9.45,6.85a12.18,12.18,0,0,1-4.78.3c-1.57-.19-3.07-0.3-3.68-1.71a1.94,1.94,0,0,1,.25-2.12c0.81-1,2.69-1.23,3.81-1.24h6.17c0.16,1.61.68,4-1.78,4.78M38.57,38c-2.47-.13-4.75-0.18-6-1.17A1.9,1.9,0,0,1,33,34a7.46,7.46,0,0,1,4.17-.77,12.75,12.75,0,0,1,6.2,2l2.15-2,2.27,2a8,8,0,0,1,6-1.84c3.37,0,4.34.66,4.83,1.4,0.31,0.47,0,3.32,0,3.32s-3,.09-5.12,0a17.49,17.49,0,0,0-4.37.19,7,7,0,0,0-3.66,1.58,13.91,13.91,0,0,0-1.91-1.09c-1.81-.83-3.1-0.68-5-0.78m45.89,0.37a5.33,5.33,0,0,1,.89-3.11,5.93,5.93,0,0,1,5-2.27,6.25,6.25,0,0,1,4.94,2.14,5.13,5.13,0,0,1,1,3.25H84.46Z"/></svg>