<svg id="Layer_1" data-name="Layer 1" xmlns="http://www.w3.org/2000/svg" viewBox="0 0 125.43 78.39"><defs><style>.cls-1{fill:#0033a0;}.cls-2{fill:#fff;}.cls-3{fill:#ff9e16;}.cls-4{fill:#faa634;}</style></defs><title>payment-icons</title><rect class="cls-1" width="125.43" height="78.39" rx="4.18" ry="4.18"/><path class="cls-2" d="M52.89,39.62L47.62,53.83l-0.56-2.89c-1.31-3.54-4.15-7.26-7.46-8.76l4.82,18.25h5.7l8.48-20.81h-5.7Z"/><polygon class="cls-2" points="57.4 60.45 60.77 39.59 66.16 39.59 62.78 60.45 57.4 60.45"/><path class="cls-2" d="M82.32,40.11a13.29,13.29,0,0,0-4.83-.88c-5.33,0-9.07,2.83-9.1,6.88,0,3,2.68,4.67,4.71,5.67s2.8,1.67,2.8,2.59c0,1.4-1.68,2-3.23,2a10.79,10.79,0,0,1-5.06-1.09L66.91,55l-0.75,4.67a16.3,16.3,0,0,0,6,1.11c5.65,0,9.33-2.8,9.37-7.12,0-2.38-1.42-4.18-4.53-5.67-1.88-1-3-1.61-3-2.59s1-1.79,3.08-1.79a9.42,9.42,0,0,1,4,.8l0.48,0.24Z"/><path class="cls-2" d="M96.13,39.62H92a2.66,2.66,0,0,0-2.82,1.73l-8,19.11H86.8s0.92-2.57,1.13-3.14h6.89c0.17,0.73.66,3.12,0.66,3.12h5ZM89.49,53.05c0.45-1.2,2.15-5.83,2.15-5.83s0.44-1.21.72-2L92.71,47l1.25,6H89.49Z"/><path class="cls-3" d="M42.73,39.6H34L34,40c6.75,1.73,11.21,6,13.06,11l-1.89-9.58a2.26,2.26,0,0,0-2.44-1.76"/><polygon class="cls-2" points="17.75 34.57 14.32 34.57 10.36 16.71 14.16 16.08 16.86 30.05 23.77 16.26 27.41 16.26 17.75 34.57"/><path class="cls-2" d="M35.61,28.73H27.42c-0.22,2.48.93,3.57,2.89,3.57a8.54,8.54,0,0,0,4.63-1.59v2.48a9.88,9.88,0,0,1-5.34,1.56c-3.56,0-5.92-2-5.21-6.63C25,24,27.88,21.47,31.21,21.47c3.83,0,5.1,2.88,4.55,6.5,0,0.26-.12.58-0.14,0.77m-4.82-5.07c-1.27,0-2.45,1-3,3.09h5.07c0.09-2-.53-3.09-2.06-3.09"/><path class="cls-2" d="M40.95,27.17l-1.13,7.32H36.65l2-12.76h2.69v2.56a6.05,6.05,0,0,1,4.53-2.83l0,3.14a7,7,0,0,0-4.91,2.56"/><path class="cls-2" d="M45.82,34.49l2-12.76h3.17L49,34.49H45.82Zm3.9-14.9a1.51,1.51,0,0,1-1.62-1.8,2.21,2.21,0,0,1,2.19-1.85,1.53,1.53,0,0,1,1.59,1.85,2.17,2.17,0,0,1-2.15,1.8"/><path class="cls-2" d="M59.73,18.24a1.71,1.71,0,0,0-1.91,1.61l-0.29,1.88H60v2.59H57.13L55.56,34.49H52.42L54,24.32H52.14l0.4-2.59h1.85l0.34-2.19c0.44-2.83,2.39-3.88,5-3.88a7.48,7.48,0,0,1,1.28.1l0,2.59a8,8,0,0,0-1.3-.11"/><path class="cls-2" d="M59.76,34.49l2-12.76h3.17l-2,12.76H59.76Zm3.9-14.9A1.51,1.51,0,0,1,62,17.79a2.21,2.21,0,0,1,2.19-1.85,1.53,1.53,0,0,1,1.59,1.85,2.17,2.17,0,0,1-2.15,1.8"/><path class="cls-2" d="M77.18,28.73H69c-0.22,2.48.93,3.57,2.89,3.57a8.55,8.55,0,0,0,4.63-1.59v2.48a9.88,9.88,0,0,1-5.34,1.56c-3.56,0-5.92-2-5.21-6.63,0.64-4.15,3.51-6.66,6.83-6.66,3.83,0,5.1,2.88,4.55,6.5,0,0.26-.12.58-0.14,0.77m-4.82-5.07c-1.27,0-2.45,1-3,3.09h5.07c0.09-2-.53-3.09-2.06-3.09"/><path class="cls-2" d="M86.57,34.49V32.72a6,6,0,0,1-4.22,2c-2.67,0-4.5-2-3.84-6.29,0.73-4.75,3.67-6.87,6.63-6.87a8.34,8.34,0,0,1,2.89.47L89,15.92l3.25-.5L89.29,34.49H86.57Zm1.06-9.8a4.65,4.65,0,0,0-2.4-.56c-1.66,0-3.09,1.35-3.52,4.15-0.38,2.48.49,3.65,1.9,3.65a4.53,4.53,0,0,0,3.17-1.74Z"/><path class="cls-2" d="M99,34.61A11.31,11.31,0,0,1,95.14,34l2.09-13.55L99.68,20l-0.9,5.86a4.49,4.49,0,0,1,2.94-1.28c2,0,3.41,1.52,2.91,4.76-0.55,3.56-2.74,5.22-5.63,5.22m1.77-7.86A3.54,3.54,0,0,0,98.46,28l-0.67,4.38a3.55,3.55,0,0,0,1.48.26c1.52,0,2.58-.92,2.92-3.12,0.29-1.86-.33-2.78-1.41-2.78"/><path class="cls-2" d="M110.28,35c-1.23,2.38-2.44,3.12-4.3,3.12a3,3,0,0,1-.86-0.1l0-2a4.12,4.12,0,0,0,1.1.14,1.91,1.91,0,0,0,1.72-1l0.32-.64-2-9.52,2.55-.32,1.18,6.88,3.2-6.74h2.38Z"/><path class="cls-4" d="M42.29,40.82l-1.85-9.49a2.35,2.35,0,0,0-2.6-1.9H29.18l-0.1.36a21.28,21.28,0,0,1,8.15,4.09,16.46,16.46,0,0,1,5.06,6.94"/></svg>