<svg id="Layer_1" data-name="Layer 1" xmlns="http://www.w3.org/2000/svg" viewBox="0 0 125.43 78.39"><defs><style>.cls-1{fill:#045ea0;}.cls-2{fill:#faa929;}.cls-2,.cls-3{fill-rule:evenodd;}.cls-3,.cls-4{fill:#fff;}</style></defs><title>payment-icons</title><rect class="cls-1" width="125.43" height="78.39" rx="4.18" ry="4.18"/><path class="cls-2" d="M42.24,44.15a65,65,0,0,1,40.45-4.06l0.18-4.47c-18.61-2-32,3.89-40.63,8.1v0.44Z"/><polygon class="cls-3" points="25.11 47.44 34.05 47.44 34.05 50.13 28.49 50.13 28.46 52.62 34 52.62 34 55.2 28.44 55.2 28.46 57.69 33.94 57.69 33.94 60.39 25.11 60.39 25.11 47.44"/><rect class="cls-4" x="36.3" y="46.35" width="3.25" height="14.03"/><path class="cls-3" d="M50.75,59.32a6.89,6.89,0,0,1-4.29,1.4,4.66,4.66,0,0,1-5-4.84,5.12,5.12,0,0,1,5.07-5.26c3.59,0,4.71,2.55,4.71,5.78H44.75a2,2,0,0,0,2.26,2,4.18,4.18,0,0,0,2.66-.93Zm-2.4-4.83a1.61,1.61,0,0,0-1.55-1.85,2.24,2.24,0,0,0-2,1.85h3.57Z"/><path class="cls-3" d="M61.16,59.75a7.4,7.4,0,0,1-3.46,1c-3,0-5.15-1.72-5.15-4.83a5,5,0,0,1,5.35-5.28,6.67,6.67,0,0,1,3.2.82l-1,2.13a4,4,0,0,0-1.53-.37,2.46,2.46,0,0,0-2.71,2.53,2.39,2.39,0,0,0,2.43,2.41A4.09,4.09,0,0,0,60,57.6Z"/><path class="cls-3" d="M62.36,51h1.47v-3.2H67L66.89,51h2.67l-0.06,2.36H66.83c0,1.31-.09,2.69-0.09,3.5S66.95,58,67.68,58a2.34,2.34,0,0,0,1.2-.45l0.71,2.21a6.37,6.37,0,0,1-3.22.93c-2.64,0-2.77-1.67-2.77-3.83,0-1.16.09-2.32,0.09-3.58h-1.4Z"/><path class="cls-3" d="M71.23,51h3.25v1.33h0a2.69,2.69,0,0,1,2.39-1.59,5,5,0,0,1,1.07.11L77.55,54a3.81,3.81,0,0,0-1.16-.19,2.31,2.31,0,0,0-1.93,1.1l-0.05,5.45H71.16Z"/><path class="cls-3" d="M83.88,50.62c3.48,0,5.28,2.21,5.28,5.05s-1.8,5.05-5.28,5.05-5.28-2.21-5.28-5.05,1.8-5.05,5.28-5.05m0,7.64c1.55,0,2-1.35,2-2.58s-0.47-2.58-2-2.58-2,1.35-2,2.58,0.47,2.58,2,2.58"/><path class="cls-3" d="M90.93,51h3.25v1a4.62,4.62,0,0,1,3.05-1.37c2,0,3.09,1.1,3.09,3.69,0,1.93,0,4,0,6.08H97c0-1.82,0-3.65,0-5.6a1.11,1.11,0,0,0-1.18-1.37,3,3,0,0,0-1.7.86l0,6.1H90.85Z"/><polygon class="cls-3" points="51.89 31.53 56 17.97 59.67 17.97 55.56 31.53 51.89 31.53"/><path class="cls-3" d="M50.25,18l-3.3,5.75a14,14,0,0,0-1.57,3.22h0c0.06-1.21-.11-2.69-0.13-3.53L44.84,18H38.66l-0.06.37a2.56,2.56,0,0,1,2.79,2.43l1.2,10.77h3.8L54.08,18H50.25Z"/><path class="cls-3" d="M78.79,31.53l-0.1-2H74.11l-0.94,2h-4L76.41,18H81.3l1.22,13.54H78.79Zm-0.42-8a31.74,31.74,0,0,1,0-3.19H78.31C78.09,21,77.13,23,76.71,24l-1.37,3h3.22Z"/><path class="cls-3" d="M63.53,31.92A10.25,10.25,0,0,1,58,30.36l1.75-2.67a6.76,6.76,0,0,0,4,1.33,1.7,1.7,0,0,0,1.61-.77c0.51-.88-0.11-1.36-1.55-2.17L63,25.62c-2.12-1.45-3-2.83-2-5.24,0.64-1.54,2.33-2.71,5.11-2.71a8.22,8.22,0,0,1,4.77,1.64l-2,2.36A4.47,4.47,0,0,0,66,20.42a1.71,1.71,0,0,0-1.56.7c-0.38.76,0.12,1.27,1.24,2l0.84,0.54c2.58,1.63,3.2,3.33,2.55,4.93C68,31.3,65.8,31.92,63.53,31.92"/></svg>