<svg id="Layer_1" data-name="Layer 1" xmlns="http://www.w3.org/2000/svg" viewBox="0 0 125.43 78.39"><defs><style>.cls-1{fill:#203c73;}.cls-2{fill:#fff;}</style></defs><title>payment-icons</title><rect class="cls-1" width="125.43" height="78.39" rx="4.18" ry="4.18"/><path class="cls-2" d="M39.61,45.13h-2.7a107.91,107.91,0,0,1-2.84-11c-0.85,3.65-1.81,7.32-2.8,11H28.69l-3.53-13.6H27.5a98.31,98.31,0,0,1,2.62,10.94c0.56-1.94,1-4,1.51-6L33,31.53h2.4a98.9,98.9,0,0,1,2.92,10.88c0.56-1.86.89-3.95,1.37-5.86l1.25-5h2.19l-3.53,13.6"/><path class="cls-2" d="M47.1,45.33a4.2,4.2,0,0,1-4.3-2.91,6.21,6.21,0,0,1,1.31-6.22,5.24,5.24,0,0,1,5.71-.8c2,1,2.48,3.46,2.19,5.48a5,5,0,0,1-4.91,4.45m0.22-8.6c-3.49,0-3.56,6.79,0,6.75s3.56-6.75,0-6.75"/><path class="cls-2" d="M58.41,37c-3.89-.75-3,5.8-3,8.08H53.29v-10h2.06a12.32,12.32,0,0,1-.2,2.22,8,8,0,0,1,1.08-1.7,2.88,2.88,0,0,1,2.29-.7L58.41,37"/><path class="cls-2" d="M59.66,45.13h2.16V31.4a5.89,5.89,0,0,0-2.08,0,0.82,0.82,0,0,0-.08.6V45.13Z"/><path class="cls-2" d="M70,45.13a12.05,12.05,0,0,1,.14-1.87,5,5,0,0,1-1.89,1.81,4,4,0,0,1-2.68.07c-1.68-.56-2.3-2.31-2.41-3.94a6.22,6.22,0,0,1,1.54-4.87C66.13,34.93,68,34.9,69.9,35V31.4H72V45.13H70m-0.1-8.28c-1.82-.4-3.68-0.17-4.26,1.84-0.4,1.38-.53,4.33,1.28,4.81,2.06,0.55,2.94-2,3-3.56C69.93,38.91,69.9,37.88,69.9,36.85Z"/><path class="cls-2" d="M76.81,40.15a8.92,8.92,0,0,1-1,0v5H73.61V32.63a3.5,3.5,0,0,1,0-1.1c0.27-.28,2.14-0.07,2.56-0.08a10.81,10.81,0,0,1,2.76.2,4,4,0,0,1,2.86,2.24c1.43,3.43-1.71,6.27-5,6.27m0.12-6.91a9.67,9.67,0,0,0-1.13,0v4.34c0,0.55-.15.64,0.48,0.69,1.6,0.13,3.36-.55,3.52-2.35s-1.2-2.73-2.87-2.73"/><path class="cls-2" d="M88.31,45.13c0-.62.07-1.27,0.08-1.87-1.16,2.85-6.14,2.79-6.13-.71,0-2.94,3.65-3.49,5.91-3.49,0-.87,0-1.81-0.85-2.26-1.19-.6-3-0.07-4.1.51a5,5,0,0,1-.42-1.71,4.75,4.75,0,0,1,1.88-.53,10,10,0,0,1,2.23-.15C89,35,90.32,36.08,90.32,38.24s0,4.6.06,6.89H88.31m-0.14-4.62c-1.2,0-4.47.19-3.75,2.25,0.41,1.17,1.93,1,2.72.35A3.2,3.2,0,0,0,88.17,40.51Z"/><path class="cls-2" d="M96.15,45.84a7.41,7.41,0,0,1-2.43,3.74,5.07,5.07,0,0,1-3.7.52l0.24-1.87a2.71,2.71,0,0,0,2.89-.59,5.11,5.11,0,0,0,1.18-2.45,8.78,8.78,0,0,0-.93-2.56l-2.81-7.5H93c0.85,2.38,1.77,4.75,2.42,7.19,0.53-1.29.88-2.75,1.35-4.1l1.09-3.1h2.32L96.15,45.84"/><path class="cls-2" d="M96.88,31.58H96.16V31.32h1.73v0.26H97.17V33.5C96.63,33.66,96.88,32,96.88,31.58Z"/><path class="cls-2" d="M98.19,31.32h0.43c0.21,0.62.46,1.24,0.61,1.87,0.22-.61.43-1.25,0.64-1.87h0.38V33.5H100V31.68h0L99.36,33.5H99.1l-0.62-1.85h0V33.5H98.19V31.32"/></svg>