<?xml version="1.0" encoding="utf-8"?>
<!-- Generator: Adobe Illustrator 18.1.1, SVG Export Plug-In . SVG Version: 6.00 Build 0)  -->
<svg version="1.1" id="Layer_1" xmlns="http://www.w3.org/2000/svg" xmlns:xlink="http://www.w3.org/1999/xlink" x="0px" y="0px"
	 viewBox="0 0 32 32" enable-background="new 0 0 32 32" xml:space="preserve">
<path fill="#FFFFFF" d="M28.4,11.8H15.2c-0.5,0-0.8-0.4-0.8-0.8c0-0.5,0.4-0.8,0.8-0.8h11.1c-0.7-0.8-1.2-1.7-1.6-2.7
	c-5.8,0-11.5,0-17.3,0c-0.2,0-0.3,0-0.5,0C6.7,6.4,6.3,5.3,6,4.2C5.8,3.8,5.6,3.5,5.2,3.4c-1.3-0.4-2.7-0.8-4-1.1
	c-0.5-0.1-0.9,0-1,0.4C0,3.2,0.2,3.5,0.8,3.7C1.9,4,3,4.4,4.2,4.7c0.3,0.1,0.5,0.2,0.6,0.5c1.4,4.2,2.7,8.4,4.2,12.5
	c0.4,1.2,0.5,2.3,0,3.5c-0.2,0.4-0.3,0.6-0.8,0.7c-2.1,0.3-3.6,2.4-3.3,4.5c0.3,1.9,1.8,3.3,3.7,3.4c1.9,0.1,3.6-1.1,4.1-2.9
	c0.1-0.3,0.2-0.3,0.4-0.3c2,0,3.9,0,5.9,0c0.7,0,1.3,0,2,0c0.7,2.2,2.4,3.5,4.3,3.2c2-0.3,3.5-1.8,3.6-3.8c0.1-1.9-1.2-3.7-3.1-4.1
	c-0.9-0.2-1.8-0.1-2.6,0.3c-1.2,0.6-1.8,1.6-2.1,2.8c-2.7,0-5.3,0-8,0c-0.1,0-0.3-0.2-0.3-0.3c-0.3-1.1-1-1.9-2-2.5
	c-0.1-0.1-0.3-0.1-0.4-0.2c0.2-0.6,0.4-1.3,0.6-1.9c0.2,0,0.3,0,0.5,0c5.6,0,11.2,0,16.9,0c0.1,0,0.3,0,0.4,0c0.8,0,1.4-0.5,1.6-1.3
	c0-0.2,0.1-0.4,0.1-0.6c0.5-1.9,1.1-3.7,1.6-5.6C30.7,12.7,29.5,12.4,28.4,11.8z M24.9,23.3c1.4,0,2.5,1.1,2.5,2.5
	c0,1.4-1.1,2.5-2.5,2.5c-1.4,0-2.5-1.1-2.5-2.5C22.4,24.4,23.5,23.3,24.9,23.3z M11.3,25.8c0,1.4-1.1,2.5-2.5,2.5
	c-1.4,0-2.5-1.1-2.5-2.5c0-1.4,1.1-2.5,2.5-2.5C10.2,23.3,11.3,24.4,11.3,25.8z M27,17.6H13.3c-0.5,0-0.8-0.4-0.8-0.8
	c0-0.5,0.4-0.8,0.8-0.8H27c0.5,0,0.8,0.4,0.8,0.8C27.8,17.2,27.4,17.6,27,17.6z M27.8,14.7H14.3c-0.5,0-0.8-0.4-0.8-0.8
	c0-0.5,0.4-0.8,0.8-0.8h13.6c0.5,0,0.8,0.4,0.8,0.8C28.7,14.3,28.3,14.7,27.8,14.7z"/>
</svg>
