<?xml version="1.0" encoding="utf-8"?>
<!-- Generator: Adobe Illustrator 19.1.0, SVG Export Plug-In . SVG Version: 6.00 Build 0)  -->
<svg version="1.1" id="Layer_1" xmlns="http://www.w3.org/2000/svg" xmlns:xlink="http://www.w3.org/1999/xlink" x="0px" y="0px"
	 viewBox="-461 322 100 86.8" style="enable-background:new -461 322 100 86.8;" xml:space="preserve">
<style type="text/css">
	.st0{fill:#FFFFFF;}
</style>
<g>
	<path class="st0" d="M-392,333.9c0.7,0,1.3-0.3,1.8-0.7c0.5-0.5,0.7-1.1,0.7-1.8c0-0.7-0.3-1.3-0.7-1.8c-0.5-0.5-1.1-0.7-1.8-0.7
		s-1.3,0.3-1.8,0.7c-1,1-1,2.6,0,3.5C-393.3,333.6-392.6,333.9-392,333.9z M-392.8,330.5c0.2-0.2,0.5-0.3,0.8-0.3
		c0.3,0,0.6,0.1,0.8,0.3c0.2,0.2,0.3,0.5,0.3,0.8c0,0.3-0.1,0.6-0.3,0.8c-0.2,0.2-0.5,0.3-0.8,0.3s-0.6-0.1-0.8-0.3
		C-393.2,331.7-393.2,331-392.8,330.5z"/>
	<path class="st0" d="M-432.5,377.1c-1,1-1,2.6,0,3.5c0.5,0.5,1.1,0.7,1.8,0.7c0.7,0,1.3-0.3,1.8-0.7c0.5-0.5,0.7-1.1,0.7-1.8
		c0-0.7-0.3-1.3-0.7-1.8c-0.5-0.5-1.1-0.7-1.8-0.7C-431.4,376.4-432,376.6-432.5,377.1z M-429.6,378.9c0,0.3-0.1,0.6-0.3,0.8
		c-0.2,0.2-0.5,0.3-0.8,0.3c-0.3,0-0.6-0.1-0.8-0.3c-0.4-0.4-0.4-1.2,0-1.6c0.2-0.2,0.5-0.3,0.8-0.3c0.3,0,0.6,0.1,0.8,0.3
		C-429.7,378.3-429.6,378.6-429.6,378.9z"/>
	<path class="st0" d="M-440.1,385.7c-0.7,0-1.3,0.3-1.8,0.7c-0.5,0.5-0.7,1.1-0.7,1.8c0,0.7,0.3,1.3,0.7,1.8
		c0.5,0.5,1.1,0.7,1.8,0.7s1.3-0.3,1.8-0.7c0.5-0.5,0.7-1.1,0.7-1.8c0-0.7-0.3-1.3-0.7-1.8C-438.8,386-439.4,385.7-440.1,385.7z
		 M-439.3,389c-0.2,0.2-0.5,0.3-0.8,0.3s-0.6-0.1-0.8-0.3c-0.2-0.2-0.3-0.5-0.3-0.8s0.1-0.6,0.3-0.8c0.2-0.2,0.5-0.3,0.8-0.3
		c0.3,0,0.6,0.1,0.8,0.3c0.2,0.2,0.3,0.5,0.3,0.8S-439,388.8-439.3,389z"/>
	<path class="st0" d="M-450,395.7c-0.7,0-1.3,0.3-1.8,0.7c-0.5,0.5-0.7,1.1-0.7,1.8s0.3,1.3,0.7,1.8c0.5,0.5,1.1,0.7,1.8,0.7
		c0.7,0,1.3-0.3,1.8-0.7c0.5-0.5,0.7-1.1,0.7-1.8s-0.3-1.3-0.7-1.8C-448.7,395.9-449.3,395.7-450,395.7z M-449.2,399
		c-0.2,0.2-0.5,0.3-0.8,0.3c-0.3,0-0.6-0.1-0.8-0.3c-0.2-0.2-0.3-0.5-0.3-0.8s0.1-0.6,0.3-0.8c0.2-0.2,0.5-0.3,0.8-0.3
		c0.3,0,0.6,0.1,0.8,0.3c0.2,0.2,0.3,0.5,0.3,0.8S-449,398.8-449.2,399z"/>
	<path class="st0" d="M-364.3,338.8c-0.1-0.1-12.6-6.8-22.2-13.9c-3.3-2.4-5.7-3.2-7.9-2.7c-3.4,0.8-5.2,4.6-8.1,10.2
		c-1.2,2.4-2.6,5.2-4.3,8.2c-7.5,12.9-21.8,29.2-23,30.5c-1.6,1.2-19.1,15.1-27.3,25.6c-1.7,2.2-3.5,5.4-2,8.3
		c1.4,2.8,5,3.8,7.7,3.8c1.2,0,3.4-0.2,4.4-1.6c0.5-0.6,0.6-1.4,0.4-2.1c-0.6-1.9,3.2-5.2,6.5-8.1c1.3-1.2,2.7-2.4,3.9-3.5
		c4.8-4.6,13.4-14.7,13.7-15.1l0.6-0.7c0.6-0.5,1.2-0.8,1.7-0.8c0.8,0,1.5,0.6,1.5,0.6l12.1,12.9l1-0.8
		c22.7-18.4,41.7-48.6,41.9-48.9l0.8-1.2L-364.3,338.8z M-438.2,391.5c-1.2,1.1-2.5,2.3-3.8,3.4c-4.3,3.7-8.3,7.2-7.4,10.8
		c-0.3,0.2-1,0.4-2.1,0.4c-2,0-4.5-0.7-5.3-2.3c-0.8-1.6,0.5-3.9,1.7-5.4c7.1-9.1,22.1-21.3,26-24.4l3.6,3.6
		C-427.7,380.1-434.3,387.7-438.2,391.5z M-406.5,386.5l-10.3-11.2c-0.1-0.2-1.4-1.7-3.4-1.7c0,0,0,0,0,0c-1.2,0-2.4,0.7-3.5,1.7
		l-3.3-3.3c3.3-3.8,15.7-18.2,22.5-30c1.8-3.1,3.2-5.9,4.4-8.4c2.4-4.8,4.1-8.3,6.3-8.8c1.3-0.3,3.2,0.4,5.7,2.2
		c8,5.9,17.8,11.5,21.3,13.4C-370.6,346.1-387.1,370.5-406.5,386.5z"/>
	<path class="st0" d="M-407,381.6c-0.3,0.3-0.3,0.7,0,1c0.1,0.1,0.3,0.2,0.5,0.2c0.2,0,0.3-0.1,0.5-0.2
		c22.5-20.8,34.2-40.6,34.3-40.8c0.2-0.3,0.1-0.7-0.2-0.9c-0.3-0.2-0.7-0.1-0.9,0.2C-373,341.3-384.6,360.9-407,381.6z"/>
</g>
</svg>
