<svg xmlns="http://www.w3.org/2000/svg" width="585.1" height="394.6" viewBox="-1.8 223.3 585.1 394.6"><path fill="#FFDB17" d="M101.5 506.5l12.7-59.5-23-108c-3.6-17-20.4-30.8-37.4-30.8H-1.8l42.2 198.4c3.1 14.7 15.8 30.1 30.5 30.1s27.4-15.5 30.6-30.2z"/><path fill="#06B6ED" d="M216.8 306.7c-3.2-15.1-16.6-30.3-31.5-30.3s-28.3 15.2-31.5 30.3l-42.5 199.8c-3.6 17-20.4 30.8-37.4 30.8h102.7c17 0 33.8-13.8 37.4-30.8l22.6-106.3-19.8-93.5z"/><path fill="#F42C8C" d="M360.5 587.1l70.8-333c3.6-17 20.4-30.8 37.4-30.8h114.6l-85.5 363.8c-3.6 17-20.4 30.8-37.4 30.8H323.2c17 0 33.7-13.8 37.3-30.8z"/><path fill="#50DD50" d="M347.4 587.1l34.8-163.7-24.8-116.8c-3.6-17-20.4-30.8-37.4-30.8H191c17 0 33.8 13.8 37.4 30.8L288 587c3.1 14.4 15.7 29.9 29.7 29.9 14.1.1 26.6-15.3 29.7-29.8z"/><path d="M65.7 569.2c2.7 0 4.4 1.6 4.4 4s-1.7 4.1-4.4 4.1-4.4-1.7-4.4-4.1c0-2.4 1.7-4 4.4-4zm-4 12.4c.7 0 4.8-.1 8-.5v24.2c0 3.4.2 6.3.5 7h-8.6c.1.1.1-30.7.1-30.7zm12.8-10.5v-.5h8.9l4.2 19.6c1.5 6.9 2.4 12 2.6 14h.2c.2-2 1.1-7.2 2.8-14l4.8-19.6h8l4.7 19.7c1.6 6.7 2.6 11.9 2.7 13.7h.2c.2-1.7 1.1-7 2.6-13.7l4.4-19.7h7.1v.5l-10.2 41.3h-8.9l-4-16.6c-1.6-6.6-2.8-12.6-3-15h-.2c-.3 2.3-1.7 8.5-3.3 15l-4.2 16.6h-9.3l-10.1-41.3zm75 32.5c2.1 0 5.2.4 6.6 1.1-1.4 4.9-5.1 8.5-12.6 8.5-10 0-14.7-6.5-14.7-16.4 0-9.8 4.9-16 14.4-16 9.6 0 13.5 6.5 13.5 14.5 0 .8-.1 2.1-.2 2.9h-19.1c.2 7.3 2.1 10.7 6.1 10.7 3.8 0 4.8-3.5 5.2-5.2l.8-.1zm-1-9.6c0-5.9-1.3-9-5.3-9-3.6 0-5.4 2.7-5.7 9h11zm13.8-23.6c1 0 5.4-.1 8-.5v14.6c1.7-2 4.3-3.6 8.2-3.6 8.2 0 11.7 6.6 11.7 16.1s-3.5 16.1-11.7 16.1c-4 0-6.7-1.7-8.5-3.8v3h-7.7v-41.9zm8 35.6c1.3 1.3 3.1 2 5 2 4.6 0 6.1-3.3 6.1-11.1s-1.6-11-6.1-11c-1.8 0-3.7.7-5 2V606z" fill="#303030"/></svg>