<svg xmlns="http://www.w3.org/2000/svg" xmlns:xlink="http://www.w3.org/1999/xlink" version="1.1" x="0px" y="0px" viewBox="0 0 100 125" enable-background="new 0 0 100 100" xml:space="preserve"><g><path fill="#000000" d="M69.021,19.245c0.668,0,1.295-0.26,1.767-0.731s0.73-1.099,0.73-1.766c0.001-0.667-0.259-1.294-0.73-1.766   s-1.099-0.731-1.766-0.731s-1.294,0.26-1.766,0.731c-0.974,0.974-0.974,2.558,0,3.532C67.728,18.985,68.354,19.245,69.021,19.245z    M68.21,15.936c0.217-0.217,0.505-0.336,0.812-0.336c0.306,0,0.595,0.119,0.812,0.336c0.217,0.217,0.336,0.504,0.336,0.811   c-0.001,0.307-0.119,0.595-0.336,0.811c-0.217,0.217-0.506,0.336-0.812,0.336c-0.306,0-0.594-0.119-0.811-0.335   C67.763,17.112,67.763,16.384,68.21,15.936z"/><path fill="#000000" d="M28.509,62.508c-0.973,0.974-0.973,2.558,0,3.532c0.472,0.472,1.099,0.73,1.765,0.73   c0.667,0,1.294-0.26,1.766-0.731c0.472-0.471,0.732-1.099,0.732-1.765c0-0.668-0.26-1.295-0.731-1.766   c-0.472-0.473-1.099-0.732-1.766-0.732C29.608,61.776,28.981,62.036,28.509,62.508z M31.423,64.273c0,0.307-0.12,0.595-0.336,0.812   s-0.505,0.336-0.812,0.336c-0.306,0-0.594-0.119-0.811-0.336c-0.448-0.447-0.448-1.175,0-1.623   c0.216-0.217,0.505-0.336,0.811-0.336c0.307,0,0.595,0.119,0.812,0.336C31.303,63.679,31.423,63.968,31.423,64.273z"/><path fill="#000000" d="M20.922,71.129c-0.667,0-1.294,0.26-1.765,0.731c-0.472,0.472-0.732,1.099-0.732,1.766   s0.26,1.294,0.732,1.766c0.472,0.472,1.098,0.732,1.765,0.732s1.294-0.261,1.766-0.732s0.731-1.099,0.731-1.766   s-0.26-1.294-0.731-1.766S21.59,71.129,20.922,71.129z M21.734,74.438c-0.217,0.217-0.505,0.337-0.812,0.337   s-0.595-0.12-0.811-0.337c-0.217-0.217-0.336-0.505-0.336-0.812s0.12-0.594,0.336-0.811s0.505-0.337,0.811-0.337   c0.307,0,0.595,0.12,0.812,0.337c0.216,0.217,0.336,0.504,0.336,0.811S21.951,74.221,21.734,74.438z"/><path fill="#000000" d="M10.997,81.054c-0.667,0-1.294,0.26-1.765,0.731C8.76,82.257,8.5,82.884,8.5,83.551s0.26,1.295,0.732,1.767   c0.472,0.472,1.098,0.731,1.765,0.731s1.294-0.261,1.766-0.732s0.731-1.099,0.731-1.766c0-0.667-0.259-1.294-0.731-1.765   C12.292,81.313,11.665,81.054,10.997,81.054z M11.809,84.362c-0.217,0.217-0.505,0.337-0.812,0.337   c-0.306,0-0.594-0.12-0.811-0.336c-0.217-0.217-0.336-0.506-0.336-0.812c0-0.306,0.12-0.594,0.336-0.811s0.505-0.336,0.811-0.336   c0.307,0,0.595,0.119,0.812,0.336s0.336,0.505,0.336,0.811C12.145,83.857,12.025,84.146,11.809,84.362z"/><path fill="#000000" d="M96.678,24.193c-0.124-0.067-12.555-6.805-22.229-13.937c-3.266-2.407-5.708-3.242-7.923-2.708   c-3.379,0.815-5.24,4.554-8.058,10.214c-1.219,2.449-2.602,5.225-4.346,8.237c-7.481,12.922-21.829,29.177-22.975,30.468   C29.57,57.706,12.004,71.613,3.824,82.029c-1.712,2.179-3.457,5.385-2.049,8.279c1.379,2.836,5.008,3.843,7.697,3.843   c1.206,0,3.38-0.203,4.387-1.562c0.459-0.62,0.586-1.375,0.357-2.127c-0.59-1.935,3.203-5.215,6.548-8.109   c1.336-1.155,2.718-2.351,3.945-3.548c4.754-4.64,13.371-14.703,13.736-15.13l0.576-0.673c0.599-0.51,1.177-0.777,1.727-0.788   c0.846-0.021,1.47,0.608,1.476,0.615L54.3,75.741l0.977-0.792C77.938,56.592,96.99,26.399,97.18,26.097l0.765-1.22L96.678,24.193z    M22.825,76.872c-1.169,1.141-2.52,2.31-3.826,3.439c-4.278,3.7-8.323,7.199-7.417,10.75c-0.277,0.162-0.982,0.391-2.109,0.391   c-1.994,0-4.493-0.728-5.27-2.324c-0.797-1.639,0.508-3.858,1.744-5.432c7.125-9.071,22.136-21.321,26.026-24.437l3.607,3.606   C33.28,65.529,26.655,73.134,22.825,76.872z M54.549,71.927L44.208,60.742C44.069,60.59,42.799,59,40.784,59   c-0.007,0-0.016,0-0.023,0c-1.228,0-2.41,0.663-3.53,1.699l-3.305-3.306c3.318-3.798,15.702-18.246,22.534-30.045   c1.786-3.086,3.188-5.907,4.426-8.392c2.391-4.803,4.118-8.28,6.275-8.801c1.331-0.321,3.19,0.4,5.687,2.241   c7.99,5.891,17.814,11.475,21.272,13.402C90.413,31.474,73.888,55.896,54.549,71.927z"/><path fill="#000000" d="M54.044,66.979c-0.273,0.254-0.289,0.68-0.036,0.954c0.133,0.144,0.313,0.217,0.495,0.217   c0.164,0,0.328-0.06,0.458-0.181c22.495-20.822,34.175-40.612,34.29-40.81c0.188-0.322,0.079-0.735-0.242-0.923   c-0.321-0.188-0.735-0.08-0.923,0.242C87.971,26.674,76.382,46.301,54.044,66.979z"/></g><text x="0" y="115" fill="#000000" font-size="5px" font-weight="bold" font-family="'Helvetica Neue', Helvetica, Arial-Unicode, Arial, Sans-serif">Created by Ryan Beck</text><text x="0" y="120" fill="#000000" font-size="5px" font-weight="bold" font-family="'Helvetica Neue', Helvetica, Arial-Unicode, Arial, Sans-serif">from the Noun Project</text></svg>