<?xml version="1.0" encoding="UTF-8" standalone="no"?>
<svg width="50px" height="50px" viewBox="0 0 50 50" version="1.1" xmlns="http://www.w3.org/2000/svg" xmlns:xlink="http://www.w3.org/1999/xlink">
    <!-- Generator: Sketch 3.8.3 (29802) - http://www.bohemiancoding.com/sketch -->
    <title>burger</title>
    <desc>Created with Sketch.</desc>
    <defs></defs>
    <g id="Page-1" stroke="none" stroke-width="1" fill-rule="evenodd">
        <g id="burger">
            <path d="M2.5,13 L47.5,13 C48.8807119,13 50,14.1192881 50,15.5 C50,16.8807119 48.8807119,18 47.5,18 L2.5,18 C1.11928813,18 0,16.8807119 0,15.5 C0,14.1192881 1.11928813,13 2.5,13 L2.5,13 Z M2.5,23 L47.5,23 C48.8807119,23 50,24.1192881 50,25.5 C50,26.8807119 48.8807119,28 47.5,28 L2.5,28 C1.11928813,28 0,26.8807119 0,25.5 C0,24.1192881 1.11928813,23 2.5,23 L2.5,23 Z M2.5,33 L47.5,33 C48.8807119,33 50,34.1192881 50,35.5 C50,36.8807119 48.8807119,38 47.5,38 L2.5,38 C1.11928813,38 0,36.8807119 0,35.5 C0,34.1192881 1.11928813,33 2.5,33 L2.5,33 Z"></path>
        </g>
    </g>
</svg>
