<?xml version="1.0" encoding="utf-8"?>
<!-- Generated by IcoMoon.io -->
<!DOCTYPE svg PUBLIC "-//W3C//DTD SVG 1.1//EN" "http://www.w3.org/Graphics/SVG/1.1/DTD/svg11.dtd">
<svg version="1.1" xmlns="http://www.w3.org/2000/svg" xmlns:xlink="http://www.w3.org/1999/xlink" width="16" height="16" viewBox="0 0 16 16">
<path fill="#000000" d="M12.703 6l-2.779-3.618c0.049-0.118 0.076-0.247 0.076-0.382 0-0.552-0.448-1-1-1s-1 0.448-1 1 0.448 1 1 1c0.044 0 0.088-0.003 0.131-0.009l2.311 3.009h-6.884l2.311-3.009c0.043 0.006 0.086 0.009 0.131 0.009 0.552 0 1-0.448 1-1s-0.448-1-1-1-1 0.448-1 1c0 0.135 0.027 0.265 0.076 0.382l-2.779 3.618h-3.297v2h1l1 8h12l1-8h1v-2h-3.297zM5 14h-2v-2h2v2zM5 10h-2v-2h2v2zM9 14h-2v-2h2v2zM9 10h-2v-2h2v2zM13 14h-2v-2h2v2zM13 10h-2v-2h2v2z"></path>
</svg>
