<?xml version="1.0" encoding="utf-8"?>
<!-- Generated by IcoMoon.io -->
<!DOCTYPE svg PUBLIC "-//W3C//DTD SVG 1.1//EN" "http://www.w3.org/Graphics/SVG/1.1/DTD/svg11.dtd">
<svg version="1.1" xmlns="http://www.w3.org/2000/svg" xmlns:xlink="http://www.w3.org/1999/xlink" width="16" height="16" viewBox="0 0 16 16">
<path fill="#000000" d="M11.125 15.367c0.084-0.036 0.167-0.073 0.25-0.112v-1.699c-0.082 0.050-0.166 0.098-0.25 0.144v1.666z"></path>
<path fill="#000000" d="M11.625 15.133c0.084-0.043 0.167-0.088 0.25-0.133v-1.781c-0.082 0.061-0.165 0.12-0.25 0.177v1.737z"></path>
<path fill="#000000" d="M12.125 14.856c0.084-0.051 0.168-0.104 0.25-0.157v-1.891c-0.081 0.074-0.165 0.146-0.25 0.216v1.832z"></path>
<path fill="#000000" d="M14.625 12.485c0.087-0.128 0.17-0.26 0.25-0.393v-8.184c-0.080-0.134-0.163-0.265-0.25-0.393v8.971z"></path>
<path fill="#000000" d="M8.875 14.441c-0.083 0.011-0.166 0.021-0.25 0.029v1.493h-0.25v-1.474c-0.083 0.005-0.166 0.008-0.25 0.009v1.464h-0.25v-1.464c-0.084-0.002-0.167-0.005-0.25-0.009v1.474h-0.25v-1.493c-0.084-0.008-0.167-0.018-0.25-0.029v1.511c0.287 0.031 0.579 0.048 0.875 0.048s0.588-0.017 0.875-0.048v-1.511z"></path>
<path fill="#000000" d="M13.125 14.143c0.085-0.071 0.168-0.143 0.25-0.217v-2.27c-0.080 0.117-0.163 0.231-0.25 0.342v2.144z"></path>
<path fill="#000000" d="M13.625 13.688c0.085-0.084 0.169-0.171 0.25-0.259v-2.645c-0.077 0.162-0.16 0.321-0.25 0.475v2.429z"></path>
<path fill="#000000" d="M10.625 15.559c0.084-0.029 0.167-0.060 0.25-0.092v-1.637c-0.082 0.041-0.166 0.080-0.25 0.117v1.611z"></path>
<path fill="#000000" d="M15.625 5.574v4.852c0.104-0.328 0.188-0.665 0.25-1.010v-2.833c-0.062-0.345-0.146-0.682-0.25-1.010z"></path>
<path fill="#000000" d="M15.125 11.642c0.090-0.175 0.173-0.354 0.25-0.537v-6.21c-0.077-0.182-0.16-0.361-0.25-0.537v7.283z"></path>
<path fill="#000000" d="M9.125 15.921c0.084-0.012 0.167-0.025 0.25-0.039v-1.528c-0.083 0.018-0.166 0.034-0.25 0.049v1.518z"></path>
<path fill="#000000" d="M10.125 15.714c0.084-0.023 0.167-0.047 0.25-0.073v-1.589c-0.082 0.032-0.166 0.063-0.25 0.092v1.57z"></path>
<path fill="#000000" d="M9.625 15.835c0.084-0.017 0.167-0.036 0.25-0.056v-1.553c-0.083 0.025-0.166 0.049-0.25 0.070v1.539z"></path>
<path fill="#000000" d="M14.125 10.18v2.966c0.086-0.102 0.169-0.206 0.25-0.313v-3.56c-0.062 0.311-0.146 0.613-0.25 0.907z"></path>
<path fill="#000000" d="M6.125 15.778c0.083 0.020 0.166 0.039 0.25 0.056v-1.54c-0.084-0.022-0.167-0.045-0.25-0.070v1.553z"></path>
<path fill="#000000" d="M5.625 15.642c0.083 0.026 0.166 0.050 0.25 0.073v-1.57c-0.084-0.029-0.168-0.060-0.25-0.092v1.589z"></path>
<path fill="#000000" d="M6.625 14.354v1.528c0.083 0.014 0.166 0.027 0.25 0.039v-1.518c-0.084-0.015-0.167-0.031-0.25-0.049z"></path>
<path fill="#000000" d="M5.125 15.467c0.083 0.032 0.166 0.062 0.25 0.092v-1.611c-0.084-0.037-0.168-0.076-0.25-0.117v1.637z"></path>
<path fill="#000000" d="M2.375 4.741v-2.429c-0.085 0.084-0.169 0.171-0.25 0.259v2.645c0.077-0.162 0.16-0.321 0.25-0.475z"></path>
<path fill="#000000" d="M13.625 4.741c0.090 0.154 0.173 0.313 0.25 0.475v-2.645c-0.081-0.088-0.165-0.174-0.25-0.259v2.429z"></path>
<path fill="#000000" d="M2.625 13.925c0.082 0.074 0.165 0.146 0.25 0.217v-2.144c-0.087-0.111-0.17-0.226-0.25-0.342v2.27z"></path>
<path fill="#000000" d="M1.625 12.833c0.081 0.106 0.164 0.211 0.25 0.313v-2.966c-0.104-0.293-0.188-0.596-0.25-0.907v3.56z"></path>
<path fill="#000000" d="M4.625 15.255c0.083 0.039 0.166 0.076 0.25 0.112v-1.666c-0.084-0.046-0.168-0.094-0.25-0.144v1.699z"></path>
<path fill="#000000" d="M2.125 13.429c0.081 0.088 0.165 0.174 0.25 0.259v-2.429c-0.090-0.154-0.173-0.313-0.25-0.475v2.645z"></path>
<path fill="#000000" d="M3.125 14.343c0.082 0.063 0.165 0.125 0.25 0.185v-1.962c-0.086-0.087-0.169-0.176-0.25-0.268v2.044z"></path>
<path fill="#000000" d="M4.125 15c0.083 0.046 0.166 0.090 0.25 0.133v-1.737c-0.085-0.057-0.168-0.116-0.25-0.177v1.781z"></path>
<path fill="#000000" d="M3.625 14.698c0.082 0.054 0.166 0.107 0.25 0.157v-1.832c-0.085-0.070-0.169-0.142-0.25-0.216v1.891z"></path>
<path fill="#000000" d="M12.625 14.528c0.085-0.060 0.168-0.122 0.25-0.185v-2.044c-0.081 0.092-0.164 0.181-0.25 0.268v1.962z"></path>
<path fill="#000000" d="M14.125 5.82c0.104 0.293 0.188 0.596 0.25 0.907v-3.56c-0.081-0.106-0.164-0.211-0.25-0.313v2.966z"></path>
<path fill="#000000" d="M4.125 2.781c0.082-0.061 0.165-0.12 0.25-0.177v-1.737c-0.084 0.043-0.167 0.088-0.25 0.133v1.781z"></path>
<path fill="#000000" d="M5.125 2.169c0.082-0.041 0.166-0.080 0.25-0.117v-1.611c-0.084 0.029-0.167 0.060-0.25 0.092v1.637z"></path>
<path fill="#000000" d="M4.625 2.444c0.082-0.050 0.166-0.098 0.25-0.144v-1.666c-0.084 0.036-0.167 0.073-0.25 0.112v1.699z"></path>
<path fill="#000000" d="M6.625 1.646c0.083-0.018 0.166-0.034 0.25-0.049v-1.518c-0.084 0.012-0.167 0.025-0.25 0.039v1.528z"></path>
<path fill="#000000" d="M5.625 1.948c0.082-0.032 0.166-0.063 0.25-0.092v-1.57c-0.084 0.023-0.167 0.047-0.25 0.073v1.589z"></path>
<path fill="#000000" d="M6.125 1.775c0.083-0.025 0.166-0.049 0.25-0.070v-1.539c-0.084 0.017-0.167 0.036-0.25 0.056v1.553z"></path>
<path fill="#000000" d="M0.625 11.105c0.077 0.182 0.16 0.361 0.25 0.537v-7.283c-0.090 0.175-0.173 0.354-0.25 0.537v6.21z"></path>
<path fill="#000000" d="M3.125 3.701c0.081-0.092 0.164-0.181 0.25-0.268v-1.962c-0.085 0.060-0.168 0.122-0.25 0.185v2.044z"></path>
<path fill="#000000" d="M1.125 12.092c0.080 0.134 0.163 0.265 0.25 0.393v-8.971c-0.087 0.128-0.17 0.26-0.25 0.393v8.184z"></path>
<path fill="#000000" d="M0.125 9.416c0.062 0.345 0.146 0.682 0.25 1.010v-4.852c-0.104 0.328-0.188 0.665-0.25 1.010v2.833z"></path>
<path fill="#000000" d="M1.625 6.727c0.062-0.311 0.146-0.614 0.25-0.907v-2.966c-0.086 0.102-0.169 0.206-0.25 0.313v3.56z"></path>
<path fill="#000000" d="M2.625 4.344c0.080-0.117 0.163-0.231 0.25-0.343v-2.144c-0.085 0.071-0.168 0.143-0.25 0.217v2.27z"></path>
<path fill="#000000" d="M3.625 3.193c0.081-0.074 0.165-0.146 0.25-0.216v-1.832c-0.084 0.051-0.168 0.104-0.25 0.157v1.891z"></path>
<path fill="#000000" d="M12.125 2.977c0.085 0.070 0.169 0.142 0.25 0.216v-1.891c-0.082-0.054-0.166-0.107-0.25-0.157v1.832z"></path>
<path fill="#000000" d="M11.625 2.604c0.085 0.057 0.168 0.116 0.25 0.177v-1.781c-0.083-0.046-0.166-0.090-0.25-0.133v1.737z"></path>
<path fill="#000000" d="M11.125 2.299c0.084 0.046 0.168 0.094 0.25 0.144v-1.699c-0.083-0.038-0.166-0.076-0.25-0.112v1.666z"></path>
<path fill="#000000" d="M12.625 3.433c0.086 0.087 0.169 0.176 0.25 0.268v-2.044c-0.082-0.063-0.165-0.125-0.25-0.185v1.962z"></path>
<path fill="#000000" d="M10.625 2.052c0.084 0.037 0.168 0.076 0.25 0.117v-1.637c-0.083-0.032-0.166-0.062-0.25-0.092v1.611z"></path>
<path fill="#000000" d="M7.125 1.559c0.083-0.011 0.166-0.021 0.25-0.029v-1.506c-0.084 0.006-0.167 0.015-0.25 0.024v1.511z"></path>
<path fill="#000000" d="M13.125 4.002c0.087 0.111 0.17 0.226 0.25 0.343v-2.27c-0.082-0.074-0.165-0.146-0.25-0.217v2.144z"></path>
<path fill="#000000" d="M8.625 1.53c0.084 0.008 0.167 0.018 0.25 0.029v-1.511c-0.083-0.009-0.166-0.017-0.25-0.024v1.506z"></path>
<path fill="#000000" d="M8.125 1.502c0.084 0.002 0.167 0.005 0.25 0.009v-1.502c-0.083-0.004-0.166-0.006-0.25-0.007v1.5z"></path>
<path fill="#000000" d="M10.125 1.856c0.084 0.029 0.168 0.060 0.25 0.092v-1.589c-0.083-0.026-0.166-0.050-0.25-0.073v1.57z"></path>
<path fill="#000000" d="M7.625 1.511c0.083-0.005 0.166-0.008 0.25-0.009v-1.5c-0.084 0.001-0.167 0.004-0.25 0.007v1.502z"></path>
<path fill="#000000" d="M9.625 1.705c0.084 0.022 0.167 0.045 0.25 0.070v-1.553c-0.083-0.020-0.166-0.039-0.25-0.056v1.539z"></path>
<path fill="#000000" d="M9.125 1.597c0.084 0.015 0.167 0.031 0.25 0.049v-1.528c-0.083-0.014-0.166-0.027-0.25-0.039v1.518z"></path>
<path fill="#000000" d="M11.043 10.457l1.414-1.414-4.457-4.457-4.457 4.457 1.414 1.414 3.043-3.043z"></path>
</svg>
