<?xml version="1.0" encoding="utf-8"?>
<!-- Generated by IcoMoon.io -->
<!DOCTYPE svg PUBLIC "-//W3C//DTD SVG 1.1//EN" "http://www.w3.org/Graphics/SVG/1.1/DTD/svg11.dtd">
<svg version="1.1" xmlns="http://www.w3.org/2000/svg" xmlns:xlink="http://www.w3.org/1999/xlink" width="16" height="16" viewBox="0 0 16 16">
<path fill="#000000" d="M15.367 11.125c-0.036 0.084-0.073 0.167-0.112 0.25h-1.699c0.050-0.082 0.098-0.166 0.144-0.25h1.666z"></path>
<path fill="#000000" d="M15.133 11.625c-0.043 0.084-0.088 0.167-0.133 0.25h-1.781c0.061-0.082 0.12-0.165 0.177-0.25h1.737z"></path>
<path fill="#000000" d="M14.856 12.125c-0.051 0.084-0.104 0.168-0.157 0.25h-1.891c0.074-0.081 0.146-0.165 0.216-0.25h1.832z"></path>
<path fill="#000000" d="M12.485 14.625c-0.128 0.087-0.26 0.17-0.393 0.25h-8.184c-0.134-0.080-0.265-0.163-0.393-0.25h8.971z"></path>
<path fill="#000000" d="M14.441 8.875c0.011-0.083 0.021-0.166 0.029-0.25h1.493v-0.25h-1.474c0.005-0.083 0.008-0.166 0.009-0.25h1.464v-0.25h-1.464c-0.002-0.084-0.005-0.167-0.009-0.25h1.474v-0.25h-1.493c-0.008-0.084-0.018-0.167-0.029-0.25h1.511c0.031 0.287 0.048 0.579 0.048 0.875s-0.017 0.588-0.048 0.875h-1.511z"></path>
<path fill="#000000" d="M14.143 13.125c-0.071 0.085-0.143 0.168-0.217 0.25h-2.27c0.117-0.080 0.231-0.163 0.342-0.25h2.144z"></path>
<path fill="#000000" d="M13.688 13.625c-0.084 0.085-0.171 0.169-0.259 0.25h-2.645c0.162-0.077 0.321-0.16 0.475-0.25h2.429z"></path>
<path fill="#000000" d="M15.559 10.625c-0.029 0.084-0.060 0.167-0.092 0.25h-1.637c0.041-0.082 0.080-0.166 0.117-0.25h1.611z"></path>
<path fill="#000000" d="M5.574 15.625h4.852c-0.328 0.104-0.665 0.188-1.010 0.25h-2.833c-0.345-0.062-0.682-0.146-1.010-0.25z"></path>
<path fill="#000000" d="M11.642 15.125c-0.175 0.090-0.354 0.173-0.537 0.25h-6.21c-0.182-0.077-0.361-0.16-0.537-0.25h7.283z"></path>
<path fill="#000000" d="M15.921 9.125c-0.012 0.084-0.025 0.167-0.039 0.25h-1.528c0.018-0.083 0.034-0.166 0.049-0.25h1.518z"></path>
<path fill="#000000" d="M15.714 10.125c-0.023 0.084-0.047 0.167-0.073 0.25h-1.589c0.032-0.082 0.063-0.166 0.092-0.25h1.57z"></path>
<path fill="#000000" d="M15.835 9.625c-0.017 0.084-0.036 0.167-0.056 0.25h-1.553c0.025-0.083 0.049-0.166 0.070-0.25h1.539z"></path>
<path fill="#000000" d="M10.18 14.125h2.966c-0.102 0.086-0.206 0.169-0.313 0.25h-3.56c0.311-0.062 0.613-0.146 0.907-0.25z"></path>
<path fill="#000000" d="M15.778 6.125c0.020 0.083 0.039 0.166 0.056 0.25h-1.54c-0.022-0.084-0.045-0.167-0.070-0.25h1.553z"></path>
<path fill="#000000" d="M15.642 5.625c0.026 0.083 0.050 0.166 0.073 0.25h-1.57c-0.029-0.084-0.060-0.168-0.092-0.25h1.589z"></path>
<path fill="#000000" d="M14.354 6.625h1.528c0.014 0.083 0.027 0.166 0.039 0.25h-1.518c-0.015-0.084-0.031-0.167-0.049-0.25z"></path>
<path fill="#000000" d="M15.467 5.125c0.032 0.083 0.062 0.166 0.092 0.25h-1.611c-0.037-0.084-0.076-0.168-0.117-0.25h1.637z"></path>
<path fill="#000000" d="M4.741 2.375h-2.429c0.084-0.085 0.171-0.169 0.259-0.25h2.645c-0.162 0.077-0.321 0.16-0.475 0.25z"></path>
<path fill="#000000" d="M4.741 13.625c0.154 0.090 0.313 0.173 0.475 0.25h-2.645c-0.088-0.081-0.174-0.165-0.259-0.25h2.429z"></path>
<path fill="#000000" d="M13.925 2.625c0.074 0.082 0.146 0.165 0.217 0.25h-2.144c-0.111-0.087-0.226-0.17-0.342-0.25h2.27z"></path>
<path fill="#000000" d="M12.833 1.625c0.106 0.081 0.211 0.164 0.313 0.25h-2.966c-0.293-0.104-0.596-0.188-0.907-0.25h3.56z"></path>
<path fill="#000000" d="M15.255 4.625c0.039 0.083 0.076 0.166 0.112 0.25h-1.666c-0.046-0.084-0.094-0.168-0.144-0.25h1.699z"></path>
<path fill="#000000" d="M13.429 2.125c0.088 0.081 0.174 0.165 0.259 0.25h-2.429c-0.154-0.090-0.313-0.173-0.475-0.25h2.645z"></path>
<path fill="#000000" d="M14.343 3.125c0.063 0.082 0.125 0.165 0.185 0.25h-1.962c-0.087-0.086-0.176-0.169-0.268-0.25h2.044z"></path>
<path fill="#000000" d="M15 4.125c0.046 0.083 0.090 0.166 0.133 0.25h-1.737c-0.057-0.085-0.116-0.168-0.177-0.25h1.781z"></path>
<path fill="#000000" d="M14.698 3.625c0.054 0.082 0.107 0.166 0.157 0.25h-1.832c-0.070-0.085-0.142-0.169-0.216-0.25h1.891z"></path>
<path fill="#000000" d="M14.528 12.625c-0.060 0.085-0.122 0.168-0.185 0.25h-2.044c0.092-0.081 0.181-0.164 0.268-0.25h1.962z"></path>
<path fill="#000000" d="M5.82 14.125c0.293 0.104 0.596 0.188 0.907 0.25h-3.56c-0.106-0.081-0.211-0.164-0.313-0.25h2.966z"></path>
<path fill="#000000" d="M2.781 4.125c-0.061 0.082-0.12 0.165-0.177 0.25h-1.737c0.043-0.084 0.088-0.167 0.133-0.25h1.781z"></path>
<path fill="#000000" d="M2.169 5.125c-0.041 0.082-0.080 0.166-0.117 0.25h-1.611c0.029-0.084 0.060-0.167 0.092-0.25h1.637z"></path>
<path fill="#000000" d="M2.444 4.625c-0.050 0.082-0.098 0.166-0.144 0.25h-1.666c0.036-0.084 0.073-0.167 0.112-0.25h1.699z"></path>
<path fill="#000000" d="M1.646 6.625c-0.018 0.083-0.034 0.166-0.049 0.25h-1.518c0.012-0.084 0.025-0.167 0.039-0.25h1.528z"></path>
<path fill="#000000" d="M1.948 5.625c-0.032 0.082-0.063 0.166-0.092 0.25h-1.57c0.023-0.084 0.047-0.167 0.073-0.25h1.589z"></path>
<path fill="#000000" d="M1.775 6.125c-0.025 0.083-0.049 0.166-0.070 0.25h-1.539c0.017-0.084 0.036-0.167 0.056-0.25h1.553z"></path>
<path fill="#000000" d="M11.105 0.625c0.182 0.077 0.361 0.16 0.537 0.25h-7.283c0.175-0.090 0.354-0.173 0.537-0.25h6.21z"></path>
<path fill="#000000" d="M3.701 3.125c-0.092 0.081-0.181 0.164-0.268 0.25h-1.962c0.060-0.085 0.122-0.168 0.185-0.25h2.044z"></path>
<path fill="#000000" d="M12.092 1.125c0.134 0.080 0.265 0.163 0.393 0.25h-8.971c0.128-0.087 0.26-0.17 0.393-0.25h8.184z"></path>
<path fill="#000000" d="M9.416 0.125c0.345 0.062 0.682 0.146 1.010 0.25h-4.852c0.328-0.104 0.665-0.188 1.010-0.25h2.833z"></path>
<path fill="#000000" d="M6.727 1.625c-0.311 0.062-0.614 0.146-0.907 0.25h-2.966c0.102-0.086 0.206-0.169 0.313-0.25h3.56z"></path>
<path fill="#000000" d="M4.344 2.625c-0.117 0.080-0.231 0.163-0.343 0.25h-2.144c0.071-0.085 0.143-0.168 0.217-0.25h2.27z"></path>
<path fill="#000000" d="M3.193 3.625c-0.074 0.081-0.146 0.165-0.216 0.25h-1.832c0.051-0.084 0.104-0.168 0.157-0.25h1.891z"></path>
<path fill="#000000" d="M2.977 12.125c0.070 0.085 0.142 0.169 0.216 0.25h-1.891c-0.054-0.082-0.107-0.166-0.157-0.25h1.832z"></path>
<path fill="#000000" d="M2.604 11.625c0.057 0.085 0.116 0.168 0.177 0.25h-1.781c-0.046-0.083-0.090-0.166-0.133-0.25h1.737z"></path>
<path fill="#000000" d="M2.299 11.125c0.046 0.084 0.094 0.168 0.144 0.25h-1.699c-0.038-0.083-0.076-0.166-0.112-0.25h1.666z"></path>
<path fill="#000000" d="M3.433 12.625c0.087 0.086 0.176 0.169 0.268 0.25h-2.044c-0.063-0.082-0.125-0.165-0.185-0.25h1.962z"></path>
<path fill="#000000" d="M2.052 10.625c0.037 0.084 0.076 0.168 0.117 0.25h-1.637c-0.032-0.083-0.062-0.166-0.092-0.25h1.611z"></path>
<path fill="#000000" d="M1.559 7.125c-0.011 0.083-0.021 0.166-0.029 0.25h-1.506c0.006-0.084 0.015-0.167 0.024-0.25h1.511z"></path>
<path fill="#000000" d="M4.002 13.125c0.111 0.087 0.226 0.17 0.343 0.25h-2.27c-0.074-0.082-0.146-0.165-0.217-0.25h2.144z"></path>
<path fill="#000000" d="M1.53 8.625c0.008 0.084 0.018 0.167 0.029 0.25h-1.511c-0.009-0.083-0.017-0.166-0.024-0.25h1.506z"></path>
<path fill="#000000" d="M1.502 8.125c0.002 0.084 0.005 0.167 0.009 0.25h-1.502c-0.004-0.083-0.006-0.166-0.007-0.25h1.5z"></path>
<path fill="#000000" d="M1.856 10.125c0.029 0.084 0.060 0.168 0.092 0.25h-1.589c-0.026-0.083-0.050-0.166-0.073-0.25h1.57z"></path>
<path fill="#000000" d="M1.511 7.625c-0.005 0.083-0.008 0.166-0.009 0.25h-1.5c0.001-0.084 0.004-0.167 0.007-0.25h1.502z"></path>
<path fill="#000000" d="M1.705 9.625c0.022 0.084 0.045 0.167 0.070 0.25h-1.553c-0.020-0.083-0.039-0.166-0.056-0.25h1.539z"></path>
<path fill="#000000" d="M1.597 9.125c0.015 0.084 0.031 0.167 0.049 0.25h-1.528c-0.014-0.083-0.027-0.166-0.039-0.25h1.518z"></path>
<path fill="#000000" d="M10.457 11.043l-1.414 1.414-4.457-4.457 4.457-4.457 1.414 1.414-3.043 3.043z"></path>
</svg>
