<?xml version="1.0" encoding="utf-8"?>
<!-- Generated by IcoMoon.io -->
<!DOCTYPE svg PUBLIC "-//W3C//DTD SVG 1.1//EN" "http://www.w3.org/Graphics/SVG/1.1/DTD/svg11.dtd">
<svg version="1.1" xmlns="http://www.w3.org/2000/svg" xmlns:xlink="http://www.w3.org/1999/xlink" width="16" height="16" viewBox="0 0 16 16">
<path fill="#000000" d="M14 6h-1v-5c0-0.55-0.45-1-1-1h-8c-0.55 0-1 0.45-1 1v5h-1c-0.55 0-1 0.45-1 1v8c0 0.55 0.45 1 1 1h12c0.55 0 1-0.45 1-1v-8c0-0.55-0.45-1-1-1zM9 13h-2l0.435-2.175c-0.263-0.18-0.435-0.482-0.435-0.825 0-0.552 0.448-1 1-1s1 0.448 1 1c0 0.343-0.172 0.645-0.435 0.825l0.435 2.175zM11 6h-6v-4h6v4z"></path>
</svg>
