<?xml version="1.0" encoding="utf-8"?>
<!-- Generated by IcoMoon.io -->
<!DOCTYPE svg PUBLIC "-//W3C//DTD SVG 1.1//EN" "http://www.w3.org/Graphics/SVG/1.1/DTD/svg11.dtd">
<svg version="1.1" xmlns="http://www.w3.org/2000/svg" xmlns:xlink="http://www.w3.org/1999/xlink" width="16" height="16" viewBox="0 0 16 16">
<path fill="#000000" d="M15.095 2.763c-0.444-0.375-1.053-0.702-1.809-0.972-1.427-0.51-3.305-0.79-5.286-0.79 0 0 0 0-0 0-1.981 0-3.859 0.281-5.286 0.79-0.756 0.27-1.365 0.597-1.809 0.972-0.748 0.632-0.905 1.293-0.905 1.737l0 1c0 0.265 0.105 0.52 0.293 0.707l0.5 0.5c0.191 0.191 0.447 0.293 0.707 0.293 0.125 0 0.251-0.023 0.371-0.072l2.5-1c0.38-0.152 0.629-0.52 0.629-0.928v-1.744c0.915-0.167 1.941-0.256 3-0.256 0 0 0 0 0 0 1.059 0 2.085 0.089 3 0.256v1.744c0 0.409 0.249 0.777 0.629 0.928l2.5 1c0.12 0.048 0.246 0.072 0.371 0.072 0.26 0 0.516-0.102 0.707-0.293l0.5-0.5c0.188-0.188 0.293-0.442 0.293-0.707l0-1c0-0.444-0.157-1.106-0.905-1.737z"></path>
<path fill="#000000" d="M14.931 12.44c-0.015-0.053-0.382-1.325-1.006-2.618-0.904-1.872-2.426-2.821-4.426-2.821h-3c-2 0-3.522 0.949-4.426 2.821-0.624 1.293-0.99 2.565-1.006 2.618-0.188 0.656-0.085 1.311 0.281 1.797s0.968 0.764 1.65 0.764h10c0.683 0 1.284-0.278 1.65-0.764s0.469-1.14 0.281-1.797zM8 13c-1.105 0-2-0.895-2-2s0.895-2 2-2c1.105 0 2 0.895 2 2s-0.895 2-2 2z"></path>
</svg>
