<svg id="Layer_1" data-name="Layer 1" xmlns="http://www.w3.org/2000/svg" viewBox="0 0 125.43 78.39"><defs><style>.cls-1{fill:#fff;}</style></defs><title>payment-icons</title><rect width="125.43" height="78.39" rx="4.18" ry="4.18"/><path class="cls-1" d="M14.64,33.84H13.31V32.12l0.34,0h5.41a4.85,4.85,0,0,1,2.19.48,2.8,2.8,0,0,1,1.64,2.61,2.58,2.58,0,0,1-1.54,2.55l-0.07,0a11.34,11.34,0,0,1,1.32.79,2.94,2.94,0,0,1-.31,4.58,4.94,4.94,0,0,1-2.72.8c-2.06,0-4.11,0-6.17,0l-0.1,0V42.25h1.33v-8.4Zm1.94,8.4c0.7,0,1.36,0,2,0a9.56,9.56,0,0,0,1.75-.2,1.55,1.55,0,0,0,0-3,7.32,7.32,0,0,0-1.56-.21c-0.74,0-1.47,0-2.22,0v3.48Zm0-5.12c1.05-.06,2.08-0.05,3.08-0.19a1.5,1.5,0,0,0-.05-3c-1-.12-2-0.1-3-0.15v3.31Z"/><path class="cls-1" d="M70,44h-4.5v-1.7H66.8a2.83,2.83,0,0,0,0-.32c0-1.11,0-2.22,0-3.33a2.81,2.81,0,0,0-.17-0.92,1.59,1.59,0,0,0-1.61-1,2.66,2.66,0,0,0-2.71,2.51c-0.05,1,0,2,0,3H63.7V44H59.2V42.25h1.28V37h-1.2V35.26h3v1.06a3.27,3.27,0,0,1,1.81-1.21,3.66,3.66,0,0,1,3.88,1,3.15,3.15,0,0,1,.7,2.18c0,1.17,0,2.35,0,3.52v0.44H70V44Z"/><path class="cls-1" d="M113.62,40.27h-7.53a2.63,2.63,0,0,0,.86,1.51,3.68,3.68,0,0,0,3.85.5,10,10,0,0,0,1.45-.79l1.26,1.13a5.4,5.4,0,0,1-2.78,1.48,5.79,5.79,0,0,1-4.58-.67,4.55,4.55,0,0,1-1.9-4.83,4.48,4.48,0,0,1,3.58-3.52,4.66,4.66,0,0,1,5.8,4.58c0,0.19,0,.37,0,0.62m-7.42-1.59h5.29a2.56,2.56,0,0,0-2.38-2,2.72,2.72,0,0,0-2.91,2"/><path class="cls-1" d="M100.94,41.43l1.27,1.18a2,2,0,0,1-.15.19,6.31,6.31,0,0,1-7.16.64A4.58,4.58,0,0,1,93,38.62a4.48,4.48,0,0,1,3.55-3.55,4.66,4.66,0,0,1,5.08,2,5.15,5.15,0,0,1,.74,3.19H94.81a2.66,2.66,0,0,0,1.59,2,4.17,4.17,0,0,0,4.13-.49c0.16-.1.29-0.23,0.41-0.33m-6-2.77h5.31a2.61,2.61,0,0,0-2.55-2,2.69,2.69,0,0,0-2.76,2"/><path class="cls-1" d="M37,36.42a5.5,5.5,0,0,1,5.9-1,3,3,0,0,1,1.8,2.87c0,1.17,0,2.35,0,3.52v0.45H46V44H42.84V43.14a3.5,3.5,0,0,1-2,1,4.67,4.67,0,0,1-2.74-.25,2.44,2.44,0,0,1-1.59-2,2.53,2.53,0,0,1,1.18-2.6,5.47,5.47,0,0,1,3.64-.7c0.5,0.05,1,.16,1.49.25,0.3-1.31-.68-2.29-2.18-2.17a3.83,3.83,0,0,0-2.09.8l-0.32.24L37,36.42m5.81,4c-0.42-.09-0.83-0.21-1.25-0.26a4.2,4.2,0,0,0-2.52.25,1.16,1.16,0,0,0-.69,1.23,1.08,1.08,0,0,0,.94.91A3.48,3.48,0,0,0,42.07,42a1.56,1.56,0,0,0,.74-1.59"/><path class="cls-1" d="M72.47,32.11h1.83v3.1h4.24V37H74.32v2.31q0,0.61,0,1.21a1.92,1.92,0,0,0,2.43,2,3.67,3.67,0,0,0,1.72-.82l0.39-.33,1.29,1.27a14.53,14.53,0,0,1-1.37,1,4.87,4.87,0,0,1-4.05.38,3.11,3.11,0,0,1-2.23-3c0-1.2,0-2.4,0-3.6,0-.14,0-0.27,0-0.46H70.22V35.25h2.26V32.11Z"/><path class="cls-1" d="M35.3,37.3l-1.67.48-0.08,0a1.55,1.55,0,0,0-2-1,3,3,0,0,0-2.39,2.53,4.52,4.52,0,0,0-.06.72c0,0.73,0,1.46,0,2.23h3V44H25.35V42.25h1.87V37c-0.39,0-.78,0-1.17,0a0.26,0.26,0,0,1-.33-0.32c0-.46,0-0.93,0-1.42H29v1.37a3.77,3.77,0,0,1,4.64-1.38A2.63,2.63,0,0,1,35.3,37.3"/><path class="cls-1" d="M85.48,36.62a3.76,3.76,0,0,1,4.2-1.53,2.72,2.72,0,0,1,2,2.21l-1.67.49L90,37.73a1.57,1.57,0,0,0-2.06-1,3,3,0,0,0-2.37,2.71c-0.08.9,0,1.81,0,2.76h3V44H81.77V42.25h1.88V37H82.19V35.25h3.3v1.37Z"/><polygon class="cls-1" points="53.61 35.25 53.61 42.24 56.96 42.24 56.96 43.97 48.13 43.97 48.13 42.25 51.75 42.25 51.75 36.99 49 36.99 49 35.25 53.61 35.25"/><rect class="cls-1" x="51.57" y="30.85" width="2.01" height="2.63"/></svg>