<?xml version="1.0" encoding="utf-8"?>
<!-- Generator: Adobe Illustrator 19.1.0, SVG Export Plug-In . SVG Version: 6.00 Build 0)  -->
<svg version="1.1" id="Layer_1" xmlns="http://www.w3.org/2000/svg" xmlns:xlink="http://www.w3.org/1999/xlink" x="0px" y="0px"
	 viewBox="0 0 125.4 78.4" style="enable-background:new 0 0 125.4 78.4;" xml:space="preserve">
<style type="text/css">
	.st0{clip-path:url(#SVGID_2_);}
	.st1{clip-path:url(#SVGID_4_);fill:#F9F9F9;}
	.st2{clip-path:url(#SVGID_4_);fill:#FFFFFF;}
	.st3{clip-path:url(#SVGID_4_);fill:#C5C7C9;}
	.st4{clip-path:url(#SVGID_4_);fill:#231F20;}
	.st5{clip-path:url(#SVGID_4_);fill:#A6A8AB;}
	.st6{clip-path:url(#SVGID_4_);fill:#FFC10E;}
	.st7{clip-path:url(#SVGID_4_);fill:#A30046;}
	.st8{clip-path:url(#SVGID_6_);}
	.st9{clip-path:url(#SVGID_8_);fill:#178FDB;}
	.st10{clip-path:url(#SVGID_8_);fill:#FFFFFF;}
	.st11{clip-path:url(#SVGID_10_);}
	.st12{clip-path:url(#SVGID_12_);fill:#F9F9F9;}
	.st13{clip-path:url(#SVGID_12_);}
	.st14{clip-path:url(#SVGID_14_);}
	.st15{clip-path:url(#SVGID_16_);fill:#F9F9F9;}
	.st16{clip-path:url(#SVGID_16_);fill:#ED1C2E;}
	.st17{clip-path:url(#SVGID_16_);fill:#FCB131;}
	.st18{clip-path:url(#SVGID_18_);}
	.st19{clip-path:url(#SVGID_20_);fill:#F9F9F9;}
	.st20{clip-path:url(#SVGID_20_);fill:#0066B2;}
	.st21{clip-path:url(#SVGID_20_);fill:#F9A533;}
	.st22{clip-path:url(#SVGID_22_);}
	.st23{clip-path:url(#SVGID_24_);fill:#F9F9F9;}
	.st24{clip-path:url(#SVGID_24_);fill:#FFFFFF;}
	.st25{clip-path:url(#SVGID_24_);fill:#0078A9;}
	.st26{clip-path:url(#SVGID_26_);}
	.st27{clip-path:url(#SVGID_28_);fill:#F9F9F9;}
	.st28{clip-path:url(#SVGID_28_);fill-rule:evenodd;clip-rule:evenodd;fill:#231F20;}
	.st29{clip-path:url(#SVGID_30_);}
	.st30{clip-path:url(#SVGID_32_);fill:#F9F9F9;}
	.st31{clip-path:url(#SVGID_32_);fill:#EE3A3F;}
	.st32{clip-path:url(#SVGID_32_);fill:#0067B2;}
	.st33{clip-path:url(#SVGID_32_);fill:#FAAC18;}
	.st34{clip-path:url(#SVGID_32_);fill:#6AB845;}
	.st35{clip-path:url(#SVGID_32_);fill:#231F20;}
	.st36{clip-path:url(#SVGID_34_);}
	.st37{clip-path:url(#SVGID_36_);fill:#F9F9F9;}
	.st38{clip-path:url(#SVGID_36_);fill:#00A551;}
	.st39{clip-path:url(#SVGID_36_);fill:#0071BB;}
	.st40{clip-path:url(#SVGID_36_);fill:#FFFFFF;}
	.st41{clip-path:url(#SVGID_36_);fill:#EC1C24;}
	.st42{clip-path:url(#SVGID_38_);}
	.st43{clip-path:url(#SVGID_40_);fill:#F9F9F9;}
	.st44{clip-path:url(#SVGID_40_);fill-rule:evenodd;clip-rule:evenodd;fill:#008060;}
	.st45{clip-path:url(#SVGID_42_);}
	.st46{clip-path:url(#SVGID_44_);fill:#F9F9F9;}
	.st47{clip-path:url(#SVGID_44_);fill:#203C73;}
	.st48{clip-path:url(#SVGID_46_);}
	.st49{clip-path:url(#SVGID_48_);fill:#F9F9F9;}
	.st50{clip-path:url(#SVGID_48_);fill-rule:evenodd;clip-rule:evenodd;fill:#FF9900;}
	.st51{clip-path:url(#SVGID_48_);fill-rule:evenodd;clip-rule:evenodd;}
	.st52{clip-path:url(#SVGID_50_);}
	.st53{clip-path:url(#SVGID_52_);fill:#F9F9F9;}
	.st54{clip-path:url(#SVGID_52_);fill-rule:evenodd;clip-rule:evenodd;fill:#FAA929;}
	.st55{clip-path:url(#SVGID_52_);fill-rule:evenodd;clip-rule:evenodd;fill:#045EA0;}
	.st56{clip-path:url(#SVGID_54_);}
	.st57{clip-path:url(#SVGID_56_);fill:#F9F9F9;}
	.st58{clip-path:url(#SVGID_56_);fill-rule:evenodd;clip-rule:evenodd;fill:#121212;}
	.st59{clip-path:url(#SVGID_58_);}
	.st60{clip-path:url(#SVGID_60_);fill:#F9F9F9;}
	.st61{clip-path:url(#SVGID_60_);fill:#336699;}
	.st62{clip-path:url(#SVGID_60_);fill:#003366;}
	.st63{clip-path:url(#SVGID_62_);}
	.st64{clip-path:url(#SVGID_64_);fill:#F9F9F9;}
	.st65{clip-path:url(#SVGID_64_);fill:#007CC3;}
	.st66{clip-path:url(#SVGID_64_);fill:#009DDD;}
	.st67{clip-path:url(#SVGID_64_);fill:#FFFFFF;}
	.st68{clip-path:url(#SVGID_66_);}
	.st69{clip-path:url(#SVGID_68_);fill:#F9F9F9;}
	.st70{clip-path:url(#SVGID_68_);fill:#EC1C2E;}
	.st71{clip-path:url(#SVGID_68_);fill:#0084C4;}
	.st72{clip-path:url(#SVGID_68_);fill:#FFFFFF;}
	.st73{clip-path:url(#SVGID_68_);fill:none;stroke:#FFFFFF;stroke-width:0.215;}
	.st74{clip-path:url(#SVGID_70_);}
	.st75{clip-path:url(#SVGID_72_);fill:#F9F9F9;}
	.st76{clip-path:url(#SVGID_72_);fill-rule:evenodd;clip-rule:evenodd;fill:#FBB231;}
	.st77{clip-path:url(#SVGID_72_);fill-rule:evenodd;clip-rule:evenodd;fill:#EC1C2E;}
	.st78{clip-path:url(#SVGID_72_);fill-rule:evenodd;clip-rule:evenodd;fill:#FFFFFF;}
	.st79{clip-path:url(#SVGID_72_);fill:none;stroke:#FFFFFF;stroke-width:0.216;stroke-miterlimit:2.613;}
	.st80{clip-path:url(#SVGID_74_);}
	.st81{clip-path:url(#SVGID_76_);fill:#F9F9F9;}
	.st82{clip-path:url(#SVGID_76_);fill:#0066B2;}
	.st83{clip-path:url(#SVGID_76_);fill:#F9A533;}
	.st84{clip-path:url(#SVGID_78_);}
	.st85{clip-path:url(#SVGID_80_);fill:#0078A9;}
	.st86{clip-path:url(#SVGID_80_);fill:#FFFFFF;}
	.st87{clip-path:url(#SVGID_82_);}
	.st88{clip-path:url(#SVGID_84_);fill:#008060;}
	.st89{clip-path:url(#SVGID_84_);fill-rule:evenodd;clip-rule:evenodd;fill:#FFFFFF;}
	.st90{clip-path:url(#SVGID_86_);}
	.st91{clip-path:url(#SVGID_88_);fill:#203C73;}
	.st92{clip-path:url(#SVGID_88_);fill:#FFFFFF;}
	.st93{clip-path:url(#SVGID_90_);}
	.st94{clip-path:url(#SVGID_92_);fill:#1C3663;}
	.st95{clip-path:url(#SVGID_92_);fill:#FFFFFF;}
	.st96{clip-path:url(#SVGID_94_);}
	.st97{clip-path:url(#SVGID_96_);fill:#13457C;}
	.st98{clip-path:url(#SVGID_96_);fill:#007CC3;}
	.st99{clip-path:url(#SVGID_96_);fill:#009DDD;}
	.st100{clip-path:url(#SVGID_96_);fill:#FFFFFF;}
	.st101{clip-path:url(#SVGID_98_);}
	.st102{clip-path:url(#SVGID_100_);fill:#13457C;}
	.st103{clip-path:url(#SVGID_100_);fill:#ED1C2E;}
	.st104{clip-path:url(#SVGID_100_);fill:#FCB131;}
	.st105{clip-path:url(#SVGID_102_);}
	.st106{clip-path:url(#SVGID_104_);fill:#1D1E1E;}
	.st107{clip-path:url(#SVGID_104_);fill:#EE3A3F;}
	.st108{clip-path:url(#SVGID_104_);fill:#0067B2;}
	.st109{clip-path:url(#SVGID_104_);fill:#FAAC18;}
	.st110{clip-path:url(#SVGID_104_);fill:#6AB845;}
	.st111{clip-path:url(#SVGID_104_);fill:#231F20;}
	.st112{clip-path:url(#SVGID_106_);}
	.st113{clip-path:url(#SVGID_108_);fill:#121212;}
	.st114{clip-path:url(#SVGID_108_);fill-rule:evenodd;clip-rule:evenodd;fill:#FFDE37;}
	.st115{clip-path:url(#SVGID_110_);}
	.st116{clip-path:url(#SVGID_112_);fill:#3957A7;}
	.st117{clip-path:url(#SVGID_112_);fill:#FFFFFF;}
	.st118{clip-path:url(#SVGID_112_);fill:#F9A533;}
	.st119{clip-path:url(#SVGID_114_);}
	.st120{clip-path:url(#SVGID_116_);fill:#0C489C;}
	.st121{clip-path:url(#SVGID_116_);fill:#FFFFFF;}
	.st122{clip-path:url(#SVGID_118_);}
	.st123{clip-path:url(#SVGID_120_);fill:#045EA0;}
	.st124{clip-path:url(#SVGID_120_);fill-rule:evenodd;clip-rule:evenodd;fill:#FAA929;}
	.st125{clip-path:url(#SVGID_120_);fill-rule:evenodd;clip-rule:evenodd;fill:#FFFFFF;}
	.st126{clip-path:url(#SVGID_122_);}
	.st127{clip-path:url(#SVGID_124_);fill:#13457C;}
	.st128{clip-path:url(#SVGID_124_);fill-rule:evenodd;clip-rule:evenodd;fill:#FBB231;}
	.st129{clip-path:url(#SVGID_124_);fill-rule:evenodd;clip-rule:evenodd;fill:#EC1C2E;}
	.st130{clip-path:url(#SVGID_124_);fill-rule:evenodd;clip-rule:evenodd;fill:#FFFFFF;}
	.st131{clip-path:url(#SVGID_124_);fill:none;stroke:#FFFFFF;stroke-width:0.216;stroke-miterlimit:2.613;}
	.st132{clip-path:url(#SVGID_126_);}
	.st133{clip-path:url(#SVGID_128_);fill:#13457C;}
	.st134{clip-path:url(#SVGID_128_);fill:#EC1C2E;}
	.st135{clip-path:url(#SVGID_128_);fill:#0084C4;}
	.st136{clip-path:url(#SVGID_128_);fill:#FFFFFF;}
	.st137{clip-path:url(#SVGID_128_);fill:none;stroke:#FFFFFF;stroke-width:0.215;}
	.st138{clip-path:url(#SVGID_130_);}
	.st139{clip-path:url(#SVGID_132_);fill:#FF9900;}
	.st140{clip-path:url(#SVGID_132_);fill-rule:evenodd;clip-rule:evenodd;fill:#231F20;}
	.st141{clip-path:url(#SVGID_134_);}
	.st142{clip-path:url(#SVGID_136_);fill:#231F20;}
	.st143{clip-path:url(#SVGID_136_);fill-rule:evenodd;clip-rule:evenodd;fill:#FFFFFF;}
	.st144{clip-path:url(#SVGID_138_);}
	.st145{clip-path:url(#SVGID_140_);fill:#121212;}
	.st146{clip-path:url(#SVGID_140_);fill:#FFFFFF;}
	.st147{clip-path:url(#SVGID_140_);fill:#FFC10E;}
	.st148{clip-path:url(#SVGID_142_);}
	.st149{clip-path:url(#SVGID_144_);fill:#0033A0;}
	.st150{clip-path:url(#SVGID_144_);fill:#FFFFFF;}
	.st151{clip-path:url(#SVGID_144_);fill:#FF9E16;}
	.st152{clip-path:url(#SVGID_144_);fill:#FAA943;}
	.st153{clip-path:url(#SVGID_146_);}
	.st154{clip-path:url(#SVGID_148_);fill:#ED1C2E;}
	.st155{clip-path:url(#SVGID_148_);fill:#FCB131;}
	.st156{clip-path:url(#SVGID_150_);}
	.st157{clip-path:url(#SVGID_152_);fill:#0066B2;}
	.st158{clip-path:url(#SVGID_152_);fill:#F9A533;}
	.st159{clip-path:url(#SVGID_154_);}
	.st160{clip-path:url(#SVGID_156_);fill:#FFFFFF;}
	.st161{clip-path:url(#SVGID_156_);fill:#0078A9;}
	.st162{clip-path:url(#SVGID_158_);}
	.st163{clip-path:url(#SVGID_160_);fill-rule:evenodd;clip-rule:evenodd;fill:#231F20;}
	.st164{clip-path:url(#SVGID_162_);}
	.st165{clip-path:url(#SVGID_164_);fill:#EE3A3F;}
	.st166{clip-path:url(#SVGID_164_);fill:#0067B2;}
	.st167{clip-path:url(#SVGID_164_);fill:#FAAC18;}
	.st168{clip-path:url(#SVGID_164_);fill:#6AB845;}
	.st169{clip-path:url(#SVGID_164_);fill:#231F20;}
	.st170{clip-path:url(#SVGID_166_);}
	.st171{clip-path:url(#SVGID_168_);fill:#00A551;}
	.st172{clip-path:url(#SVGID_168_);fill:#0071BB;}
	.st173{clip-path:url(#SVGID_168_);fill:#FFFFFF;}
	.st174{clip-path:url(#SVGID_168_);fill:#EC1C24;}
	.st175{clip-path:url(#SVGID_170_);}
	.st176{clip-path:url(#SVGID_172_);fill-rule:evenodd;clip-rule:evenodd;fill:#008060;}
	.st177{clip-path:url(#SVGID_174_);}
	.st178{clip-path:url(#SVGID_176_);fill:#203C73;}
	.st179{clip-path:url(#SVGID_178_);}
	.st180{clip-path:url(#SVGID_180_);fill-rule:evenodd;clip-rule:evenodd;fill:#FF9900;}
	.st181{clip-path:url(#SVGID_180_);fill-rule:evenodd;clip-rule:evenodd;}
	.st182{clip-path:url(#SVGID_182_);}
	.st183{clip-path:url(#SVGID_184_);fill-rule:evenodd;clip-rule:evenodd;fill:#FAA929;}
	.st184{clip-path:url(#SVGID_184_);fill-rule:evenodd;clip-rule:evenodd;fill:#045EA0;}
	.st185{clip-path:url(#SVGID_186_);fill:#0084C4;}
	.st186{clip-path:url(#SVGID_186_);fill:#EC1C2E;}
	.st187{clip-path:url(#SVGID_186_);fill:#FFFFFF;}
	.st188{clip-path:url(#SVGID_188_);}
	.st189{clip-path:url(#SVGID_190_);fill:#336699;}
	.st190{clip-path:url(#SVGID_190_);fill:#003366;}
	.st191{clip-path:url(#SVGID_192_);fill:#121212;}
	.st192{clip-path:url(#SVGID_192_);fill-rule:evenodd;clip-rule:evenodd;fill:#121212;}
	.st193{clip-path:url(#SVGID_192_);}
	.st194{clip-path:url(#SVGID_194_);fill-rule:evenodd;clip-rule:evenodd;fill:#121212;}
	.st195{clip-path:url(#SVGID_196_);}
	.st196{clip-path:url(#SVGID_198_);fill:#009DDD;}
	.st197{clip-path:url(#SVGID_198_);fill:#007CC3;}
	.st198{clip-path:url(#SVGID_198_);fill:#FFFFFF;}
	.st199{clip-path:url(#SVGID_200_);fill:#FBB231;}
	.st200{clip-path:url(#SVGID_200_);fill:none;stroke:#FFFFFF;stroke-width:0.216;stroke-miterlimit:2.613;}
	.st201{clip-path:url(#SVGID_200_);fill-rule:evenodd;clip-rule:evenodd;fill:#EC1C2E;}
	.st202{clip-path:url(#SVGID_200_);fill:#EC1C2E;}
	.st203{clip-path:url(#SVGID_200_);fill:#FFFFFF;}
	.st204{clip-path:url(#SVGID_200_);fill-rule:evenodd;clip-rule:evenodd;fill:#FFFFFF;}
	.st205{clip-path:url(#SVGID_200_);fill-rule:evenodd;clip-rule:evenodd;fill:#FBB231;}
	.st206{clip-path:url(#SVGID_202_);fill:#0066B2;}
	.st207{clip-path:url(#SVGID_202_);}
	.st208{clip-path:url(#SVGID_204_);fill:#0066B2;}
	.st209{clip-path:url(#SVGID_204_);fill:#F9A533;}
	.st210{clip-path:url(#SVGID_206_);}
	.st211{clip-path:url(#SVGID_208_);fill:#FFFFFF;}
	.st212{clip-path:url(#SVGID_208_);fill:#C5C7C9;}
	.st213{clip-path:url(#SVGID_208_);fill:#231F20;}
	.st214{clip-path:url(#SVGID_208_);fill:#A6A8AB;}
	.st215{clip-path:url(#SVGID_208_);fill:#FFC10E;}
	.st216{clip-path:url(#SVGID_208_);fill:#A30046;}
	.st217{clip-path:url(#SVGID_210_);}
	.st218{clip-path:url(#SVGID_212_);}
	.st219{clip-path:url(#SVGID_214_);}
	.st220{clip-path:url(#SVGID_216_);}
	.st221{clip-path:url(#SVGID_216_);fill:#FFFFFF;}
	.st222{clip-path:url(#SVGID_218_);}
	.st223{clip-path:url(#SVGID_220_);fill:#F9F9F9;}
	.st224{clip-path:url(#SVGID_220_);}
	.st225{clip-path:url(#SVGID_222_);}
	.st226{clip-path:url(#SVGID_224_);}
</style>
<g>
	<g>
		<defs>
			<rect id="SVGID_21_" width="125.4" height="78.4"/>
		</defs>
		<clipPath id="SVGID_2_">
			<use xlink:href="#SVGID_21_"  style="overflow:visible;"/>
		</clipPath>
		<g class="st0">
			<defs>
				<rect id="SVGID_23_" y="0" width="125.4" height="78.4"/>
			</defs>
			<clipPath id="SVGID_4_">
				<use xlink:href="#SVGID_23_"  style="overflow:visible;"/>
			</clipPath>
			<path class="st1" d="M125.4,74.2c0,2.3-1.9,4.2-4.2,4.2H4.2c-2.3,0-4.2-1.9-4.2-4.2v-70C0,1.9,1.9,0,4.2,0h117.1
				c2.3,0,4.2,1.9,4.2,4.2V74.2z"/>
			<path class="st2" d="M38.9,37.4v-1.3l-0.6,1.3h-5.2L32.5,36v1.3h-9.7l-1.1-2.7h-1.9l-1.2,2.7h-5v-8.2l3.7-8.3h7.1l1,2.4v-2.3h8.6
				l1.9,4l1.9-4h27.3c0,0,1.4,0,2.4,0.6l0-0.6h6.9v0.9c0,0,1.2-0.9,3.1-0.9h12.1l1.1,2.4v-2.4h7.8l1.4,2.4v-2.4h7.4v16.6h-7.6
				l-1.8-2.9v2.9H88l-1.3-3h-1.9l-1.3,3h-5.7c0,0-2.1,0-3.7-1.2v1.2H62.7v-3.9c0-0.6-0.4-0.5-0.4-0.5h-0.4v4.4H38.9z"/>
			<path class="st2" d="M33.2,41h15l2.2,2.5l2.2-2.5h11.5c0,0,1.1,0,2.1,0.6V41h10.3c1.3,0,2.4,0.7,2.4,0.7V41h13.2v0.6
				c0,0,0.9-0.6,2.2-0.6h8.6v0.6c0,0,1.1-0.6,2.2-0.6h6.8v15.6c0,0-0.9,1-2.7,1h-8.9v-0.5c0,0-0.8,0.5-2.1,0.5H74.5v-4
				c0-0.4-0.2-0.5-0.5-0.5h-0.3v4.5h-7.4v-4.5c0,0-0.8,0.4-2.2,0.4h-2.7v4h-9.1L50.2,55L48,57.6H33.2V41z"/>
			<polygon style="clip-path:url(#SVGID_4_);fill:#0078A9;" points="80.5,43.4 90,43.4 90,46 83.4,46 83.4,48.2 89.8,48.2 
				89.8,50.4 83.4,50.4 83.4,52.7 90,52.7 90,55.2 80.5,55.2 			"/>
			<path style="clip-path:url(#SVGID_4_);fill:#0078A9;" d="M108.2,48c3.5,0.2,3.8,2,3.8,3.8c0,2.2-1.8,3.4-3.7,3.4h-6.1v-2.5h4.7
				c0.8,0,2,0,2-1.1c0-0.5-0.2-0.9-1.1-1c-0.4-0.1-1.8-0.1-2-0.1c-3.2-0.1-3.9-1.7-3.9-3.6c0-2.2,1.5-3.4,3.4-3.4h6.1V46H107
				c-1,0-2.1-0.1-2.1,1c0,0.7,0.5,0.9,1.2,0.9C106.4,47.9,108,48,108.2,48"/>
			<path style="clip-path:url(#SVGID_4_);fill:#0078A9;" d="M97.3,48c3.5,0.2,3.8,2,3.8,3.8c0,2.2-1.8,3.4-3.7,3.4h-6.1v-2.5h4.7
				c0.8,0,2,0,2-1.1c0-0.5-0.2-0.9-1.1-1c-0.4-0.1-1.8-0.1-2-0.1c-3.2-0.1-3.9-1.7-3.9-3.6c0-2.2,1.5-3.4,3.4-3.4h6.1V46h-4.4
				c-1,0-2.1-0.1-2.1,1c0,0.7,0.5,0.9,1.2,0.9C95.5,47.9,97.1,48,97.3,48"/>
			<path style="clip-path:url(#SVGID_4_);fill:#0078A9;" d="M63.1,43.5H53l-3.3,3.6l-3.2-3.7H35.2v11.7h11l3.5-3.9l3.4,3.9h5.5v-4
				h3.9c1.5,0,4.2-0.1,4.2-4.2C66.6,44.1,64.6,43.5,63.1,43.5 M44.7,52.7H38v-2.3h6.4v-2.2H38V46l7,0l2.8,3.2L44.7,52.7z M55.7,54.1
				l-4.1-4.9l4.1-4.6V54.1z M62.2,48.8h-3.6V46h3.6c1.2,0,1.6,0.8,1.6,1.3C63.8,48.1,63.4,48.8,62.2,48.8"/>
			<path style="clip-path:url(#SVGID_4_);fill:#0078A9;" d="M77.1,49.9c1.6-0.8,2-1.8,2-3.2c0-2.5-2-3.1-3.5-3.1h-7.5v11.7H71v-4.1
				h3.8c1,0,1.4,1,1.4,2l0.1,2.2h2.8L79,52.8C79,50.9,78.4,50,77.1,49.9 M74.6,48.7H71V46h3.6c1.2,0,1.6,0.8,1.6,1.3
				C76.2,48.1,75.8,48.7,74.6,48.7"/>
			<rect x="69.3" y="23.2" style="clip-path:url(#SVGID_4_);fill:#0078A9;" width="2.9" height="11.8"/>
			<polygon style="clip-path:url(#SVGID_4_);fill:#0078A9;" points="45.7,23.2 55.1,23.2 55.1,25.7 48.5,25.7 48.5,27.9 54.9,27.9 
				54.9,30.2 48.5,30.2 48.5,32.5 55.1,32.5 55.1,34.9 45.7,34.9 			"/>
			<path style="clip-path:url(#SVGID_4_);fill:#0078A9;" d="M65.8,29.6c1.6-0.8,2-1.8,2-3.2c0-2.5-2-3.1-3.5-3.1h-7.5v11.7h2.9v-4.1
				h3.8c1,0,1.4,1,1.4,2l0.1,2.1h2.8l-0.1-2.4C67.6,30.6,67.1,29.7,65.8,29.6 M63.3,28.4h-3.6v-2.7h3.6c1.2,0,1.6,0.8,1.6,1.3
				C64.9,27.8,64.4,28.4,63.3,28.4"/>
			<path style="clip-path:url(#SVGID_4_);fill:#0078A9;" d="M39,23.2l-3.5,7.9L32,23.2h-4.5v11.3l-5-11.3h-3.8l-5.1,11.7h3l1.1-2.6
				h5.8l1.1,2.6h5.8v-8.7l3.9,8.7h2.6l3.9-8.6v8.6h2.9V23.2H39z M18.7,29.8l1.7-4.1l1.8,4.1H18.7z"/>
			<path style="clip-path:url(#SVGID_4_);fill:#0078A9;" d="M101.9,23.2v8.1L97,23.2h-4.3v11l-4.9-11H84l-4,9.1c0,0-1.7,0-1.8,0
				c-0.7-0.1-1.8-0.6-1.8-2.7v-0.9c0-2.8,1.5-3,3.4-3h1.8v-2.6h-3.8c-1.3,0-4.2,1-4.3,5.8c-0.1,3.2,1.3,5.9,4.5,5.9h3.8l1.1-2.6h5.8
				l1.1,2.6h5.7v-8.6l5.2,8.6h3.9V23.2H101.9z M84.2,29.8l1.7-4.1l1.8,4.1H84.2z"/>
		</g>
	</g>
</g>
</svg>
