<svg id="Layer_1" data-name="Layer 1" xmlns="http://www.w3.org/2000/svg" viewBox="0 0 125.43 78.39"><defs><style>.cls-1{fill:#f9f9f9;}.cls-2{fill:#e6e7e8;}.cls-3{fill:#0078a9;}</style></defs><title>payment-icons</title><rect class="cls-1" width="125.43" height="78.39" rx="4.18" ry="4.18"/><path class="cls-2" d="M38.92,37.37V36.12l-0.6,1.25H33.12L32.47,36v1.35H22.77l-1.15-2.71H19.67l-1.21,2.71h-5v-8.2l3.69-8.35h7.06l1,2.36V20.85h8.64l1.9,4,1.86-4H64.85a4.65,4.65,0,0,1,2.37.64V20.83h6.87v0.9a5.59,5.59,0,0,1,3.06-.9H89.27l1.07,2.4v-2.4H98.1l1.41,2.4v-2.4h7.43V37.39H99.31L97.52,34.5v2.87H88l-1.33-3H84.84l-1.25,3H77.85A7.43,7.43,0,0,1,74.1,36.2v1.18H62.67V33.51A0.43,0.43,0,0,0,62.24,33H61.83v4.39H38.92Z"/><path class="cls-2" d="M33.22,41h15l2.17,2.45L52.61,41H64.16a5.31,5.31,0,0,1,2.11.58V41H76.55a5.26,5.26,0,0,1,2.4.65V41H92.17v0.6a4.47,4.47,0,0,1,2.21-.6H103v0.6a5.25,5.25,0,0,1,2.23-.6H112v15.6a3.72,3.72,0,0,1-2.73,1h-8.91v-0.5a4.58,4.58,0,0,1-2.14.5H74.52v-4c0-.4-0.17-0.47-0.53-0.47H73.67v4.5h-7.4V53.09a5,5,0,0,1-2.19.44H61.42v4H52.3L50.23,55,48,57.57H33.22V41Z"/><polygon class="cls-3" points="80.54 43.45 89.97 43.45 89.97 45.97 83.43 45.97 83.43 48.18 89.78 48.18 89.78 50.4 83.43 50.4 83.43 52.72 89.97 52.72 89.97 55.19 80.54 55.19 80.54 43.45"/><path class="cls-3" d="M108.17,48c3.54,0.18,3.84,2,3.84,3.84a3.43,3.43,0,0,1-3.69,3.38h-6.05V52.72H107c0.8,0,2,0,2-1.13,0-.54-0.21-0.88-1.06-1-0.38-.05-1.78-0.13-2-0.14-3.2-.08-3.95-1.68-3.95-3.61a3.24,3.24,0,0,1,3.44-3.4h6.05V46H107c-1,0-2.09-.12-2.09,1,0,0.72.54,0.87,1.22,0.93,0.24,0,1.81.08,2,.08"/><path class="cls-3" d="M97.32,48c3.54,0.18,3.84,2,3.84,3.84a3.43,3.43,0,0,1-3.69,3.38H91.41V52.72h4.72c0.8,0,2,0,2-1.13,0-.54-0.21-0.88-1.06-1-0.38-.05-1.78-0.13-2-0.14-3.2-.08-3.94-1.68-3.94-3.61a3.23,3.23,0,0,1,3.43-3.4h6.05V46H96.18c-1,0-2.1-.12-2.1,1,0,0.72.54,0.87,1.22,0.93,0.23,0,1.81.08,2,.08"/><path class="cls-3" d="M63.14,43.47H53l-3.3,3.64-3.2-3.67H35.17V55.19h11l3.46-3.88L53,55.21h5.53v-4h3.88c1.49,0,4.22-.05,4.22-4.17a3.25,3.25,0,0,0-3.49-3.59M44.65,52.72H38V50.4h6.36V48.18H38V46l7,0,2.81,3.19Zm11,1.36-4.14-4.9,4.14-4.59v9.49Zm6.5-5.28H58.58V46h3.6a1.42,1.42,0,1,1,0,2.82"/><path class="cls-3" d="M77.06,49.87a3.2,3.2,0,0,0,2-3.25c0-2.51-2-3.14-3.46-3.14H68.1V55.21H71V51.07h3.77c1,0,1.39,1,1.41,2l0.08,2.15h2.8L79,52.8c0-1.89-.52-2.78-1.89-2.93m-2.49-1.22H71V46h3.6a1.38,1.38,0,0,1,1.59,1.35c0,0.79-.42,1.31-1.6,1.31"/><rect class="cls-3" x="69.26" y="23.18" width="2.88" height="11.75"/><polygon class="cls-3" points="45.66 23.19 55.08 23.19 55.08 25.72 48.55 25.72 48.55 27.92 54.9 27.92 54.9 30.15 48.55 30.15 48.55 32.47 55.08 32.47 55.08 34.93 45.66 34.93 45.66 23.19"/><path class="cls-3" d="M65.76,29.59a3.2,3.2,0,0,0,2-3.25c0-2.52-2-3.14-3.46-3.14H56.79V34.93h2.88V30.79h3.77c1,0,1.39,1,1.42,2l0.08,2.15h2.8l-0.1-2.41c0-1.89-.52-2.78-1.89-2.94m-2.49-1.21H59.68V25.71h3.6a1.38,1.38,0,0,1,1.59,1.35c0,0.79-.42,1.31-1.6,1.31"/><path class="cls-3" d="M39,23.19l-3.54,7.88L32,23.19H27.43V34.5l-5-11.31H18.59L13.45,34.93h3l1.13-2.62h5.75l1.14,2.62h5.8V26.22l3.85,8.71h2.62l3.94-8.57v8.57h2.88V23.19H39ZM18.7,29.78l1.72-4.1,1.79,4.1H18.7Z"/><path class="cls-3" d="M101.89,23.19v8.13L97,23.19H92.77v11l-4.91-11H84l-4,9.09s-1.68,0-1.85,0c-0.7-.14-1.78-0.63-1.79-2.7V28.69c0-2.75,1.49-3,3.41-3h1.78V23.19H77.85c-1.31,0-4.16,1-4.26,5.82-0.07,3.25,1.35,5.93,4.55,5.93h3.8l1.13-2.62h5.75L90,34.94h5.69v-8.6l5.19,8.6h3.93V23.19h-2.88Zm-17.71,6.6,1.72-4.1,1.81,4.1H84.18Z"/></svg>