<svg id="Layer_1" data-name="Layer 1" xmlns="http://www.w3.org/2000/svg" viewBox="0 0 125.43 78.39"><defs><style>.cls-1{fill:#f9f9f9;}.cls-2{fill:#ec1c2e;}.cls-3{fill:#0084c4;}.cls-4{fill:#fff;}</style></defs><title>payment-icons</title><rect class="cls-1" width="125.43" height="78.39" rx="4.18" ry="4.18"/><path class="cls-2" d="M77.65,61.7A23.25,23.25,0,0,0,90.7,57.54a22.47,22.47,0,1,0-16.5,3.91A27.48,27.48,0,0,0,77.65,61.7Z"/><path class="cls-3" d="M47.79,61.7a23.13,23.13,0,0,0,13-4.17,22.5,22.5,0,1,0-16.49,3.91A27.46,27.46,0,0,0,47.79,61.7Z"/><polygon class="cls-2" points="59.94 25.25 71.36 25.25 71.36 24 61.05 24 59.94 25.25"/><polygon class="cls-2" points="58.15 27.92 71.36 27.92 71.36 26.67 58.95 26.67 58.15 27.92"/><polygon class="cls-2" points="56.81 30.63 71.36 30.63 71.36 29.37 57.43 29.37 56.81 30.63"/><polygon class="cls-2" points="55.94 33.29 71.36 33.29 71.36 32.04 56.33 32.04 55.94 33.29"/><polygon class="cls-2" points="55.37 35.96 71.36 35.96 71.36 34.7 55.6 34.7 55.37 35.96"/><polygon class="cls-2" points="55.25 41.13 71.36 41.13 71.36 39.87 55.14 39.87 55.25 41.13"/><polygon class="cls-2" points="55.64 43.95 71.36 43.95 71.36 42.69 55.41 42.69 55.64 43.95"/><polygon class="cls-2" points="56.4 46.24 71.36 46.24 71.36 44.98 56.01 44.98 56.4 46.24"/><polygon class="cls-2" points="57.54 49.02 71.36 49.02 71.36 47.76 56.93 47.76 57.54 49.02"/><polygon class="cls-2" points="59.14 51.84 71.36 51.84 71.36 50.58 58.3 50.58 59.14 51.84"/><polygon class="cls-2" points="61.16 54.54 71.25 54.54 71.25 53.28 60.05 53.28 61.16 54.54"/><polygon class="cls-2" points="96.49 52.98 96.56 52.78 96.67 52.59 96.81 52.43 96.97 52.29 97.15 52.19 97.36 52.12 97.57 52.1 97.79 52.12 98 52.19 98.18 52.29 98.35 52.43 98.48 52.59 98.58 52.78 98.65 52.98 98.42 52.98 98.38 52.83 98.3 52.68 98.19 52.55 98.06 52.44 97.92 52.36 97.75 52.31 97.57 52.29 97.39 52.31 97.22 52.36 97.07 52.44 96.94 52.55 96.84 52.68 96.76 52.83 96.71 52.98 96.49 52.98"/><polygon class="cls-2" points="97.19 52.98 97.19 52.71 97.61 52.71 97.7 52.72 97.78 52.72 97.86 52.75 97.92 52.78 97.96 52.81 98 52.86 98.02 52.91 98.03 52.98 97.84 52.98 97.83 52.94 97.81 52.91 97.79 52.88 97.76 52.86 97.72 52.84 97.69 52.83 97.65 52.83 97.61 52.83 97.38 52.83 97.38 52.98 97.19 52.98"/><polygon class="cls-2" points="96.47 53.17 96.49 52.98 96.49 52.98 96.71 52.98 96.7 53.01 96.69 53.17 96.47 53.17"/><polygon class="cls-2" points="97.19 53.17 97.19 52.98 97.38 52.98 97.38 53.13 97.57 53.13 97.64 53.13 97.69 53.13 97.74 53.12 97.78 53.11 97.8 53.09 97.82 53.06 97.84 53.03 97.84 52.98 98.03 52.98 98.02 53.04 98.01 53.1 97.98 53.15 97.96 53.17 97.19 53.17"/><polygon class="cls-2" points="98.44 53.17 98.43 53.01 98.42 52.98 98.65 52.98 98.65 52.98 98.67 53.17 98.44 53.17"/><path class="cls-2" d="M96.47,53.17v0l0,0.22,0.07,0.21a1.68,1.68,0,0,0,.25.34,1.46,1.46,0,0,0,.35.22,1.47,1.47,0,0,0,.42.08A1.59,1.59,0,0,0,98,54.2,1.46,1.46,0,0,0,98.35,54a1.69,1.69,0,0,0,.24-0.34l0.07-.21,0-.26H98.44l0,0.23a1.05,1.05,0,0,1-.24.47L98.06,54l-0.15.08-0.17.05a1.27,1.27,0,0,1-.35,0l-0.17-.05a1.11,1.11,0,0,1-.28-0.19,1.22,1.22,0,0,1-.18-0.29L96.7,53.4C96.74,53.2,96.67,53.12,96.47,53.17Z"/><polygon class="cls-2" points="97.19 53.17 97.19 53.63 97.38 53.63 97.38 53.25 97.57 53.25 97.8 53.63 97.99 53.63 97.72 53.25 97.78 53.24 97.85 53.23 97.9 53.21 97.95 53.18 97.96 53.17 97.19 53.17"/><path class="cls-4" d="M54.27,37.47c-0.36-2.86-3.9-3-6.09-2.83h0a5.93,5.93,0,0,0-2.42.55L44.9,38c1-.69,6.71-1.72,5.82.91A14.91,14.91,0,0,0,48,39h0c-2.16.17-4.29,1.23-4.68,3.57a3.25,3.25,0,0,0,3.5,4,5.21,5.21,0,0,0,3.11-1.17c-0.06.33-.1,0.66-0.14,1h2.89c0.26-1.46.53-2.91,0.82-4.37A18.39,18.39,0,0,0,54.27,37.47Zm-3.84,3.76a3.85,3.85,0,0,1-.62,1.88,2.75,2.75,0,0,1-2.35.79,1.17,1.17,0,0,1-.42-2,3,3,0,0,1,1.54-.84C48.89,41,50.59,40.63,50.43,41.23Z"/><path class="cls-4" d="M71.64,37.21a11.19,11.19,0,0,0,1.13.15V37.25l0.1,0,0.56-2.52c-0.66-.06-1.3-0.18-2-0.21h0l-0.62,0h0c-2.14-.05-5.1.12-5.6,2.73h0a3.23,3.23,0,0,0,.82,3.41c0.81,0.67,2.71.8,3.15,1.77l0,0.12v0.13a1.48,1.48,0,0,1-.3.75,1.41,1.41,0,0,1-.3.23c-1.34.51-3.09-.08-4.42-0.35l-0.5,2.52a9.12,9.12,0,0,0,3.1.52h0c1.62,0,3.45.08,4.76-1.05a4,4,0,0,0,.87-4.51,3.57,3.57,0,0,0-2.21-1.43h0a3.18,3.18,0,0,1-1.37-.67,1,1,0,0,1-.24-0.5c-0.07-1.14,2-1.05,2.68-1h0Z"/><path class="cls-4" d="M78.46,43.66a2.16,2.16,0,0,1-2-.05l-0.07-.12a6.74,6.74,0,0,1,.33-2.5l0.61-3.67,1.87,0,0.45-2.58H77.85l0.46-2.59h-3.2L73.29,42.87a4.6,4.6,0,0,0-.12,2.45c0.41,0.94,1.73,1,2.61,1A5.31,5.31,0,0,0,78,46h0a1.88,1.88,0,0,0,.29-0.15l0.33-2.23Z"/><path class="cls-4" d="M63.57,42.95a6.39,6.39,0,0,1-4.27.79h0a2.26,2.26,0,0,1-2.1-2.3h6.85l0.13-.74c0.48-2.27.22-4.95-2.29-5.83A5.75,5.75,0,0,0,54,39.45h0a5.84,5.84,0,0,0,1.17,5.34c1.34,1.34,3.3,1.57,5.1,1.54a6,6,0,0,0,3-.6l0.51-2.9Zm-2.31-4v0.18H57.63a2.22,2.22,0,0,1,1.9-2A1.61,1.61,0,0,1,61.26,39Z"/><polygon class="cls-4" points="39.1 32.2 35.83 40.12 35.36 32.2 30.13 32.2 27.66 46.34 30.77 46.34 32.55 36.23 33.14 46.34 36.55 46.34 40.7 36.28 38.94 46.34 42.05 46.34 44.53 32.2 39.1 32.2"/><path class="cls-4" d="M86,37.82l0.21,0h0l0.08,0h0.12c0.06-.32.13-0.64,0.22-1h0A6.14,6.14,0,0,1,86.93,36h0a4.16,4.16,0,0,1,.18-0.4h0c0.15-.32.35-0.61,0.5-0.93h-0.2a3.53,3.53,0,0,0-3.53,1.62h0l0,0,0.29-1.57-3.23,0-2,11.47,0.11,0v0.11h3.1c0.34-2,.66-4,1-6A2.7,2.7,0,0,1,86,37.82Z"/><polygon class="cls-4" points="96.47 45.67 97.34 45.67 97.34 45.78 97 45.78 97 46.5 96.81 46.5 96.81 45.78 96.47 45.78 96.47 45.67"/><polygon class="cls-4" points="97.45 45.67 97.72 45.67 98.03 46.31 98.33 45.67 98.6 45.67 98.6 46.5 98.4 46.5 98.4 45.86 98.1 46.5 97.95 46.5 97.64 45.86 97.64 46.5 97.45 46.5 97.45 45.67"/><path class="cls-4" d="M97.72,40.13A5.37,5.37,0,0,0,92,34.63v0A6.21,6.21,0,0,0,86,42.37c0.82,4,5.69,5.22,9,3.31A6.31,6.31,0,0,0,97.72,40.13ZM94,39.6a5.15,5.15,0,0,1-1,3.07,2,2,0,0,1-3,.12c-1.18-1.6-.16-5.15,1.9-5.5C93.43,37,94.08,38.27,94,39.6Z"/></svg>