<?xml version="1.0" encoding="iso-8859-1"?>
<!-- Generator: Adobe Illustrator 19.1.0, SVG Export Plug-In . SVG Version: 6.00 Build 0)  -->
<svg version="1.1" id="Layer_1" xmlns="http://www.w3.org/2000/svg" xmlns:xlink="http://www.w3.org/1999/xlink" x="0px" y="0px"
	 viewBox="0 0 125.43 78.393" style="enable-background:new 0 0 125.43 78.393;" xml:space="preserve">
<g>
	<path style="fill:#F9F9F9;" d="M125.43,74.213c0,2.309-1.871,4.18-4.181,4.18H4.181c-2.31,0-4.181-1.871-4.181-4.18V4.18
		C0,1.871,1.871,0,4.181,0h117.067c2.31,0,4.181,1.871,4.181,4.18V74.213z"/>
</g>
<g>
	<path style="fill:#1D2877;" d="M32.195,57.86h0.756c1.025,0,1.83-0.366,1.83-1.537c0-1.122-0.805-1.488-1.83-1.488h-0.756V57.86z
		 M29.243,52.736h3.537c3.391,0,4.977,1.147,4.977,3.635c0,2.244-1.635,3.586-4.416,3.586h-1.147v3.879h-2.952V52.736z"/>
	<path style="fill:#1D2877;" d="M41.075,62.129c1.073,0,1.757-0.976,1.757-1.952c-0.366-0.024-0.781-0.049-1.22-0.049
		c-0.976,0-1.732,0.293-1.732,1.098C39.88,61.788,40.392,62.129,41.075,62.129 M43.052,63.837c-0.024-0.439-0.073-0.878-0.073-1.293
		h-0.024c-0.659,1.025-1.439,1.488-2.635,1.488c-1.635,0-3.098-0.805-3.098-2.61c0-2.537,2.757-2.83,4.269-2.83
		c0.464,0,0.976,0.049,1.342,0.122c-0.024-1.122-0.854-1.439-1.903-1.439c-0.927,0-1.854,0.171-2.635,0.61l-0.049-1.952
		c1.025-0.415,2.074-0.586,3.318-0.586c2.122,0,3.952,0.903,3.952,3.44v3.098c0,0.659,0.024,1.293,0.171,1.952L43.052,63.837
		L43.052,63.837z"/>
	<path style="fill:#1D2877;" d="M46.638,65.008c0.39,0.122,0.732,0.171,1.122,0.171c0.707,0,1.244-0.415,1.439-1.147l-3.342-8.466
		h3.098l1.781,5.416h0.024l1.708-5.416h2.854l-3.05,7.709c-0.805,2.074-1.439,4.099-4.05,4.099c-0.61,0-1.195-0.073-1.781-0.195
		L46.638,65.008z"/>
	<path style="fill:#1D2877;" d="M58.958,57.86h0.756c1.025,0,1.83-0.366,1.83-1.537c0-1.122-0.805-1.488-1.83-1.488h-0.756V57.86z
		 M56.006,52.736h3.513c3.391,0,4.977,1.147,4.977,3.635c0,2.244-1.635,3.586-4.416,3.586h-1.147v3.879h-2.952v-11.1H56.006z"/>
	<path style="fill:#1D2877;" d="M71.132,59.714c0-1.244-0.537-2.342-1.854-2.342s-1.854,1.098-1.854,2.342
		c0,1.22,0.537,2.318,1.854,2.318C70.595,62.031,71.132,60.934,71.132,59.714 M64.447,59.714c0-2.757,2.074-4.343,4.83-4.343
		c2.732,0,4.83,1.586,4.83,4.343c0,2.732-2.074,4.318-4.83,4.318C66.545,64.032,64.447,62.446,64.447,59.714"/>
	<path style="fill:#1D2877;" d="M74.84,55.566h2.854v8.295H74.84V55.566z M77.719,54.591h-2.854v-1.854h2.854V54.591z"/>
	<path style="fill:#1D2877;" d="M79.353,55.566h2.61v1.537h0.024c0.561-1.195,1.708-1.708,3.025-1.708
		c2.269,0,3.172,1.586,3.172,3.318v5.172H85.33v-4.001c0-1.561-0.537-2.074-1.317-2.074c-1.171,0-1.781,0.805-1.781,2.586v3.513
		h-2.854v-8.344H79.353z"/>
	<path style="fill:#1D2877;" d="M88.599,55.566h1.683v-1.854l2.806-0.878v2.732h2v2h-2v3.05c0,1,0.244,1.513,1.147,1.513
		c0.293,0,0.586-0.073,0.878-0.122l0.098,1.854c-0.537,0.073-1.073,0.171-1.805,0.171c-2.562,0-3.172-1.122-3.172-3.098v-3.367
		h-1.635V55.566z"/>
	<path style="fill:#1D2877;" d="M32.195,57.86h0.756c1.025,0,1.83-0.366,1.83-1.537c0-1.122-0.805-1.488-1.83-1.488h-0.756V57.86z
		 M29.243,52.736h3.537c3.391,0,4.977,1.147,4.977,3.635c0,2.244-1.635,3.586-4.416,3.586h-1.147v3.879h-2.952V52.736z"/>
	<path style="fill:#1D2877;" d="M41.075,62.129c1.073,0,1.757-0.976,1.757-1.952c-0.366-0.024-0.781-0.049-1.22-0.049
		c-0.976,0-1.732,0.293-1.732,1.098C39.88,61.788,40.392,62.129,41.075,62.129 M43.052,63.837c-0.024-0.439-0.073-0.878-0.073-1.293
		h-0.024c-0.659,1.025-1.439,1.488-2.635,1.488c-1.635,0-3.098-0.805-3.098-2.61c0-2.537,2.757-2.83,4.269-2.83
		c0.464,0,0.976,0.049,1.342,0.122c-0.024-1.122-0.854-1.439-1.903-1.439c-0.927,0-1.854,0.171-2.635,0.61l-0.049-1.952
		c1.025-0.415,2.074-0.586,3.318-0.586c2.122,0,3.952,0.903,3.952,3.44v3.098c0,0.659,0.024,1.293,0.171,1.952L43.052,63.837
		L43.052,63.837z"/>
	<path style="fill:#1D2877;" d="M46.638,65.008c0.39,0.122,0.732,0.171,1.122,0.171c0.707,0,1.244-0.415,1.439-1.147l-3.342-8.466
		h3.098l1.781,5.416h0.024l1.708-5.416h2.854l-3.05,7.709c-0.805,2.074-1.439,4.099-4.05,4.099c-0.61,0-1.195-0.073-1.781-0.195
		L46.638,65.008z"/>
	<path style="fill:#1D2877;" d="M58.958,57.86h0.756c1.025,0,1.83-0.366,1.83-1.537c0-1.122-0.805-1.488-1.83-1.488h-0.756V57.86z
		 M56.006,52.736h3.513c3.391,0,4.977,1.147,4.977,3.635c0,2.244-1.635,3.586-4.416,3.586h-1.147v3.879h-2.952v-11.1H56.006z"/>
	<path style="fill:#1D2877;" d="M71.132,59.714c0-1.244-0.537-2.342-1.854-2.342s-1.854,1.098-1.854,2.342
		c0,1.22,0.537,2.318,1.854,2.318C70.595,62.031,71.132,60.934,71.132,59.714 M64.447,59.714c0-2.757,2.074-4.343,4.83-4.343
		c2.732,0,4.83,1.586,4.83,4.343c0,2.732-2.074,4.318-4.83,4.318C66.545,64.032,64.447,62.446,64.447,59.714"/>
	<path style="fill:#1D2877;" d="M74.84,55.566h2.854v8.295H74.84V55.566z M77.719,54.591h-2.854v-1.854h2.854V54.591z"/>
	<path style="fill:#1D2877;" d="M79.353,55.566h2.61v1.537h0.024c0.561-1.195,1.708-1.708,3.025-1.708
		c2.269,0,3.172,1.586,3.172,3.318v5.172H85.33v-4.001c0-1.561-0.537-2.074-1.317-2.074c-1.171,0-1.781,0.805-1.781,2.586v3.513
		h-2.854v-8.344H79.353z"/>
	<path style="fill:#1D2877;" d="M88.599,55.566h1.683v-1.854l2.806-0.878v2.732h2v2h-2v3.05c0,1,0.244,1.513,1.147,1.513
		c0.293,0,0.586-0.073,0.878-0.122l0.098,1.854c-0.537,0.073-1.073,0.171-1.805,0.171c-2.562,0-3.172-1.122-3.172-3.098v-3.367
		h-1.635V55.566z"/>
	<path style="fill:#1D2877;" d="M74.254,29.56h-3.269v-9.563h3.22c3.611,0,7.197,0.488,7.197,4.586
		C81.378,28.901,77.792,29.56,74.254,29.56 M82.061,11.019H56.518c3.855,0,12.393,3.464,12.393,13.296
		c0,10.076-6.831,14.223-12.369,14.223h-0.024v11.125h14.833V38.538h10.637c7.758,0,14.223-4.147,14.223-14.223
		C96.235,13.898,88.087,11.019,82.061,11.019"/>
	<path style="fill:#1D2877;" d="M46.931,29.56h-3.269v-9.563h3.22c3.611,0,7.197,0.488,7.197,4.586
		C54.079,28.901,50.468,29.56,46.931,29.56 M29.219,11.019v38.644h14.833V38.538h12.466V11.019H29.219z"/>
</g>
</svg>
