<svg id="Layer_1" data-name="Layer 1" xmlns="http://www.w3.org/2000/svg" viewBox="0 0 125.43 78.39"><defs><style>.cls-1{fill:#f9f9f9;}.cls-2{fill:#008060;fill-rule:evenodd;}</style></defs><title>payment-icons</title><rect class="cls-1" width="125.43" height="78.39" rx="4.18" ry="4.18"/><path class="cls-2" d="M100.26,36.45c0-3.2-2.48-9.16-10.5-9.18a11.65,11.65,0,0,0-7.31,2.54V27.54H77.1V29.8a9.58,9.58,0,0,0-4.52-2.4,12.06,12.06,0,0,0-5.53.46,8,8,0,0,0-4,2.53c-2.24-2.5-5.78-3-8.6-3.11-3.21-.12-6.45.28-9,2.12a19.5,19.5,0,0,0-8.91-2.2,12.09,12.09,0,0,0-7.91,2.45,4.59,4.59,0,0,0-1.42,2,5.39,5.39,0,0,0,.38,4.91c1.5,2,3.18,2.78,6.19,3.12,2.65,0.3,4.5.3,6.46,0.66a2,2,0,0,1,1.78,1.87c0,1.18-1.66,3.12-5.66,2.86-3.33-.21-4.59-0.69-7.72-2.72l-3.54,2.86s0.6,0.48,1,.75,0.81,0.51,1.23.73h0A19.81,19.81,0,0,0,39.59,48.8a14.24,14.24,0,0,0,5.54-2.06A10,10,0,0,0,52.43,49c2.66-.12,4.64,0,6.49-2.15V49H64.1V46.86a15.76,15.76,0,0,0,1.39,1c3.29,2,8.52,1.23,11.61-1.13v2.75C77,51.18,75.47,52.34,73.83,53c-2.83,1.13-5.4.12-7.7-1.5l-3.92,2.62a11,11,0,0,0,3.54,2.37,14.05,14.05,0,0,0,12.64-.75c2.26-1.34,3.13-3,3.68-5.51a18.32,18.32,0,0,0,.36-3.5v-0.1l0.13,0.1A11.63,11.63,0,0,0,86.1,48.5a14.76,14.76,0,0,0,8.13,0A11.52,11.52,0,0,0,98,46.72h0a13.07,13.07,0,0,0,1.69-1.45l-3.39-2.41A9.77,9.77,0,0,1,91.52,45c-2.25.29-4.8-.12-6.18-1.62-0.75-.81-1-1.06-1-3.11l15.93,0V36.45ZM66.34,37.93c0-1.18.16-2.44,0.28-3.67a3.18,3.18,0,0,1,1.81-1.89A6.75,6.75,0,0,1,74.23,32a3.54,3.54,0,0,1,2.55,2.69c0.1,1.13.22,2.2,0.27,3.23a12.88,12.88,0,0,1-.24,3.67,3.43,3.43,0,0,1-1.32,2,5.68,5.68,0,0,1-3.8,1.21c-2.23-.12-4.22-1-4.81-2.24a10.75,10.75,0,0,1-.53-4.57m-9.45,6.85a12.18,12.18,0,0,1-4.78.3c-1.57-.19-3.07-0.3-3.68-1.71a1.94,1.94,0,0,1,.25-2.12c0.81-1,2.69-1.23,3.81-1.24h6.17c0.16,1.61.68,4-1.78,4.78M38.57,36c-2.47-.13-4.75-0.18-6-1.17A1.9,1.9,0,0,1,33,32a7.46,7.46,0,0,1,4.17-.77,12.75,12.75,0,0,1,6.19,2l2.15-2,2.27,2a8,8,0,0,1,6-1.84c3.37,0,4.33.66,4.83,1.4,0.31,0.47,0,3.32,0,3.32s-3,.09-5.12,0a17.51,17.51,0,0,0-4.37.19,7,7,0,0,0-3.66,1.58,13.86,13.86,0,0,0-1.91-1.09c-1.81-.83-3.11-0.68-5-0.78m45.89,0.37a5.33,5.33,0,0,1,.89-3.11,5.94,5.94,0,0,1,5-2.27,6.25,6.25,0,0,1,4.94,2.14,5.13,5.13,0,0,1,1,3.25H84.46Z"/></svg>