<svg id="Layer_1" data-name="Layer 1" xmlns="http://www.w3.org/2000/svg" viewBox="0 0 125.43 78.39"><defs><style>.cls-1{fill:#f9f9f9;}</style></defs><title>payment-icons</title><rect class="cls-1" width="125.43" height="78.39" rx="4.18" ry="4.18"/><path d="M71.92,30.33H77.6l0.33,2L78,32.36a6,6,0,0,1,.41-0.47A6.49,6.49,0,0,1,82,30a5.94,5.94,0,0,1,5.19,1.52A7.11,7.11,0,0,1,89,34.41a15.65,15.65,0,0,1,.76,4.73,19.79,19.79,0,0,1-.43,5,9.75,9.75,0,0,1-2.07,4.31,7.32,7.32,0,0,1-4.55,2.44,9.41,9.41,0,0,1-4-.29l-0.18,0H78.39V57.1l-6.47,1.07V30.33ZM78.39,41v4.32c0,0.6,0,.6.58,0.77a2.66,2.66,0,0,0,3.3-1.15A5.83,5.83,0,0,0,83,43.05a15.17,15.17,0,0,0,.12-5.23,4.71,4.71,0,0,0-.72-2.09,1.8,1.8,0,0,0-1.88-.82,3.76,3.76,0,0,0-2,1.09,0.46,0.46,0,0,0-.15.37c0,1.53,0,3.05,0,4.58"/><path d="M97.5,42.56a4,4,0,0,0,1.32,2.93,3.8,3.8,0,0,0,2.36.71,11.53,11.53,0,0,0,5.69-1.27l0.11,0c0.08,0.48.16,0.95,0.23,1.42,0.15,0.94.29,1.89,0.45,2.83a0.26,0.26,0,0,1-.15.31,10.46,10.46,0,0,1-3.3,1.24,15.25,15.25,0,0,1-6.45.06,7.74,7.74,0,0,1-6.14-5.85,16.42,16.42,0,0,1-.48-5.75,12.07,12.07,0,0,1,1.1-4.39A7.94,7.94,0,0,1,98.66,30a9.4,9.4,0,0,1,4.29.36,7,7,0,0,1,4.26,4,11.58,11.58,0,0,1,1,4.22c0.07,1.27,0,2.55,0,3.82l0,0.14H97.5Zm4.71-4a9.74,9.74,0,0,0-.33-2.41,3,3,0,0,0-.8-1.41,1.89,1.89,0,0,0-2.85.54,7.58,7.58,0,0,0-.78,3.27h4.76Z"/><path d="M20.65,44.41a15.28,15.28,0,0,0,3.74,1.48,8.47,8.47,0,0,0,2.71.35A3.21,3.21,0,0,0,28,46.06a1.23,1.23,0,0,0,.39-2.16,6.36,6.36,0,0,0-1.82-1c-1-.42-2-0.82-3-1.27a6.44,6.44,0,0,1-1.94-1.39,5.07,5.07,0,0,1-1.42-3.17,6.62,6.62,0,0,1,.69-3.89,6,6,0,0,1,3.65-2.83,10.82,10.82,0,0,1,3.9-.4,15.29,15.29,0,0,1,5.32,1.24,0.3,0.3,0,0,1,.21.4c-0.25,1.46-.48,2.93-0.72,4.4l0,0.13c-0.56-.23-1.1-0.47-1.66-0.67a10.14,10.14,0,0,0-3.82-.72,2.62,2.62,0,0,0-.91.19,1,1,0,0,0-.39,1.58,2.7,2.7,0,0,0,1.12.8c0.85,0.36,1.72.69,2.59,1a11.19,11.19,0,0,1,2.73,1.49,5.24,5.24,0,0,1,2.07,4.09,7.23,7.23,0,0,1-.6,3.5,5.86,5.86,0,0,1-3.61,3.08,11.36,11.36,0,0,1-4.31.51,16.21,16.21,0,0,1-5.9-1.41c-0.62-.28-0.63-0.29-0.52-0.94q0.33-2.06.66-4.12l0-.14"/><path d="M44.29,24.5v5.82h4.14l-0.79,4.83H44.29v0.28c0,2.7,0,5.4,0,8.11a4.79,4.79,0,0,0,.14,1.11,1.37,1.37,0,0,0,1.27,1.08,6.36,6.36,0,0,0,2.11-.21l0.17,0,0,0.19q0,2.35,0,4.7a0.19,0.19,0,0,1-.15.24,12.09,12.09,0,0,1-6,.12,4.7,4.7,0,0,1-3.72-4,11.49,11.49,0,0,1-.21-2.14c0-3.05,0-6.11,0-9.16V35.15H35.24L36,30.65c0.59-.1,1.17-0.2,1.75-0.28A0.24,0.24,0,0,0,38,30.12c0.24-1.48.49-3,.72-4.45A0.33,0.33,0,0,1,39,25.36l5.25-.86"/><path d="M61.27,36.18a8,8,0,0,0-2.69.1,3.47,3.47,0,0,0-1.78,1,0.61,0.61,0,0,0-.19.45q0,6.3,0,12.59v0.33H50.15V30.32h5.41a0.24,0.24,0,0,1,.3.25c0.09,0.68.22,1.36,0.33,2.07l0.07-.11a3.77,3.77,0,0,1,3.53-2.46,10.11,10.11,0,0,1,1.33.1,0.16,0.16,0,0,1,.17.19q0,2.88,0,5.76l0,0.07"/><rect x="62.87" y="30.34" width="6.49" height="20.29"/><path d="M62.7,24.9a3.41,3.41,0,1,1,3.4,3.44,3.39,3.39,0,0,1-3.4-3.44"/></svg>