<svg id="Layer_1" data-name="Layer 1" xmlns="http://www.w3.org/2000/svg" viewBox="0 0 125.43 78.39"><defs><style>.cls-1{fill:#f9f9f9;}.cls-2{fill:#203c73;}</style></defs><title>payment-icons</title><rect class="cls-1" width="125.43" height="78.39" rx="4.18" ry="4.18"/><path class="cls-2" d="M39.61,45.13h-2.7l-2.32-8.41a21.51,21.51,0,0,1-.53-2.56h0a18.19,18.19,0,0,1-.48,2.52l-2.3,8.45H28.69l-3.53-13.6H27.5l2.1,8.26a20.81,20.81,0,0,1,.52,2.68h0a21,21,0,0,1,.54-2.58L33,31.53h2.4l2.38,8.38a24.57,24.57,0,0,1,.54,2.5h0c0.14-.85.28-1.63,0.48-2.38l2.12-8.51h2.2l-3.53,13.6"/><path class="cls-2" d="M47.1,45.33c-2.78,0-4.6-1.55-4.6-5.08,0-3,2-5.34,5-5.34,2.68,0,4.57,1.49,4.57,5,0,3.08-2,5.4-5,5.4m0.22-8.6c-1.31,0-2.58,1-2.58,3.31s0.89,3.45,2.56,3.45c1.39,0,2.56-1.09,2.56-3.41,0-2.14-.83-3.35-2.54-3.35"/><path class="cls-2" d="M58.41,37c-2-.38-3,1-3,4v4.07H53.29v-10h2.06a13.46,13.46,0,0,1-.2,2.22h0a3.06,3.06,0,0,1,3.33-2.4L58.41,37"/><rect class="cls-2" x="59.66" y="31.4" width="2.16" height="13.73"/><path class="cls-2" d="M70,45.13a12.31,12.31,0,0,1,.14-1.87h0a3.46,3.46,0,0,1-3.27,2.07c-2.46,0-3.69-1.81-3.69-4.72,0-3.45,2-5.66,5.24-5.66,0.48,0,1,0,1.51.08V31.4H72V45.13H70m-0.1-8.28a7.28,7.28,0,0,0-1.59-.18c-1.71,0-2.88,1-2.88,3.75,0,2,.63,3.15,2,3.15,1.59,0,2.48-1.9,2.48-3.61v-3.1Z"/><path class="cls-2" d="M76.81,40.15a8.85,8.85,0,0,1-1,0v5h-2.2V31.53c1,0,2.22-.08,3.49-0.08,3.23,0,5,1.57,5,4.09S80,40.15,76.81,40.15m0.12-6.91a9.61,9.61,0,0,0-1.13,0v5a7.6,7.6,0,0,0,1,.08c1.83,0,3-1,3-2.62s-0.91-2.48-2.88-2.48"/><path class="cls-2" d="M88.31,45.13a13.63,13.63,0,0,1,.1-1.85l0,0a3.5,3.5,0,0,1-3.32,2.07,2.64,2.64,0,0,1-2.8-2.78c0-2.26,2.23-3.49,5.91-3.49V38.48c0-1.23-.52-1.9-2.1-1.9a6.7,6.7,0,0,0-2.86.73l-0.42-1.73a10.78,10.78,0,0,1,3.65-.67c3,0,3.89,1.33,3.89,3.33v4.15c0,0.87,0,1.9.06,2.74H88.31m-0.14-4.62c-3,0-3.83.83-3.83,1.77a1.3,1.3,0,0,0,1.37,1.35,2.68,2.68,0,0,0,2.46-2.84V40.51Z"/><path class="cls-2" d="M96.15,45.84c-1.25,3.34-2.58,4.37-4.86,4.37A8.43,8.43,0,0,1,90,50.09l0.24-1.87a4.76,4.76,0,0,0,1.23.16c0.95,0,1.84-.46,2.5-2.26l0.36-1-3.75-10H93l1.63,4.57c0.32,0.89.56,1.77,0.79,2.62h0c0.2-.81.63-2.11,1-3.12l1.43-4.07h2.32L96.15,45.84"/><polygon class="cls-2" points="96.88 31.58 96.17 31.58 96.17 31.32 97.89 31.32 97.89 31.58 97.17 31.58 97.17 33.5 96.88 33.5 96.88 31.58"/><path class="cls-2" d="M98.19,31.32h0.43l0.51,1.55c0.07,0.22.09,0.26,0.1,0.32h0l0.11-.35,0.52-1.52h0.39V33.5H100V31.68h0L99.36,33.5H99.1l-0.62-1.85h0V33.5H98.19V31.32"/></svg>