<svg id="Layer_1" data-name="Layer 1" xmlns="http://www.w3.org/2000/svg" viewBox="0 0 125.43 78.39"><defs><style>.cls-1{fill:#f9f9f9;}.cls-2{fill:#369;}.cls-3{fill:#036;}</style></defs><title>payment-icons</title><rect class="cls-1" width="125.43" height="78.39" rx="4.18" ry="4.18"/><path class="cls-2" d="M87.87,35a8,8,0,0,0-3.73-.67,16.39,16.39,0,0,0-2.53.2c-0.62.09-.69,0.11-1.07,0.19a1.22,1.22,0,0,0-.92,1l-0.25,1c-0.14.67,0.24,0.64,0.41,0.59A10.66,10.66,0,0,1,81,36.93a9.21,9.21,0,0,1,2-.26,5.18,5.18,0,0,1,1.89.27,1,1,0,0,1,.63.95,0.72,0.72,0,0,1,0,.3,0.33,0.33,0,0,1-.3.19c-1.19.07-2,.18-3.08,0.33a9.63,9.63,0,0,0-2.65.73,4.13,4.13,0,0,0-1.8,1.42A3.87,3.87,0,0,0,77,43a2.56,2.56,0,0,0,.85,2,3.2,3.2,0,0,0,2.2.76,5.88,5.88,0,0,0,1.31-.12,6.63,6.63,0,0,0,1-.34,5.21,5.21,0,0,0,.86-0.48l0.79-.53v0L84,44.64h0a0.62,0.62,0,0,0,.56.78h2a1.09,1.09,0,0,0,.89-0.78l1.53-6.58A3.93,3.93,0,0,0,89,37.53a4.36,4.36,0,0,0,0-.5A2.2,2.2,0,0,0,87.87,35m-3.7,7.84a5.57,5.57,0,0,1-.82.42,3,3,0,0,1-1.09.24,2.43,2.43,0,0,1-1.19-.23,0.8,0.8,0,0,1-.41-0.78,1.6,1.6,0,0,1,.3-1,2.18,2.18,0,0,1,.89-0.6,7.57,7.57,0,0,1,1.38-.31c0.48-.06,1.42-0.17,1.54-0.17s0.2-.07.15,0.25c0,0.14-.3,1.26-0.42,1.76a1,1,0,0,1-.33.43"/><path class="cls-3" d="M61.64,34.44a1.79,1.79,0,0,0-1.31.8L57,40.88c-0.16.28-.32,0.1-0.35,0l-0.92-5.61a1.15,1.15,0,0,0-1.14-.82H52.76a0.62,0.62,0,0,0-.63.8s1.43,8.08,1.7,10a2.09,2.09,0,0,1,0,1.24L52,49.7c-0.27.44-.12,0.8,0.33,0.8h2.16a1.76,1.76,0,0,0,1.31-.79l8.32-14.07s0.8-1.2.06-1.19H61.64"/><path class="cls-3" d="M35.38,37.3a4.39,4.39,0,0,1-2.63.69H32.23a0.62,0.62,0,0,1-.64-0.8l0.63-2.71a1.06,1.06,0,0,1,1-.79h0.68a3.3,3.3,0,0,1,1.81.41,1.36,1.36,0,0,1,.6,1.24,2.25,2.25,0,0,1-.94,2m4.51-4.17a3.11,3.11,0,0,0-1.15-1.23,5.26,5.26,0,0,0-1.81-.67,15.21,15.21,0,0,0-2.46-.2H30.11a1.09,1.09,0,0,0-1,.79L26.17,44.61a0.62,0.62,0,0,0,.63.8h2.09a1.07,1.07,0,0,0,1-.8l0.72-3.1a1.07,1.07,0,0,1,1-.79h0.6a9.9,9.9,0,0,0,6-1.57A4.88,4.88,0,0,0,40.29,35a3.9,3.9,0,0,0-.4-1.88"/><path class="cls-2" d="M73.29,37.35a4.42,4.42,0,0,1-2.63.68H70.14a0.62,0.62,0,0,1-.63-0.8l0.63-2.71a1.07,1.07,0,0,1,1-.79h0.68a3.41,3.41,0,0,1,1.82.4,1.4,1.4,0,0,1,.61,1.25,2.3,2.3,0,0,1-.94,2m4.51-4.18a3.2,3.2,0,0,0-1.15-1.23,5.16,5.16,0,0,0-1.82-.67,14.43,14.43,0,0,0-2.46-.19H68a1.09,1.09,0,0,0-1,.8L64.08,44.66a0.62,0.62,0,0,0,.63.8h2.1a1.09,1.09,0,0,0,1-.79l0.71-3.1a1.07,1.07,0,0,1,1-.79h0.6a9.87,9.87,0,0,0,6-1.57,4.92,4.92,0,0,0,2.13-4.14,4,4,0,0,0-.4-1.88"/><path class="cls-3" d="M50,35a8,8,0,0,0-3.73-.67,16.53,16.53,0,0,0-2.53.2c-0.62.1-.68,0.11-1.07,0.2a1.22,1.22,0,0,0-.92,1l-0.26,1c-0.15.67,0.24,0.64,0.41,0.59a11.32,11.32,0,0,1,1.24-.37,9.14,9.14,0,0,1,2-.26,5.18,5.18,0,0,1,1.89.27,1,1,0,0,1,.63.95,0.67,0.67,0,0,1,0,.29,0.32,0.32,0,0,1-.3.19c-1.19.07-2,.18-3.08,0.33a9.61,9.61,0,0,0-2.65.73,4.14,4.14,0,0,0-1.79,1.42,3.83,3.83,0,0,0-.6,2.18A2.56,2.56,0,0,0,40,45a3.2,3.2,0,0,0,2.2.76,5.89,5.89,0,0,0,1.31-.12,6.67,6.67,0,0,0,1-.34,5.22,5.22,0,0,0,.86-0.48l0.79-.52v0l-0.08.34h0a0.62,0.62,0,0,0,.56.78h2a1.09,1.09,0,0,0,.89-0.78L51,38.05a3.71,3.71,0,0,0,.08-0.54,4,4,0,0,0,0-.5A2.2,2.2,0,0,0,50,35m-3.69,7.84a5.35,5.35,0,0,1-.82.42,2.94,2.94,0,0,1-1.09.24,2.44,2.44,0,0,1-1.19-.23,0.81,0.81,0,0,1-.41-0.78,1.58,1.58,0,0,1,.31-1,2.14,2.14,0,0,1,.89-0.6,7.72,7.72,0,0,1,1.38-.31c0.48-.06,1.42-0.17,1.54-0.17s0.2-.07.15,0.25c0,0.14-.29,1.26-0.42,1.76a1,1,0,0,1-.33.43"/><path class="cls-2" d="M95.07,31.19H93.2a1.07,1.07,0,0,0-1,.72l0,0.07-0.1.47L89.51,44.14l-0.12.5h0a0.61,0.61,0,0,0,.55.77v0H91.9a1.08,1.08,0,0,0,1-.73l0-.07L95.7,32h0a0.62,0.62,0,0,0-.63-0.79"/><path class="cls-2" d="M97.9,33.76l-0.21,0-0.2,0A0.63,0.63,0,0,1,97,33.66a0.76,0.76,0,0,1-.16-0.54V32H96.63V31.75h0.23V31.17H97.2v0.58h0.7V32H97.2V33c0,0.11,0,.19,0,0.25l0.05,0.17,0.11,0.11a0.53,0.53,0,0,0,.21,0l0.18,0,0.13,0h0v0.31Z"/><path class="cls-2" d="M101.29,33.78h-0.34V32.37l-0.05-.19-0.12-.12a0.5,0.5,0,0,0-.22,0,0.61,0.61,0,0,0-.29.07,1.59,1.59,0,0,0-.29.18v1.51H99.63V32.37l0-.19-0.12-.12a0.53,0.53,0,0,0-.22,0,0.62,0.62,0,0,0-.28.07,1.68,1.68,0,0,0-.28.17v1.52H98.32v-2h0.34V32A1.52,1.52,0,0,1,99,31.77a0.77,0.77,0,0,1,.34-0.07,0.66,0.66,0,0,1,.35.09,0.55,0.55,0,0,1,.22.24,1.66,1.66,0,0,1,.38-0.25,0.89,0.89,0,0,1,.36-0.08,0.59,0.59,0,0,1,.5.2,0.9,0.9,0,0,1,.16.57v1.32Z"/></svg>